STARTFONT 2.1
FONT -Adobe-Utopia-Bold-R-Normal--15-140-75-75-P-82-ISO8859-1
SIZE 14 75 75
FONTBOUNDINGBOX 20 15 -2 -3
STARTPROPERTIES 29
FOUNDRY "Adobe"
FAMILY_NAME "Utopia"
WEIGHT_NAME "Bold"
SLANT "R"
SETWIDTH_NAME "Normal"
ADD_STYLE_NAME ""
PIXEL_SIZE 15
POINT_SIZE 140
RESOLUTION_X 75
RESOLUTION_Y 75
SPACING "P"
AVERAGE_WIDTH 82
CHARSET_REGISTRY "ISO8859"
CHARSET_ENCODING "1"
CAP_HEIGHT 10
X_HEIGHT 7
RELATIVE_SETWIDTH 50
RELATIVE_WEIGHT 70
WEIGHT 218
FACE_NAME "Utopia Bold"
COPYRIGHT "Copyright (c) 1989, 1991 Adobe Systems Incorporated.  All rights reserved."
NOTICE "Utopia is a registered trademark of Adobe Systems Incorporated."
DESTINATION 0
FONT_ASCENT 12
FONT_DESCENT 3
DEFAULT_CHAR 32
_ADOBE_PSFONT "Utopia-Bold"
_ADOBE_XFONT "-Adobe-Utopia-Bold-R-Normal--15-140-75-75-P-82-ISO8859-1"
_DEC_DEVICE_FONTNAMES "PS=Utopia-Bold"
ENDPROPERTIES
CHARS 229
STARTCHAR atilde
ENCODING 227
SWIDTH 544 0
DWIDTH 8 0
BBX 7 10 0 0
BITMAP
34
58
00
78
DC
1C
7C
DC
DC
7E
ENDCHAR
STARTCHAR eacute
ENCODING 233
SWIDTH 519 0
DWIDTH 7 0
BBX 6 10 0 0
BITMAP
18
30
00
38
6C
FC
E0
E0
64
3C
ENDCHAR
STARTCHAR Ccedilla
ENCODING 199
SWIDTH 689 0
DWIDTH 10 0
BBX 9 13 0 -3
BITMAP
1F00
7180
6080
E000
E000
E000
E000
6080
7180
1F00
0800
0400
1C00
ENDCHAR
STARTCHAR edieresis
ENCODING 235
SWIDTH 519 0
DWIDTH 7 0
BBX 6 10 0 0
BITMAP
D8
D8
00
38
6C
FC
E0
E0
64
3C
ENDCHAR
STARTCHAR germandbls
ENCODING 223
SWIDTH 662 0
DWIDTH 10 0
BBX 10 11 0 0
BITMAP
1E00
3300
7300
7200
7600
7700
7780
73C0
71C0
7580
F700
ENDCHAR
STARTCHAR oe
ENCODING -1
SWIDTH 866 0
DWIDTH 13 0
BBX 11 7 1 0
BITMAP
39C0
6760
E7E0
E700
E700
6720
39E0
ENDCHAR
STARTCHAR oslash
ENCODING 248
SWIDTH 585 0
DWIDTH 9 0
BBX 8 7 0 0
BITMAP
3D
66
EF
F7
E7
66
BC
ENDCHAR
STARTCHAR lslash
ENCODING -1
SWIDTH 321 0
DWIDTH 5 0
BBX 5 11 0 0
BITMAP
F0
70
70
70
78
70
F0
70
70
70
F8
ENDCHAR
STARTCHAR yacute
ENCODING 253
SWIDTH 524 0
DWIDTH 7 0
BBX 8 13 -1 -3
BITMAP
0C
18
00
F7
72
72
3C
3C
18
18
10
F0
60
ENDCHAR
STARTCHAR icircumflex
ENCODING 238
SWIDTH 316 0
DWIDTH 5 0
BBX 5 10 0 0
BITMAP
60
B0
00
F0
70
70
70
70
70
F8
ENDCHAR
STARTCHAR dotlessi
ENCODING -1
SWIDTH 316 0
DWIDTH 5 0
BBX 5 7 0 0
BITMAP
F0
70
70
70
70
70
F8
ENDCHAR
STARTCHAR ydieresis
ENCODING 255
SWIDTH 524 0
DWIDTH 7 0
BBX 8 13 -1 -3
BITMAP
6C
6C
00
F7
72
72
3C
3C
18
18
10
F0
60
ENDCHAR
STARTCHAR iacute
ENCODING 237
SWIDTH 316 0
DWIDTH 5 0
BBX 5 10 0 0
BITMAP
30
60
00
F0
70
70
70
70
70
F8
ENDCHAR
STARTCHAR ccedilla
ENCODING 231
SWIDTH 494 0
DWIDTH 7 0
BBX 6 10 0 -3
BITMAP
3C
6C
E4
E0
E0
64
3C
20
10
70
ENDCHAR
STARTCHAR ae
ENCODING 230
SWIDTH 806 0
DWIDTH 12 0
BBX 9 7 1 0
BITMAP
7B00
DD80
1F80
7C00
DC00
DC80
7B80
ENDCHAR
STARTCHAR agrave
ENCODING 224
SWIDTH 544 0
DWIDTH 8 0
BBX 7 10 0 0
BITMAP
60
30
00
78
DC
1C
7C
DC
DC
7E
ENDCHAR
STARTCHAR egrave
ENCODING 232
SWIDTH 519 0
DWIDTH 7 0
BBX 6 10 0 0
BITMAP
60
30
00
38
6C
FC
E0
E0
64
3C
ENDCHAR
STARTCHAR aacute
ENCODING 225
SWIDTH 544 0
DWIDTH 8 0
BBX 7 10 0 0
BITMAP
18
30
00
78
DC
1C
7C
DC
DC
7E
ENDCHAR
STARTCHAR adieresis
ENCODING 228
SWIDTH 544 0
DWIDTH 8 0
BBX 7 10 0 0
BITMAP
6C
6C
00
78
DC
1C
7C
DC
DC
7E
ENDCHAR
STARTCHAR aring
ENCODING 229
SWIDTH 544 0
DWIDTH 8 0
BBX 7 11 0 0
BITMAP
30
48
30
00
78
DC
1C
7C
DC
DC
7E
ENDCHAR
STARTCHAR ordmasculine
ENCODING 186
SWIDTH 427 0
DWIDTH 6 0
BBX 5 5 0 4
BITMAP
70
D8
D8
D8
70
ENDCHAR
STARTCHAR OE
ENCODING -1
SWIDTH 1049 0
DWIDTH 15 0
BBX 14 10 0 0
BITMAP
1FFC
73C4
61C4
E1C8
E1F8
E1C8
E1C0
61C4
73C4
1FFC
ENDCHAR
STARTCHAR Oslash
ENCODING 216
SWIDTH 768 0
DWIDTH 11 0
BBX 10 10 0 0
BITMAP
1E80
7380
6380
E5C0
E5C0
E9C0
E9C0
7180
7380
5E00
ENDCHAR
STARTCHAR Lslash
ENCODING -1
SWIDTH 591 0
DWIDTH 9 0
BBX 8 10 0 0
BITMAP
F8
70
74
78
70
70
F0
71
71
FF
ENDCHAR
STARTCHAR acircumflex
ENCODING 226
SWIDTH 544 0
DWIDTH 8 0
BBX 7 10 0 0
BITMAP
30
58
00
78
DC
1C
7C
DC
DC
7E
ENDCHAR
STARTCHAR scaron
ENCODING -1
SWIDTH 446 0
DWIDTH 7 0
BBX 6 10 0 0
BITMAP
68
30
00
7C
E4
F0
78
3C
9C
F8
ENDCHAR
STARTCHAR ecircumflex
ENCODING 234
SWIDTH 519 0
DWIDTH 7 0
BBX 6 10 0 0
BITMAP
30
58
00
38
6C
FC
E0
E0
64
3C
ENDCHAR
STARTCHAR odieresis
ENCODING 246
SWIDTH 585 0
DWIDTH 9 0
BBX 8 10 0 0
BITMAP
6C
6C
00
3C
66
E7
E7
E7
66
3C
ENDCHAR
STARTCHAR ordfeminine
ENCODING 170
SWIDTH 405 0
DWIDTH 6 0
BBX 6 5 0 4
BITMAP
70
D8
78
D8
7C
ENDCHAR
STARTCHAR ntilde
ENCODING 241
SWIDTH 638 0
DWIDTH 10 0
BBX 10 10 0 0
BITMAP
1A00
2C00
0000
F700
7B80
7380
7380
7380
7380
FBC0
ENDCHAR
STARTCHAR AE
ENCODING 198
SWIDTH 879 0
DWIDTH 13 0
BBX 13 10 -1 0
BITMAP
0FF8
0788
0B88
0B90
13F0
1F90
2380
2388
4388
E7F8
ENDCHAR
STARTCHAR idieresis
ENCODING 239
SWIDTH 316 0
DWIDTH 5 0
BBX 5 10 0 0
BITMAP
D8
D8
00
F0
70
70
70
70
70
F8
ENDCHAR
STARTCHAR igrave
ENCODING 236
SWIDTH 316 0
DWIDTH 5 0
BBX 5 10 0 0
BITMAP
60
30
00
F0
70
70
70
70
70
F8
ENDCHAR
STARTCHAR uacute
ENCODING 250
SWIDTH 629 0
DWIDTH 10 0
BBX 10 10 0 0
BITMAP
0C00
1800
0000
F780
7380
7380
7380
7380
7780
3BC0
ENDCHAR
STARTCHAR ucircumflex
ENCODING 251
SWIDTH 629 0
DWIDTH 10 0
BBX 10 10 0 0
BITMAP
0C00
1600
0000
F780
7380
7380
7380
7380
7780
3BC0
ENDCHAR
STARTCHAR ocircumflex
ENCODING 244
SWIDTH 585 0
DWIDTH 9 0
BBX 8 10 0 0
BITMAP
18
2C
00
3C
66
E7
E7
E7
66
3C
ENDCHAR
STARTCHAR oacute
ENCODING 243
SWIDTH 585 0
DWIDTH 9 0
BBX 8 10 0 0
BITMAP
18
30
00
3C
66
E7
E7
E7
66
3C
ENDCHAR
STARTCHAR ograve
ENCODING 242
SWIDTH 585 0
DWIDTH 9 0
BBX 8 10 0 0
BITMAP
30
18
00
3C
66
E7
E7
E7
66
3C
ENDCHAR
STARTCHAR udieresis
ENCODING 252
SWIDTH 629 0
DWIDTH 10 0
BBX 10 10 0 0
BITMAP
3600
3600
0000
F780
7380
7380
7380
7380
7780
3BC0
ENDCHAR
STARTCHAR ugrave
ENCODING 249
SWIDTH 629 0
DWIDTH 10 0
BBX 10 10 0 0
BITMAP
1800
0C00
0000
F780
7380
7380
7380
7380
7780
3BC0
ENDCHAR
STARTCHAR otilde
ENCODING 245
SWIDTH 585 0
DWIDTH 9 0
BBX 8 10 0 0
BITMAP
34
58
00
3C
66
E7
E7
E7
66
3C
ENDCHAR
STARTCHAR zcaron
ENCODING -1
SWIDTH 483 0
DWIDTH 7 0
BBX 7 10 0 0
BITMAP
68
30
00
FE
DC
9C
38
72
76
FE
ENDCHAR
STARTCHAR eth
ENCODING 240
SWIDTH 585 0
DWIDTH 9 0
BBX 8 11 0 0
BITMAP
6C
38
38
6C
3E
67
E7
E7
E7
66
3C
ENDCHAR
STARTCHAR logicalnot
ENCODING 172
SWIDTH 600 0
DWIDTH 9 0
BBX 7 4 1 2
BITMAP
FE
06
06
06
ENDCHAR
STARTCHAR onesuperior
ENCODING 185
SWIDTH 402 0
DWIDTH 6 0
BBX 4 6 1 4
BITMAP
60
E0
60
60
60
F0
ENDCHAR
STARTCHAR threequarters
ENCODING 190
SWIDTH 900 0
DWIDTH 13 0
BBX 12 10 0 0
BITMAP
E100
B100
6200
3200
B4C0
E4C0
09A0
0960
13F0
1060
ENDCHAR
STARTCHAR multiply
ENCODING 215
SWIDTH 600 0
DWIDTH 9 0
BBX 8 7 0 0
BITMAP
C3
66
3C
18
3C
66
C3
ENDCHAR
STARTCHAR emdash
ENCODING -1
SWIDTH 1000 0
DWIDTH 14 0
BBX 14 1 0 3
BITMAP
FFFC
ENDCHAR
STARTCHAR caron
ENCODING -1
SWIDTH 430 0
DWIDTH 6 0
BBX 4 2 1 8
BITMAP
D0
60
ENDCHAR
STARTCHAR ogonek
ENCODING -1
SWIDTH 430 0
DWIDTH 6 0
BBX 3 3 1 -3
BITMAP
40
80
E0
ENDCHAR
STARTCHAR hungarumlaut
ENCODING -1
SWIDTH 430 0
DWIDTH 6 0
BBX 6 2 0 8
BITMAP
6C
D8
ENDCHAR
STARTCHAR onehalf
ENCODING 189
SWIDTH 900 0
DWIDTH 13 0
BBX 12 10 0 0
BITMAP
6080
E080
6100
6100
6260
F2B0
0430
0460
08C0
08F0
ENDCHAR
STARTCHAR cedilla
ENCODING 184
SWIDTH 430 0
DWIDTH 6 0
BBX 3 3 1 -3
BITMAP
40
20
E0
ENDCHAR
STARTCHAR ring
ENCODING -1
SWIDTH 430 0
DWIDTH 6 0
BBX 4 3 0 8
BITMAP
60
90
60
ENDCHAR
STARTCHAR plusminus
ENCODING 177
SWIDTH 600 0
DWIDTH 9 0
BBX 8 8 0 0
BITMAP
18
18
18
FF
18
18
18
FF
ENDCHAR
STARTCHAR dieresis
ENCODING 168
SWIDTH 430 0
DWIDTH 6 0
BBX 5 2 1 8
BITMAP
D8
D8
ENDCHAR
STARTCHAR dotaccent
ENCODING -1
SWIDTH 430 0
DWIDTH 6 0
BBX 2 2 2 8
BITMAP
C0
C0
ENDCHAR
STARTCHAR breve
ENCODING -1
SWIDTH 430 0
DWIDTH 6 0
BBX 5 2 0 8
BITMAP
88
70
ENDCHAR
STARTCHAR macron
ENCODING 175
SWIDTH 430 0
DWIDTH 6 0
BBX 5 1 0 8
BITMAP
F8
ENDCHAR
STARTCHAR tilde
ENCODING -1
SWIDTH 430 0
DWIDTH 6 0
BBX 5 2 0 8
BITMAP
68
B0
ENDCHAR
STARTCHAR circumflex
ENCODING -1
SWIDTH 430 0
DWIDTH 6 0
BBX 4 2 1 8
BITMAP
60
B0
ENDCHAR
STARTCHAR acute
ENCODING 180
SWIDTH 430 0
DWIDTH 6 0
BBX 3 2 1 8
BITMAP
60
C0
ENDCHAR
STARTCHAR grave
ENCODING -1
SWIDTH 430 0
DWIDTH 6 0
BBX 3 2 1 8
BITMAP
C0
60
ENDCHAR
STARTCHAR Thorn
ENCODING 222
SWIDTH 640 0
DWIDTH 9 0
BBX 9 10 0 0
BITMAP
F800
7000
7F00
7380
7380
7380
7F00
7000
7000
F800
ENDCHAR
STARTCHAR questiondown
ENCODING 191
SWIDTH 456 0
DWIDTH 7 0
BBX 5 10 1 -3
BITMAP
30
30
00
70
30
20
40
D8
D8
70
ENDCHAR
STARTCHAR minus
ENCODING 45
SWIDTH 600 0
DWIDTH 9 0
BBX 8 1 0 3
BITMAP
FF
ENDCHAR
STARTCHAR perthousand
ENCODING -1
SWIDTH 1289 0
DWIDTH 19 0
BBX 17 10 1 0
BITMAP
708000
DF8000
D90000
DA0000
740000
05C700
0B6D80
136D80
236D80
21C700
ENDCHAR
STARTCHAR ellipsis
ENCODING -1
SWIDTH 1000 0
DWIDTH 15 0
BBX 12 2 1 0
BITMAP
C630
C630
ENDCHAR
STARTCHAR guillemotright
ENCODING 187
SWIDTH 487 0
DWIDTH 7 0
BBX 7 6 0 0
BITMAP
D8
6C
36
36
6C
D8
ENDCHAR
STARTCHAR quotedblright
ENCODING -1
SWIDTH 473 0
DWIDTH 7 0
BBX 6 4 0 6
BITMAP
6C
6C
48
90
ENDCHAR
STARTCHAR quotedblbase
ENCODING -1
SWIDTH 473 0
DWIDTH 7 0
BBX 6 4 0 -2
BITMAP
6C
6C
48
90
ENDCHAR
STARTCHAR quotesinglbase
ENCODING -1
SWIDTH 252 0
DWIDTH 4 0
BBX 3 4 0 -2
BITMAP
60
60
40
80
ENDCHAR
STARTCHAR bullet
ENCODING -1
SWIDTH 455 0
DWIDTH 7 0
BBX 5 5 1 3
BITMAP
70
F8
F8
F8
70
ENDCHAR
STARTCHAR paragraph
ENCODING 182
SWIDTH 552 0
DWIDTH 8 0
BBX 7 12 0 -2
BITMAP
76
F4
F4
F4
F4
74
04
04
04
04
04
1C
ENDCHAR
STARTCHAR onequarter
ENCODING 188
SWIDTH 900 0
DWIDTH 13 0
BBX 12 10 0 0
BITMAP
6100
E100
6200
6200
64C0
F4C0
09A0
0960
13F0
1060
ENDCHAR
STARTCHAR periodcentered
ENCODING 183
SWIDTH 280 0
DWIDTH 4 0
BBX 2 2 1 3
BITMAP
C0
C0
ENDCHAR
STARTCHAR daggerdbl
ENCODING -1
SWIDTH 486 0
DWIDTH 7 0
BBX 6 12 0 -2
BITMAP
30
30
30
FC
30
30
30
30
FC
30
30
30
ENDCHAR
STARTCHAR dagger
ENCODING -1
SWIDTH 510 0
DWIDTH 7 0
BBX 6 12 0 -2
BITMAP
30
30
30
FC
30
30
30
30
30
30
30
30
ENDCHAR
STARTCHAR endash
ENCODING -1
SWIDTH 500 0
DWIDTH 7 0
BBX 7 1 0 3
BITMAP
FE
ENDCHAR
STARTCHAR threesuperior
ENCODING 179
SWIDTH 402 0
DWIDTH 6 0
BBX 4 6 1 4
BITMAP
E0
B0
60
30
B0
E0
ENDCHAR
STARTCHAR fl
ENCODING -1
SWIDTH 639 0
DWIDTH 9 0
BBX 10 11 0 0
BITMAP
3D80
6780
6380
7380
FB80
7380
7380
7380
7380
7380
FBC0
ENDCHAR
STARTCHAR fi
ENCODING -1
SWIDTH 639 0
DWIDTH 9 0
BBX 9 11 0 0
BITMAP
3E00
6700
6200
7000
FF00
7700
7700
7700
7700
7700
F780
ENDCHAR
STARTCHAR guilsinglright
ENCODING -1
SWIDTH 287 0
DWIDTH 4 0
BBX 4 6 0 0
BITMAP
C0
60
30
30
60
C0
ENDCHAR
STARTCHAR guilsinglleft
ENCODING -1
SWIDTH 287 0
DWIDTH 4 0
BBX 4 6 0 0
BITMAP
30
60
C0
C0
60
30
ENDCHAR
STARTCHAR guillemotleft
ENCODING 171
SWIDTH 487 0
DWIDTH 7 0
BBX 7 6 0 0
BITMAP
36
6C
D8
D8
6C
36
ENDCHAR
STARTCHAR quotedblleft
ENCODING -1
SWIDTH 473 0
DWIDTH 7 0
BBX 6 4 0 6
BITMAP
24
48
D8
D8
ENDCHAR
STARTCHAR quotesingle
ENCODING -1
SWIDTH 252 0
DWIDTH 4 0
BBX 2 5 1 5
BITMAP
C0
C0
C0
80
80
ENDCHAR
STARTCHAR currency
ENCODING 164
SWIDTH 560 0
DWIDTH 8 0
BBX 7 9 0 1
BITMAP
C6
7C
C6
82
82
82
C6
7C
C6
ENDCHAR
STARTCHAR section
ENCODING 167
SWIDTH 566 0
DWIDTH 8 0
BBX 7 12 0 -2
BITMAP
38
6C
60
70
BC
CE
E6
7A
1C
0C
6C
38
ENDCHAR
STARTCHAR florin
ENCODING -1
SWIDTH 560 0
DWIDTH 8 0
BBX 8 12 0 -2
BITMAP
07
0D
1C
1C
7F
1C
38
38
38
38
B0
E0
ENDCHAR
STARTCHAR yen
ENCODING 165
SWIDTH 560 0
DWIDTH 8 0
BBX 9 10 -1 0
BITMAP
FB80
7100
3A00
3A00
7F00
1C00
7F00
1C00
1C00
3E00
ENDCHAR
STARTCHAR fraction
ENCODING -1
SWIDTH 100 0
DWIDTH 1 0
BBX 5 10 -2 0
BITMAP
08
08
10
10
20
20
40
40
80
80
ENDCHAR
STARTCHAR sterling
ENCODING 163
SWIDTH 560 0
DWIDTH 8 0
BBX 7 10 0 0
BITMAP
7C
EE
E6
E0
70
FE
70
62
FE
FE
ENDCHAR
STARTCHAR cent
ENCODING 162
SWIDTH 560 0
DWIDTH 8 0
BBX 7 9 0 1
BITMAP
08
3C
6E
EE
E8
E8
7A
3C
08
ENDCHAR
STARTCHAR exclamdown
ENCODING 161
SWIDTH 278 0
DWIDTH 4 0
BBX 2 10 1 -3
BITMAP
C0
C0
00
C0
C0
C0
C0
C0
C0
C0
ENDCHAR
STARTCHAR registered
ENCODING 174
SWIDTH 800 0
DWIDTH 12 0
BBX 10 10 1 0
BITMAP
1E00
6180
DCC0
9240
9640
9C40
9640
D2C0
6180
1E00
ENDCHAR
STARTCHAR degree
ENCODING 176
SWIDTH 396 0
DWIDTH 6 0
BBX 4 4 1 6
BITMAP
60
90
90
60
ENDCHAR
STARTCHAR twosuperior
ENCODING 178
SWIDTH 402 0
DWIDTH 6 0
BBX 4 6 1 4
BITMAP
60
B0
30
60
C0
F0
ENDCHAR
STARTCHAR mu
ENCODING 181
SWIDTH 629 0
DWIDTH 10 0
BBX 10 10 0 -3
BITMAP
F780
7380
7380
7380
7380
7780
7BC0
6000
7000
7000
ENDCHAR
STARTCHAR brokenbar
ENCODING 166
SWIDTH 284 0
DWIDTH 4 0
BBX 2 10 1 0
BITMAP
C0
C0
C0
C0
00
00
C0
C0
C0
C0
ENDCHAR
STARTCHAR thorn
ENCODING 254
SWIDTH 609 0
DWIDTH 9 0
BBX 9 13 0 -3
BITMAP
F000
7000
7000
7600
7B00
7380
7380
7380
7300
7E00
7000
7000
F800
ENDCHAR
STARTCHAR trademark
ENCODING -1
SWIDTH 1090 0
DWIDTH 16 0
BBX 15 6 0 4
BITMAP
FF8E
B5DC
31DC
316C
316C
7B8E
ENDCHAR
STARTCHAR Eth
ENCODING 208
SWIDTH 783 0
DWIDTH 11 0
BBX 10 10 0 0
BITMAP
FE00
7380
7180
71C0
FDC0
71C0
71C0
7180
7380
FE00
ENDCHAR
STARTCHAR copyright
ENCODING 169
SWIDTH 800 0
DWIDTH 12 0
BBX 10 10 1 0
BITMAP
1E00
6180
DEC0
B240
A040
A040
B240
DCC0
6180
1E00
ENDCHAR
STARTCHAR divide
ENCODING 247
SWIDTH 600 0
DWIDTH 9 0
BBX 8 7 0 0
BITMAP
18
18
00
FF
00
18
18
ENDCHAR
STARTCHAR Otilde
ENCODING 213
SWIDTH 768 0
DWIDTH 11 0
BBX 10 12 0 0
BITMAP
1A00
2C00
0000
1E00
7380
6180
E1C0
E1C0
E1C0
6180
7380
1E00
ENDCHAR
STARTCHAR Icircumflex
ENCODING 206
SWIDTH 384 0
DWIDTH 6 0
BBX 5 12 0 0
BITMAP
60
B0
00
F8
70
70
70
70
70
70
70
F8
ENDCHAR
STARTCHAR Ucircumflex
ENCODING 219
SWIDTH 786 0
DWIDTH 12 0
BBX 11 12 0 0
BITMAP
0C00
1600
0000
FBE0
71C0
71C0
71C0
71C0
71C0
71C0
3180
1F00
ENDCHAR
STARTCHAR Eacute
ENCODING 201
SWIDTH 629 0
DWIDTH 9 0
BBX 8 12 0 0
BITMAP
0C
18
00
FF
71
70
72
7E
72
70
71
FF
ENDCHAR
STARTCHAR Yacute
ENCODING 221
SWIDTH 617 0
DWIDTH 9 0
BBX 9 12 0 0
BITMAP
0600
0C00
0000
FB80
7100
7100
3A00
3A00
1C00
1C00
1C00
3E00
ENDCHAR
STARTCHAR Scaron
ENCODING -1
SWIDTH 561 0
DWIDTH 8 0
BBX 7 12 0 0
BITMAP
68
30
00
7C
E6
E0
F0
7C
1E
0E
CE
7C
ENDCHAR
STARTCHAR Oacute
ENCODING 211
SWIDTH 768 0
DWIDTH 11 0
BBX 10 12 0 0
BITMAP
0600
0C00
0000
1E00
7380
6180
E1C0
E1C0
E1C0
6180
7380
1E00
ENDCHAR
STARTCHAR Atilde
ENCODING 195
SWIDTH 644 0
DWIDTH 9 0
BBX 10 12 -1 0
BITMAP
1A00
2C00
0000
0C00
0C00
1E00
1E00
2700
3F00
4380
4380
E7C0
ENDCHAR
STARTCHAR Aacute
ENCODING 193
SWIDTH 644 0
DWIDTH 9 0
BBX 10 12 -1 0
BITMAP
0600
0C00
0000
0C00
0C00
1E00
1E00
2700
3F00
4380
4380
E7C0
ENDCHAR
STARTCHAR Ugrave
ENCODING 217
SWIDTH 786 0
DWIDTH 12 0
BBX 11 12 0 0
BITMAP
0C00
0600
0000
FBE0
71C0
71C0
71C0
71C0
71C0
71C0
3180
1F00
ENDCHAR
STARTCHAR Idieresis
ENCODING 207
SWIDTH 384 0
DWIDTH 6 0
BBX 5 12 0 0
BITMAP
D8
D8
00
F8
70
70
70
70
70
70
70
F8
ENDCHAR
STARTCHAR Ocircumflex
ENCODING 212
SWIDTH 768 0
DWIDTH 11 0
BBX 10 12 0 0
BITMAP
0C00
1600
0000
1E00
7380
6180
E1C0
E1C0
E1C0
6180
7380
1E00
ENDCHAR
STARTCHAR Egrave
ENCODING 200
SWIDTH 629 0
DWIDTH 9 0
BBX 8 12 0 0
BITMAP
30
18
00
FF
71
70
72
7E
72
70
71
FF
ENDCHAR
STARTCHAR Udieresis
ENCODING 220
SWIDTH 786 0
DWIDTH 12 0
BBX 11 12 0 0
BITMAP
1B00
1B00
0000
FBE0
71C0
71C0
71C0
71C0
71C0
71C0
3180
1F00
ENDCHAR
STARTCHAR Agrave
ENCODING 192
SWIDTH 644 0
DWIDTH 9 0
BBX 10 12 -1 0
BITMAP
1800
0C00
0000
0C00
0C00
1E00
1E00
2700
3F00
4380
4380
E7C0
ENDCHAR
STARTCHAR Uacute
ENCODING 218
SWIDTH 786 0
DWIDTH 12 0
BBX 11 12 0 0
BITMAP
0600
0C00
0000
FBE0
71C0
71C0
71C0
71C0
71C0
71C0
3180
1F00
ENDCHAR
STARTCHAR Acircumflex
ENCODING 194
SWIDTH 644 0
DWIDTH 9 0
BBX 10 12 -1 0
BITMAP
0C00
1600
0000
0C00
0C00
1E00
1E00
2700
3F00
4380
4380
E7C0
ENDCHAR
STARTCHAR Ydieresis
ENCODING -1
SWIDTH 617 0
DWIDTH 9 0
BBX 9 12 0 0
BITMAP
3600
3600
0000
FB80
7100
7100
3A00
3A00
1C00
1C00
1C00
3E00
ENDCHAR
STARTCHAR Odieresis
ENCODING 214
SWIDTH 768 0
DWIDTH 11 0
BBX 10 12 0 0
BITMAP
3600
3600
0000
1E00
7380
6180
E1C0
E1C0
E1C0
6180
7380
1E00
ENDCHAR
STARTCHAR Adieresis
ENCODING 196
SWIDTH 644 0
DWIDTH 9 0
BBX 10 12 -1 0
BITMAP
3600
3600
0000
0C00
0C00
1E00
1E00
2700
3F00
4380
4380
E7C0
ENDCHAR
STARTCHAR Aring
ENCODING 197
SWIDTH 644 0
DWIDTH 9 0
BBX 10 12 -1 0
BITMAP
0C00
1200
0C00
0C00
0C00
1E00
1E00
2700
3F00
4380
4380
E7C0
ENDCHAR
STARTCHAR Ograve
ENCODING 210
SWIDTH 768 0
DWIDTH 11 0
BBX 10 12 0 0
BITMAP
1800
0C00
0000
1E00
7380
6180
E1C0
E1C0
E1C0
6180
7380
1E00
ENDCHAR
STARTCHAR Ntilde
ENCODING 209
SWIDTH 739 0
DWIDTH 11 0
BBX 10 12 0 0
BITMAP
1A00
2C00
0000
F1C0
7880
7880
5C80
5E80
4E80
4780
4780
E380
ENDCHAR
STARTCHAR Iacute
ENCODING 205
SWIDTH 384 0
DWIDTH 6 0
BBX 5 12 0 0
BITMAP
30
60
00
F8
70
70
70
70
70
70
70
F8
ENDCHAR
STARTCHAR asciitilde
ENCODING 126
SWIDTH 600 0
DWIDTH 8 0
BBX 8 3 0 3
BITMAP
31
7E
8C
ENDCHAR
STARTCHAR braceright
ENCODING 125
SWIDTH 365 0
DWIDTH 5 0
BBX 4 12 0 -2
BITMAP
C0
60
60
60
60
30
60
60
60
60
60
C0
ENDCHAR
STARTCHAR bar
ENCODING 124
SWIDTH 284 0
DWIDTH 4 0
BBX 2 10 1 0
BITMAP
C0
C0
C0
C0
C0
C0
C0
C0
C0
C0
ENDCHAR
STARTCHAR braceleft
ENCODING 123
SWIDTH 365 0
DWIDTH 5 0
BBX 4 12 0 -2
BITMAP
30
60
60
60
60
C0
60
60
60
60
60
30
ENDCHAR
STARTCHAR z
ENCODING 122
SWIDTH 483 0
DWIDTH 7 0
BBX 7 7 0 0
BITMAP
FE
DC
9C
38
72
76
FE
ENDCHAR
STARTCHAR y
ENCODING 121
SWIDTH 524 0
DWIDTH 8 0
BBX 8 10 0 -3
BITMAP
F7
72
72
3C
3C
18
18
10
F0
60
ENDCHAR
STARTCHAR x
ENCODING 120
SWIDTH 522 0
DWIDTH 8 0
BBX 8 7 0 0
BITMAP
F7
72
3C
3C
3C
4E
EF
ENDCHAR
STARTCHAR w
ENCODING 119
SWIDTH 774 0
DWIDTH 11 0
BBX 12 7 -1 0
BITMAP
F370
7320
77A0
77A0
39C0
39C0
39C0
ENDCHAR
STARTCHAR v
ENCODING 118
SWIDTH 520 0
DWIDTH 7 0
BBX 8 7 -1 0
BITMAP
F7
72
72
3C
3C
18
18
ENDCHAR
STARTCHAR u
ENCODING 117
SWIDTH 629 0
DWIDTH 10 0
BBX 10 7 0 0
BITMAP
F780
7380
7380
7380
7380
7780
3BC0
ENDCHAR
STARTCHAR t
ENCODING 116
SWIDTH 370 0
DWIDTH 5 0
BBX 5 9 0 0
BITMAP
30
70
F8
70
70
70
70
70
38
ENDCHAR
STARTCHAR s
ENCODING 115
SWIDTH 446 0
DWIDTH 7 0
BBX 6 7 0 0
BITMAP
7C
E4
F0
78
3C
9C
F8
ENDCHAR
STARTCHAR r
ENCODING 114
SWIDTH 440 0
DWIDTH 6 0
BBX 6 7 0 0
BITMAP
EC
7C
70
70
70
70
F8
ENDCHAR
STARTCHAR q
ENCODING 113
SWIDTH 597 0
DWIDTH 9 0
BBX 9 11 0 -3
BITMAP
0100
3B00
6700
E700
E700
E700
6700
3F00
0700
0700
0F80
ENDCHAR
STARTCHAR p
ENCODING 112
SWIDTH 615 0
DWIDTH 9 0
BBX 9 10 0 -3
BITMAP
F600
7B00
7380
7380
7380
7300
7E00
7000
7000
F800
ENDCHAR
STARTCHAR o
ENCODING 111
SWIDTH 585 0
DWIDTH 9 0
BBX 8 7 0 0
BITMAP
3C
66
E7
E7
E7
66
3C
ENDCHAR
STARTCHAR n
ENCODING 110
SWIDTH 638 0
DWIDTH 10 0
BBX 10 7 0 0
BITMAP
F700
7B80
7380
7380
7380
7380
FBC0
ENDCHAR
STARTCHAR m
ENCODING 109
SWIDTH 948 0
DWIDTH 15 0
BBX 15 7 0 0
BITMAP
F738
7BDC
739C
739C
739C
739C
FBDE
ENDCHAR
STARTCHAR l
ENCODING 108
SWIDTH 309 0
DWIDTH 5 0
BBX 5 11 0 0
BITMAP
F0
70
70
70
70
70
70
70
70
70
F8
ENDCHAR
STARTCHAR k
ENCODING 107
SWIDTH 582 0
DWIDTH 9 0
BBX 9 11 0 0
BITMAP
F000
7000
7000
7000
7700
7600
7C00
7C00
7E00
7700
F380
ENDCHAR
STARTCHAR j
ENCODING 106
SWIDTH 316 0
DWIDTH 5 0
BBX 4 14 0 -3
BITMAP
60
F0
60
00
F0
70
70
70
70
70
70
70
70
E0
ENDCHAR
STARTCHAR i
ENCODING 105
SWIDTH 316 0
DWIDTH 5 0
BBX 5 11 0 0
BITMAP
60
F0
60
00
F0
70
70
70
70
70
F8
ENDCHAR
STARTCHAR h
ENCODING 104
SWIDTH 631 0
DWIDTH 10 0
BBX 10 11 0 0
BITMAP
F000
7000
7000
7000
7700
7B80
7380
7380
7380
7380
FBC0
ENDCHAR
STARTCHAR g
ENCODING 103
SWIDTH 533 0
DWIDTH 8 0
BBX 8 10 0 -3
BITMAP
7F
EE
EE
EC
78
30
7E
CF
E7
7E
ENDCHAR
STARTCHAR f
ENCODING 102
SWIDTH 342 0
DWIDTH 5 0
BBX 6 11 0 0
BITMAP
38
6C
6C
70
F8
70
70
70
70
70
F8
ENDCHAR
STARTCHAR e
ENCODING 101
SWIDTH 519 0
DWIDTH 7 0
BBX 6 7 0 0
BITMAP
38
6C
FC
E0
E0
64
3C
ENDCHAR
STARTCHAR d
ENCODING 100
SWIDTH 605 0
DWIDTH 9 0
BBX 9 11 0 0
BITMAP
0F00
0700
0700
0700
3700
6F00
E700
E700
E700
6700
3F80
ENDCHAR
STARTCHAR c
ENCODING 99
SWIDTH 494 0
DWIDTH 7 0
BBX 6 7 0 0
BITMAP
3C
6C
E4
E0
E0
64
3C
ENDCHAR
STARTCHAR b
ENCODING 98
SWIDTH 605 0
DWIDTH 9 0
BBX 9 11 0 0
BITMAP
F000
7000
7000
7000
7600
7B00
7380
7380
7380
7300
7E00
ENDCHAR
STARTCHAR a
ENCODING 97
SWIDTH 544 0
DWIDTH 8 0
BBX 7 7 1 0
BITMAP
78
DC
1C
7C
DC
DC
7E
ENDCHAR
STARTCHAR quoteleft
ENCODING 96
SWIDTH 252 0
DWIDTH 4 0
BBX 3 4 0 6
BITMAP
20
40
C0
C0
ENDCHAR
STARTCHAR underscore
ENCODING 95
SWIDTH 500 0
DWIDTH 7 0
BBX 7 1 0 -2
BITMAP
FE
ENDCHAR
STARTCHAR asciicircum
ENCODING 94
SWIDTH 600 0
DWIDTH 9 0
BBX 7 8 1 2
BITMAP
10
10
28
28
44
44
82
82
ENDCHAR
STARTCHAR bracketright
ENCODING 93
SWIDTH 335 0
DWIDTH 5 0
BBX 3 12 0 -2
BITMAP
E0
60
60
60
60
60
60
60
60
60
60
E0
ENDCHAR
STARTCHAR backslash
ENCODING 92
SWIDTH 379 0
DWIDTH 5 0
BBX 4 11 0 -1
BITMAP
80
80
80
40
40
40
20
20
20
10
10
ENDCHAR
STARTCHAR bracketleft
ENCODING 91
SWIDTH 335 0
DWIDTH 5 0
BBX 3 12 1 -2
BITMAP
E0
C0
C0
C0
C0
C0
C0
C0
C0
C0
C0
E0
ENDCHAR
STARTCHAR Z
ENCODING 90
SWIDTH 614 0
DWIDTH 9 0
BBX 8 10 0 0
BITMAP
FF
87
8E
1C
1C
38
38
71
E1
FF
ENDCHAR
STARTCHAR Y
ENCODING 89
SWIDTH 617 0
DWIDTH 9 0
BBX 9 10 0 0
BITMAP
FB80
7100
7100
3A00
3A00
1C00
1C00
1C00
1C00
3E00
ENDCHAR
STARTCHAR X
ENCODING 88
SWIDTH 634 0
DWIDTH 9 0
BBX 9 10 0 0
BITMAP
FB80
7100
3A00
3A00
1C00
1C00
2E00
2E00
4700
EF80
ENDCHAR
STARTCHAR W
ENCODING 87
SWIDTH 933 0
DWIDTH 14 0
BBX 15 10 -1 0
BITMAP
F9CE
71C4
71C4
3AE4
3AE8
3AE8
3AE8
1C70
1C70
1C70
ENDCHAR
STARTCHAR V
ENCODING 86
SWIDTH 645 0
DWIDTH 9 0
BBX 10 10 -1 0
BITMAP
F9C0
7080
7080
3900
3900
3900
1E00
1E00
0C00
0C00
ENDCHAR
STARTCHAR U
ENCODING 85
SWIDTH 786 0
DWIDTH 12 0
BBX 11 10 0 0
BITMAP
FBE0
71C0
71C0
71C0
71C0
71C0
71C0
71C0
3180
1F00
ENDCHAR
STARTCHAR T
ENCODING 84
SWIDTH 624 0
DWIDTH 9 0
BBX 9 10 0 0
BITMAP
FF80
9C80
9C80
1C00
1C00
1C00
1C00
1C00
1C00
3E00
ENDCHAR
STARTCHAR S
ENCODING 83
SWIDTH 561 0
DWIDTH 8 0
BBX 7 10 0 0
BITMAP
7C
E6
E2
F0
7C
1E
0E
8E
CE
7C
ENDCHAR
STARTCHAR R
ENCODING 82
SWIDTH 684 0
DWIDTH 10 0
BBX 10 10 0 0
BITMAP
FF00
7380
7380
7300
7E00
7700
7700
7380
7380
FBC0
ENDCHAR
STARTCHAR Q
ENCODING 81
SWIDTH 768 0
DWIDTH 11 0
BBX 10 13 0 -3
BITMAP
1E00
7380
6180
E1C0
E1C0
E1C0
E1C0
6180
7380
1E00
0600
0700
03C0
ENDCHAR
STARTCHAR P
ENCODING 80
SWIDTH 650 0
DWIDTH 9 0
BBX 9 10 0 0
BITMAP
FF00
7380
7380
7380
7380
7F00
7000
7000
7000
F800
ENDCHAR
STARTCHAR O
ENCODING 79
SWIDTH 768 0
DWIDTH 11 0
BBX 10 10 0 0
BITMAP
1E00
7380
6180
E1C0
E1C0
E1C0
E1C0
6180
7380
1E00
ENDCHAR
STARTCHAR N
ENCODING 78
SWIDTH 739 0
DWIDTH 11 0
BBX 10 10 0 0
BITMAP
F1C0
7880
7880
5C80
5C80
4E80
4E80
4780
4780
E380
ENDCHAR
STARTCHAR M
ENCODING 77
SWIDTH 918 0
DWIDTH 13 0
BBX 13 10 0 0
BITMAP
F078
7070
78F0
78F0
5D70
5D70
4E70
4E70
4470
E0F8
ENDCHAR
STARTCHAR L
ENCODING 76
SWIDTH 585 0
DWIDTH 9 0
BBX 8 10 0 0
BITMAP
F8
70
70
70
70
70
70
71
71
FF
ENDCHAR
STARTCHAR K
ENCODING 75
SWIDTH 707 0
DWIDTH 10 0
BBX 10 10 0 0
BITMAP
FBC0
7180
7300
7600
7C00
7E00
7700
7300
7380
F9C0
ENDCHAR
STARTCHAR J
ENCODING 74
SWIDTH 386 0
DWIDTH 6 0
BBX 5 12 0 -2
BITMAP
F8
70
70
70
70
70
70
70
70
70
60
C0
ENDCHAR
STARTCHAR I
ENCODING 73
SWIDTH 384 0
DWIDTH 6 0
BBX 5 10 0 0
BITMAP
F8
70
70
70
70
70
70
70
70
F8
ENDCHAR
STARTCHAR H
ENCODING 72
SWIDTH 807 0
DWIDTH 12 0
BBX 11 10 0 0
BITMAP
FBE0
71C0
71C0
71C0
7FC0
71C0
71C0
71C0
71C0
FBE0
ENDCHAR
STARTCHAR G
ENCODING 71
SWIDTH 726 0
DWIDTH 10 0
BBX 10 10 0 0
BITMAP
1F00
7180
6080
E000
E000
E000
E7C0
6380
7380
1F00
ENDCHAR
STARTCHAR F
ENCODING 70
SWIDTH 593 0
DWIDTH 9 0
BBX 8 10 0 0
BITMAP
FF
71
70
72
7E
72
70
70
70
F8
ENDCHAR
STARTCHAR E
ENCODING 69
SWIDTH 629 0
DWIDTH 9 0
BBX 8 10 0 0
BITMAP
FF
71
70
72
7E
72
70
71
71
FF
ENDCHAR
STARTCHAR D
ENCODING 68
SWIDTH 777 0
DWIDTH 11 0
BBX 10 10 0 0
BITMAP
FE00
7380
7180
71C0
71C0
71C0
71C0
7180
7380
FE00
ENDCHAR
STARTCHAR C
ENCODING 67
SWIDTH 689 0
DWIDTH 10 0
BBX 9 10 0 0
BITMAP
1F00
7180
6080
E000
E000
E000
E000
6080
7180
1F00
ENDCHAR
STARTCHAR B
ENCODING 66
SWIDTH 683 0
DWIDTH 10 0
BBX 9 10 0 0
BITMAP
FF00
7380
7380
7380
7F00
7380
7380
7380
7380
FF00
ENDCHAR
STARTCHAR A
ENCODING 65
SWIDTH 644 0
DWIDTH 9 0
BBX 10 10 -1 0
BITMAP
0C00
0C00
1E00
1E00
2700
2700
3F00
4380
4380
E7C0
ENDCHAR
STARTCHAR at
ENCODING 64
SWIDTH 833 0
DWIDTH 13 0
BBX 12 10 0 0
BITMAP
0FC0
3020
6790
CD90
D990
DB10
DB20
CDC0
6000
1F80
ENDCHAR
STARTCHAR question
ENCODING 63
SWIDTH 456 0
DWIDTH 7 0
BBX 5 10 1 0
BITMAP
70
D8
D8
10
20
60
70
00
60
60
ENDCHAR
STARTCHAR greater
ENCODING 62
SWIDTH 600 0
DWIDTH 9 0
BBX 8 7 0 0
BITMAP
C0
30
0C
03
0C
30
C0
ENDCHAR
STARTCHAR equal
ENCODING 61
SWIDTH 600 0
DWIDTH 9 0
BBX 7 4 1 2
BITMAP
FE
00
00
FE
ENDCHAR
STARTCHAR less
ENCODING 60
SWIDTH 600 0
DWIDTH 9 0
BBX 8 7 0 0
BITMAP
03
0C
30
C0
30
0C
03
ENDCHAR
STARTCHAR semicolon
ENCODING 59
SWIDTH 280 0
DWIDTH 4 0
BBX 3 9 0 -2
BITMAP
60
60
00
00
00
60
60
40
80
ENDCHAR
STARTCHAR colon
ENCODING 58
SWIDTH 280 0
DWIDTH 4 0
BBX 2 7 1 0
BITMAP
C0
C0
00
00
00
C0
C0
ENDCHAR
STARTCHAR nine
ENCODING 57
SWIDTH 560 0
DWIDTH 8 0
BBX 7 10 0 0
BITMAP
78
EC
EE
EE
EE
7E
0E
CE
EC
78
ENDCHAR
STARTCHAR eight
ENCODING 56
SWIDTH 560 0
DWIDTH 8 0
BBX 7 10 0 0
BITMAP
7C
EE
EE
EE
7C
EE
EE
EE
EE
7C
ENDCHAR
STARTCHAR seven
ENCODING 55
SWIDTH 560 0
DWIDTH 8 0
BBX 7 10 0 0
BITMAP
FE
FE
0C
0C
18
18
38
30
70
70
ENDCHAR
STARTCHAR six
ENCODING 54
SWIDTH 560 0
DWIDTH 8 0
BBX 7 10 0 0
BITMAP
3C
6E
E6
E0
FC
EE
EE
EE
6E
3C
ENDCHAR
STARTCHAR five
ENCODING 53
SWIDTH 560 0
DWIDTH 8 0
BBX 7 10 0 0
BITMAP
FE
FC
C0
FC
9E
0E
0E
CE
EE
7C
ENDCHAR
STARTCHAR four
ENCODING 52
SWIDTH 560 0
DWIDTH 8 0
BBX 7 10 0 0
BITMAP
38
38
30
64
6C
5C
9C
FE
1C
3E
ENDCHAR
STARTCHAR three
ENCODING 51
SWIDTH 560 0
DWIDTH 8 0
BBX 7 10 0 0
BITMAP
7C
EE
CE
0E
3C
0E
0E
CE
EE
7C
ENDCHAR
STARTCHAR two
ENCODING 50
SWIDTH 560 0
DWIDTH 8 0
BBX 7 10 0 0
BITMAP
7C
EE
CE
0E
1C
38
60
E2
FE
FE
ENDCHAR
STARTCHAR one
ENCODING 49
SWIDTH 560 0
DWIDTH 8 0
BBX 5 10 1 0
BITMAP
70
F0
70
70
70
70
70
70
70
F8
ENDCHAR
STARTCHAR zero
ENCODING 48
SWIDTH 560 0
DWIDTH 8 0
BBX 7 10 0 0
BITMAP
38
6C
EE
EE
EE
EE
EE
EE
6C
38
ENDCHAR
STARTCHAR slash
ENCODING 47
SWIDTH 378 0
DWIDTH 5 0
BBX 4 11 0 -1
BITMAP
10
10
10
20
20
20
40
40
40
80
80
ENDCHAR
STARTCHAR period
ENCODING 46
SWIDTH 280 0
DWIDTH 4 0
BBX 2 2 1 0
BITMAP
C0
C0
ENDCHAR
STARTCHAR hyphen
ENCODING 173
SWIDTH 392 0
DWIDTH 6 0
BBX 4 1 1 3
BITMAP
F0
ENDCHAR
STARTCHAR comma
ENCODING 44
SWIDTH 280 0
DWIDTH 4 0
BBX 3 4 0 -2
BITMAP
60
60
40
80
ENDCHAR
STARTCHAR plus
ENCODING 43
SWIDTH 600 0
DWIDTH 9 0
BBX 8 7 0 0
BITMAP
18
18
18
FF
18
18
18
ENDCHAR
STARTCHAR asterisk
ENCODING 42
SWIDTH 442 0
DWIDTH 6 0
BBX 5 5 0 5
BITMAP
20
A8
70
A8
20
ENDCHAR
STARTCHAR parenright
ENCODING 41
SWIDTH 365 0
DWIDTH 5 0
BBX 4 12 0 -2
BITMAP
C0
60
60
30
30
30
30
30
30
60
60
C0
ENDCHAR
STARTCHAR parenleft
ENCODING 40
SWIDTH 365 0
DWIDTH 5 0
BBX 4 12 0 -2
BITMAP
30
60
60
C0
C0
C0
C0
C0
C0
60
60
30
ENDCHAR
STARTCHAR quoteright
ENCODING 39
SWIDTH 252 0
DWIDTH 4 0
BBX 3 4 0 6
BITMAP
60
60
40
80
ENDCHAR
STARTCHAR ampersand
ENCODING 38
SWIDTH 748 0
DWIDTH 11 0
BBX 10 10 0 0
BITMAP
1E00
3300
3300
1A00
3CC0
6CC0
E680
E700
7380
3DC0
ENDCHAR
STARTCHAR percent
ENCODING 37
SWIDTH 887 0
DWIDTH 13 0
BBX 11 10 1 0
BITMAP
7080
DF80
D900
DA00
7400
05C0
0B60
1360
2360
21C0
ENDCHAR
STARTCHAR dollar
ENCODING 36
SWIDTH 560 0
DWIDTH 8 0
BBX 7 12 0 -1
BITMAP
10
7C
DE
D6
F0
FC
7E
1E
D6
F6
7C
10
ENDCHAR
STARTCHAR numbersign
ENCODING 35
SWIDTH 560 0
DWIDTH 8 0
BBX 8 9 0 1
BITMAP
36
36
7F
36
6C
6C
FE
6C
6C
ENDCHAR
STARTCHAR quotedbl
ENCODING 34
SWIDTH 473 0
DWIDTH 7 0
BBX 5 5 1 5
BITMAP
D8
D8
D8
90
90
ENDCHAR
STARTCHAR exclam
ENCODING 33
SWIDTH 278 0
DWIDTH 4 0
BBX 2 10 1 0
BITMAP
C0
C0
C0
C0
C0
C0
C0
00
C0
C0
ENDCHAR
STARTCHAR space
ENCODING 32
SWIDTH 210 0
DWIDTH 3 0
BBX 0 0 0 0
BITMAP
ENDCHAR
STARTCHAR space
ENCODING 160
SWIDTH 210 0
DWIDTH 3 0
BBX 0 0 0 0
BITMAP
ENDCHAR
STARTCHAR Zcaron
ENCODING -1
SWIDTH 614 0
DWIDTH 9 0
BBX 8 12 0 0
BITMAP
34
18
00
FF
8F
8E
1C
38
38
71
F1
FF
ENDCHAR
STARTCHAR Ecircumflex
ENCODING 202
SWIDTH 629 0
DWIDTH 9 0
BBX 8 12 0 0
BITMAP
18
2C
00
FF
71
70
72
7E
72
70
71
FF
ENDCHAR
STARTCHAR Edieresis
ENCODING 203
SWIDTH 629 0
DWIDTH 9 0
BBX 8 12 0 0
BITMAP
6C
6C
00
FF
71
70
72
7E
72
70
71
FF
ENDCHAR
STARTCHAR Igrave
ENCODING 204
SWIDTH 384 0
DWIDTH 6 0
BBX 5 12 0 0
BITMAP
60
30
00
F8
70
70
70
70
70
70
70
F8
ENDCHAR
ENDFONT
