<?xml version="1.0" encoding="iso-8859-1"?>
<!-- Generator: Adobe Illustrator 8.0, SVG Export Plug-In 1.0x56 -->
<!DOCTYPE svg PUBLIC "-//W3C//DTD SVG December 1999//EN" "http://www.w3.org/Graphics/SVG/SVG-19991203.dtd" [
	<!ENTITY st0 "stroke:#000000;stroke-width:2.8346;">
	<!ENTITY st1 "stroke:#FFFFFF;stroke-width:2.8346;">
	<!ENTITY st2 "fill:none;stroke:#000000;stroke-width:2.8346;stroke-linecap:round;stroke-linejoin:round;stroke-miterlimit:4;">
	<!ENTITY st3 "fill-rule:nonzero;fill:#0086B3;stroke:#000000;stroke-width:2.8346;stroke-linecap:round;stroke-linejoin:round;stroke-miterlimit:4;">
]>
<svg xml:space="preserve" width="300.471" height="45.354">
<g id="Layer_x0020_1">
	<path style="&st3;" d="M299.054,22.677c0,11.692-10.205,21.26-22.677,21.26H24.095c-12.473,0-22.677-9.567-22.677-21.26c0-11.693,10.205-21.26,22.677-21.26h252.282c12.472,0,22.677,9.566,22.677,21.26z"/>
	<g style="&st2;">
		<g>
			<path d="M77.384,16.441H54.708c-3.118,0-5.669,2.551-5.669,5.669v2.835c0,3.118,2.551,5.669,5.669,5.669h22.677"/>
			<path style="&st1;" d="M75.684,14.741H53.007c-3.118,0-5.669,2.551-5.669,5.669v2.835c0,3.118,2.551,5.669,5.669,5.669h22.677"/>
		</g>
		<g>
			<path d="M90.14,16.441c-3.117,0-5.669,2.551-5.669,5.669v2.835c0,3.118,2.552,5.669,5.669,5.669h17.008c3.119,0,5.67-2.551,5.67-5.669V22.11c0-3.118-2.551-5.669-5.67-5.669H90.14z"/>
			<path style="&st1;" d="M88.439,14.741c-3.117,0-5.669,2.551-5.669,5.669v2.835c0,3.118,2.552,5.669,5.669,5.669h17.008c3.119,0,5.67-2.551,5.67-5.669V20.41c0-3.118-2.551-5.669-5.67-5.669H88.439z"/>
		</g>
		<g>
			<path d="M161.007,16.441c-3.118,0-5.67,2.551-5.67,5.669v2.835c0,3.118,2.552,5.669,5.67,5.669h17.009c3.117,0,5.669-2.551,5.669-5.669V22.11c0-3.118-2.552-5.669-5.669-5.669h-17.009z"/>
			<path style="&st1;" d="M159.306,14.741c-3.118,0-5.67,2.551-5.67,5.669v2.835c0,3.118,2.552,5.669,5.67,5.669h17.009c3.117,0,5.669-2.551,5.669-5.669V20.41c0-3.118-2.552-5.669-5.669-5.669h-17.009z"/>
		</g>
		<g>
			<path d="M196.44,16.441c-3.119,0-5.67,2.551-5.67,5.669v2.835c0,3.118,2.551,5.669,5.67,5.669h17.008c3.117,0,5.668-2.551,5.668-5.669V22.11c0-3.118-2.551-5.669-5.668-5.669H196.44z"/>
			<path style="&st1;" d="M194.739,14.741c-3.119,0-5.67,2.551-5.67,5.669v2.835c0,3.118,2.551,5.669,5.67,5.669h17.008c3.117,0,5.668-2.551,5.668-5.669V20.41c0-3.118-2.551-5.669-5.668-5.669h-17.008z"/>
		</g>
		<g>
			<path d="M148.25,16.441h-22.677c-3.117,0-5.669,2.551-5.669,5.669v2.835c0,3.118,2.552,5.669,5.669,5.669h22.677"/>
			<path style="&st1;" d="M146.55,14.741h-22.677c-3.117,0-5.669,2.551-5.669,5.669v2.835c0,3.118,2.552,5.669,5.669,5.669h22.677"/>
		</g>
		<g>
			<path d="M253.134,30.614V22.11c0-3.118-2.551-5.669-5.67-5.669h-21.26v14.173"/>
			<path style="&st1;" d="M251.433,28.914V20.41c0-3.118-2.551-5.669-5.67-5.669h-21.26v14.173"/>
		</g>
		<g>
			<path d="M176.598,23.527z"/>
			<path style="&st1;" d="M174.896,21.827z"/>
		</g>
		<g>
			<path d="M197.856,23.527z"/>
			<path style="&st1;" d="M196.155,21.827z"/>
		</g>
		<g>
			<path d="M105.731,23.527z"/>
			<path style="&st1;" d="M104.03,21.827z"/>
		</g>
	</g>
</g><!-- Layer_x0020_1 -->
</svg>
