STARTFONT 2.1
COMMENT Copyright (C) 1990-1991 EWT Consulting
COMMENT Portions Copyright (C) 1994-1995 Cronyx Ltd.
COMMENT Changes Copyright (C) 1996 by Andrey A. Chernov, Moscow, Russia.
COMMENT Modified by Serge Vakulenko, <vak@cronyx.ru>
COMMENT This software may be used, modified, copied, distributed, and sold,
COMMENT in both source and binary form provided that the copyright
COMMENT and these terms are retained. Under no circumstances is the author
COMMENT responsible for the proper functioning of this software, nor does
COMMENT the author assume any responsibility for damages incurred with its use.
COMMENT $XFree86: xc/fonts/bdf/cyrillic/crox3to.bdf,v 3.2 1996/09/01 12:18:24 dawes Exp $
FONT -Cronyx-Times-Medium-I-Normal--17-120-100-100-P-64-KOI8-R
SIZE 12 96 96
FONTBOUNDINGBOX 24 19 -1 -4
STARTPROPERTIES 19
DEFAULT_CHAR 32
FONT_ASCENT 15
FONT_DESCENT 4
SPACING "P"
FONTNAME_REGISTRY ""
FOUNDRY "Cronyx"
FAMILY_NAME "Times"
WEIGHT_NAME "Medium"
SLANT "I"
SETWIDTH_NAME "Normal"
ADD_STYLE_NAME ""
AVERAGE_WIDTH 64
CHARSET_REGISTRY "KOI8"
CHARSET_ENCODING "R"
PIXEL_SIZE 17
POINT_SIZE 120
RESOLUTION_X 100
RESOLUTION_Y 100
COPYRIGHT "Copyright (C) 1990, 1991 EWT Consulting, Portions Copyright (C) 1994 Cronyx Ltd., Portions Copyright (C) 1996 by Andrey A. Chernov, Moscow, Russia."
ENDPROPERTIES
CHARS 224
STARTCHAR space
ENCODING 32
SWIDTH 210 0
DWIDTH 4 0
BBX 10 19 -1 -4
BITMAP
0000
0000
0000
0000
0000
0000
0000
0000
0000
0000
0000
0000
0000
0000
0000
0000
0000
0000
0000
ENDCHAR
STARTCHAR exclam
ENCODING 33
SWIDTH 210 0
DWIDTH 4 0
BBX 10 19 -1 -4
BITMAP
0000
0000
0000
0000
0200
0200
0200
0400
0400
0400
0800
0800
0000
1000
1000
0000
0000
0000
0000
ENDCHAR
STARTCHAR quotedbl
ENCODING 34
SWIDTH 315 0
DWIDTH 6 0
BBX 12 19 -1 -4
BITMAP
0000
0000
0000
0000
0240
0240
0240
0480
0000
0000
0000
0000
0000
0000
0000
0000
0000
0000
0000
ENDCHAR
STARTCHAR numbersign
ENCODING 35
SWIDTH 421 0
DWIDTH 8 0
BBX 14 19 -1 -4
BITMAP
0000
0000
0000
0000
0090
0090
0090
07F0
0240
0240
0480
1FC0
0900
1200
1200
0000
0000
0000
0000
ENDCHAR
STARTCHAR dollar
ENCODING 36
SWIDTH 421 0
DWIDTH 8 0
BBX 14 19 -1 -4
BITMAP
0000
0000
0020
0020
01D0
0270
0250
0480
0280
0180
0180
0140
0940
1A80
1700
0200
0400
0000
0000
ENDCHAR
STARTCHAR percent
ENCODING 37
SWIDTH 684 0
DWIDTH 13 0
BBX 19 19 -1 -4
BITMAP
000000
000000
000000
000000
018080
027F00
024200
048800
031000
002000
008C00
011200
021200
082400
101800
000000
000000
000000
000000
ENDCHAR
STARTCHAR ampersand
ENCODING 38
SWIDTH 631 0
DWIDTH 12 0
BBX 18 19 -1 -4
BITMAP
000000
000000
000000
000000
00C000
012000
012000
024000
018000
018E00
048800
085000
082000
10A000
0F1000
000000
000000
000000
000000
ENDCHAR
STARTCHAR quoteright
ENCODING 39
SWIDTH 210 0
DWIDTH 4 0
BBX 10 19 -1 -4
BITMAP
0000
0000
0000
0000
0200
0200
0200
0400
0000
0000
0000
0000
0000
0000
0000
0000
0000
0000
0000
ENDCHAR
STARTCHAR parenleft
ENCODING 40
SWIDTH 263 0
DWIDTH 5 0
BBX 11 19 -1 -4
BITMAP
0000
0000
0000
0040
0080
0100
0100
0400
0400
0400
0800
0800
0800
1000
0800
0800
0800
0800
0000
ENDCHAR
STARTCHAR parenright
ENCODING 41
SWIDTH 263 0
DWIDTH 5 0
BBX 11 19 -1 -4
BITMAP
0000
0000
0000
0100
0200
0100
0100
0100
0100
0100
0200
0200
0200
0400
0800
0800
2000
2000
0000
ENDCHAR
STARTCHAR asterisk
ENCODING 42
SWIDTH 368 0
DWIDTH 7 0
BBX 13 19 -1 -4
BITMAP
0000
0000
0000
0000
0080
02A0
01C0
0380
0540
0100
0000
0000
0000
0000
0000
0000
0000
0000
0000
ENDCHAR
STARTCHAR plus
ENCODING 43
SWIDTH 473 0
DWIDTH 9 0
BBX 15 19 -1 -4
BITMAP
0000
0000
0000
0000
0000
0000
0040
0080
0080
07F0
0100
0100
0100
0000
0000
0000
0000
0000
0000
ENDCHAR
STARTCHAR comma
ENCODING 44
SWIDTH 210 0
DWIDTH 4 0
BBX 10 19 -1 -4
BITMAP
0000
0000
0000
0000
0000
0000
0000
0000
0000
0000
0000
0000
0000
1000
1000
2000
0000
0000
0000
ENDCHAR
STARTCHAR minus
ENCODING 45
SWIDTH 263 0
DWIDTH 5 0
BBX 11 19 -1 -4
BITMAP
0000
0000
0000
0000
0000
0000
0000
0000
0000
0F00
0000
0000
0000
0000
0000
0000
0000
0000
0000
ENDCHAR
STARTCHAR period
ENCODING 46
SWIDTH 210 0
DWIDTH 4 0
BBX 10 19 -1 -4
BITMAP
0000
0000
0000
0000
0000
0000
0000
0000
0000
0000
0000
0000
0000
1000
1000
0000
0000
0000
0000
ENDCHAR
STARTCHAR slash
ENCODING 47
SWIDTH 263 0
DWIDTH 5 0
BBX 11 19 -1 -4
BITMAP
0000
0000
0000
0000
0040
0040
0080
0100
0100
0200
0400
0800
0800
1000
2000
2000
0000
0000
0000
ENDCHAR
STARTCHAR zero
ENCODING 48
SWIDTH 421 0
DWIDTH 8 0
BBX 14 19 -1 -4
BITMAP
0000
0000
0000
0000
00C0
0120
0210
0420
0420
0420
0840
0840
0840
0900
0600
0000
0000
0000
0000
ENDCHAR
STARTCHAR one
ENCODING 49
SWIDTH 421 0
DWIDTH 8 0
BBX 14 19 -1 -4
BITMAP
0000
0000
0000
0000
0040
00C0
0140
0080
0080
0080
0100
0100
0100
0200
0F80
0000
0000
0000
0000
ENDCHAR
STARTCHAR two
ENCODING 50
SWIDTH 421 0
DWIDTH 8 0
BBX 14 19 -1 -4
BITMAP
0000
0000
0000
0000
01C0
0220
0010
0020
0020
0040
0100
0200
0400
1080
1F80
0000
0000
0000
0000
ENDCHAR
STARTCHAR three
ENCODING 51
SWIDTH 421 0
DWIDTH 8 0
BBX 14 19 -1 -4
BITMAP
0000
0000
0000
0000
01C0
0220
0010
0020
0040
0180
0080
0040
0040
1100
0E00
0000
0000
0000
0000
ENDCHAR
STARTCHAR four
ENCODING 52
SWIDTH 421 0
DWIDTH 8 0
BBX 14 19 -1 -4
BITMAP
0000
0000
0000
0000
0010
0030
0050
00A0
0120
0220
0440
0840
0FC0
0080
0080
0000
0000
0000
0000
ENDCHAR
STARTCHAR five
ENCODING 53
SWIDTH 421 0
DWIDTH 8 0
BBX 14 19 -1 -4
BITMAP
0000
0000
0000
0000
01F0
0100
0200
0400
0780
0040
0040
0040
0040
1100
0E00
0000
0000
0000
0000
ENDCHAR
STARTCHAR six
ENCODING 54
SWIDTH 421 0
DWIDTH 8 0
BBX 14 19 -1 -4
BITMAP
0000
0000
0000
0000
0030
00C0
0100
0200
05C0
0620
0840
0840
0840
1080
0F00
0000
0000
0000
0000
ENDCHAR
STARTCHAR seven
ENCODING 55
SWIDTH 421 0
DWIDTH 8 0
BBX 14 19 -1 -4
BITMAP
0000
0000
0000
0000
03F0
0210
0010
0040
0040
0040
0100
0100
0100
0400
0400
0000
0000
0000
0000
ENDCHAR
STARTCHAR eight
ENCODING 56
SWIDTH 421 0
DWIDTH 8 0
BBX 14 19 -1 -4
BITMAP
0000
0000
0000
0000
01E0
0210
0210
0420
0420
03C0
0840
0840
0840
1080
0F00
0000
0000
0000
0000
ENDCHAR
STARTCHAR nine
ENCODING 57
SWIDTH 421 0
DWIDTH 8 0
BBX 14 19 -1 -4
BITMAP
0000
0000
0000
0000
01E0
0210
0210
0420
0420
0460
0740
0080
0080
0600
1800
0000
0000
0000
0000
ENDCHAR
STARTCHAR colon
ENCODING 58
SWIDTH 210 0
DWIDTH 4 0
BBX 10 19 -1 -4
BITMAP
0000
0000
0000
0000
0000
0000
0000
0000
0400
0400
0000
0000
0000
1000
1000
0000
0000
0000
0000
ENDCHAR
STARTCHAR semicolon
ENCODING 59
SWIDTH 210 0
DWIDTH 4 0
BBX 10 19 -1 -4
BITMAP
0000
0000
0000
0000
0000
0000
0000
0000
0400
0400
0000
0000
0000
1000
1000
2000
0000
0000
0000
ENDCHAR
STARTCHAR less
ENCODING 60
SWIDTH 473 0
DWIDTH 9 0
BBX 15 19 -1 -4
BITMAP
0000
0000
0000
0000
0000
0000
0000
0010
0060
0180
0C00
0300
00C0
0040
0000
0000
0000
0000
0000
ENDCHAR
STARTCHAR equal
ENCODING 61
SWIDTH 473 0
DWIDTH 9 0
BBX 15 19 -1 -4
BITMAP
0000
0000
0000
0000
0000
0000
0000
0000
0000
07F0
0000
0FE0
0000
0000
0000
0000
0000
0000
0000
ENDCHAR
STARTCHAR greater
ENCODING 62
SWIDTH 473 0
DWIDTH 9 0
BBX 15 19 -1 -4
BITMAP
0000
0000
0000
0000
0000
0000
0000
0400
0300
00C0
0060
0180
0600
1000
0000
0000
0000
0000
0000
ENDCHAR
STARTCHAR question
ENCODING 63
SWIDTH 368 0
DWIDTH 7 0
BBX 13 19 -1 -4
BITMAP
0000
0000
0000
0000
01C0
0220
0020
0040
0080
0100
0200
0200
0000
0400
0400
0000
0000
0000
0000
ENDCHAR
STARTCHAR at
ENCODING 64
SWIDTH 789 0
DWIDTH 15 0
BBX 21 19 -1 -4
BITMAP
000000
000000
000000
000000
003E00
00C180
010040
020080
043A40
044440
088880
091080
091080
122200
11DC00
080000
181800
07E000
000000
ENDCHAR
STARTCHAR A
ENCODING 65
SWIDTH 578 0
DWIDTH 11 0
BBX 17 19 -1 -4
BITMAP
000000
000000
000000
000000
002000
002000
005000
00A000
011000
011000
041000
07F000
080800
101000
383800
000000
000000
000000
000000
ENDCHAR
STARTCHAR B
ENCODING 66
SWIDTH 578 0
DWIDTH 11 0
BBX 17 19 -1 -4
BITMAP
000000
000000
000000
000000
03F000
010800
010400
020800
021000
03F000
041000
040800
040800
082000
1FC000
000000
000000
000000
000000
ENDCHAR
STARTCHAR C
ENCODING 67
SWIDTH 578 0
DWIDTH 11 0
BBX 17 19 -1 -4
BITMAP
000000
000000
000000
000000
007A00
018600
010200
040000
040000
040000
080000
080000
040800
0C2000
03C000
000000
000000
000000
000000
ENDCHAR
STARTCHAR D
ENCODING 68
SWIDTH 631 0
DWIDTH 12 0
BBX 18 19 -1 -4
BITMAP
000000
000000
000000
000000
03F800
010600
010200
020200
020200
020200
040400
040400
040800
083000
1FC000
000000
000000
000000
000000
ENDCHAR
STARTCHAR E
ENCODING 69
SWIDTH 526 0
DWIDTH 10 0
BBX 16 19 -1 -4
BITMAP
0000
0000
0000
0000
03FC
0104
0100
0200
0220
03E0
0440
0400
0400
0820
1FE0
0000
0000
0000
0000
ENDCHAR
STARTCHAR F
ENCODING 70
SWIDTH 526 0
DWIDTH 10 0
BBX 16 19 -1 -4
BITMAP
0000
0000
0000
0000
03FC
0104
0100
0200
0220
03E0
0440
0400
0400
0800
1C00
0000
0000
0000
0000
ENDCHAR
STARTCHAR G
ENCODING 71
SWIDTH 631 0
DWIDTH 12 0
BBX 18 19 -1 -4
BITMAP
000000
000000
000000
000000
007A00
018600
010200
040000
040000
040F00
080400
080400
040800
0C3000
03C000
000000
000000
000000
000000
ENDCHAR
STARTCHAR H
ENCODING 72
SWIDTH 631 0
DWIDTH 12 0
BBX 18 19 -1 -4
BITMAP
000000
000000
000000
000000
038700
010200
010200
020400
020400
03FC00
040800
040800
040800
081000
1C3800
000000
000000
000000
000000
ENDCHAR
STARTCHAR I
ENCODING 73
SWIDTH 263 0
DWIDTH 5 0
BBX 11 19 -1 -4
BITMAP
0000
0000
0000
0000
0380
0100
0100
0200
0200
0200
0400
0400
0400
0800
1C00
0000
0000
0000
0000
ENDCHAR
STARTCHAR J
ENCODING 74
SWIDTH 368 0
DWIDTH 7 0
BBX 13 19 -1 -4
BITMAP
0000
0000
0000
0000
00E0
0040
0040
0080
0080
0080
0100
0100
0100
1200
0C00
0000
0000
0000
0000
ENDCHAR
STARTCHAR K
ENCODING 75
SWIDTH 578 0
DWIDTH 11 0
BBX 17 19 -1 -4
BITMAP
000000
000000
000000
000000
038E00
010400
010800
022000
024000
02C000
064000
042000
041000
081000
1C3800
000000
000000
000000
000000
ENDCHAR
STARTCHAR L
ENCODING 76
SWIDTH 526 0
DWIDTH 10 0
BBX 16 19 -1 -4
BITMAP
0000
0000
0000
0000
0380
0100
0100
0200
0200
0200
0400
0400
0400
0820
1FE0
0000
0000
0000
0000
ENDCHAR
STARTCHAR M
ENCODING 77
SWIDTH 789 0
DWIDTH 15 0
BBX 21 19 -1 -4
BITMAP
000000
000000
000000
000000
030060
0180C0
0180C0
028280
028280
024480
048900
045100
045100
084200
1C4700
000000
000000
000000
000000
ENDCHAR
STARTCHAR N
ENCODING 78
SWIDTH 631 0
DWIDTH 12 0
BBX 18 19 -1 -4
BITMAP
000000
000000
000000
000000
030700
018200
018200
028400
024400
024400
044800
042800
042800
083000
1C1000
000000
000000
000000
000000
ENDCHAR
STARTCHAR O
ENCODING 79
SWIDTH 631 0
DWIDTH 12 0
BBX 18 19 -1 -4
BITMAP
000000
000000
000000
000000
007800
018600
010200
040200
040200
040200
080400
080400
040800
0C3000
03C000
000000
000000
000000
000000
ENDCHAR
STARTCHAR P
ENCODING 80
SWIDTH 473 0
DWIDTH 9 0
BBX 15 19 -1 -4
BITMAP
0000
0000
0000
0000
03E0
0110
0108
0210
0220
03C0
0400
0400
0400
0800
1C00
0000
0000
0000
0000
ENDCHAR
STARTCHAR Q
ENCODING 81
SWIDTH 631 0
DWIDTH 12 0
BBX 18 19 -1 -4
BITMAP
000000
000000
000000
000000
007800
018600
010200
040200
040200
040200
080400
080400
040800
0C3000
03C000
00C000
00C000
000000
000000
ENDCHAR
STARTCHAR R
ENCODING 82
SWIDTH 526 0
DWIDTH 10 0
BBX 16 19 -1 -4
BITMAP
0000
0000
0000
0000
03E0
0110
0108
0210
0220
03C0
0480
0440
0420
0820
1C10
0000
0000
0000
0000
ENDCHAR
STARTCHAR S
ENCODING 83
SWIDTH 473 0
DWIDTH 9 0
BBX 15 19 -1 -4
BITMAP
0000
0000
0000
0000
00E8
0118
0208
0400
0200
01C0
0040
0020
0820
1880
1700
0000
0000
0000
0000
ENDCHAR
STARTCHAR T
ENCODING 84
SWIDTH 473 0
DWIDTH 9 0
BBX 15 19 -1 -4
BITMAP
0000
0000
0000
0000
07FC
0444
0040
0080
0080
0080
0100
0100
0100
0200
0700
0000
0000
0000
0000
ENDCHAR
STARTCHAR U
ENCODING 85
SWIDTH 631 0
DWIDTH 12 0
BBX 18 19 -1 -4
BITMAP
000000
000000
000000
000000
038700
010200
010200
020400
020400
020400
040800
040800
040800
042000
03C000
000000
000000
000000
000000
ENDCHAR
STARTCHAR V
ENCODING 86
SWIDTH 578 0
DWIDTH 11 0
BBX 17 19 -1 -4
BITMAP
000000
000000
000000
000000
070700
020200
020200
020800
020800
011000
022000
014000
014000
010000
010000
000000
000000
000000
000000
ENDCHAR
STARTCHAR W
ENCODING 87
SWIDTH 789 0
DWIDTH 15 0
BBX 21 19 -1 -4
BITMAP
000000
000000
000000
000000
077770
022220
022240
022880
022880
011100
022200
015400
015400
011000
011000
000000
000000
000000
000000
ENDCHAR
STARTCHAR X
ENCODING 88
SWIDTH 578 0
DWIDTH 11 0
BBX 17 19 -1 -4
BITMAP
000000
000000
000000
000000
070700
020200
010400
011000
00A000
004000
014000
022000
041000
101000
383800
000000
000000
000000
000000
ENDCHAR
STARTCHAR Y
ENCODING 89
SWIDTH 578 0
DWIDTH 11 0
BBX 17 19 -1 -4
BITMAP
000000
000000
000000
000000
070700
020200
010400
011000
00A000
004000
008000
008000
008000
010000
038000
000000
000000
000000
000000
ENDCHAR
STARTCHAR Z
ENCODING 90
SWIDTH 526 0
DWIDTH 10 0
BBX 16 19 -1 -4
BITMAP
0000
0000
0000
0000
03FC
0208
0010
0020
0040
0080
0200
0400
0400
1020
3FE0
0000
0000
0000
0000
ENDCHAR
STARTCHAR bracketleft
ENCODING 91
SWIDTH 263 0
DWIDTH 5 0
BBX 11 19 -1 -4
BITMAP
0000
0000
0000
01C0
0200
0200
0200
0400
0400
0400
0800
0800
0800
1000
1000
1000
2000
3800
0000
ENDCHAR
STARTCHAR backslash
ENCODING 92
SWIDTH 263 0
DWIDTH 5 0
BBX 11 19 -1 -4
BITMAP
0000
0000
0000
0000
0400
0400
0200
0400
0400
0200
0400
0200
0200
0400
0200
0200
0000
0000
0000
ENDCHAR
STARTCHAR bracketright
ENCODING 93
SWIDTH 263 0
DWIDTH 5 0
BBX 11 19 -1 -4
BITMAP
0000
0000
0000
01C0
0080
0080
0080
0100
0100
0100
0200
0200
0200
0400
0400
0400
0800
3800
0000
ENDCHAR
STARTCHAR asciicircum
ENCODING 94
SWIDTH 368 0
DWIDTH 7 0
BBX 13 19 -1 -4
BITMAP
0000
0000
0000
0040
0140
0220
0000
0000
0000
0000
0000
0000
0000
0000
0000
0000
0000
0000
0000
ENDCHAR
STARTCHAR underscore
ENCODING 95
SWIDTH 421 0
DWIDTH 8 0
BBX 14 19 -1 -4
BITMAP
0000
0000
0000
0000
0000
0000
0000
0000
0000
0000
0000
0000
0000
0000
0000
0000
0000
0000
7F80
ENDCHAR
STARTCHAR quoteleft
ENCODING 96
SWIDTH 263 0
DWIDTH 5 0
BBX 11 19 -1 -4
BITMAP
0000
0000
0000
0200
0200
0100
0000
0000
0000
0000
0000
0000
0000
0000
0000
0000
0000
0000
0000
ENDCHAR
STARTCHAR a
ENCODING 97
SWIDTH 315 0
DWIDTH 6 0
BBX 12 19 -1 -4
BITMAP
0000
0000
0000
0000
0000
0000
0000
0300
0480
0080
0700
0900
0900
1200
0D00
0000
0000
0000
0000
ENDCHAR
STARTCHAR b
ENCODING 98
SWIDTH 368 0
DWIDTH 7 0
BBX 13 19 -1 -4
BITMAP
0000
0000
0000
0180
0100
0100
0100
02C0
0320
0220
0440
0440
0440
0880
0700
0000
0000
0000
0000
ENDCHAR
STARTCHAR c
ENCODING 99
SWIDTH 315 0
DWIDTH 6 0
BBX 12 19 -1 -4
BITMAP
0000
0000
0000
0000
0000
0000
0000
0380
0440
0400
0800
0800
0800
1100
0E00
0000
0000
0000
0000
ENDCHAR
STARTCHAR d
ENCODING 100
SWIDTH 368 0
DWIDTH 7 0
BBX 13 19 -1 -4
BITMAP
0000
0000
0000
0030
0020
0020
0020
03C0
0440
0440
0880
0880
0880
1100
0F80
0000
0000
0000
0000
ENDCHAR
STARTCHAR e
ENCODING 101
SWIDTH 315 0
DWIDTH 6 0
BBX 12 19 -1 -4
BITMAP
0000
0000
0000
0000
0000
0000
0000
0380
0440
0440
0F80
0800
0800
1100
0E00
0000
0000
0000
0000
ENDCHAR
STARTCHAR f
ENCODING 102
SWIDTH 315 0
DWIDTH 6 0
BBX 12 19 -1 -4
BITMAP
0000
0000
0000
0060
0120
0100
0100
0700
0200
0200
0400
0400
0400
0800
1C00
0000
0000
0000
0000
ENDCHAR
STARTCHAR g
ENCODING 103
SWIDTH 421 0
DWIDTH 8 0
BBX 14 19 -1 -4
BITMAP
0000
0000
0000
0000
0000
0000
0000
03A0
0440
0440
0880
0880
0700
1000
1F00
2080
4080
4080
3F00
ENDCHAR
STARTCHAR h
ENCODING 104
SWIDTH 421 0
DWIDTH 8 0
BBX 14 19 -1 -4
BITMAP
0000
0000
0000
0180
0100
0100
0100
02C0
0320
0220
0440
0440
0440
0880
1DC0
0000
0000
0000
0000
ENDCHAR
STARTCHAR i
ENCODING 105
SWIDTH 210 0
DWIDTH 4 0
BBX 10 19 -1 -4
BITMAP
0000
0000
0000
0000
0100
0000
0000
0600
0200
0200
0400
0400
0400
0800
1C00
0000
0000
0000
0000
ENDCHAR
STARTCHAR j
ENCODING 106
SWIDTH 157 0
DWIDTH 3 0
BBX 9 19 -1 -4
BITMAP
0000
0000
0000
0000
0100
0000
0000
0600
0200
0200
0400
0400
0400
0800
0800
0800
1000
1000
2000
ENDCHAR
STARTCHAR k
ENCODING 107
SWIDTH 473 0
DWIDTH 9 0
BBX 15 19 -1 -4
BITMAP
0000
0000
0000
0180
0100
0100
0100
0270
0220
0240
0500
0680
0440
0840
1CE0
0000
0000
0000
0000
ENDCHAR
STARTCHAR l
ENCODING 108
SWIDTH 210 0
DWIDTH 4 0
BBX 10 19 -1 -4
BITMAP
0000
0000
0000
0180
0100
0100
0100
0200
0200
0200
0400
0400
0400
0800
1C00
0000
0000
0000
0000
ENDCHAR
STARTCHAR m
ENCODING 109
SWIDTH 631 0
DWIDTH 12 0
BBX 18 19 -1 -4
BITMAP
000000
000000
000000
000000
000000
000000
000000
06CC00
033200
022200
044400
044400
044400
088800
1DDC00
000000
000000
000000
000000
ENDCHAR
STARTCHAR n
ENCODING 110
SWIDTH 421 0
DWIDTH 8 0
BBX 14 19 -1 -4
BITMAP
0000
0000
0000
0000
0000
0000
0000
06C0
0320
0220
0440
0440
0440
0880
1DC0
0000
0000
0000
0000
ENDCHAR
STARTCHAR o
ENCODING 111
SWIDTH 315 0
DWIDTH 6 0
BBX 12 19 -1 -4
BITMAP
0000
0000
0000
0000
0000
0000
0000
0380
0440
0440
0880
0880
0880
1100
0E00
0000
0000
0000
0000
ENDCHAR
STARTCHAR p
ENCODING 112
SWIDTH 368 0
DWIDTH 7 0
BBX 13 19 -1 -4
BITMAP
0000
0000
0000
0000
0000
0000
0000
06C0
0320
0220
0440
0440
0440
0880
0F00
0800
1000
1000
3800
ENDCHAR
STARTCHAR q
ENCODING 113
SWIDTH 368 0
DWIDTH 7 0
BBX 13 19 -1 -4
BITMAP
0000
0000
0000
0000
0000
0000
0000
0340
04C0
0440
0880
0880
0880
1100
0F00
0100
0200
0200
0700
ENDCHAR
STARTCHAR r
ENCODING 114
SWIDTH 263 0
DWIDTH 5 0
BBX 11 19 -1 -4
BITMAP
0000
0000
0000
0000
0000
0000
0000
0680
0300
0200
0400
0400
0400
0800
1C00
0000
0000
0000
0000
ENDCHAR
STARTCHAR s
ENCODING 115
SWIDTH 210 0
DWIDTH 4 0
BBX 10 19 -1 -4
BITMAP
0000
0000
0000
0000
0000
0000
0000
0300
0400
0400
0400
0200
0200
0400
1800
0000
0000
0000
0000
ENDCHAR
STARTCHAR t
ENCODING 116
SWIDTH 263 0
DWIDTH 5 0
BBX 11 19 -1 -4
BITMAP
0000
0000
0000
0000
0000
0100
0100
0700
0200
0200
0400
0400
0400
0A00
0400
0000
0000
0000
0000
ENDCHAR
STARTCHAR u
ENCODING 117
SWIDTH 421 0
DWIDTH 8 0
BBX 14 19 -1 -4
BITMAP
0000
0000
0000
0000
0000
0000
0000
0660
0220
0220
0440
0440
0440
0980
06C0
0000
0000
0000
0000
ENDCHAR
STARTCHAR v
ENCODING 118
SWIDTH 421 0
DWIDTH 8 0
BBX 14 19 -1 -4
BITMAP
0000
0000
0000
0000
0000
0000
0000
0770
0220
0220
0280
0280
0280
0200
0200
0000
0000
0000
0000
ENDCHAR
STARTCHAR w
ENCODING 119
SWIDTH 631 0
DWIDTH 12 0
BBX 18 19 -1 -4
BITMAP
000000
000000
000000
000000
000000
000000
000000
077700
022200
022200
02A800
02A800
02A800
022000
022000
000000
000000
000000
000000
ENDCHAR
STARTCHAR x
ENCODING 120
SWIDTH 421 0
DWIDTH 8 0
BBX 14 19 -1 -4
BITMAP
0000
0000
0000
0000
0000
0000
0000
0630
0220
0140
0100
0100
0280
0880
18C0
0000
0000
0000
0000
ENDCHAR
STARTCHAR y
ENCODING 121
SWIDTH 421 0
DWIDTH 8 0
BBX 14 19 -1 -4
BITMAP
0000
0000
0000
0000
0000
0000
0000
0770
0220
0220
0280
0280
0280
0200
0200
0400
0800
2800
3000
ENDCHAR
STARTCHAR z
ENCODING 122
SWIDTH 368 0
DWIDTH 7 0
BBX 13 19 -1 -4
BITMAP
0000
0000
0000
0000
0000
0000
0000
07E0
0440
0080
0100
0200
0200
0880
1F80
0000
0000
0000
0000
ENDCHAR
STARTCHAR braceleft
ENCODING 123
SWIDTH 368 0
DWIDTH 7 0
BBX 13 19 -1 -4
BITMAP
0000
0000
0000
0030
0080
0080
0080
0100
0100
0100
0C00
0200
0200
0400
0400
0400
0800
0600
0000
ENDCHAR
STARTCHAR bar
ENCODING 124
SWIDTH 157 0
DWIDTH 3 0
BBX 9 19 -1 -4
BITMAP
0000
0000
0000
0000
0200
0200
0200
0400
0400
0400
0800
0800
0800
1000
1000
1000
0000
0000
0000
ENDCHAR
STARTCHAR braceright
ENCODING 125
SWIDTH 368 0
DWIDTH 7 0
BBX 13 19 -1 -4
BITMAP
0000
0000
0000
0180
0080
0080
0080
0100
0100
0100
0180
0200
0200
0400
0400
0400
0800
3000
0000
ENDCHAR
STARTCHAR asciitilde
ENCODING 126
SWIDTH 473 0
DWIDTH 9 0
BBX 15 19 -1 -4
BITMAP
0000
0000
0000
00C0
0248
0030
0000
0000
0000
0000
0000
0000
0000
0000
0000
0000
0000
0000
0000
ENDCHAR
STARTCHAR C177
ENCODING -1
SWIDTH 263 0
DWIDTH 5 0
BBX 11 19 -1 -4
BITMAP
0000
0000
0000
0000
0000
0180
0180
0300
0300
0300
0600
0600
0600
0C00
0C00
0C00
0000
0000
0000
ENDCHAR
STARTCHAR C200
ENCODING -1
SWIDTH 263 0
DWIDTH 5 0
BBX 11 19 -1 -4
BITMAP
0000
0000
0000
0000
0000
0180
0180
0300
0300
0300
0600
0600
0600
0C00
0C00
0C00
0000
0000
0000
ENDCHAR
STARTCHAR C201
ENCODING -1
SWIDTH 263 0
DWIDTH 5 0
BBX 11 19 -1 -4
BITMAP
0000
0000
0000
0000
0000
0180
0180
0300
0300
0300
0600
0600
0600
0C00
0C00
0C00
0000
0000
0000
ENDCHAR
STARTCHAR C202
ENCODING -1
SWIDTH 263 0
DWIDTH 5 0
BBX 11 19 -1 -4
BITMAP
0000
0000
0000
0000
0000
0180
0180
0300
0300
0300
0600
0600
0600
0C00
0C00
0C00
0000
0000
0000
ENDCHAR
STARTCHAR C203
ENCODING -1
SWIDTH 263 0
DWIDTH 5 0
BBX 11 19 -1 -4
BITMAP
0000
0000
0000
0000
0000
0180
0180
0300
0300
0300
0600
0600
0600
0C00
0C00
0C00
0000
0000
0000
ENDCHAR
STARTCHAR C204
ENCODING -1
SWIDTH 263 0
DWIDTH 5 0
BBX 11 19 -1 -4
BITMAP
0000
0000
0000
0000
0000
0180
0180
0300
0300
0300
0600
0600
0600
0C00
0C00
0C00
0000
0000
0000
ENDCHAR
STARTCHAR C205
ENCODING -1
SWIDTH 263 0
DWIDTH 5 0
BBX 11 19 -1 -4
BITMAP
0000
0000
0000
0000
0000
0180
0180
0300
0300
0300
0600
0600
0600
0C00
0C00
0C00
0000
0000
0000
ENDCHAR
STARTCHAR C206
ENCODING -1
SWIDTH 263 0
DWIDTH 5 0
BBX 11 19 -1 -4
BITMAP
0000
0000
0000
0000
0000
0180
0180
0300
0300
0300
0600
0600
0600
0C00
0C00
0C00
0000
0000
0000
ENDCHAR
STARTCHAR C207
ENCODING -1
SWIDTH 263 0
DWIDTH 5 0
BBX 11 19 -1 -4
BITMAP
0000
0000
0000
0000
0000
0180
0180
0300
0300
0300
0600
0600
0600
0C00
0C00
0C00
0000
0000
0000
ENDCHAR
STARTCHAR C210
ENCODING -1
SWIDTH 263 0
DWIDTH 5 0
BBX 11 19 -1 -4
BITMAP
0000
0000
0000
0000
0000
0180
0180
0300
0300
0300
0600
0600
0600
0C00
0C00
0C00
0000
0000
0000
ENDCHAR
STARTCHAR C211
ENCODING -1
SWIDTH 263 0
DWIDTH 5 0
BBX 11 19 -1 -4
BITMAP
0000
0000
0000
0000
0000
0180
0180
0300
0300
0300
0600
0600
0600
0C00
0C00
0C00
0000
0000
0000
ENDCHAR
STARTCHAR C212
ENCODING -1
SWIDTH 263 0
DWIDTH 5 0
BBX 11 19 -1 -4
BITMAP
0000
0000
0000
0000
0000
0180
0180
0300
0300
0300
0600
0600
0600
0C00
0C00
0C00
0000
0000
0000
ENDCHAR
STARTCHAR C213
ENCODING -1
SWIDTH 263 0
DWIDTH 5 0
BBX 11 19 -1 -4
BITMAP
0000
0000
0000
0000
0000
0180
0180
0300
0300
0300
0600
0600
0600
0C00
0C00
0C00
0000
0000
0000
ENDCHAR
STARTCHAR C214
ENCODING -1
SWIDTH 263 0
DWIDTH 5 0
BBX 11 19 -1 -4
BITMAP
0000
0000
0000
0000
0000
0180
0180
0300
0300
0300
0600
0600
0600
0C00
0C00
0C00
0000
0000
0000
ENDCHAR
STARTCHAR C215
ENCODING -1
SWIDTH 263 0
DWIDTH 5 0
BBX 11 19 -1 -4
BITMAP
0000
0000
0000
0000
0000
0180
0180
0300
0300
0300
0600
0600
0600
0C00
0C00
0C00
0000
0000
0000
ENDCHAR
STARTCHAR C216
ENCODING -1
SWIDTH 263 0
DWIDTH 5 0
BBX 11 19 -1 -4
BITMAP
0000
0000
0000
0000
0000
0180
0180
0300
0300
0300
0600
0600
0600
0C00
0C00
0C00
0000
0000
0000
ENDCHAR
STARTCHAR C217
ENCODING -1
SWIDTH 263 0
DWIDTH 5 0
BBX 11 19 -1 -4
BITMAP
0000
0000
0000
0000
0000
0180
0180
0300
0300
0300
0600
0600
0600
0C00
0C00
0C00
0000
0000
0000
ENDCHAR
STARTCHAR C220
ENCODING -1
SWIDTH 263 0
DWIDTH 5 0
BBX 11 19 -1 -4
BITMAP
0000
0000
0000
0000
0000
0180
0180
0300
0300
0300
0600
0600
0600
0C00
0C00
0C00
0000
0000
0000
ENDCHAR
STARTCHAR C221
ENCODING -1
SWIDTH 210 0
DWIDTH 4 0
BBX 10 19 -1 -4
BITMAP
0000
0000
0000
0000
0100
0200
0300
0000
0000
0000
0000
0000
0000
0000
0000
0000
0000
0000
0000
ENDCHAR
STARTCHAR C222
ENCODING -1
SWIDTH 210 0
DWIDTH 4 0
BBX 10 19 -1 -4
BITMAP
0000
0000
0000
0000
0300
0100
0200
0000
0000
0000
0000
0000
0000
0000
0000
0000
0000
0000
0000
ENDCHAR
STARTCHAR C223
ENCODING -1
SWIDTH 263 0
DWIDTH 5 0
BBX 11 19 -1 -4
BITMAP
0000
0000
0000
0000
0000
0180
0180
0300
0300
0300
0600
0600
0600
0C00
0C00
0C00
0000
0000
0000
ENDCHAR
STARTCHAR C224
ENCODING -1
SWIDTH 263 0
DWIDTH 5 0
BBX 11 19 -1 -4
BITMAP
0000
0000
0000
0000
0000
0180
0180
0300
0300
0300
0600
0600
0600
0C00
0C00
0C00
0000
0000
0000
ENDCHAR
STARTCHAR C225
ENCODING -1
SWIDTH 263 0
DWIDTH 5 0
BBX 11 19 -1 -4
BITMAP
0000
0000
0000
0000
0000
0180
0180
0300
0300
0300
0600
0600
0600
0C00
0C00
0C00
0000
0000
0000
ENDCHAR
STARTCHAR C226
ENCODING -1
SWIDTH 263 0
DWIDTH 5 0
BBX 11 19 -1 -4
BITMAP
0000
0000
0000
0000
0000
0180
0180
0300
0300
0300
0600
0600
0600
0C00
0C00
0C00
0000
0000
0000
ENDCHAR
STARTCHAR C227
ENCODING -1
SWIDTH 263 0
DWIDTH 5 0
BBX 11 19 -1 -4
BITMAP
0000
0000
0000
0000
0000
0180
0180
0300
0300
0300
0600
0600
0600
0C00
0C00
0C00
0000
0000
0000
ENDCHAR
STARTCHAR C230
ENCODING -1
SWIDTH 263 0
DWIDTH 5 0
BBX 11 19 -1 -4
BITMAP
0000
0000
0000
0000
0000
0180
0180
0300
0300
0300
0600
0600
0600
0C00
0C00
0C00
0000
0000
0000
ENDCHAR
STARTCHAR C231
ENCODING -1
SWIDTH 263 0
DWIDTH 5 0
BBX 11 19 -1 -4
BITMAP
0000
0000
0000
0000
0000
0180
0180
0300
0300
0300
0600
0600
0600
0C00
0C00
0C00
0000
0000
0000
ENDCHAR
STARTCHAR C232
ENCODING -1
SWIDTH 263 0
DWIDTH 5 0
BBX 11 19 -1 -4
BITMAP
0000
0000
0000
0000
0000
0180
0180
0300
0300
0300
0600
0600
0600
0C00
0C00
0C00
0000
0000
0000
ENDCHAR
STARTCHAR C233
ENCODING -1
SWIDTH 263 0
DWIDTH 5 0
BBX 11 19 -1 -4
BITMAP
0000
0000
0000
0000
0000
0180
0180
0300
0300
0300
0600
0600
0600
0C00
0C00
0C00
0000
0000
0000
ENDCHAR
STARTCHAR C234
ENCODING 176
SWIDTH 263 0
DWIDTH 5 0
BBX 11 19 -1 -4
BITMAP
0000
0000
0000
0000
0000
0180
0180
0300
0300
0300
0600
0600
0600
0C00
0C00
0C00
0000
0000
0000
ENDCHAR
STARTCHAR C235
ENCODING 178
SWIDTH 263 0
DWIDTH 5 0
BBX 11 19 -1 -4
BITMAP
0000
0000
0000
0000
0000
0180
0180
0300
0300
0300
0600
0600
0600
0C00
0C00
0C00
0000
0000
0000
ENDCHAR
STARTCHAR C236
ENCODING -1
SWIDTH 263 0
DWIDTH 5 0
BBX 11 19 -1 -4
BITMAP
0000
0000
0000
0000
0000
0180
0180
0300
0300
0300
0600
0600
0600
0C00
0C00
0C00
0000
0000
0000
ENDCHAR
STARTCHAR C237
ENCODING -1
SWIDTH 263 0
DWIDTH 5 0
BBX 11 19 -1 -4
BITMAP
0000
0000
0000
0000
0000
0180
0180
0300
0300
0300
0600
0600
0600
0C00
0C00
0C00
0000
0000
0000
ENDCHAR
STARTCHAR C240
ENCODING 160
SWIDTH 210 0
DWIDTH 4 0
BBX 10 19 -1 -4
BITMAP
0000
0000
0000
0000
0000
0000
0000
0000
0000
0000
0000
0000
0000
0000
0000
0000
0000
0000
0000
ENDCHAR
STARTCHAR exclamdown
ENCODING 161
SWIDTH 526 0
DWIDTH 10 0
BBX 16 19 -1 -4
BITMAP
0000
0000
00CC
0000
03FC
0104
0100
0200
0220
03E0
0440
0400
0400
0820
1FE0
0000
0000
0000
0000
ENDCHAR
STARTCHAR cent
ENCODING 162
SWIDTH 421 0
DWIDTH 8 0
BBX 14 19 -1 -4
BITMAP
0000
0000
0000
0000
0000
0000
0000
0040
0380
04C0
0A00
0A00
0A00
1900
0E00
1000
0000
0000
0000
ENDCHAR
STARTCHAR sterling
ENCODING 163
SWIDTH 421 0
DWIDTH 8 0
BBX 14 19 -1 -4
BITMAP
0000
0000
0000
0000
00C0
0120
0100
0200
0200
0780
0400
0400
0400
0880
1700
0000
0000
0000
0000
ENDCHAR
STARTCHAR currency
ENCODING 164
SWIDTH 421 0
DWIDTH 8 0
BBX 14 19 -1 -4
BITMAP
0000
0000
0000
0000
0210
01E0
0120
0240
03C0
0420
0000
0000
0000
0000
0000
0000
0000
0000
0000
ENDCHAR
STARTCHAR yen
ENCODING 165
SWIDTH 421 0
DWIDTH 8 0
BBX 14 19 -1 -4
BITMAP
0000
0000
0000
0000
0638
0410
0220
0440
0FE0
0100
1FC0
0200
0200
0400
0E00
0000
0000
0000
0000
ENDCHAR
STARTCHAR brokenbar
ENCODING 166
SWIDTH 210 0
DWIDTH 4 0
BBX 10 19 -1 -4
BITMAP
0000
0000
0000
0000
0200
0200
0200
0400
0400
0400
0000
0000
0000
1000
1000
1000
2000
2000
2000
ENDCHAR
STARTCHAR section
ENCODING 167
SWIDTH 421 0
DWIDTH 8 0
BBX 14 19 -1 -4
BITMAP
0000
0000
0000
0000
01E0
0210
0200
0300
04C0
0420
0640
0180
0040
1080
0F00
0000
0000
0000
0000
ENDCHAR
STARTCHAR dieresis
ENCODING 168
SWIDTH 263 0
DWIDTH 5 0
BBX 11 19 -1 -4
BITMAP
0000
0000
0000
0000
0480
0000
0000
0000
0000
0000
0000
0000
0000
0000
0000
0000
0000
0000
0000
ENDCHAR
STARTCHAR copyright
ENCODING 191
SWIDTH 684 0
DWIDTH 13 0
BBX 19 19 -1 -4
BITMAP
000000
000000
000000
000000
007C00
018300
013900
048900
048100
048100
090200
091200
04E400
0C1800
03E000
000000
000000
000000
000000
ENDCHAR
STARTCHAR ordfeminine
ENCODING 170
SWIDTH 210 0
DWIDTH 4 0
BBX 10 19 -1 -4
BITMAP
0000
0000
0000
0000
0300
0080
0380
0900
0700
0000
1E00
0000
0000
0000
0000
0000
0000
0000
0000
ENDCHAR
STARTCHAR guillemotleft
ENCODING 171
SWIDTH 421 0
DWIDTH 8 0
BBX 14 19 -1 -4
BITMAP
0000
0000
0000
0000
0000
0000
0000
0000
0120
0240
0900
1200
0900
0900
0480
0000
0000
0000
0000
ENDCHAR
STARTCHAR logicalnot
ENCODING 172
SWIDTH 473 0
DWIDTH 9 0
BBX 15 19 -1 -4
BITMAP
0000
0000
0000
0000
0000
0000
0000
0000
0000
07F0
0020
0020
0000
0000
0000
0000
0000
0000
0000
ENDCHAR
STARTCHAR hyphen
ENCODING 173
SWIDTH 263 0
DWIDTH 5 0
BBX 11 19 -1 -4
BITMAP
0000
0000
0000
0000
0000
0000
0000
0000
0000
0000
1E00
0000
0000
0000
0000
0000
0000
0000
0000
ENDCHAR
STARTCHAR registered
ENCODING 174
SWIDTH 684 0
DWIDTH 13 0
BBX 19 19 -1 -4
BITMAP
000000
000000
000000
000000
007C00
018300
017900
048900
048900
04F100
092200
092200
051400
0C1800
03E000
000000
000000
000000
000000
ENDCHAR
STARTCHAR macron
ENCODING 175
SWIDTH 421 0
DWIDTH 8 0
BBX 14 19 -1 -4
BITMAP
01FE
0000
0000
0000
0000
0000
0000
0000
0000
0000
0000
0000
0000
0000
0000
0000
0000
0000
0000
ENDCHAR
STARTCHAR degree
ENCODING 156
SWIDTH 263 0
DWIDTH 5 0
BBX 11 19 -1 -4
BITMAP
0000
0000
0000
0000
0100
0280
0100
0000
0000
0000
0000
0000
0000
0000
0000
0000
0000
0000
0000
ENDCHAR
STARTCHAR plusminus
ENCODING 177
SWIDTH 473 0
DWIDTH 9 0
BBX 15 19 -1 -4
BITMAP
0000
0000
0000
0000
0000
0040
0040
0080
07F0
0080
0100
0100
0000
0000
1FC0
0000
0000
0000
0000
ENDCHAR
STARTCHAR twosuperior
ENCODING 157
SWIDTH 210 0
DWIDTH 4 0
BBX 10 19 -1 -4
BITMAP
0000
0000
0000
0000
0300
0480
0100
0400
0800
0F00
0000
0000
0000
0000
0000
0000
0000
0000
0000
ENDCHAR
STARTCHAR threesuperior
ENCODING 179
SWIDTH 210 0
DWIDTH 4 0
BBX 10 19 -1 -4
BITMAP
0000
0000
0000
0000
0300
0480
0100
0100
0900
0600
0000
0000
0000
0000
0000
0000
0000
0000
0000
ENDCHAR
STARTCHAR acute
ENCODING 180
SWIDTH 263 0
DWIDTH 5 0
BBX 11 19 -1 -4
BITMAP
0000
0000
0000
0040
0100
0200
0000
0000
0000
0000
0000
0000
0000
0000
0000
0000
0000
0000
0000
ENDCHAR
STARTCHAR mu
ENCODING 181
SWIDTH 526 0
DWIDTH 10 0
BBX 16 19 -1 -4
BITMAP
0000
0000
0000
0000
0000
0000
0000
0000
0210
0210
0420
0420
0420
0840
0FB0
0800
1000
1000
1000
ENDCHAR
STARTCHAR paragraph
ENCODING 182
SWIDTH 368 0
DWIDTH 7 0
BBX 13 19 -1 -4
BITMAP
0000
0000
0000
0000
03E0
07A0
07A0
0F40
0F40
0740
0280
0280
0280
0500
0500
0500
0000
0000
0000
ENDCHAR
STARTCHAR periodcentered
ENCODING 183
SWIDTH 210 0
DWIDTH 4 0
BBX 10 19 -1 -4
BITMAP
0000
0000
0000
0000
0000
0000
0000
0000
0000
0400
0000
0000
0000
0000
0000
0000
0000
0000
0000
ENDCHAR
STARTCHAR cedilla
ENCODING 184
SWIDTH 263 0
DWIDTH 5 0
BBX 11 19 -1 -4
BITMAP
0000
0000
0000
0000
0000
0000
0000
0000
0000
0000
0000
0000
0000
0000
0000
1000
1000
6000
0000
ENDCHAR
STARTCHAR onesuperior
ENCODING 185
SWIDTH 210 0
DWIDTH 4 0
BBX 10 19 -1 -4
BITMAP
0000
0000
0000
0000
0100
0300
0100
0200
0200
0700
0000
0000
0000
0000
0000
0000
0000
0000
0000
ENDCHAR
STARTCHAR ordmasculine
ENCODING 186
SWIDTH 263 0
DWIDTH 5 0
BBX 11 19 -1 -4
BITMAP
0000
0000
0000
0000
0380
0440
0440
0880
0700
0000
1F00
0000
0000
0000
0000
0000
0000
0000
0000
ENDCHAR
STARTCHAR guillemotright
ENCODING 187
SWIDTH 421 0
DWIDTH 8 0
BBX 14 19 -1 -4
BITMAP
0000
0000
0000
0000
0000
0000
0000
0000
0900
0480
0480
0240
0480
1200
2400
0000
0000
0000
0000
ENDCHAR
STARTCHAR onequarter
ENCODING 188
SWIDTH 578 0
DWIDTH 11 0
BBX 17 19 -1 -4
BITMAP
000000
000000
000000
000000
010100
030200
010400
021000
022000
074800
013000
025000
045000
10F000
202000
000000
000000
000000
000000
ENDCHAR
STARTCHAR onehalf
ENCODING 189
SWIDTH 578 0
DWIDTH 11 0
BBX 17 19 -1 -4
BITMAP
000000
000000
000000
000000
010100
030200
010400
021000
022000
074C00
012400
020800
041000
104000
207800
000000
000000
000000
000000
ENDCHAR
STARTCHAR threequarters
ENCODING 190
SWIDTH 578 0
DWIDTH 11 0
BBX 17 19 -1 -4
BITMAP
000000
000000
000000
000000
030100
048200
010400
011000
092000
064800
013000
025000
045000
10F000
202000
000000
000000
000000
000000
ENDCHAR
STARTCHAR questiondown
ENCODING 169
SWIDTH 368 0
DWIDTH 7 0
BBX 13 19 -1 -4
BITMAP
0000
0000
0000
0000
0000
0360
0000
0380
0440
0440
0F80
0800
0800
1100
0E00
0000
0000
0000
0000
ENDCHAR
STARTCHAR cyr-A
ENCODING 225
SWIDTH 578 0
DWIDTH 11 0
BBX 17 19 -1 -4
BITMAP
000000
000000
000000
000000
002000
002000
005000
00A000
011000
011000
041000
07F000
080800
101000
383800
000000
000000
000000
000000
ENDCHAR
STARTCHAR cyr-Be
ENCODING 226
SWIDTH 578 0
DWIDTH 11 0
BBX 17 19 -1 -4
BITMAP
000000
000000
000000
000000
03F800
010400
010000
020000
03F000
020800
040800
040800
040800
082000
1FC000
000000
000000
000000
000000
ENDCHAR
STARTCHAR cyr-Ve
ENCODING 247
SWIDTH 578 0
DWIDTH 11 0
BBX 17 19 -1 -4
BITMAP
000000
000000
000000
000000
03F000
010800
010400
020800
021000
03F000
041000
040800
040800
082000
1FC000
000000
000000
000000
000000
ENDCHAR
STARTCHAR cyr-Ghe
ENCODING 231
SWIDTH 473 0
DWIDTH 9 0
BBX 15 19 -1 -4
BITMAP
0000
0000
0000
0000
03FC
0104
0100
0200
0200
0200
0400
0400
0400
0800
1C00
0000
0000
0000
0000
ENDCHAR
STARTCHAR cyr-De
ENCODING 228
SWIDTH 578 0
DWIDTH 11 0
BBX 17 19 -1 -4
BITMAP
000000
000000
000000
000000
01FE00
008400
008400
010800
010800
010800
021000
021000
021000
082000
1FF000
101000
202000
000000
000000
ENDCHAR
STARTCHAR cyr-Ie
ENCODING 229
SWIDTH 526 0
DWIDTH 10 0
BBX 16 19 -1 -4
BITMAP
0000
0000
0000
0000
03FC
0104
0100
0200
0220
03E0
0440
0400
0400
0820
1FE0
0000
0000
0000
0000
ENDCHAR
STARTCHAR cyr-Zhe
ENCODING 246
SWIDTH 947 0
DWIDTH 18 0
BBX 24 19 -1 -4
BITMAP
000000
000000
000000
000000
01C71C
008208
004210
004440
002480
003580
009C80
010840
020820
081020
1C3870
000000
000000
000000
000000
ENDCHAR
STARTCHAR cyr-Ze
ENCODING 250
SWIDTH 526 0
DWIDTH 10 0
BBX 16 19 -1 -4
BITMAP
0000
0000
0000
0000
01F0
0208
0004
0008
0010
00E0
0020
0010
0010
1040
0F80
0000
0000
0000
0000
ENDCHAR
STARTCHAR cyr-I
ENCODING 233
SWIDTH 631 0
DWIDTH 12 0
BBX 18 19 -1 -4
BITMAP
000000
000000
000000
000000
038700
010200
010200
020C00
021400
022400
048800
050800
060800
081000
1C3800
000000
000000
000000
000000
ENDCHAR
STARTCHAR cyr-I-short
ENCODING 234
SWIDTH 631 0
DWIDTH 12 0
BBX 18 19 -1 -4
BITMAP
000000
000000
003C00
000000
038700
010200
010200
020C00
021400
022400
048800
050800
060800
081000
1C3800
000000
000000
000000
000000
ENDCHAR
STARTCHAR cyr-Ka
ENCODING 235
SWIDTH 578 0
DWIDTH 11 0
BBX 17 19 -1 -4
BITMAP
000000
000000
000000
000000
038E00
010400
010800
022000
024000
02C000
064000
042000
041000
081000
1C3800
000000
000000
000000
000000
ENDCHAR
STARTCHAR cyr-El
ENCODING 236
SWIDTH 631 0
DWIDTH 12 0
BBX 18 19 -1 -4
BITMAP
000000
000000
000000
000000
00FF00
004200
004200
008400
008400
008400
010800
010800
010800
021000
1C3800
000000
000000
000000
000000
ENDCHAR
STARTCHAR cyr-Em
ENCODING 237
SWIDTH 789 0
DWIDTH 15 0
BBX 21 19 -1 -4
BITMAP
000000
000000
000000
000000
030060
0180C0
0180C0
028280
028280
024480
048900
045100
045100
084200
1C4700
000000
000000
000000
000000
ENDCHAR
STARTCHAR cyr-En
ENCODING 238
SWIDTH 631 0
DWIDTH 12 0
BBX 18 19 -1 -4
BITMAP
000000
000000
000000
000000
038700
010200
010200
020400
020400
03FC00
040800
040800
040800
081000
1C3800
000000
000000
000000
000000
ENDCHAR
STARTCHAR cyr-O
ENCODING 239
SWIDTH 631 0
DWIDTH 12 0
BBX 18 19 -1 -4
BITMAP
000000
000000
000000
000000
007800
018600
010200
040200
040200
040200
080400
080400
040800
0C3000
03C000
000000
000000
000000
000000
ENDCHAR
STARTCHAR cyr-Pe
ENCODING 240
SWIDTH 631 0
DWIDTH 12 0
BBX 18 19 -1 -4
BITMAP
000000
000000
000000
000000
03FF00
010200
010200
020400
020400
020400
040800
040800
040800
081000
1C3800
000000
000000
000000
000000
ENDCHAR
STARTCHAR cyr-Er
ENCODING 242
SWIDTH 578 0
DWIDTH 11 0
BBX 17 19 -1 -4
BITMAP
000000
000000
000000
000000
03F800
010400
010200
020400
020400
020800
07E000
040000
040000
080000
1C0000
000000
000000
000000
000000
ENDCHAR
STARTCHAR cyr-Es
ENCODING 243
SWIDTH 578 0
DWIDTH 11 0
BBX 17 19 -1 -4
BITMAP
000000
000000
000000
000000
007A00
018600
010200
040000
040000
040000
080000
080400
040800
0C3000
03C000
000000
000000
000000
000000
ENDCHAR
STARTCHAR cyr-Te
ENCODING 244
SWIDTH 578 0
DWIDTH 11 0
BBX 17 19 -1 -4
BITMAP
000000
000000
000000
000000
03FE00
022200
002000
004000
004000
004000
008000
008000
008000
010000
038000
000000
000000
000000
000000
ENDCHAR
STARTCHAR cyr-U
ENCODING 245
SWIDTH 631 0
DWIDTH 12 0
BBX 18 19 -1 -4
BITMAP
000000
000000
000000
000000
038380
010100
008200
008400
008800
004800
00A000
006000
004000
008000
070000
000000
000000
000000
000000
ENDCHAR
STARTCHAR cyr-Ef
ENCODING 230
SWIDTH 684 0
DWIDTH 13 0
BBX 19 19 -1 -4
BITMAP
000000
000000
000000
000000
00FE00
011100
021080
042100
042100
042100
084200
084200
084200
088800
07F000
008000
010000
038000
000000
ENDCHAR
STARTCHAR cyr-Kha
ENCODING 232
SWIDTH 684 0
DWIDTH 13 0
BBX 19 19 -1 -4
BITMAP
000000
000000
000000
000000
038380
010100
008200
008800
005000
002000
00A000
011000
020800
080800
1C1C00
000000
000000
000000
000000
ENDCHAR
STARTCHAR cyr-Tse
ENCODING 227
SWIDTH 631 0
DWIDTH 12 0
BBX 18 19 -1 -4
BITMAP
000000
000000
000000
000000
038700
010200
010200
020400
020400
020400
040800
040800
040800
081000
1FF800
000800
001000
000000
000000
ENDCHAR
STARTCHAR cyr-Che
ENCODING 254
SWIDTH 631 0
DWIDTH 12 0
BBX 18 19 -1 -4
BITMAP
000000
000000
000000
000000
038700
010200
010200
020400
020400
01FC00
000800
000800
000800
001000
003800
000000
000000
000000
000000
ENDCHAR
STARTCHAR cyr-Sha
ENCODING 251
SWIDTH 894 0
DWIDTH 17 0
BBX 23 19 -1 -4
BITMAP
000000
000000
000000
000000
038E38
010410
010410
020820
020820
020820
041040
041040
041040
082080
1FFFC0
000000
000000
000000
000000
ENDCHAR
STARTCHAR cyr-Shcha
ENCODING 253
SWIDTH 894 0
DWIDTH 17 0
BBX 23 19 -1 -4
BITMAP
000000
000000
000000
000000
038E38
010410
010410
020820
020820
020820
041040
041040
041040
082080
1FFFC0
000040
000080
000000
000000
ENDCHAR
STARTCHAR cyr-Ier
ENCODING 255
SWIDTH 684 0
DWIDTH 13 0
BBX 19 19 -1 -4
BITMAP
000000
000000
000000
000000
03E000
024000
024000
008000
00FC00
008200
010200
010200
010200
020800
07F000
000000
000000
000000
000000
ENDCHAR
STARTCHAR cyr-Iery
ENCODING 249
SWIDTH 789 0
DWIDTH 15 0
BBX 21 19 -1 -4
BITMAP
000000
000000
000000
000000
0380E0
010040
010040
020080
03F080
020880
040900
040900
040900
082200
1FC700
000000
000000
000000
000000
ENDCHAR
STARTCHAR cyr-Ierik
ENCODING 248
SWIDTH 578 0
DWIDTH 11 0
BBX 17 19 -1 -4
BITMAP
000000
000000
000000
000000
038000
010000
010000
020000
03F000
020800
040800
040800
040800
082000
1FC000
000000
000000
000000
000000
ENDCHAR
STARTCHAR cyr-E-rev
ENCODING 252
SWIDTH 526 0
DWIDTH 10 0
BBX 16 19 -1 -4
BITMAP
0000
0000
0000
0000
00F0
0108
0204
0008
0008
01F8
0010
0010
0810
0840
0780
0000
0000
0000
0000
ENDCHAR
STARTCHAR cyr-Yu
ENCODING 224
SWIDTH 894 0
DWIDTH 17 0
BBX 23 19 -1 -4
BITMAP
000000
000000
000000
000000
0383C0
010C30
010810
022010
022010
03E010
044020
044020
042040
086180
1C1E00
000000
000000
000000
000000
ENDCHAR
STARTCHAR cyr-Ya
ENCODING 241
SWIDTH 684 0
DWIDTH 13 0
BBX 19 19 -1 -4
BITMAP
000000
000000
000000
000000
007F80
008100
008100
010200
010200
00FE00
008400
010400
020400
040800
1C1C00
000000
000000
000000
000000
ENDCHAR
STARTCHAR cyr-a
ENCODING 193
SWIDTH 368 0
DWIDTH 7 0
BBX 13 19 -1 -4
BITMAP
0000
0000
0000
0000
0000
0000
0000
0380
0440
0040
0780
0880
0880
1100
0E80
0000
0000
0000
0000
ENDCHAR
STARTCHAR cyr-be
ENCODING 194
SWIDTH 315 0
DWIDTH 6 0
BBX 12 19 -1 -4
BITMAP
0000
0000
0010
00E0
0200
0200
0200
0580
0640
0440
0880
0880
0880
1100
0E00
0000
0000
0000
0000
ENDCHAR
STARTCHAR cyr-ve
ENCODING 215
SWIDTH 368 0
DWIDTH 7 0
BBX 13 19 -1 -4
BITMAP
0000
0000
0000
0000
0000
0000
0000
0780
0240
0240
0780
0440
0440
0880
1F00
0000
0000
0000
0000
ENDCHAR
STARTCHAR cyr-ghe
ENCODING 199
SWIDTH 368 0
DWIDTH 7 0
BBX 13 19 -1 -4
BITMAP
0000
0000
0000
0000
0000
0000
0000
07E0
0220
0200
0400
0400
0400
0800
1C00
0000
0000
0000
0000
ENDCHAR
STARTCHAR cyr-de
ENCODING 196
SWIDTH 421 0
DWIDTH 8 0
BBX 14 19 -1 -4
BITMAP
0000
0000
0000
0000
0000
0000
0000
03F0
0120
0120
0240
0240
0240
0880
1FC0
1040
2080
0000
0000
ENDCHAR
STARTCHAR cyr-ie
ENCODING 197
SWIDTH 315 0
DWIDTH 6 0
BBX 12 19 -1 -4
BITMAP
0000
0000
0000
0000
0000
0000
0000
0380
0440
0440
0F80
0800
0800
1100
0E00
0000
0000
0000
0000
ENDCHAR
STARTCHAR cyr-zhe
ENCODING 214
SWIDTH 736 0
DWIDTH 14 0
BBX 20 19 -1 -4
BITMAP
000000
000000
000000
000000
000000
000000
000000
03BB80
011100
009200
00F800
012400
022200
044400
0EEE00
000000
000000
000000
000000
ENDCHAR
STARTCHAR cyr-z
ENCODING 218
SWIDTH 368 0
DWIDTH 7 0
BBX 13 19 -1 -4
BITMAP
0000
0000
0000
0000
0000
0000
0000
03C0
0420
0020
0180
0040
0040
1080
0F00
0000
0000
0000
0000
ENDCHAR
STARTCHAR cyr-i
ENCODING 201
SWIDTH 473 0
DWIDTH 9 0
BBX 15 19 -1 -4
BITMAP
0000
0000
0000
0000
0000
0000
0000
0738
0230
0250
04A0
0520
0520
0C40
1CE0
0000
0000
0000
0000
ENDCHAR
STARTCHAR cyr-i-short
ENCODING 202
SWIDTH 473 0
DWIDTH 9 0
BBX 15 19 -1 -4
BITMAP
0000
0000
0000
0000
0000
0060
0000
0738
0230
0250
04A0
0520
0520
0C40
1CE0
0000
0000
0000
0000
ENDCHAR
STARTCHAR cyr-ka
ENCODING 203
SWIDTH 421 0
DWIDTH 8 0
BBX 14 19 -1 -4
BITMAP
0000
0000
0000
0000
0000
0000
0000
0770
0220
0240
0700
0480
0440
0880
1DC0
0000
0000
0000
0000
ENDCHAR
STARTCHAR cyr-el
ENCODING 204
SWIDTH 473 0
DWIDTH 9 0
BBX 15 19 -1 -4
BITMAP
0000
0000
0000
0000
0000
0000
0000
03F8
0110
0110
0220
0220
0220
0440
18E0
0000
0000
0000
0000
ENDCHAR
STARTCHAR cyr-em
ENCODING 205
SWIDTH 526 0
DWIDTH 10 0
BBX 16 19 -1 -4
BITMAP
0000
0000
0000
0000
0000
0000
0000
060C
0318
0318
0550
0550
0490
0920
1C70
0000
0000
0000
0000
ENDCHAR
STARTCHAR cyr-en
ENCODING 206
SWIDTH 421 0
DWIDTH 8 0
BBX 14 19 -1 -4
BITMAP
0000
0000
0000
0000
0000
0000
0000
0770
0220
0220
07C0
0440
0440
0880
1DC0
0000
0000
0000
0000
ENDCHAR
STARTCHAR cyr-o
ENCODING 207
SWIDTH 368 0
DWIDTH 7 0
BBX 13 19 -1 -4
BITMAP
0000
0000
0000
0000
0000
0000
0000
03C0
0420
0420
0840
0840
0840
1080
0F00
0000
0000
0000
0000
ENDCHAR
STARTCHAR cyr-pe
ENCODING 208
SWIDTH 421 0
DWIDTH 8 0
BBX 14 19 -1 -4
BITMAP
0000
0000
0000
0000
0000
0000
0000
07F0
0220
0220
0440
0440
0440
0880
1DC0
0000
0000
0000
0000
ENDCHAR
STARTCHAR cyr-er
ENCODING 210
SWIDTH 368 0
DWIDTH 7 0
BBX 13 19 -1 -4
BITMAP
0000
0000
0000
0000
0000
0000
0000
07C0
0220
0220
0440
0440
0440
0880
0F00
0800
1000
1000
3800
ENDCHAR
STARTCHAR cyr-es
ENCODING 211
SWIDTH 315 0
DWIDTH 6 0
BBX 12 19 -1 -4
BITMAP
0000
0000
0000
0000
0000
0000
0000
0380
0440
0400
0800
0800
0800
1100
0E00
0000
0000
0000
0000
ENDCHAR
STARTCHAR cyr-te
ENCODING 212
SWIDTH 421 0
DWIDTH 8 0
BBX 14 19 -1 -4
BITMAP
0000
0000
0000
0000
0000
0000
0000
07F0
0490
0080
0100
0100
0100
0200
0700
0000
0000
0000
0000
ENDCHAR
STARTCHAR cyr-u
ENCODING 213
SWIDTH 421 0
DWIDTH 8 0
BBX 14 19 -1 -4
BITMAP
0000
0000
0000
0000
0000
0000
0000
0770
0220
0220
0280
0280
0280
0200
0200
0400
0800
2800
3000
ENDCHAR
STARTCHAR cyr-ef
ENCODING 198
SWIDTH 421 0
DWIDTH 8 0
BBX 14 19 -1 -4
BITMAP
0000
0000
0000
0000
0000
0000
0000
03E0
0490
0490
0920
0920
0920
1240
0F80
0200
0400
0400
0E00
ENDCHAR
STARTCHAR cyr-kha
ENCODING 200
SWIDTH 421 0
DWIDTH 8 0
BBX 14 19 -1 -4
BITMAP
0000
0000
0000
0000
0000
0000
0000
0630
0220
0140
0100
0100
0280
0880
18C0
0000
0000
0000
0000
ENDCHAR
STARTCHAR cyr-tse
ENCODING 195
SWIDTH 421 0
DWIDTH 8 0
BBX 14 19 -1 -4
BITMAP
0000
0000
0000
0000
0000
0000
0000
0770
0220
0220
0440
0440
0440
0880
1FC0
0040
0080
0000
0000
ENDCHAR
STARTCHAR cyr-che
ENCODING 222
SWIDTH 421 0
DWIDTH 8 0
BBX 14 19 -1 -4
BITMAP
0000
0000
0000
0000
0000
0000
0000
0770
0220
0220
0440
03C0
0040
0080
01C0
0000
0000
0000
0000
ENDCHAR
STARTCHAR cyr-sha
ENCODING 219
SWIDTH 631 0
DWIDTH 12 0
BBX 18 19 -1 -4
BITMAP
000000
000000
000000
000000
000000
000000
000000
077700
022200
022200
044400
044400
044400
088800
1FFC00
000000
000000
000000
000000
ENDCHAR
STARTCHAR cyr-shcha
ENCODING 221
SWIDTH 631 0
DWIDTH 12 0
BBX 18 19 -1 -4
BITMAP
000000
000000
000000
000000
000000
000000
000000
077700
022200
022200
044400
044400
044400
088800
1FFC00
000400
000800
000000
000000
ENDCHAR
STARTCHAR cyr-ier
ENCODING 223
SWIDTH 421 0
DWIDTH 8 0
BBX 14 19 -1 -4
BITMAP
0000
0000
0000
0000
0000
0000
0000
0780
0500
0500
03C0
0220
0220
0440
0F80
0000
0000
0000
0000
ENDCHAR
STARTCHAR cyr-iery
ENCODING 217
SWIDTH 578 0
DWIDTH 11 0
BBX 17 19 -1 -4
BITMAP
000000
000000
000000
000000
000000
000000
000000
070E00
020400
020400
078800
044800
044800
089000
1F3800
000000
000000
000000
000000
ENDCHAR
STARTCHAR cyr-ierik
ENCODING 216
SWIDTH 368 0
DWIDTH 7 0
BBX 13 19 -1 -4
BITMAP
0000
0000
0000
0000
0000
0000
0000
0700
0200
0200
0780
0440
0440
0880
1F00
0000
0000
0000
0000
ENDCHAR
STARTCHAR cyr-e-rev
ENCODING 220
SWIDTH 368 0
DWIDTH 7 0
BBX 13 19 -1 -4
BITMAP
0000
0000
0000
0000
0000
0000
0000
03C0
0420
0020
03C0
0040
0040
1080
0F00
0000
0000
0000
0000
ENDCHAR
STARTCHAR cyr-yu
ENCODING 192
SWIDTH 578 0
DWIDTH 11 0
BBX 17 19 -1 -4
BITMAP
000000
000000
000000
000000
000000
000000
000000
073C00
024200
024200
078400
048400
048400
090800
1CF000
000000
000000
000000
000000
ENDCHAR
STARTCHAR cyr-ya
ENCODING 209
SWIDTH 421 0
DWIDTH 8 0
BBX 14 19 -1 -4
BITMAP
0000
0000
0000
0000
0000
0000
0000
01F0
0220
0220
0440
03C0
0240
0880
19C0
0000
0000
0000
0000
ENDCHAR
ENDFONT
