STARTFONT 2.1
COMMENT Copyright (C) 1990-1991 EWT Consulting
COMMENT Portions Copyright (C) 1994-1995 Cronyx Ltd.
COMMENT Changes Copyright (C) 1996 by Andrey A. Chernov, Moscow, Russia.
COMMENT Modified by Serge Vakulenko, <vak@cronyx.ru>
COMMENT This software may be used, modified, copied, distributed, and sold,
COMMENT in both source and binary form provided that the copyright
COMMENT and these terms are retained. Under no circumstances is the author
COMMENT responsible for the proper functioning of this software, nor does
COMMENT the author assume any responsibility for damages incurred with its use.
COMMENT $XFree86: xc/fonts/bdf/cyrillic/crox1hbo.bdf,v 3.2 1996/09/01 12:17:48 dawes Exp $
FONT -Cronyx-Helvetica-Bold-O-Normal--11-80-100-100-P-46-KOI8-R
SIZE 8 96 96
FONTBOUNDINGBOX 16 13 -1 -2
STARTPROPERTIES 19
DEFAULT_CHAR 32
FONT_ASCENT 11
FONT_DESCENT 2
SPACING "P"
FONTNAME_REGISTRY ""
FOUNDRY "Cronyx"
FAMILY_NAME "Helvetica"
WEIGHT_NAME "Bold"
SLANT "O"
SETWIDTH_NAME "Normal"
ADD_STYLE_NAME ""
AVERAGE_WIDTH 46
CHARSET_REGISTRY "KOI8"
CHARSET_ENCODING "R"
PIXEL_SIZE 11
POINT_SIZE 80
RESOLUTION_X 100
RESOLUTION_Y 100
COPYRIGHT "Copyright (C) 1990, 1991 EWT Consulting, Portions Copyright (C) 1994 Cronyx Ltd., Portions Copyright (C) 1996 by Andrey A. Chernov, Moscow, Russia."
ENDPROPERTIES
CHARS 224
STARTCHAR space
ENCODING 32
SWIDTH 307 0
DWIDTH 4 0
BBX 8 13 -1 -2
BITMAP
00
00
00
00
00
00
00
00
00
00
00
00
00
ENDCHAR
STARTCHAR exclam
ENCODING 33
SWIDTH 307 0
DWIDTH 4 0
BBX 8 13 -1 -2
BITMAP
00
00
06
06
0C
0C
0C
18
18
00
30
00
00
ENDCHAR
STARTCHAR quotedbl
ENCODING 34
SWIDTH 384 0
DWIDTH 5 0
BBX 9 13 -1 -2
BITMAP
0000
0000
0780
0780
0F00
0000
0000
0000
0000
0000
0000
0000
0000
ENDCHAR
STARTCHAR numbersign
ENCODING 35
SWIDTH 538 0
DWIDTH 7 0
BBX 11 13 -1 -2
BITMAP
0000
0000
03C0
03C0
0FC0
0780
0780
0F00
1F80
0F00
1E00
0000
0000
ENDCHAR
STARTCHAR dollar
ENCODING 36
SWIDTH 538 0
DWIDTH 7 0
BBX 11 13 -1 -2
BITMAP
0000
0000
0180
03C0
0FC0
0F00
0700
0700
0780
1F80
1E00
0C00
0000
ENDCHAR
STARTCHAR percent
ENCODING 37
SWIDTH 692 0
DWIDTH 9 0
BBX 13 13 -1 -2
BITMAP
0000
0000
0380
06D8
0760
00C0
0180
0600
0DC0
1B60
0380
0000
0000
ENDCHAR
STARTCHAR ampersand
ENCODING 38
SWIDTH 538 0
DWIDTH 7 0
BBX 11 13 -1 -2
BITMAP
0000
0000
0300
0780
0F00
0600
0600
1F80
1B00
1B00
1F00
0000
0000
ENDCHAR
STARTCHAR quoteright
ENCODING 39
SWIDTH 230 0
DWIDTH 3 0
BBX 7 13 -1 -2
BITMAP
00
00
06
06
0C
00
00
00
00
00
00
00
00
ENDCHAR
STARTCHAR parenleft
ENCODING 40
SWIDTH 307 0
DWIDTH 4 0
BBX 8 13 -1 -2
BITMAP
00
00
03
06
0C
0C
0C
18
18
18
30
30
18
ENDCHAR
STARTCHAR parenright
ENCODING 41
SWIDTH 307 0
DWIDTH 4 0
BBX 8 13 -1 -2
BITMAP
00
00
06
03
06
06
06
0C
0C
0C
18
18
30
ENDCHAR
STARTCHAR asterisk
ENCODING 42
SWIDTH 384 0
DWIDTH 5 0
BBX 9 13 -1 -2
BITMAP
0000
0000
0000
0780
0600
0F00
0000
0000
0000
0000
0000
0000
0000
ENDCHAR
STARTCHAR plus
ENCODING 43
SWIDTH 538 0
DWIDTH 7 0
BBX 11 13 -1 -2
BITMAP
0000
0000
0000
0000
0000
0300
0300
1F80
0600
0600
0000
0000
0000
ENDCHAR
STARTCHAR comma
ENCODING 44
SWIDTH 307 0
DWIDTH 4 0
BBX 8 13 -1 -2
BITMAP
00
00
00
00
00
00
00
00
00
00
18
30
00
ENDCHAR
STARTCHAR minus
ENCODING 45
SWIDTH 307 0
DWIDTH 4 0
BBX 8 13 -1 -2
BITMAP
00
00
00
00
00
00
00
1C
00
00
00
00
00
ENDCHAR
STARTCHAR period
ENCODING 46
SWIDTH 307 0
DWIDTH 4 0
BBX 8 13 -1 -2
BITMAP
00
00
00
00
00
00
00
00
00
00
30
00
00
ENDCHAR
STARTCHAR slash
ENCODING 47
SWIDTH 307 0
DWIDTH 4 0
BBX 8 13 -1 -2
BITMAP
00
00
03
03
06
06
06
18
18
18
30
00
00
ENDCHAR
STARTCHAR zero
ENCODING 48
SWIDTH 538 0
DWIDTH 7 0
BBX 11 13 -1 -2
BITMAP
0000
0000
03C0
0660
0CC0
0CC0
0CC0
1980
1980
1980
1E00
0000
0000
ENDCHAR
STARTCHAR one
ENCODING 49
SWIDTH 538 0
DWIDTH 7 0
BBX 11 13 -1 -2
BITMAP
0000
0000
0180
0780
0300
0300
0300
0600
0600
0600
0C00
0000
0000
ENDCHAR
STARTCHAR two
ENCODING 50
SWIDTH 538 0
DWIDTH 7 0
BBX 11 13 -1 -2
BITMAP
0000
0000
03C0
0660
00C0
00C0
0180
0600
0C00
1800
3F00
0000
0000
ENDCHAR
STARTCHAR three
ENCODING 51
SWIDTH 538 0
DWIDTH 7 0
BBX 11 13 -1 -2
BITMAP
0000
0000
03C0
0660
00C0
00C0
0380
0180
0180
1980
1E00
0000
0000
ENDCHAR
STARTCHAR four
ENCODING 52
SWIDTH 538 0
DWIDTH 7 0
BBX 11 13 -1 -2
BITMAP
0000
0000
00C0
01C0
0380
0780
0780
1B00
1F80
0300
0600
0000
0000
ENDCHAR
STARTCHAR five
ENCODING 53
SWIDTH 538 0
DWIDTH 7 0
BBX 11 13 -1 -2
BITMAP
0000
0000
07E0
0600
0C00
0F80
0CC0
0180
0180
1980
1E00
0000
0000
ENDCHAR
STARTCHAR six
ENCODING 54
SWIDTH 538 0
DWIDTH 7 0
BBX 11 13 -1 -2
BITMAP
0000
0000
03C0
0660
0C00
0C00
0F80
1980
1980
1980
1E00
0000
0000
ENDCHAR
STARTCHAR seven
ENCODING 55
SWIDTH 538 0
DWIDTH 7 0
BBX 11 13 -1 -2
BITMAP
0000
0000
07E0
0060
0180
0180
0300
0600
0C00
0C00
1800
0000
0000
ENDCHAR
STARTCHAR eight
ENCODING 56
SWIDTH 538 0
DWIDTH 7 0
BBX 11 13 -1 -2
BITMAP
0000
0000
03C0
0660
0CC0
0CC0
0780
1980
1980
1980
1E00
0000
0000
ENDCHAR
STARTCHAR nine
ENCODING 57
SWIDTH 538 0
DWIDTH 7 0
BBX 11 13 -1 -2
BITMAP
0000
0000
03C0
0660
0CC0
0CC0
07C0
0180
0180
1980
1E00
0000
0000
ENDCHAR
STARTCHAR colon
ENCODING 58
SWIDTH 307 0
DWIDTH 4 0
BBX 8 13 -1 -2
BITMAP
00
00
00
00
00
0C
00
00
00
00
30
00
00
ENDCHAR
STARTCHAR semicolon
ENCODING 59
SWIDTH 307 0
DWIDTH 4 0
BBX 8 13 -1 -2
BITMAP
00
00
00
00
00
06
00
00
00
00
18
30
00
ENDCHAR
STARTCHAR less
ENCODING 60
SWIDTH 538 0
DWIDTH 7 0
BBX 11 13 -1 -2
BITMAP
0000
0000
0000
0000
0180
0300
0600
1800
0C00
0600
0600
0000
0000
ENDCHAR
STARTCHAR equal
ENCODING 61
SWIDTH 538 0
DWIDTH 7 0
BBX 11 13 -1 -2
BITMAP
0000
0000
0000
0000
0000
0000
0FC0
0000
1F80
0000
0000
0000
0000
ENDCHAR
STARTCHAR greater
ENCODING 62
SWIDTH 538 0
DWIDTH 7 0
BBX 11 13 -1 -2
BITMAP
0000
0000
0000
0000
0C00
0600
0300
0300
0600
0C00
3000
0000
0000
ENDCHAR
STARTCHAR question
ENCODING 63
SWIDTH 538 0
DWIDTH 7 0
BBX 11 13 -1 -2
BITMAP
0000
0000
03C0
0660
00C0
00C0
0180
0600
0600
0000
0C00
0000
0000
ENDCHAR
STARTCHAR at
ENCODING 64
SWIDTH 923 0
DWIDTH 12 0
BBX 16 13 -1 -2
BITMAP
0000
0000
00F8
038E
060C
0CF6
0DB6
1B6C
19FC
0C00
1C00
07E0
0000
ENDCHAR
STARTCHAR A
ENCODING 65
SWIDTH 615 0
DWIDTH 8 0
BBX 12 13 -1 -2
BITMAP
0000
0000
0180
0180
0780
0780
0CC0
1980
1F80
20C0
4180
0000
0000
ENDCHAR
STARTCHAR B
ENCODING 66
SWIDTH 615 0
DWIDTH 8 0
BBX 12 13 -1 -2
BITMAP
0000
0000
07C0
0660
0CC0
0CC0
0F80
1980
1980
1980
3E00
0000
0000
ENDCHAR
STARTCHAR C
ENCODING 67
SWIDTH 615 0
DWIDTH 8 0
BBX 12 13 -1 -2
BITMAP
0000
0000
03E0
0630
0C00
0C00
0C00
1800
1800
18C0
1F00
0000
0000
ENDCHAR
STARTCHAR D
ENCODING 68
SWIDTH 692 0
DWIDTH 9 0
BBX 13 13 -1 -2
BITMAP
0000
0000
07C0
0660
0C60
0C60
0C60
18C0
18C0
1980
3E00
0000
0000
ENDCHAR
STARTCHAR E
ENCODING 69
SWIDTH 615 0
DWIDTH 8 0
BBX 12 13 -1 -2
BITMAP
0000
0000
07E0
0600
0C00
0C00
0F80
1800
1800
1800
3F00
0000
0000
ENDCHAR
STARTCHAR F
ENCODING 70
SWIDTH 538 0
DWIDTH 7 0
BBX 11 13 -1 -2
BITMAP
0000
0000
07E0
0600
0C00
0C00
0F80
1800
1800
1800
3000
0000
0000
ENDCHAR
STARTCHAR G
ENCODING 71
SWIDTH 692 0
DWIDTH 9 0
BBX 13 13 -1 -2
BITMAP
0000
0000
03E0
0630
0C00
0C00
0DE0
18C0
18C0
19C0
1F80
0000
0000
ENDCHAR
STARTCHAR H
ENCODING 72
SWIDTH 692 0
DWIDTH 9 0
BBX 13 13 -1 -2
BITMAP
0000
0000
0630
0630
0C60
0C60
0FE0
18C0
18C0
18C0
3180
0000
0000
ENDCHAR
STARTCHAR I
ENCODING 73
SWIDTH 307 0
DWIDTH 4 0
BBX 8 13 -1 -2
BITMAP
00
00
06
06
0C
0C
0C
18
18
18
30
00
00
ENDCHAR
STARTCHAR J
ENCODING 74
SWIDTH 461 0
DWIDTH 6 0
BBX 10 13 -1 -2
BITMAP
0000
0000
0180
0180
0300
0300
0300
0600
2600
2600
3800
0000
0000
ENDCHAR
STARTCHAR K
ENCODING 75
SWIDTH 615 0
DWIDTH 8 0
BBX 12 13 -1 -2
BITMAP
0000
0000
0660
06C0
0F00
0E00
0E00
1E00
1B00
1980
3180
0000
0000
ENDCHAR
STARTCHAR L
ENCODING 76
SWIDTH 538 0
DWIDTH 7 0
BBX 11 13 -1 -2
BITMAP
0000
0000
0600
0600
0C00
0C00
0C00
1800
1800
1800
3F00
0000
0000
ENDCHAR
STARTCHAR M
ENCODING 77
SWIDTH 769 0
DWIDTH 10 0
BBX 14 13 -1 -2
BITMAP
0000
0000
0618
0618
0E70
0E70
0FF0
1FE0
1B60
1B60
30C0
0000
0000
ENDCHAR
STARTCHAR N
ENCODING 78
SWIDTH 692 0
DWIDTH 9 0
BBX 13 13 -1 -2
BITMAP
0000
0000
0630
0730
0E60
0F60
0F60
1BC0
19C0
19C0
3180
0000
0000
ENDCHAR
STARTCHAR O
ENCODING 79
SWIDTH 692 0
DWIDTH 9 0
BBX 13 13 -1 -2
BITMAP
0000
0000
03E0
0630
0C60
0C60
0C60
18C0
18C0
18C0
1F00
0000
0000
ENDCHAR
STARTCHAR P
ENCODING 80
SWIDTH 615 0
DWIDTH 8 0
BBX 12 13 -1 -2
BITMAP
0000
0000
07E0
0630
0C60
0C60
0FC0
1800
1800
1800
3000
0000
0000
ENDCHAR
STARTCHAR Q
ENCODING 81
SWIDTH 692 0
DWIDTH 9 0
BBX 13 13 -1 -2
BITMAP
0000
0000
03E0
0630
0C60
0C60
0C60
18C0
1BC0
19C0
1F00
0180
0000
ENDCHAR
STARTCHAR R
ENCODING 82
SWIDTH 692 0
DWIDTH 9 0
BBX 13 13 -1 -2
BITMAP
0000
0000
07E0
0630
0C60
0C60
0FC0
18C0
18C0
18C0
3180
0000
0000
ENDCHAR
STARTCHAR S
ENCODING 83
SWIDTH 615 0
DWIDTH 8 0
BBX 12 13 -1 -2
BITMAP
0000
0000
03C0
0660
0C00
0C00
0780
0180
0180
1980
1E00
0000
0000
ENDCHAR
STARTCHAR T
ENCODING 84
SWIDTH 615 0
DWIDTH 8 0
BBX 12 13 -1 -2
BITMAP
0000
0000
07E0
0180
0300
0300
0300
0600
0600
0600
0C00
0000
0000
ENDCHAR
STARTCHAR U
ENCODING 85
SWIDTH 692 0
DWIDTH 9 0
BBX 13 13 -1 -2
BITMAP
0000
0000
0630
0630
0C60
0C60
0C60
18C0
18C0
18C0
1F00
0000
0000
ENDCHAR
STARTCHAR V
ENCODING 86
SWIDTH 615 0
DWIDTH 8 0
BBX 12 13 -1 -2
BITMAP
0000
0000
0830
0830
0CC0
0CC0
0CC0
0F00
0F00
0600
0C00
0000
0000
ENDCHAR
STARTCHAR W
ENCODING 87
SWIDTH 923 0
DWIDTH 12 0
BBX 16 13 -1 -2
BITMAP
0000
0000
0803
0803
0CCC
0CCC
0CCC
0FF0
0FF0
0660
0CC0
0000
0000
ENDCHAR
STARTCHAR X
ENCODING 88
SWIDTH 615 0
DWIDTH 8 0
BBX 12 13 -1 -2
BITMAP
0000
0000
0830
0830
0CC0
0780
0300
0F00
1980
20C0
4180
0000
0000
ENDCHAR
STARTCHAR Y
ENCODING 89
SWIDTH 615 0
DWIDTH 8 0
BBX 12 13 -1 -2
BITMAP
0000
0000
0830
0830
0CC0
0780
0300
0600
0600
0600
0C00
0000
0000
ENDCHAR
STARTCHAR Z
ENCODING 90
SWIDTH 615 0
DWIDTH 8 0
BBX 12 13 -1 -2
BITMAP
0000
0000
0FF0
0030
00C0
0180
0300
0C00
1800
2000
7F80
0000
0000
ENDCHAR
STARTCHAR bracketleft
ENCODING 91
SWIDTH 307 0
DWIDTH 4 0
BBX 8 13 -1 -2
BITMAP
00
00
07
06
0C
0C
0C
18
18
18
30
30
38
ENDCHAR
STARTCHAR backslash
ENCODING 92
SWIDTH 307 0
DWIDTH 4 0
BBX 8 13 -1 -2
BITMAP
00
00
06
06
0C
0C
0C
0C
0C
0C
18
18
00
ENDCHAR
STARTCHAR bracketright
ENCODING 93
SWIDTH 307 0
DWIDTH 4 0
BBX 8 13 -1 -2
BITMAP
00
00
07
03
06
06
06
0C
0C
0C
18
18
38
ENDCHAR
STARTCHAR asciicircum
ENCODING 94
SWIDTH 538 0
DWIDTH 7 0
BBX 11 13 -1 -2
BITMAP
0000
0180
03C0
0660
0000
0000
0000
0000
0000
0000
0000
0000
0000
ENDCHAR
STARTCHAR underscore
ENCODING 95
SWIDTH 538 0
DWIDTH 7 0
BBX 11 13 -1 -2
BITMAP
0000
0000
0000
0000
0000
0000
0000
0000
0000
0000
0000
0000
7F00
ENDCHAR
STARTCHAR quoteleft
ENCODING 96
SWIDTH 307 0
DWIDTH 4 0
BBX 8 13 -1 -2
BITMAP
00
00
06
03
00
00
00
00
00
00
00
00
00
ENDCHAR
STARTCHAR a
ENCODING 97
SWIDTH 538 0
DWIDTH 7 0
BBX 11 13 -1 -2
BITMAP
0000
0000
0000
0000
0000
0780
00C0
0F80
1980
1980
1F00
0000
0000
ENDCHAR
STARTCHAR b
ENCODING 98
SWIDTH 538 0
DWIDTH 7 0
BBX 11 13 -1 -2
BITMAP
0000
0000
0600
0600
0C00
0F80
0CC0
1980
1980
1980
3E00
0000
0000
ENDCHAR
STARTCHAR c
ENCODING 99
SWIDTH 538 0
DWIDTH 7 0
BBX 11 13 -1 -2
BITMAP
0000
0000
0000
0000
0000
0780
0CC0
1800
1800
1980
1E00
0000
0000
ENDCHAR
STARTCHAR d
ENCODING 100
SWIDTH 538 0
DWIDTH 7 0
BBX 11 13 -1 -2
BITMAP
0000
0000
0060
0060
00C0
07C0
0CC0
1980
1980
1980
1F00
0000
0000
ENDCHAR
STARTCHAR e
ENCODING 101
SWIDTH 538 0
DWIDTH 7 0
BBX 11 13 -1 -2
BITMAP
0000
0000
0000
0000
0000
0780
0CC0
1F80
1800
1980
1E00
0000
0000
ENDCHAR
STARTCHAR f
ENCODING 102
SWIDTH 307 0
DWIDTH 4 0
BBX 8 13 -1 -2
BITMAP
00
00
03
06
0C
0E
0C
18
18
18
30
00
00
ENDCHAR
STARTCHAR g
ENCODING 103
SWIDTH 538 0
DWIDTH 7 0
BBX 11 13 -1 -2
BITMAP
0000
0000
0000
0000
0000
07C0
0CC0
1980
1980
1980
1F00
0300
3E00
ENDCHAR
STARTCHAR h
ENCODING 104
SWIDTH 538 0
DWIDTH 7 0
BBX 11 13 -1 -2
BITMAP
0000
0000
0600
0600
0C00
0F80
0EC0
1980
1980
1980
3300
0000
0000
ENDCHAR
STARTCHAR i
ENCODING 105
SWIDTH 230 0
DWIDTH 3 0
BBX 7 13 -1 -2
BITMAP
00
00
06
00
00
0C
0C
18
18
18
30
00
00
ENDCHAR
STARTCHAR j
ENCODING 106
SWIDTH 230 0
DWIDTH 3 0
BBX 7 13 -1 -2
BITMAP
00
00
06
00
00
0C
0C
18
18
18
30
30
30
ENDCHAR
STARTCHAR k
ENCODING 107
SWIDTH 538 0
DWIDTH 7 0
BBX 11 13 -1 -2
BITMAP
0000
0000
0600
0600
0C00
0D80
0F00
1C00
1E00
1B00
3300
0000
0000
ENDCHAR
STARTCHAR l
ENCODING 108
SWIDTH 230 0
DWIDTH 3 0
BBX 7 13 -1 -2
BITMAP
00
00
06
06
0C
0C
0C
18
18
18
30
00
00
ENDCHAR
STARTCHAR m
ENCODING 109
SWIDTH 692 0
DWIDTH 9 0
BBX 13 13 -1 -2
BITMAP
0000
0000
0000
0000
0000
0FE0
0DB0
1B60
1B60
1B60
36C0
0000
0000
ENDCHAR
STARTCHAR n
ENCODING 110
SWIDTH 538 0
DWIDTH 7 0
BBX 11 13 -1 -2
BITMAP
0000
0000
0000
0000
0000
0F80
0EC0
1980
1980
1980
3300
0000
0000
ENDCHAR
STARTCHAR o
ENCODING 111
SWIDTH 538 0
DWIDTH 7 0
BBX 11 13 -1 -2
BITMAP
0000
0000
0000
0000
0000
0780
0CC0
1980
1980
1980
1E00
0000
0000
ENDCHAR
STARTCHAR p
ENCODING 112
SWIDTH 538 0
DWIDTH 7 0
BBX 11 13 -1 -2
BITMAP
0000
0000
0000
0000
0000
0F80
0CC0
1980
1980
1980
3E00
3000
3000
ENDCHAR
STARTCHAR q
ENCODING 113
SWIDTH 538 0
DWIDTH 7 0
BBX 11 13 -1 -2
BITMAP
0000
0000
0000
0000
0000
07C0
0CC0
1980
1980
1980
1F00
0300
0300
ENDCHAR
STARTCHAR r
ENCODING 114
SWIDTH 307 0
DWIDTH 4 0
BBX 8 13 -1 -2
BITMAP
00
00
00
00
00
0E
0C
18
18
18
30
00
00
ENDCHAR
STARTCHAR s
ENCODING 115
SWIDTH 461 0
DWIDTH 6 0
BBX 10 13 -1 -2
BITMAP
0000
0000
0000
0000
0000
0700
0D80
0C00
0600
1B00
1C00
0000
0000
ENDCHAR
STARTCHAR t
ENCODING 116
SWIDTH 307 0
DWIDTH 4 0
BBX 8 13 -1 -2
BITMAP
00
00
00
06
0C
0E
0C
18
18
18
18
00
00
ENDCHAR
STARTCHAR u
ENCODING 117
SWIDTH 538 0
DWIDTH 7 0
BBX 11 13 -1 -2
BITMAP
0000
0000
0000
0000
0000
0CC0
0CC0
1980
1980
1B80
1F00
0000
0000
ENDCHAR
STARTCHAR v
ENCODING 118
SWIDTH 538 0
DWIDTH 7 0
BBX 11 13 -1 -2
BITMAP
0000
0000
0000
0000
0000
0CC0
0CC0
0F00
0F00
0600
0C00
0000
0000
ENDCHAR
STARTCHAR w
ENCODING 119
SWIDTH 692 0
DWIDTH 9 0
BBX 13 13 -1 -2
BITMAP
0000
0000
0000
0000
0000
0DB0
0DB0
1FE0
1FE0
0CC0
1980
0000
0000
ENDCHAR
STARTCHAR x
ENCODING 120
SWIDTH 461 0
DWIDTH 6 0
BBX 10 13 -1 -2
BITMAP
0000
0000
0000
0000
0000
0D80
0D80
0E00
0E00
1B00
3600
0000
0000
ENDCHAR
STARTCHAR y
ENCODING 121
SWIDTH 461 0
DWIDTH 6 0
BBX 10 13 -1 -2
BITMAP
0000
0000
0000
0000
0000
0D80
0D80
1B00
1B00
0E00
1800
1800
7000
ENDCHAR
STARTCHAR z
ENCODING 122
SWIDTH 461 0
DWIDTH 6 0
BBX 10 13 -1 -2
BITMAP
0000
0000
0000
0000
0000
0F80
0180
0600
0C00
1800
3E00
0000
0000
ENDCHAR
STARTCHAR braceleft
ENCODING 123
SWIDTH 384 0
DWIDTH 5 0
BBX 9 13 -1 -2
BITMAP
0000
0180
0300
0300
0600
0600
0C00
0C00
0C00
0C00
1800
0C00
0000
ENDCHAR
STARTCHAR bar
ENCODING 124
SWIDTH 230 0
DWIDTH 3 0
BBX 7 13 -1 -2
BITMAP
00
00
06
06
0C
0C
0C
18
18
18
30
30
00
ENDCHAR
STARTCHAR braceright
ENCODING 125
SWIDTH 384 0
DWIDTH 5 0
BBX 9 13 -1 -2
BITMAP
0000
0600
0300
0300
0600
0600
0300
0C00
0C00
0C00
1800
3000
0000
ENDCHAR
STARTCHAR asciitilde
ENCODING 126
SWIDTH 538 0
DWIDTH 7 0
BBX 11 13 -1 -2
BITMAP
0000
0000
0000
03E0
0F80
0000
0000
0000
0000
0000
0000
0000
0000
ENDCHAR
STARTCHAR C177
ENCODING -1
SWIDTH 307 0
DWIDTH 4 0
BBX 8 13 -1 -2
BITMAP
00
00
00
07
0E
0E
0E
1C
1C
1C
38
38
00
ENDCHAR
STARTCHAR C200
ENCODING -1
SWIDTH 307 0
DWIDTH 4 0
BBX 8 13 -1 -2
BITMAP
00
00
00
07
0E
0E
0E
1C
1C
1C
38
38
00
ENDCHAR
STARTCHAR C201
ENCODING -1
SWIDTH 307 0
DWIDTH 4 0
BBX 8 13 -1 -2
BITMAP
00
00
00
07
0E
0E
0E
1C
1C
1C
38
38
00
ENDCHAR
STARTCHAR C202
ENCODING -1
SWIDTH 307 0
DWIDTH 4 0
BBX 8 13 -1 -2
BITMAP
00
00
00
07
0E
0E
0E
1C
1C
1C
38
38
00
ENDCHAR
STARTCHAR C203
ENCODING -1
SWIDTH 307 0
DWIDTH 4 0
BBX 8 13 -1 -2
BITMAP
00
00
00
07
0E
0E
0E
1C
1C
1C
38
38
00
ENDCHAR
STARTCHAR C204
ENCODING -1
SWIDTH 307 0
DWIDTH 4 0
BBX 8 13 -1 -2
BITMAP
00
00
00
07
0E
0E
0E
1C
1C
1C
38
38
00
ENDCHAR
STARTCHAR C205
ENCODING -1
SWIDTH 307 0
DWIDTH 4 0
BBX 8 13 -1 -2
BITMAP
00
00
00
07
0E
0E
0E
1C
1C
1C
38
38
00
ENDCHAR
STARTCHAR C206
ENCODING -1
SWIDTH 307 0
DWIDTH 4 0
BBX 8 13 -1 -2
BITMAP
00
00
00
07
0E
0E
0E
1C
1C
1C
38
38
00
ENDCHAR
STARTCHAR C207
ENCODING -1
SWIDTH 307 0
DWIDTH 4 0
BBX 8 13 -1 -2
BITMAP
00
00
00
07
0E
0E
0E
1C
1C
1C
38
38
00
ENDCHAR
STARTCHAR C210
ENCODING -1
SWIDTH 307 0
DWIDTH 4 0
BBX 8 13 -1 -2
BITMAP
00
00
00
07
0E
0E
0E
1C
1C
1C
38
38
00
ENDCHAR
STARTCHAR C211
ENCODING -1
SWIDTH 307 0
DWIDTH 4 0
BBX 8 13 -1 -2
BITMAP
00
00
00
07
0E
0E
0E
1C
1C
1C
38
38
00
ENDCHAR
STARTCHAR C212
ENCODING -1
SWIDTH 307 0
DWIDTH 4 0
BBX 8 13 -1 -2
BITMAP
00
00
00
07
0E
0E
0E
1C
1C
1C
38
38
00
ENDCHAR
STARTCHAR C213
ENCODING -1
SWIDTH 307 0
DWIDTH 4 0
BBX 8 13 -1 -2
BITMAP
00
00
00
07
0E
0E
0E
1C
1C
1C
38
38
00
ENDCHAR
STARTCHAR C214
ENCODING -1
SWIDTH 307 0
DWIDTH 4 0
BBX 8 13 -1 -2
BITMAP
00
00
00
07
0E
0E
0E
1C
1C
1C
38
38
00
ENDCHAR
STARTCHAR C215
ENCODING -1
SWIDTH 307 0
DWIDTH 4 0
BBX 8 13 -1 -2
BITMAP
00
00
00
07
0E
0E
0E
1C
1C
1C
38
38
00
ENDCHAR
STARTCHAR C216
ENCODING -1
SWIDTH 307 0
DWIDTH 4 0
BBX 8 13 -1 -2
BITMAP
00
00
00
07
0E
0E
0E
1C
1C
1C
38
38
00
ENDCHAR
STARTCHAR C217
ENCODING -1
SWIDTH 307 0
DWIDTH 4 0
BBX 8 13 -1 -2
BITMAP
00
00
00
07
0E
0E
0E
1C
1C
1C
38
38
00
ENDCHAR
STARTCHAR C220
ENCODING -1
SWIDTH 307 0
DWIDTH 4 0
BBX 8 13 -1 -2
BITMAP
00
00
00
07
0E
0E
0E
1C
1C
1C
38
38
00
ENDCHAR
STARTCHAR C221
ENCODING -1
SWIDTH 307 0
DWIDTH 4 0
BBX 8 13 -1 -2
BITMAP
00
00
00
03
0C
00
00
00
00
00
00
00
00
ENDCHAR
STARTCHAR C222
ENCODING -1
SWIDTH 307 0
DWIDTH 4 0
BBX 8 13 -1 -2
BITMAP
00
00
00
03
0C
00
00
00
00
00
00
00
00
ENDCHAR
STARTCHAR C223
ENCODING -1
SWIDTH 307 0
DWIDTH 4 0
BBX 8 13 -1 -2
BITMAP
00
00
00
07
0E
0E
0E
1C
1C
1C
38
38
00
ENDCHAR
STARTCHAR C224
ENCODING -1
SWIDTH 307 0
DWIDTH 4 0
BBX 8 13 -1 -2
BITMAP
00
00
00
07
0E
0E
0E
1C
1C
1C
38
38
00
ENDCHAR
STARTCHAR C225
ENCODING -1
SWIDTH 307 0
DWIDTH 4 0
BBX 8 13 -1 -2
BITMAP
00
00
00
07
0E
0E
0E
1C
1C
1C
38
38
00
ENDCHAR
STARTCHAR C226
ENCODING -1
SWIDTH 307 0
DWIDTH 4 0
BBX 8 13 -1 -2
BITMAP
00
00
00
07
0E
0E
0E
1C
1C
1C
38
38
00
ENDCHAR
STARTCHAR C227
ENCODING -1
SWIDTH 307 0
DWIDTH 4 0
BBX 8 13 -1 -2
BITMAP
00
00
00
07
0E
0E
0E
1C
1C
1C
38
38
00
ENDCHAR
STARTCHAR C230
ENCODING -1
SWIDTH 307 0
DWIDTH 4 0
BBX 8 13 -1 -2
BITMAP
00
00
00
07
0E
0E
0E
1C
1C
1C
38
38
00
ENDCHAR
STARTCHAR C231
ENCODING -1
SWIDTH 307 0
DWIDTH 4 0
BBX 8 13 -1 -2
BITMAP
00
00
00
07
0E
0E
0E
1C
1C
1C
38
38
00
ENDCHAR
STARTCHAR C232
ENCODING -1
SWIDTH 307 0
DWIDTH 4 0
BBX 8 13 -1 -2
BITMAP
00
00
00
07
0E
0E
0E
1C
1C
1C
38
38
00
ENDCHAR
STARTCHAR C233
ENCODING -1
SWIDTH 307 0
DWIDTH 4 0
BBX 8 13 -1 -2
BITMAP
00
00
00
07
0E
0E
0E
1C
1C
1C
38
38
00
ENDCHAR
STARTCHAR C234
ENCODING 176
SWIDTH 307 0
DWIDTH 4 0
BBX 8 13 -1 -2
BITMAP
00
00
00
07
0E
0E
0E
1C
1C
1C
38
38
00
ENDCHAR
STARTCHAR C235
ENCODING 178
SWIDTH 307 0
DWIDTH 4 0
BBX 8 13 -1 -2
BITMAP
00
00
00
07
0E
0E
0E
1C
1C
1C
38
38
00
ENDCHAR
STARTCHAR C236
ENCODING -1
SWIDTH 307 0
DWIDTH 4 0
BBX 8 13 -1 -2
BITMAP
00
00
00
07
0E
0E
0E
1C
1C
1C
38
38
00
ENDCHAR
STARTCHAR C237
ENCODING -1
SWIDTH 307 0
DWIDTH 4 0
BBX 8 13 -1 -2
BITMAP
00
00
00
07
0E
0E
0E
1C
1C
1C
38
38
00
ENDCHAR
STARTCHAR C240
ENCODING 160
SWIDTH 307 0
DWIDTH 4 0
BBX 8 13 -1 -2
BITMAP
00
00
00
00
00
00
00
00
00
00
00
00
00
ENDCHAR
STARTCHAR exclamdown
ENCODING 161
SWIDTH 307 0
DWIDTH 4 0
BBX 8 13 -1 -2
BITMAP
00
00
00
00
0C
00
0C
18
18
18
30
30
30
ENDCHAR
STARTCHAR cent
ENCODING 162
SWIDTH 538 0
DWIDTH 7 0
BBX 11 13 -1 -2
BITMAP
0000
0000
0000
0000
0180
0780
0CC0
1800
1800
1980
1E00
1800
0000
ENDCHAR
STARTCHAR sterling
ENCODING 163
SWIDTH 538 0
DWIDTH 7 0
BBX 11 13 -1 -2
BITMAP
0000
0000
0380
06C0
0C00
0600
0F00
0C00
1800
1800
3F00
0000
0000
ENDCHAR
STARTCHAR currency
ENCODING 164
SWIDTH 538 0
DWIDTH 7 0
BBX 11 13 -1 -2
BITMAP
0000
0000
0660
03C0
0CC0
0CC0
0CC0
0F00
1980
0000
0000
0000
0000
ENDCHAR
STARTCHAR yen
ENCODING 165
SWIDTH 538 0
DWIDTH 7 0
BBX 11 13 -1 -2
BITMAP
0000
0000
0660
0660
0CC0
0780
0FC0
0600
1F80
0600
0C00
0000
0000
ENDCHAR
STARTCHAR brokenbar
ENCODING 166
SWIDTH 230 0
DWIDTH 3 0
BBX 7 13 -1 -2
BITMAP
00
00
06
06
0C
0C
0C
00
18
18
30
30
30
ENDCHAR
STARTCHAR section
ENCODING 167
SWIDTH 538 0
DWIDTH 7 0
BBX 11 13 -1 -2
BITMAP
0000
0000
03C0
0660
0600
0F00
0D80
0D80
0780
0300
3300
1E00
0000
ENDCHAR
STARTCHAR dieresis
ENCODING 168
SWIDTH 307 0
DWIDTH 4 0
BBX 8 13 -1 -2
BITMAP
00
00
00
0B
00
00
00
00
00
00
00
00
00
ENDCHAR
STARTCHAR copyright
ENCODING 191
SWIDTH 692 0
DWIDTH 9 0
BBX 13 13 -1 -2
BITMAP
0000
0000
01E0
0330
0DF0
0F30
0DF0
0CC0
0780
0000
0000
0000
0000
ENDCHAR
STARTCHAR ordfeminine
ENCODING 170
SWIDTH 384 0
DWIDTH 5 0
BBX 9 13 -1 -2
BITMAP
0000
0000
0700
0380
0F00
0F00
0000
1E00
0000
0000
0000
0000
0000
ENDCHAR
STARTCHAR guillemotleft
ENCODING 171
SWIDTH 538 0
DWIDTH 7 0
BBX 11 13 -1 -2
BITMAP
0000
0000
0000
0000
0000
0000
03C0
0F00
1E00
0F00
0F00
0000
0000
ENDCHAR
STARTCHAR logicalnot
ENCODING 172
SWIDTH 538 0
DWIDTH 7 0
BBX 11 13 -1 -2
BITMAP
0000
0000
0000
0000
0000
0000
0000
1F80
0180
0000
0000
0000
0000
ENDCHAR
STARTCHAR hyphen
ENCODING 173
SWIDTH 307 0
DWIDTH 4 0
BBX 8 13 -1 -2
BITMAP
00
00
00
00
00
00
0E
00
00
00
00
00
00
ENDCHAR
STARTCHAR registered
ENCODING 174
SWIDTH 692 0
DWIDTH 9 0
BBX 13 13 -1 -2
BITMAP
0000
0000
01E0
0330
0FF0
0FB0
0FF0
0CC0
0780
0000
0000
0000
0000
ENDCHAR
STARTCHAR macron
ENCODING 175
SWIDTH 538 0
DWIDTH 7 0
BBX 11 13 -1 -2
BITMAP
0000
0FE0
0000
0000
0000
0000
0000
0000
0000
0000
0000
0000
0000
ENDCHAR
STARTCHAR degree
ENCODING 156
SWIDTH 384 0
DWIDTH 5 0
BBX 9 13 -1 -2
BITMAP
0000
0000
0300
0780
0600
0000
0000
0000
0000
0000
0000
0000
0000
ENDCHAR
STARTCHAR plusminus
ENCODING 177
SWIDTH 538 0
DWIDTH 7 0
BBX 11 13 -1 -2
BITMAP
0000
0000
0000
0000
0300
0300
0FC0
0600
0600
0000
3F00
0000
0000
ENDCHAR
STARTCHAR twosuperior
ENCODING 157
SWIDTH 307 0
DWIDTH 4 0
BBX 8 13 -1 -2
BITMAP
00
00
0E
03
0C
10
1E
00
00
00
00
00
00
ENDCHAR
STARTCHAR threesuperior
ENCODING 179
SWIDTH 307 0
DWIDTH 4 0
BBX 8 13 -1 -2
BITMAP
00
00
0E
03
0C
06
1C
00
00
00
00
00
00
ENDCHAR
STARTCHAR acute
ENCODING 180
SWIDTH 307 0
DWIDTH 4 0
BBX 8 13 -1 -2
BITMAP
00
00
03
06
00
00
00
00
00
00
00
00
00
ENDCHAR
STARTCHAR mu
ENCODING 181
SWIDTH 538 0
DWIDTH 7 0
BBX 11 13 -1 -2
BITMAP
0000
0000
0000
0000
0000
0D80
0D80
1B00
1B00
1B00
3F00
3000
3000
ENDCHAR
STARTCHAR paragraph
ENCODING 182
SWIDTH 538 0
DWIDTH 7 0
BBX 11 13 -1 -2
BITMAP
0000
0000
03E0
07E0
0FC0
0FC0
07C0
0780
0780
0780
0F00
0F00
0000
ENDCHAR
STARTCHAR periodcentered
ENCODING 183
SWIDTH 307 0
DWIDTH 4 0
BBX 8 13 -1 -2
BITMAP
00
00
00
00
00
00
0C
00
00
00
00
00
00
ENDCHAR
STARTCHAR cedilla
ENCODING 184
SWIDTH 307 0
DWIDTH 4 0
BBX 8 13 -1 -2
BITMAP
00
00
00
00
00
00
00
00
00
00
00
18
38
ENDCHAR
STARTCHAR onesuperior
ENCODING 185
SWIDTH 307 0
DWIDTH 4 0
BBX 8 13 -1 -2
BITMAP
00
00
03
07
06
06
06
00
00
00
00
00
00
ENDCHAR
STARTCHAR ordmasculine
ENCODING 186
SWIDTH 384 0
DWIDTH 5 0
BBX 9 13 -1 -2
BITMAP
0000
0000
0780
0780
0F00
0F00
0000
1E00
0000
0000
0000
0000
0000
ENDCHAR
STARTCHAR guillemotright
ENCODING 187
SWIDTH 538 0
DWIDTH 7 0
BBX 11 13 -1 -2
BITMAP
0000
0000
0000
0000
0000
0000
0F00
0F00
0780
0F00
3C00
0000
0000
ENDCHAR
STARTCHAR onequarter
ENCODING 188
SWIDTH 692 0
DWIDTH 9 0
BBX 13 13 -1 -2
BITMAP
0000
0000
0300
0718
0660
06C0
07B0
06E0
0DE0
19E0
00C0
0000
0000
ENDCHAR
STARTCHAR onehalf
ENCODING 189
SWIDTH 692 0
DWIDTH 9 0
BBX 13 13 -1 -2
BITMAP
0000
0000
0300
0718
0660
06C0
07E0
0660
0CC0
1980
03C0
0000
0000
ENDCHAR
STARTCHAR threequarters
ENCODING 190
SWIDTH 692 0
DWIDTH 9 0
BBX 13 13 -1 -2
BITMAP
0000
0000
0700
0198
0660
03C0
0FB0
06E0
0DE0
19E0
00C0
0000
0000
ENDCHAR
STARTCHAR questiondown
ENCODING 169
SWIDTH 538 0
DWIDTH 7 0
BBX 11 13 -1 -2
BITMAP
0000
0000
0000
0000
0300
0000
0300
0600
0C00
1800
3000
3300
1E00
ENDCHAR
STARTCHAR cyr-A
ENCODING 225
SWIDTH 615 0
DWIDTH 8 0
BBX 12 13 -1 -2
BITMAP
0000
0000
0180
0180
0780
0780
0CC0
1980
1F80
20C0
4180
0000
0000
ENDCHAR
STARTCHAR cyr-Be
ENCODING 226
SWIDTH 615 0
DWIDTH 8 0
BBX 12 13 -1 -2
BITMAP
0000
0000
07E0
0600
0C00
0C00
0F80
1980
1980
1980
3E00
0000
0000
ENDCHAR
STARTCHAR cyr-Ve
ENCODING 247
SWIDTH 615 0
DWIDTH 8 0
BBX 12 13 -1 -2
BITMAP
0000
0000
07C0
0660
0CC0
0CC0
0F80
1980
1980
1980
3E00
0000
0000
ENDCHAR
STARTCHAR cyr-Ghe
ENCODING 231
SWIDTH 615 0
DWIDTH 8 0
BBX 12 13 -1 -2
BITMAP
0000
0000
07E0
0600
0C00
0C00
0C00
1800
1800
1800
3000
0000
0000
ENDCHAR
STARTCHAR cyr-De
ENCODING 228
SWIDTH 846 0
DWIDTH 11 0
BBX 15 13 -1 -2
BITMAP
0000
0000
01F8
0198
0330
0330
0330
0660
0660
0C60
3FE0
3060
0000
ENDCHAR
STARTCHAR cyr-Ie
ENCODING 229
SWIDTH 615 0
DWIDTH 8 0
BBX 12 13 -1 -2
BITMAP
0000
0000
07E0
0600
0C00
0C00
0F80
1800
1800
1800
3F00
0000
0000
ENDCHAR
STARTCHAR cyr-Zhe
ENCODING 246
SWIDTH 923 0
DWIDTH 12 0
BBX 16 13 -1 -2
BITMAP
0000
0000
0863
0666
06D8
03F0
03F0
07E0
0DB0
1998
4318
0000
0000
ENDCHAR
STARTCHAR cyr-Ze
ENCODING 250
SWIDTH 615 0
DWIDTH 8 0
BBX 12 13 -1 -2
BITMAP
0000
0000
03C0
0660
00C0
00C0
0780
0180
0180
1980
1E00
0000
0000
ENDCHAR
STARTCHAR cyr-I
ENCODING 233
SWIDTH 692 0
DWIDTH 9 0
BBX 13 13 -1 -2
BITMAP
0000
0000
0630
0670
0CE0
0DE0
0F60
1EC0
1CC0
1CC0
3180
0000
0000
ENDCHAR
STARTCHAR cyr-I-short
ENCODING 234
SWIDTH 692 0
DWIDTH 9 0
BBX 13 13 -1 -2
BITMAP
01B0
01C0
0630
0670
0CE0
0DE0
0F60
1EC0
1CC0
1CC0
3180
0000
0000
ENDCHAR
STARTCHAR cyr-Ka
ENCODING 235
SWIDTH 615 0
DWIDTH 8 0
BBX 12 13 -1 -2
BITMAP
0000
0000
0660
06C0
0F00
0E00
0E00
1E00
1B00
1980
3180
0000
0000
ENDCHAR
STARTCHAR cyr-El
ENCODING 236
SWIDTH 769 0
DWIDTH 10 0
BBX 14 13 -1 -2
BITMAP
0000
0000
03F8
0318
0630
0630
0630
0C60
0C60
0C60
30C0
0000
0000
ENDCHAR
STARTCHAR cyr-Em
ENCODING 237
SWIDTH 769 0
DWIDTH 10 0
BBX 14 13 -1 -2
BITMAP
0000
0000
0618
0618
0E70
0E70
0FF0
1FE0
1B60
1B60
30C0
0000
0000
ENDCHAR
STARTCHAR cyr-En
ENCODING 238
SWIDTH 692 0
DWIDTH 9 0
BBX 13 13 -1 -2
BITMAP
0000
0000
0630
0630
0C60
0C60
0FE0
18C0
18C0
18C0
3180
0000
0000
ENDCHAR
STARTCHAR cyr-O
ENCODING 239
SWIDTH 692 0
DWIDTH 9 0
BBX 13 13 -1 -2
BITMAP
0000
0000
03E0
0630
0C60
0C60
0C60
18C0
18C0
18C0
1F00
0000
0000
ENDCHAR
STARTCHAR cyr-Pe
ENCODING 240
SWIDTH 692 0
DWIDTH 9 0
BBX 13 13 -1 -2
BITMAP
0000
0000
07F0
0630
0C60
0C60
0C60
18C0
18C0
18C0
3180
0000
0000
ENDCHAR
STARTCHAR cyr-Er
ENCODING 242
SWIDTH 615 0
DWIDTH 8 0
BBX 12 13 -1 -2
BITMAP
0000
0000
07E0
0630
0C60
0C60
0FC0
1800
1800
1800
3000
0000
0000
ENDCHAR
STARTCHAR cyr-Es
ENCODING 243
SWIDTH 615 0
DWIDTH 8 0
BBX 12 13 -1 -2
BITMAP
0000
0000
03E0
0630
0C00
0C00
0C00
1800
1800
18C0
1F00
0000
0000
ENDCHAR
STARTCHAR cyr-Te
ENCODING 244
SWIDTH 615 0
DWIDTH 8 0
BBX 12 13 -1 -2
BITMAP
0000
0000
07E0
0180
0300
0300
0300
0600
0600
0600
0C00
0000
0000
ENDCHAR
STARTCHAR cyr-U
ENCODING 245
SWIDTH 615 0
DWIDTH 8 0
BBX 12 13 -1 -2
BITMAP
0000
0000
0830
0830
0CC0
0780
0300
0600
0C00
1800
4000
0000
0000
ENDCHAR
STARTCHAR cyr-Ef
ENCODING 230
SWIDTH 769 0
DWIDTH 10 0
BBX 14 13 -1 -2
BITMAP
0000
0000
03F0
06D8
0DB0
0DB0
0DB0
1B60
1B60
0FC0
0600
0000
0000
ENDCHAR
STARTCHAR cyr-Kha
ENCODING 232
SWIDTH 615 0
DWIDTH 8 0
BBX 12 13 -1 -2
BITMAP
0000
0000
0830
0830
0CC0
0780
0300
0F00
1980
20C0
4180
0000
0000
ENDCHAR
STARTCHAR cyr-Tse
ENCODING 227
SWIDTH 692 0
DWIDTH 9 0
BBX 13 13 -1 -2
BITMAP
0000
0000
0630
0630
0C60
0C60
0C60
18C0
18C0
18C0
3FC0
00C0
0000
ENDCHAR
STARTCHAR cyr-Che
ENCODING 254
SWIDTH 692 0
DWIDTH 9 0
BBX 13 13 -1 -2
BITMAP
0000
0000
0630
0630
0C60
0C60
07E0
00C0
00C0
00C0
0180
0000
0000
ENDCHAR
STARTCHAR cyr-Sha
ENCODING 251
SWIDTH 923 0
DWIDTH 12 0
BBX 16 13 -1 -2
BITMAP
0000
0000
0666
0666
0CCC
0CCC
0CCC
1998
1998
1998
3FF0
0000
0000
ENDCHAR
STARTCHAR cyr-Shcha
ENCODING 253
SWIDTH 923 0
DWIDTH 12 0
BBX 16 13 -1 -2
BITMAP
0000
0000
0666
0666
0CCC
0CCC
0CCC
1998
1998
1998
3FF8
0018
0000
ENDCHAR
STARTCHAR cyr-Ier
ENCODING 255
SWIDTH 692 0
DWIDTH 9 0
BBX 13 13 -1 -2
BITMAP
0000
0000
0F00
0300
0600
0600
07E0
0C60
0C60
0C60
1F80
0000
0000
ENDCHAR
STARTCHAR cyr-Iery
ENCODING 249
SWIDTH 846 0
DWIDTH 11 0
BBX 15 13 -1 -2
BITMAP
0000
0000
060C
060C
0C18
0C18
0FD8
18F0
18F0
18F0
3F60
0000
0000
ENDCHAR
STARTCHAR cyr-Ierik
ENCODING 248
SWIDTH 615 0
DWIDTH 8 0
BBX 12 13 -1 -2
BITMAP
0000
0000
0600
0600
0C00
0C00
0FC0
18C0
18C0
18C0
3F00
0000
0000
ENDCHAR
STARTCHAR cyr-E-rev
ENCODING 252
SWIDTH 692 0
DWIDTH 9 0
BBX 13 13 -1 -2
BITMAP
0000
0000
03E0
0630
0060
0060
03E0
00C0
00C0
18C0
1F00
0000
0000
ENDCHAR
STARTCHAR cyr-Yu
ENCODING 224
SWIDTH 846 0
DWIDTH 11 0
BBX 15 13 -1 -2
BITMAP
0000
0000
06F8
078C
0F18
0F18
0F18
1E30
1E30
1E30
37C0
0000
0000
ENDCHAR
STARTCHAR cyr-Ya
ENCODING 241
SWIDTH 692 0
DWIDTH 9 0
BBX 13 13 -1 -2
BITMAP
0000
0000
03F0
0630
0C60
0C60
07E0
03C0
06C0
0CC0
3180
0000
0000
ENDCHAR
STARTCHAR cyr-a
ENCODING 193
SWIDTH 538 0
DWIDTH 7 0
BBX 11 13 -1 -2
BITMAP
0000
0000
0000
0000
0000
0780
00C0
0F80
1980
1980
1F00
0000
0000
ENDCHAR
STARTCHAR cyr-be
ENCODING 194
SWIDTH 538 0
DWIDTH 7 0
BBX 11 13 -1 -2
BITMAP
0000
0000
0060
03C0
0C00
0F80
0CC0
1980
1980
1980
1E00
0000
0000
ENDCHAR
STARTCHAR cyr-ve
ENCODING 215
SWIDTH 538 0
DWIDTH 7 0
BBX 11 13 -1 -2
BITMAP
0000
0000
0000
0000
0000
0F80
0CC0
1F00
1980
1980
3E00
0000
0000
ENDCHAR
STARTCHAR cyr-ghe
ENCODING 199
SWIDTH 461 0
DWIDTH 6 0
BBX 10 13 -1 -2
BITMAP
0000
0000
0000
0000
0000
0F80
0C00
1800
1800
1800
3000
0000
0000
ENDCHAR
STARTCHAR cyr-de
ENCODING 196
SWIDTH 615 0
DWIDTH 8 0
BBX 12 13 -1 -2
BITMAP
0000
0000
0000
0000
0000
07C0
06C0
0D80
0D80
0D80
3F80
3180
0000
ENDCHAR
STARTCHAR cyr-ie
ENCODING 197
SWIDTH 538 0
DWIDTH 7 0
BBX 11 13 -1 -2
BITMAP
0000
0000
0000
0000
0000
0780
0CC0
1F80
1800
1980
1E00
0000
0000
ENDCHAR
STARTCHAR cyr-zhe
ENCODING 214
SWIDTH 692 0
DWIDTH 9 0
BBX 13 13 -1 -2
BITMAP
0000
0000
0000
0000
0000
0DB0
07E0
0780
0FC0
1B60
36C0
0000
0000
ENDCHAR
STARTCHAR cyr-z
ENCODING 218
SWIDTH 538 0
DWIDTH 7 0
BBX 11 13 -1 -2
BITMAP
0000
0000
0000
0000
0000
0780
0CC0
0700
0180
1980
1E00
0000
0000
ENDCHAR
STARTCHAR cyr-i
ENCODING 201
SWIDTH 538 0
DWIDTH 7 0
BBX 11 13 -1 -2
BITMAP
0000
0000
0000
0000
0000
0CC0
0CC0
1B80
1F80
1D80
3300
0000
0000
ENDCHAR
STARTCHAR cyr-i-short
ENCODING 202
SWIDTH 538 0
DWIDTH 7 0
BBX 11 13 -1 -2
BITMAP
0000
0000
0000
03C0
0300
0CC0
0CC0
1B80
1F80
1D80
3300
0000
0000
ENDCHAR
STARTCHAR cyr-ka
ENCODING 203
SWIDTH 538 0
DWIDTH 7 0
BBX 11 13 -1 -2
BITMAP
0000
0000
0000
0000
0000
0D80
0F00
1C00
1E00
1B00
3300
0000
0000
ENDCHAR
STARTCHAR cyr-el
ENCODING 204
SWIDTH 615 0
DWIDTH 8 0
BBX 12 13 -1 -2
BITMAP
0000
0000
0000
0000
0000
07E0
0660
0CC0
0CC0
0CC0
3180
0000
0000
ENDCHAR
STARTCHAR cyr-em
ENCODING 205
SWIDTH 692 0
DWIDTH 9 0
BBX 13 13 -1 -2
BITMAP
0000
0000
0000
0000
0000
0C30
0E70
1FE0
1B60
1860
30C0
30C0
0000
ENDCHAR
STARTCHAR cyr-en
ENCODING 206
SWIDTH 538 0
DWIDTH 7 0
BBX 11 13 -1 -2
BITMAP
0000
0000
0000
0000
0000
0CC0
0CC0
1F80
1980
1980
3300
0000
0000
ENDCHAR
STARTCHAR cyr-o
ENCODING 207
SWIDTH 538 0
DWIDTH 7 0
BBX 11 13 -1 -2
BITMAP
0000
0000
0000
0000
0000
0780
0CC0
1980
1980
1980
1E00
0000
0000
ENDCHAR
STARTCHAR cyr-pe
ENCODING 208
SWIDTH 538 0
DWIDTH 7 0
BBX 11 13 -1 -2
BITMAP
0000
0000
0000
0000
0000
0FC0
0CC0
1980
1980
1980
3300
0000
0000
ENDCHAR
STARTCHAR cyr-er
ENCODING 210
SWIDTH 538 0
DWIDTH 7 0
BBX 11 13 -1 -2
BITMAP
0000
0000
0000
0000
0000
0F80
0CC0
1980
1980
1980
3E00
3000
3000
ENDCHAR
STARTCHAR cyr-es
ENCODING 211
SWIDTH 538 0
DWIDTH 7 0
BBX 11 13 -1 -2
BITMAP
0000
0000
0000
0000
0000
0780
0CC0
1800
1800
1980
1E00
0000
0000
ENDCHAR
STARTCHAR cyr-te
ENCODING 212
SWIDTH 538 0
DWIDTH 7 0
BBX 11 13 -1 -2
BITMAP
0000
0000
0000
0000
0000
0FC0
0300
0600
0600
0600
0C00
0000
0000
ENDCHAR
STARTCHAR cyr-u
ENCODING 213
SWIDTH 461 0
DWIDTH 6 0
BBX 10 13 -1 -2
BITMAP
0000
0000
0000
0000
0000
0D80
0D80
1B00
1B00
0E00
1800
1800
7000
ENDCHAR
STARTCHAR cyr-ef
ENCODING 198
SWIDTH 538 0
DWIDTH 7 0
BBX 11 13 -1 -2
BITMAP
0000
0000
0000
0000
0300
0780
0FC0
1F80
1F80
1F80
1E00
0C00
0C00
ENDCHAR
STARTCHAR cyr-kha
ENCODING 200
SWIDTH 461 0
DWIDTH 6 0
BBX 10 13 -1 -2
BITMAP
0000
0000
0000
0000
0000
0D80
0D80
0E00
0E00
1B00
3600
0000
0000
ENDCHAR
STARTCHAR cyr-tse
ENCODING 195
SWIDTH 615 0
DWIDTH 8 0
BBX 12 13 -1 -2
BITMAP
0000
0000
0000
0000
0000
0CC0
0CC0
1980
1980
1980
3F80
0180
0000
ENDCHAR
STARTCHAR cyr-che
ENCODING 222
SWIDTH 538 0
DWIDTH 7 0
BBX 11 13 -1 -2
BITMAP
0000
0000
0000
0000
0000
0CC0
0CC0
1980
0F80
0180
0300
0000
0000
ENDCHAR
STARTCHAR cyr-sha
ENCODING 219
SWIDTH 692 0
DWIDTH 9 0
BBX 13 13 -1 -2
BITMAP
0000
0000
0000
0000
0000
0DB0
0DB0
1B60
1B60
1B60
3FC0
0000
0000
ENDCHAR
STARTCHAR cyr-shcha
ENCODING 221
SWIDTH 769 0
DWIDTH 10 0
BBX 14 13 -1 -2
BITMAP
0000
0000
0000
0000
0000
0DB0
0DB0
1B60
1B60
1B60
3FE0
0060
0000
ENDCHAR
STARTCHAR cyr-ier
ENCODING 223
SWIDTH 538 0
DWIDTH 7 0
BBX 11 13 -1 -2
BITMAP
0000
0000
0000
0000
0000
0E00
0600
0F00
0D80
0D80
1E00
0000
0000
ENDCHAR
STARTCHAR cyr-iery
ENCODING 217
SWIDTH 615 0
DWIDTH 8 0
BBX 12 13 -1 -2
BITMAP
0000
0000
0000
0000
0000
0C60
0C60
1EC0
1BC0
1BC0
3D80
0000
0000
ENDCHAR
STARTCHAR cyr-ierik
ENCODING 216
SWIDTH 461 0
DWIDTH 6 0
BBX 10 13 -1 -2
BITMAP
0000
0000
0000
0000
0000
0C00
0C00
1E00
1B00
1B00
3C00
0000
0000
ENDCHAR
STARTCHAR cyr-e-rev
ENCODING 220
SWIDTH 461 0
DWIDTH 6 0
BBX 10 13 -1 -2
BITMAP
0000
0000
0000
0000
0000
0F00
0180
1F00
0300
0300
3C00
0000
0000
ENDCHAR
STARTCHAR cyr-yu
ENCODING 192
SWIDTH 615 0
DWIDTH 8 0
BBX 12 13 -1 -2
BITMAP
0000
0000
0000
0000
0000
0DC0
0F60
1EC0
1EC0
1EC0
3700
0000
0000
ENDCHAR
STARTCHAR cyr-ya
ENCODING 209
SWIDTH 461 0
DWIDTH 6 0
BBX 10 13 -1 -2
BITMAP
0000
0000
0000
0000
0000
0780
0D80
1B00
0F00
1B00
3600
0000
0000
ENDCHAR
ENDFONT
