STARTFONT 2.1
COMMENT Copyright (C) 1990-1991 EWT Consulting
COMMENT Portions Copyright (C) 1994-1995 Cronyx Ltd.
COMMENT Changes Copyright (C) 1996 by Andrey A. Chernov, Moscow, Russia.
COMMENT Modified by Serge Vakulenko, <vak@cronyx.ru>
COMMENT This software may be used, modified, copied, distributed, and sold,
COMMENT in both source and binary form provided that the copyright
COMMENT and these terms are retained. Under no circumstances is the author
COMMENT responsible for the proper functioning of this software, nor does
COMMENT the author assume any responsibility for damages incurred with its use.
COMMENT $XFree86: xc/fonts/bdf/cyrillic/crox4to.bdf,v 3.2 1996/09/01 12:18:34 dawes Exp $
FONT -Cronyx-Times-Medium-I-Normal--20-140-100-100-P-74-KOI8-R
SIZE 14 96 96
FONTBOUNDINGBOX 24 21 -1 -5
STARTPROPERTIES 19
DEFAULT_CHAR 32
FONT_ASCENT 16
FONT_DESCENT 5
SPACING "P"
FONTNAME_REGISTRY ""
FOUNDRY "Cronyx"
FAMILY_NAME "Times"
WEIGHT_NAME "Medium"
SLANT "I"
SETWIDTH_NAME "Normal"
ADD_STYLE_NAME ""
AVERAGE_WIDTH 74
CHARSET_REGISTRY "KOI8"
CHARSET_ENCODING "R"
PIXEL_SIZE 20
POINT_SIZE 140
RESOLUTION_X 100
RESOLUTION_Y 100
COPYRIGHT "Copyright (C) 1990, 1991 EWT Consulting, Portions Copyright (C) 1994 Cronyx Ltd., Portions Copyright (C) 1996 by Andrey A. Chernov, Moscow, Russia."
ENDPROPERTIES
CHARS 224
STARTCHAR space
ENCODING 32
SWIDTH 190 0
DWIDTH 4 0
BBX 11 21 -1 -5
BITMAP
0000
0000
0000
0000
0000
0000
0000
0000
0000
0000
0000
0000
0000
0000
0000
0000
0000
0000
0000
0000
0000
ENDCHAR
STARTCHAR exclam
ENCODING 33
SWIDTH 190 0
DWIDTH 4 0
BBX 11 21 -1 -5
BITMAP
0000
0000
0000
0180
0180
0180
0300
0300
0300
0600
0600
0600
0000
0000
0C00
1800
0000
0000
0000
0000
0000
ENDCHAR
STARTCHAR quotedbl
ENCODING 34
SWIDTH 380 0
DWIDTH 8 0
BBX 15 21 -1 -5
BITMAP
0000
0000
0000
0198
0198
0198
0330
0000
0000
0000
0000
0000
0000
0000
0000
0000
0000
0000
0000
0000
0000
ENDCHAR
STARTCHAR numbersign
ENCODING 35
SWIDTH 428 0
DWIDTH 9 0
BBX 16 21 -1 -5
BITMAP
0000
0000
0036
006C
006C
006C
03FC
01B0
01B0
0360
0360
0FF0
0D80
0D80
0D80
1B00
0000
0000
0000
0000
0000
ENDCHAR
STARTCHAR dollar
ENCODING 36
SWIDTH 428 0
DWIDTH 9 0
BBX 16 21 -1 -5
BITMAP
0000
0010
0010
0078
00AC
01A4
0348
03C0
01E0
01E0
00E0
00B0
0960
0960
0D40
0F00
0200
0200
0000
0000
0000
ENDCHAR
STARTCHAR percent
ENCODING 37
SWIDTH 714 0
DWIDTH 15 0
BBX 22 21 -1 -5
BITMAP
000000
000000
000000
007060
00DFC0
018980
031300
032600
01CC00
001800
003380
006640
00D880
019880
031900
061C00
000000
000000
000000
000000
000000
ENDCHAR
STARTCHAR ampersand
ENCODING 38
SWIDTH 666 0
DWIDTH 14 0
BBX 21 21 -1 -5
BITMAP
000000
000000
000000
003C00
006600
006200
00CC00
007800
0071C0
01E100
033100
061A00
0C1800
0C1800
063C80
07CE00
000000
000000
000000
000000
000000
ENDCHAR
STARTCHAR quoteright
ENCODING 39
SWIDTH 190 0
DWIDTH 4 0
BBX 11 21 -1 -5
BITMAP
0000
0000
0000
0180
0180
0180
0300
0000
0000
0000
0000
0000
0000
0000
0000
0000
0000
0000
0000
0000
0000
ENDCHAR
STARTCHAR parenleft
ENCODING 40
SWIDTH 285 0
DWIDTH 6 0
BBX 13 21 -1 -5
BITMAP
0000
0010
0030
0040
00C0
00C0
0100
0300
0300
0600
0600
0600
0C00
0C00
0400
0C00
0C00
0400
0C00
0400
0000
ENDCHAR
STARTCHAR parenright
ENCODING 41
SWIDTH 285 0
DWIDTH 6 0
BBX 13 21 -1 -5
BITMAP
0000
0080
00C0
0080
00C0
00C0
0080
00C0
00C0
0180
0180
0180
0300
0300
0200
0C00
0C00
0800
3000
2000
0000
ENDCHAR
STARTCHAR asterisk
ENCODING 42
SWIDTH 428 0
DWIDTH 9 0
BBX 16 21 -1 -5
BITMAP
0000
0000
0010
00A8
00F8
0070
01F0
0150
0040
0000
0000
0000
0000
0000
0000
0000
0000
0000
0000
0000
0000
ENDCHAR
STARTCHAR plus
ENCODING 43
SWIDTH 476 0
DWIDTH 10 0
BBX 17 21 -1 -5
BITMAP
000000
000000
000000
000000
000000
003000
006000
006000
03FC00
07F800
00C000
00C000
018000
000000
000000
000000
000000
000000
000000
000000
000000
ENDCHAR
STARTCHAR comma
ENCODING 44
SWIDTH 190 0
DWIDTH 4 0
BBX 11 21 -1 -5
BITMAP
0000
0000
0000
0000
0000
0000
0000
0000
0000
0000
0000
0000
0000
0000
0C00
1800
0800
0800
2000
0000
0000
ENDCHAR
STARTCHAR minus
ENCODING 45
SWIDTH 285 0
DWIDTH 6 0
BBX 13 21 -1 -5
BITMAP
0000
0000
0000
0000
0000
0000
0000
0000
03C0
0780
0000
0000
0000
0000
0000
0000
0000
0000
0000
0000
0000
ENDCHAR
STARTCHAR period
ENCODING 46
SWIDTH 190 0
DWIDTH 4 0
BBX 11 21 -1 -5
BITMAP
0000
0000
0000
0000
0000
0000
0000
0000
0000
0000
0000
0000
0000
0000
0C00
1800
0000
0000
0000
0000
0000
ENDCHAR
STARTCHAR slash
ENCODING 47
SWIDTH 238 0
DWIDTH 5 0
BBX 12 21 -1 -5
BITMAP
0000
0000
0030
0060
0060
0060
0180
0180
0180
0300
0600
0600
0C00
0C00
1800
3000
3000
3000
0000
0000
0000
ENDCHAR
STARTCHAR zero
ENCODING 48
SWIDTH 428 0
DWIDTH 9 0
BBX 16 21 -1 -5
BITMAP
0000
0000
0000
0070
00D8
018C
0318
0318
0318
0630
0630
0630
0C60
0C60
06C0
0700
0000
0000
0000
0000
0000
ENDCHAR
STARTCHAR one
ENCODING 49
SWIDTH 428 0
DWIDTH 9 0
BBX 16 21 -1 -5
BITMAP
0000
0000
0000
0010
0030
00F0
0060
0060
0060
00C0
00C0
00C0
0180
0180
0180
0FC0
0000
0000
0000
0000
0000
ENDCHAR
STARTCHAR two
ENCODING 50
SWIDTH 428 0
DWIDTH 9 0
BBX 16 21 -1 -5
BITMAP
0000
0000
0000
0070
00F8
011C
0018
0018
0030
0040
00C0
0180
0200
0420
0FE0
1F80
0000
0000
0000
0000
0000
ENDCHAR
STARTCHAR three
ENCODING 51
SWIDTH 428 0
DWIDTH 9 0
BBX 16 21 -1 -5
BITMAP
0000
0000
0000
0070
0098
010C
0018
0010
0020
01E0
0070
0030
0060
0060
0CC0
0F00
0000
0000
0000
0000
0000
ENDCHAR
STARTCHAR four
ENCODING 52
SWIDTH 428 0
DWIDTH 9 0
BBX 16 21 -1 -5
BITMAP
0000
0000
0000
0018
0018
0038
0070
00B0
00B0
0260
0260
07F0
0FE0
00C0
00C0
0180
0000
0000
0000
0000
0000
ENDCHAR
STARTCHAR five
ENCODING 53
SWIDTH 428 0
DWIDTH 9 0
BBX 16 21 -1 -5
BITMAP
0000
0000
0000
007C
007C
0080
0100
03E0
03F0
0070
0030
0030
0060
0060
0CC0
0F00
0000
0000
0000
0000
0000
ENDCHAR
STARTCHAR six
ENCODING 54
SWIDTH 428 0
DWIDTH 9 0
BBX 16 21 -1 -5
BITMAP
0000
0000
0000
0038
0060
00C0
0180
0300
0360
0760
0630
0630
0C60
0C60
06C0
0700
0000
0000
0000
0000
0000
ENDCHAR
STARTCHAR seven
ENCODING 55
SWIDTH 428 0
DWIDTH 9 0
BBX 16 21 -1 -5
BITMAP
0000
0000
0000
00FC
00FC
0118
0030
0060
0060
00C0
0180
0180
0300
0600
0600
0C00
0000
0000
0000
0000
0000
ENDCHAR
STARTCHAR eight
ENCODING 56
SWIDTH 428 0
DWIDTH 9 0
BBX 16 21 -1 -5
BITMAP
0000
0000
0000
0070
00D8
018C
0318
0390
01E0
01E0
0270
0630
0C60
0C60
06C0
0700
0000
0000
0000
0000
0000
ENDCHAR
STARTCHAR nine
ENCODING 57
SWIDTH 428 0
DWIDTH 9 0
BBX 16 21 -1 -5
BITMAP
0000
0000
0000
0070
00D8
018C
0318
0318
0318
0370
01B0
0030
0040
00C0
0180
0E00
0000
0000
0000
0000
0000
ENDCHAR
STARTCHAR colon
ENCODING 58
SWIDTH 238 0
DWIDTH 5 0
BBX 12 21 -1 -5
BITMAP
0000
0000
0000
0000
0000
0000
0000
0300
0300
0000
0000
0000
0000
0000
0C00
1800
0000
0000
0000
0000
0000
ENDCHAR
STARTCHAR semicolon
ENCODING 59
SWIDTH 238 0
DWIDTH 5 0
BBX 12 21 -1 -5
BITMAP
0000
0000
0000
0000
0000
0000
0000
0300
0300
0000
0000
0000
0000
0000
0C00
1800
0800
0800
2000
0000
0000
ENDCHAR
STARTCHAR less
ENCODING 60
SWIDTH 476 0
DWIDTH 10 0
BBX 17 21 -1 -5
BITMAP
000000
000000
000000
000000
000000
000600
003800
007000
01C000
070000
038000
00E000
00E000
003000
000000
000000
000000
000000
000000
000000
000000
ENDCHAR
STARTCHAR equal
ENCODING 61
SWIDTH 476 0
DWIDTH 10 0
BBX 17 21 -1 -5
BITMAP
000000
000000
000000
000000
000000
000000
000000
03FC00
03FC00
000000
000000
07F800
0FF000
000000
000000
000000
000000
000000
000000
000000
000000
ENDCHAR
STARTCHAR greater
ENCODING 62
SWIDTH 476 0
DWIDTH 10 0
BBX 17 21 -1 -5
BITMAP
000000
000000
000000
000000
000000
018000
01C000
00E000
003800
003800
007000
01C000
070000
0C0000
000000
000000
000000
000000
000000
000000
000000
ENDCHAR
STARTCHAR question
ENCODING 63
SWIDTH 380 0
DWIDTH 8 0
BBX 15 21 -1 -5
BITMAP
0000
0000
0000
00F0
0118
0198
0330
0030
0060
00C0
0180
0100
0200
0000
0300
0600
0000
0000
0000
0000
0000
ENDCHAR
STARTCHAR at
ENCODING 64
SWIDTH 809 0
DWIDTH 17 0
BBX 24 21 -1 -5
BITMAP
000000
000000
000000
000F80
0038E0
006030
018030
018DB0
031B98
066330
066230
066630
0C6EC0
063380
060000
060000
038600
00F800
000000
000000
000000
ENDCHAR
STARTCHAR A
ENCODING 65
SWIDTH 571 0
DWIDTH 12 0
BBX 19 21 -1 -5
BITMAP
000000
000000
000000
001000
001800
003800
005800
005800
009800
011800
021800
03FC00
041800
081800
080C00
383C00
000000
000000
000000
000000
000000
ENDCHAR
STARTCHAR B
ENCODING 66
SWIDTH 619 0
DWIDTH 13 0
BBX 20 21 -1 -5
BITMAP
000000
000000
000000
01FC00
00C300
00C180
018300
018300
018600
03FC00
030600
030300
060600
060600
060C00
1FE000
000000
000000
000000
000000
000000
ENDCHAR
STARTCHAR C
ENCODING 67
SWIDTH 619 0
DWIDTH 13 0
BBX 20 21 -1 -5
BITMAP
000000
000000
000000
001E80
007180
00C080
018000
030000
030000
060000
060000
060000
060000
060200
038C00
01E000
000000
000000
000000
000000
000000
ENDCHAR
STARTCHAR D
ENCODING 68
SWIDTH 666 0
DWIDTH 14 0
BBX 21 21 -1 -5
BITMAP
000000
000000
000000
01FE00
00C180
00C0C0
018180
0180C0
0180C0
030180
030180
030180
060600
060600
060C00
1FE000
000000
000000
000000
000000
000000
ENDCHAR
STARTCHAR E
ENCODING 69
SWIDTH 571 0
DWIDTH 12 0
BBX 19 21 -1 -5
BITMAP
000000
000000
000000
01FF00
00C100
00C000
018000
018000
018400
03F800
030800
030000
060000
060000
060400
1FF000
000000
000000
000000
000000
000000
ENDCHAR
STARTCHAR F
ENCODING 70
SWIDTH 523 0
DWIDTH 11 0
BBX 18 21 -1 -5
BITMAP
000000
000000
000000
01FF00
00C100
00C000
018000
018000
018400
03F800
030800
030000
060000
060000
060000
1E0000
000000
000000
000000
000000
000000
ENDCHAR
STARTCHAR G
ENCODING 71
SWIDTH 666 0
DWIDTH 14 0
BBX 21 21 -1 -5
BITMAP
000000
000000
000000
001E80
007180
00C080
018000
030000
030000
060000
060780
060300
060600
060600
038E00
01F000
000000
000000
000000
000000
000000
ENDCHAR
STARTCHAR H
ENCODING 72
SWIDTH 666 0
DWIDTH 14 0
BBX 21 21 -1 -5
BITMAP
000000
000000
000000
01E1E0
00C0C0
00C0C0
018180
018180
018180
03FF00
030300
030300
060600
060600
060600
1E1E00
000000
000000
000000
000000
000000
ENDCHAR
STARTCHAR I
ENCODING 73
SWIDTH 285 0
DWIDTH 6 0
BBX 13 21 -1 -5
BITMAP
0000
0000
0000
01E0
00C0
00C0
0180
0180
0180
0300
0300
0300
0600
0600
0600
1E00
0000
0000
0000
0000
0000
ENDCHAR
STARTCHAR J
ENCODING 74
SWIDTH 380 0
DWIDTH 8 0
BBX 15 21 -1 -5
BITMAP
0000
0000
0000
0078
0030
0030
0060
0060
0060
00C0
00C0
00C0
0180
0D80
0D80
0E00
0000
0000
0000
0000
0000
ENDCHAR
STARTCHAR K
ENCODING 75
SWIDTH 619 0
DWIDTH 13 0
BBX 20 21 -1 -5
BITMAP
000000
000000
000000
01E7C0
00C300
00C600
019800
01B000
01F000
03B000
033800
031800
061800
061C00
060C00
1E7E00
000000
000000
000000
000000
000000
ENDCHAR
STARTCHAR L
ENCODING 76
SWIDTH 571 0
DWIDTH 12 0
BBX 19 21 -1 -5
BITMAP
000000
000000
000000
01E000
00C000
00C000
018000
018000
018000
030000
030000
030000
060000
060000
060400
1FF000
000000
000000
000000
000000
000000
ENDCHAR
STARTCHAR M
ENCODING 77
SWIDTH 761 0
DWIDTH 16 0
BBX 23 21 -1 -5
BITMAP
000000
000000
000000
01E078
00E070
00F0F0
016160
016160
013260
0264C0
0264C0
0238C0
047180
047180
042180
1C4780
000000
000000
000000
000000
000000
ENDCHAR
STARTCHAR N
ENCODING 78
SWIDTH 666 0
DWIDTH 14 0
BBX 21 21 -1 -5
BITMAP
000000
000000
000000
01E0E0
00E040
00F040
017080
013880
011880
023900
021D00
020F00
040E00
040E00
040600
1C0400
000000
000000
000000
000000
000000
ENDCHAR
STARTCHAR O
ENCODING 79
SWIDTH 666 0
DWIDTH 14 0
BBX 21 21 -1 -5
BITMAP
000000
000000
000000
001E00
006180
00C0C0
018180
0300C0
0300C0
060180
060180
060180
060600
060600
030C00
01E000
000000
000000
000000
000000
000000
ENDCHAR
STARTCHAR P
ENCODING 80
SWIDTH 523 0
DWIDTH 11 0
BBX 18 21 -1 -5
BITMAP
000000
000000
000000
01FC00
00C300
00C180
018300
018300
018600
03F000
030000
030000
060000
060000
060000
1E0000
000000
000000
000000
000000
000000
ENDCHAR
STARTCHAR Q
ENCODING 81
SWIDTH 666 0
DWIDTH 14 0
BBX 21 21 -1 -5
BITMAP
000000
000000
000000
001E00
006180
00C0C0
018180
0300C0
0300C0
060180
060180
060180
060600
060600
030C00
01E000
00E000
003000
001800
000000
000000
ENDCHAR
STARTCHAR R
ENCODING 82
SWIDTH 571 0
DWIDTH 12 0
BBX 19 21 -1 -5
BITMAP
000000
000000
000000
01FE00
00C300
00C180
018300
018300
018600
03F800
031800
030C00
061800
060C00
060C00
1E0C00
000000
000000
000000
000000
000000
ENDCHAR
STARTCHAR S
ENCODING 83
SWIDTH 476 0
DWIDTH 10 0
BBX 17 21 -1 -5
BITMAP
000000
000000
000000
007400
00CC00
018400
030800
038000
01C000
01E000
007000
003800
083000
083000
0C6000
178000
000000
000000
000000
000000
000000
ENDCHAR
STARTCHAR T
ENCODING 84
SWIDTH 571 0
DWIDTH 12 0
BBX 19 21 -1 -5
BITMAP
000000
000000
000000
01FF80
011880
001800
003000
003000
003000
006000
006000
006000
00C000
00C000
00C000
03C000
000000
000000
000000
000000
000000
ENDCHAR
STARTCHAR U
ENCODING 85
SWIDTH 666 0
DWIDTH 14 0
BBX 21 21 -1 -5
BITMAP
000000
000000
000000
01E0E0
00C040
00C040
018080
018080
018080
030100
030100
030100
060200
030400
038C00
01E000
000000
000000
000000
000000
000000
ENDCHAR
STARTCHAR V
ENCODING 86
SWIDTH 571 0
DWIDTH 12 0
BBX 19 21 -1 -5
BITMAP
000000
000000
000000
03C3C0
018180
018100
018200
018400
018400
019000
019000
00E000
01C000
01C000
008000
010000
000000
000000
000000
000000
000000
ENDCHAR
STARTCHAR W
ENCODING 87
SWIDTH 809 0
DWIDTH 17 0
BBX 24 21 -1 -5
BITMAP
000000
000000
000000
03CF0E
018604
018604
018610
018610
018610
019640
019640
00E380
01C700
01C700
008200
010400
000000
000000
000000
000000
000000
ENDCHAR
STARTCHAR X
ENCODING 88
SWIDTH 571 0
DWIDTH 12 0
BBX 19 21 -1 -5
BITMAP
000000
000000
000000
03E3C0
00C180
006100
00E400
006800
003800
007000
00B000
009800
023800
041800
0C0C00
3C3C00
000000
000000
000000
000000
000000
ENDCHAR
STARTCHAR Y
ENCODING 89
SWIDTH 571 0
DWIDTH 12 0
BBX 19 21 -1 -5
BITMAP
000000
000000
000000
03C1C0
018080
00C100
018200
00C400
006800
00D000
006000
006000
00C000
00C000
00C000
03C000
000000
000000
000000
000000
000000
ENDCHAR
STARTCHAR Z
ENCODING 90
SWIDTH 571 0
DWIDTH 12 0
BBX 19 21 -1 -5
BITMAP
000000
000000
000000
00FF80
008300
000300
000C00
001C00
001800
006000
00E000
00C000
030000
070000
060200
1FF800
000000
000000
000000
000000
000000
ENDCHAR
STARTCHAR bracketleft
ENCODING 91
SWIDTH 285 0
DWIDTH 6 0
BBX 13 21 -1 -5
BITMAP
0000
0000
0078
00C0
00C0
00C0
0180
0180
0180
0300
0300
0300
0600
0600
0600
0C00
0C00
0C00
1E00
0000
0000
ENDCHAR
STARTCHAR backslash
ENCODING 92
SWIDTH 238 0
DWIDTH 5 0
BBX 12 21 -1 -5
BITMAP
0000
0000
0000
0300
0300
0300
0300
0300
0300
0300
0300
0300
0300
0300
0300
0600
0000
0000
0000
0000
0000
ENDCHAR
STARTCHAR bracketright
ENCODING 93
SWIDTH 285 0
DWIDTH 6 0
BBX 13 21 -1 -5
BITMAP
0000
0000
01E0
00C0
00C0
00C0
0180
0180
0180
0300
0300
0300
0600
0600
0600
0C00
0C00
0C00
7800
0000
0000
ENDCHAR
STARTCHAR asciicircum
ENCODING 94
SWIDTH 428 0
DWIDTH 9 0
BBX 16 21 -1 -5
BITMAP
0000
0000
0010
0070
00D8
018C
0000
0000
0000
0000
0000
0000
0000
0000
0000
0000
0000
0000
0000
0000
0000
ENDCHAR
STARTCHAR underscore
ENCODING 95
SWIDTH 428 0
DWIDTH 9 0
BBX 16 21 -1 -5
BITMAP
0000
0000
0000
0000
0000
0000
0000
0000
0000
0000
0000
0000
0000
0000
0000
0000
0000
3FE0
0000
0000
0000
ENDCHAR
STARTCHAR quoteleft
ENCODING 96
SWIDTH 285 0
DWIDTH 6 0
BBX 13 21 -1 -5
BITMAP
0000
0000
00C0
00C0
0020
0000
0000
0000
0000
0000
0000
0000
0000
0000
0000
0000
0000
0000
0000
0000
0000
ENDCHAR
STARTCHAR a
ENCODING 97
SWIDTH 428 0
DWIDTH 9 0
BBX 16 21 -1 -5
BITMAP
0000
0000
0000
0000
0000
0000
0000
00F0
0318
0630
00F0
0330
0C60
0C60
0DE0
0EE0
0000
0000
0000
0000
0000
ENDCHAR
STARTCHAR b
ENCODING 98
SWIDTH 476 0
DWIDTH 10 0
BBX 17 21 -1 -5
BITMAP
000000
000000
002000
01C000
00C000
00C000
018000
01B800
01CC00
030C00
030C00
030C00
061800
061800
063000
07C000
000000
000000
000000
000000
000000
ENDCHAR
STARTCHAR c
ENCODING 99
SWIDTH 380 0
DWIDTH 8 0
BBX 15 21 -1 -5
BITMAP
0000
0000
0000
0000
0000
0000
0000
00F0
0198
0630
0600
0600
0C00
0C20
0660
0780
0000
0000
0000
0000
0000
ENDCHAR
STARTCHAR d
ENCODING 100
SWIDTH 476 0
DWIDTH 10 0
BBX 17 21 -1 -5
BITMAP
000000
000000
000100
000E00
000600
000600
000C00
00EC00
019C00
061800
061800
061800
0C3000
0C3000
067000
07B000
000000
000000
000000
000000
000000
ENDCHAR
STARTCHAR e
ENCODING 101
SWIDTH 380 0
DWIDTH 8 0
BBX 15 21 -1 -5
BITMAP
0000
0000
0000
0000
0000
0000
0000
00E0
01B0
0630
07F0
0600
0C00
0C20
0660
0780
0000
0000
0000
0000
0000
ENDCHAR
STARTCHAR f
ENCODING 102
SWIDTH 285 0
DWIDTH 6 0
BBX 13 21 -1 -5
BITMAP
0000
0000
0038
00D0
00C0
00C0
03E0
0180
0180
0300
0300
0300
0600
0600
0600
1E00
0000
0000
0000
0000
0000
ENDCHAR
STARTCHAR g
ENCODING 103
SWIDTH 476 0
DWIDTH 10 0
BBX 17 21 -1 -5
BITMAP
000000
000000
000000
000000
000000
000000
000000
007000
00DE00
031800
031800
01B000
01C000
030000
060000
0FE000
187000
183000
30C000
1F8000
000000
ENDCHAR
STARTCHAR h
ENCODING 104
SWIDTH 476 0
DWIDTH 10 0
BBX 17 21 -1 -5
BITMAP
000000
000000
002000
01C000
00C000
00C000
018000
01B800
01CC00
031800
031800
031800
063000
063000
063000
1E7000
000000
000000
000000
000000
000000
ENDCHAR
STARTCHAR i
ENCODING 105
SWIDTH 238 0
DWIDTH 5 0
BBX 12 21 -1 -5
BITMAP
0000
0000
0060
00C0
0000
0000
0000
0180
0380
0300
0300
0300
0600
0600
0600
1E00
0000
0000
0000
0000
0000
ENDCHAR
STARTCHAR j
ENCODING 106
SWIDTH 190 0
DWIDTH 4 0
BBX 11 21 -1 -5
BITMAP
0000
0000
0060
00C0
0000
0000
0000
0180
0380
0300
0300
0300
0600
0600
0600
0C00
0C00
0C00
5800
3000
0000
ENDCHAR
STARTCHAR k
ENCODING 107
SWIDTH 428 0
DWIDTH 9 0
BBX 16 21 -1 -5
BITMAP
0000
0000
0020
01C0
00C0
00C0
0180
01BC
0190
0340
0380
03C0
06C0
06C0
0660
1EE0
0000
0000
0000
0000
0000
ENDCHAR
STARTCHAR l
ENCODING 108
SWIDTH 238 0
DWIDTH 5 0
BBX 12 21 -1 -5
BITMAP
0000
0000
0020
01C0
00C0
00C0
0180
0180
0180
0300
0300
0300
0600
0600
0600
1E00
0000
0000
0000
0000
0000
ENDCHAR
STARTCHAR m
ENCODING 109
SWIDTH 619 0
DWIDTH 13 0
BBX 20 21 -1 -5
BITMAP
000000
000000
000000
000000
000000
000000
000000
00B300
03FF80
033300
033300
033300
066600
066600
066600
1EEE00
000000
000000
000000
000000
000000
ENDCHAR
STARTCHAR n
ENCODING 110
SWIDTH 476 0
DWIDTH 10 0
BBX 17 21 -1 -5
BITMAP
000000
000000
000000
000000
000000
000000
000000
01B800
03CC00
031800
031800
031800
063000
063000
063000
1E7000
000000
000000
000000
000000
000000
ENDCHAR
STARTCHAR o
ENCODING 111
SWIDTH 428 0
DWIDTH 9 0
BBX 16 21 -1 -5
BITMAP
0000
0000
0000
0000
0000
0000
0000
00F0
0118
0618
0618
0618
0C30
0C30
0620
0780
0000
0000
0000
0000
0000
ENDCHAR
STARTCHAR p
ENCODING 112
SWIDTH 476 0
DWIDTH 10 0
BBX 17 21 -1 -5
BITMAP
000000
000000
000000
000000
000000
000000
000000
017800
03CC00
030C00
030C00
030C00
061800
061800
073000
0DC000
0C0000
0C0000
180000
3C0000
000000
ENDCHAR
STARTCHAR q
ENCODING 113
SWIDTH 476 0
DWIDTH 10 0
BBX 17 21 -1 -5
BITMAP
000000
000000
000000
000000
000000
000000
000000
00F400
019C00
061800
061800
061800
0C3000
0C3000
067000
076000
006000
006000
00C000
01E000
000000
ENDCHAR
STARTCHAR r
ENCODING 114
SWIDTH 333 0
DWIDTH 7 0
BBX 14 21 -1 -5
BITMAP
0000
0000
0000
0000
0000
0000
0000
01B0
03F0
0320
0300
0300
0600
0600
0600
1E00
0000
0000
0000
0000
0000
ENDCHAR
STARTCHAR s
ENCODING 115
SWIDTH 333 0
DWIDTH 7 0
BBX 14 21 -1 -5
BITMAP
0000
0000
0000
0000
0000
0000
0000
01D0
0330
0620
0300
0180
0180
08C0
0CC0
1F00
0000
0000
0000
0000
0000
ENDCHAR
STARTCHAR t
ENCODING 116
SWIDTH 285 0
DWIDTH 6 0
BBX 13 21 -1 -5
BITMAP
0000
0000
0000
0000
0040
0040
0180
03E0
0180
0300
0300
0300
0600
0600
0680
0600
0000
0000
0000
0000
0000
ENDCHAR
STARTCHAR u
ENCODING 117
SWIDTH 476 0
DWIDTH 10 0
BBX 17 21 -1 -5
BITMAP
000000
000000
000000
000000
000000
000000
000000
039C00
018C00
031800
031800
031800
063000
063000
067000
077000
000000
000000
000000
000000
000000
ENDCHAR
STARTCHAR v
ENCODING 118
SWIDTH 476 0
DWIDTH 10 0
BBX 17 21 -1 -5
BITMAP
000000
000000
000000
000000
000000
000000
000000
03CE00
018400
030800
019000
019000
01C000
01C000
008000
010000
000000
000000
000000
000000
000000
ENDCHAR
STARTCHAR w
ENCODING 119
SWIDTH 666 0
DWIDTH 14 0
BBX 21 21 -1 -5
BITMAP
000000
000000
000000
000000
000000
000000
000000
03DEE0
018C40
031880
01BD80
01AD00
01CE00
01CE00
008400
010800
000000
000000
000000
000000
000000
ENDCHAR
STARTCHAR x
ENCODING 120
SWIDTH 428 0
DWIDTH 9 0
BBX 16 21 -1 -5
BITMAP
0000
0000
0000
0000
0000
0000
0000
03DC
0188
01A0
01C0
00C0
01C0
02C0
0460
1DE0
0000
0000
0000
0000
0000
ENDCHAR
STARTCHAR y
ENCODING 121
SWIDTH 476 0
DWIDTH 10 0
BBX 17 21 -1 -5
BITMAP
000000
000000
000000
000000
000000
000000
000000
03CE00
018400
030800
019000
019000
01C000
01C000
008000
010000
030000
0A0000
3C0000
180000
000000
ENDCHAR
STARTCHAR z
ENCODING 122
SWIDTH 380 0
DWIDTH 8 0
BBX 15 21 -1 -5
BITMAP
0000
0000
0000
0000
0000
0000
0000
03F8
0218
0060
00C0
0180
0600
0C00
0C20
1FC0
0000
0000
0000
0000
0000
ENDCHAR
STARTCHAR braceleft
ENCODING 123
SWIDTH 380 0
DWIDTH 8 0
BBX 15 21 -1 -5
BITMAP
0000
0000
0000
0038
0060
0060
00C0
00C0
00C0
0180
0180
0300
0300
0300
0300
0600
0600
0600
0C00
0700
0000
ENDCHAR
STARTCHAR bar
ENCODING 124
SWIDTH 190 0
DWIDTH 4 0
BBX 11 21 -1 -5
BITMAP
0000
0000
00C0
0180
0180
0180
0300
0300
0300
0600
0600
0600
0C00
0C00
0C00
1800
1800
1800
0000
0000
0000
ENDCHAR
STARTCHAR braceright
ENCODING 125
SWIDTH 380 0
DWIDTH 8 0
BBX 15 21 -1 -5
BITMAP
0000
0000
0000
01C0
0060
0060
00C0
00C0
00C0
0180
0180
00C0
0300
0300
0300
0600
0600
0600
0C00
3800
0000
ENDCHAR
STARTCHAR asciitilde
ENCODING 126
SWIDTH 428 0
DWIDTH 9 0
BBX 16 21 -1 -5
BITMAP
0000
0000
0072
01FC
0138
0000
0000
0000
0000
0000
0000
0000
0000
0000
0000
0000
0000
0000
0000
0000
0000
ENDCHAR
STARTCHAR C177
ENCODING -1
SWIDTH 333 0
DWIDTH 7 0
BBX 14 21 -1 -5
BITMAP
0000
0000
0078
00F0
00F0
00F0
01E0
01E0
01E0
03C0
03C0
03C0
0780
0780
0780
0F00
0000
0000
0000
0000
0000
ENDCHAR
STARTCHAR C200
ENCODING -1
SWIDTH 333 0
DWIDTH 7 0
BBX 14 21 -1 -5
BITMAP
0000
0000
0078
00F0
00F0
00F0
01E0
01E0
01E0
03C0
03C0
03C0
0780
0780
0780
0F00
0000
0000
0000
0000
0000
ENDCHAR
STARTCHAR C201
ENCODING -1
SWIDTH 333 0
DWIDTH 7 0
BBX 14 21 -1 -5
BITMAP
0000
0000
0078
00F0
00F0
00F0
01E0
01E0
01E0
03C0
03C0
03C0
0780
0780
0780
0F00
0000
0000
0000
0000
0000
ENDCHAR
STARTCHAR C202
ENCODING -1
SWIDTH 333 0
DWIDTH 7 0
BBX 14 21 -1 -5
BITMAP
0000
0000
0078
00F0
00F0
00F0
01E0
01E0
01E0
03C0
03C0
03C0
0780
0780
0780
0F00
0000
0000
0000
0000
0000
ENDCHAR
STARTCHAR C203
ENCODING -1
SWIDTH 333 0
DWIDTH 7 0
BBX 14 21 -1 -5
BITMAP
0000
0000
0078
00F0
00F0
00F0
01E0
01E0
01E0
03C0
03C0
03C0
0780
0780
0780
0F00
0000
0000
0000
0000
0000
ENDCHAR
STARTCHAR C204
ENCODING -1
SWIDTH 333 0
DWIDTH 7 0
BBX 14 21 -1 -5
BITMAP
0000
0000
0078
00F0
00F0
00F0
01E0
01E0
01E0
03C0
03C0
03C0
0780
0780
0780
0F00
0000
0000
0000
0000
0000
ENDCHAR
STARTCHAR C205
ENCODING -1
SWIDTH 333 0
DWIDTH 7 0
BBX 14 21 -1 -5
BITMAP
0000
0000
0078
00F0
00F0
00F0
01E0
01E0
01E0
03C0
03C0
03C0
0780
0780
0780
0F00
0000
0000
0000
0000
0000
ENDCHAR
STARTCHAR C206
ENCODING -1
SWIDTH 333 0
DWIDTH 7 0
BBX 14 21 -1 -5
BITMAP
0000
0000
0078
00F0
00F0
00F0
01E0
01E0
01E0
03C0
03C0
03C0
0780
0780
0780
0F00
0000
0000
0000
0000
0000
ENDCHAR
STARTCHAR C207
ENCODING -1
SWIDTH 333 0
DWIDTH 7 0
BBX 14 21 -1 -5
BITMAP
0000
0000
0078
00F0
00F0
00F0
01E0
01E0
01E0
03C0
03C0
03C0
0780
0780
0780
0F00
0000
0000
0000
0000
0000
ENDCHAR
STARTCHAR C210
ENCODING -1
SWIDTH 333 0
DWIDTH 7 0
BBX 14 21 -1 -5
BITMAP
0000
0000
0078
00F0
00F0
00F0
01E0
01E0
01E0
03C0
03C0
03C0
0780
0780
0780
0F00
0000
0000
0000
0000
0000
ENDCHAR
STARTCHAR C211
ENCODING -1
SWIDTH 333 0
DWIDTH 7 0
BBX 14 21 -1 -5
BITMAP
0000
0000
0078
00F0
00F0
00F0
01E0
01E0
01E0
03C0
03C0
03C0
0780
0780
0780
0F00
0000
0000
0000
0000
0000
ENDCHAR
STARTCHAR C212
ENCODING -1
SWIDTH 333 0
DWIDTH 7 0
BBX 14 21 -1 -5
BITMAP
0000
0000
0078
00F0
00F0
00F0
01E0
01E0
01E0
03C0
03C0
03C0
0780
0780
0780
0F00
0000
0000
0000
0000
0000
ENDCHAR
STARTCHAR C213
ENCODING -1
SWIDTH 333 0
DWIDTH 7 0
BBX 14 21 -1 -5
BITMAP
0000
0000
0078
00F0
00F0
00F0
01E0
01E0
01E0
03C0
03C0
03C0
0780
0780
0780
0F00
0000
0000
0000
0000
0000
ENDCHAR
STARTCHAR C214
ENCODING -1
SWIDTH 333 0
DWIDTH 7 0
BBX 14 21 -1 -5
BITMAP
0000
0000
0078
00F0
00F0
00F0
01E0
01E0
01E0
03C0
03C0
03C0
0780
0780
0780
0F00
0000
0000
0000
0000
0000
ENDCHAR
STARTCHAR C215
ENCODING -1
SWIDTH 333 0
DWIDTH 7 0
BBX 14 21 -1 -5
BITMAP
0000
0000
0078
00F0
00F0
00F0
01E0
01E0
01E0
03C0
03C0
03C0
0780
0780
0780
0F00
0000
0000
0000
0000
0000
ENDCHAR
STARTCHAR C216
ENCODING -1
SWIDTH 333 0
DWIDTH 7 0
BBX 14 21 -1 -5
BITMAP
0000
0000
0078
00F0
00F0
00F0
01E0
01E0
01E0
03C0
03C0
03C0
0780
0780
0780
0F00
0000
0000
0000
0000
0000
ENDCHAR
STARTCHAR C217
ENCODING -1
SWIDTH 333 0
DWIDTH 7 0
BBX 14 21 -1 -5
BITMAP
0000
0000
0078
00F0
00F0
00F0
01E0
01E0
01E0
03C0
03C0
03C0
0780
0780
0780
0F00
0000
0000
0000
0000
0000
ENDCHAR
STARTCHAR C220
ENCODING -1
SWIDTH 333 0
DWIDTH 7 0
BBX 14 21 -1 -5
BITMAP
0000
0000
0078
00F0
00F0
00F0
01E0
01E0
01E0
03C0
03C0
03C0
0780
0780
0780
0F00
0000
0000
0000
0000
0000
ENDCHAR
STARTCHAR C221
ENCODING -1
SWIDTH 190 0
DWIDTH 4 0
BBX 11 21 -1 -5
BITMAP
0000
0000
0040
0100
0180
0180
0000
0000
0000
0000
0000
0000
0000
0000
0000
0000
0000
0000
0000
0000
0000
ENDCHAR
STARTCHAR C222
ENCODING -1
SWIDTH 190 0
DWIDTH 4 0
BBX 11 21 -1 -5
BITMAP
0000
0000
00C0
0180
0080
0100
0000
0000
0000
0000
0000
0000
0000
0000
0000
0000
0000
0000
0000
0000
0000
ENDCHAR
STARTCHAR C223
ENCODING -1
SWIDTH 333 0
DWIDTH 7 0
BBX 14 21 -1 -5
BITMAP
0000
0000
0078
00F0
00F0
00F0
01E0
01E0
01E0
03C0
03C0
03C0
0780
0780
0780
0F00
0000
0000
0000
0000
0000
ENDCHAR
STARTCHAR C224
ENCODING -1
SWIDTH 333 0
DWIDTH 7 0
BBX 14 21 -1 -5
BITMAP
0000
0000
0078
00F0
00F0
00F0
01E0
01E0
01E0
03C0
03C0
03C0
0780
0780
0780
0F00
0000
0000
0000
0000
0000
ENDCHAR
STARTCHAR C225
ENCODING -1
SWIDTH 333 0
DWIDTH 7 0
BBX 14 21 -1 -5
BITMAP
0000
0000
0078
00F0
00F0
00F0
01E0
01E0
01E0
03C0
03C0
03C0
0780
0780
0780
0F00
0000
0000
0000
0000
0000
ENDCHAR
STARTCHAR C226
ENCODING -1
SWIDTH 333 0
DWIDTH 7 0
BBX 14 21 -1 -5
BITMAP
0000
0000
0078
00F0
00F0
00F0
01E0
01E0
01E0
03C0
03C0
03C0
0780
0780
0780
0F00
0000
0000
0000
0000
0000
ENDCHAR
STARTCHAR C227
ENCODING -1
SWIDTH 333 0
DWIDTH 7 0
BBX 14 21 -1 -5
BITMAP
0000
0000
0078
00F0
00F0
00F0
01E0
01E0
01E0
03C0
03C0
03C0
0780
0780
0780
0F00
0000
0000
0000
0000
0000
ENDCHAR
STARTCHAR C230
ENCODING -1
SWIDTH 333 0
DWIDTH 7 0
BBX 14 21 -1 -5
BITMAP
0000
0000
0078
00F0
00F0
00F0
01E0
01E0
01E0
03C0
03C0
03C0
0780
0780
0780
0F00
0000
0000
0000
0000
0000
ENDCHAR
STARTCHAR C231
ENCODING -1
SWIDTH 333 0
DWIDTH 7 0
BBX 14 21 -1 -5
BITMAP
0000
0000
0078
00F0
00F0
00F0
01E0
01E0
01E0
03C0
03C0
03C0
0780
0780
0780
0F00
0000
0000
0000
0000
0000
ENDCHAR
STARTCHAR C232
ENCODING -1
SWIDTH 333 0
DWIDTH 7 0
BBX 14 21 -1 -5
BITMAP
0000
0000
0078
00F0
00F0
00F0
01E0
01E0
01E0
03C0
03C0
03C0
0780
0780
0780
0F00
0000
0000
0000
0000
0000
ENDCHAR
STARTCHAR C233
ENCODING -1
SWIDTH 333 0
DWIDTH 7 0
BBX 14 21 -1 -5
BITMAP
0000
0000
0078
00F0
00F0
00F0
01E0
01E0
01E0
03C0
03C0
03C0
0780
0780
0780
0F00
0000
0000
0000
0000
0000
ENDCHAR
STARTCHAR C234
ENCODING 176
SWIDTH 333 0
DWIDTH 7 0
BBX 14 21 -1 -5
BITMAP
0000
0000
0078
00F0
00F0
00F0
01E0
01E0
01E0
03C0
03C0
03C0
0780
0780
0780
0F00
0000
0000
0000
0000
0000
ENDCHAR
STARTCHAR C235
ENCODING 178
SWIDTH 333 0
DWIDTH 7 0
BBX 14 21 -1 -5
BITMAP
0000
0000
0078
00F0
00F0
00F0
01E0
01E0
01E0
03C0
03C0
03C0
0780
0780
0780
0F00
0000
0000
0000
0000
0000
ENDCHAR
STARTCHAR C236
ENCODING -1
SWIDTH 333 0
DWIDTH 7 0
BBX 14 21 -1 -5
BITMAP
0000
0000
0078
00F0
00F0
00F0
01E0
01E0
01E0
03C0
03C0
03C0
0780
0780
0780
0F00
0000
0000
0000
0000
0000
ENDCHAR
STARTCHAR C237
ENCODING -1
SWIDTH 333 0
DWIDTH 7 0
BBX 14 21 -1 -5
BITMAP
0000
0000
0078
00F0
00F0
00F0
01E0
01E0
01E0
03C0
03C0
03C0
0780
0780
0780
0F00
0000
0000
0000
0000
0000
ENDCHAR
STARTCHAR C240
ENCODING 160
SWIDTH 190 0
DWIDTH 4 0
BBX 11 21 -1 -5
BITMAP
0000
0000
0000
0000
0000
0000
0000
0000
0000
0000
0000
0000
0000
0000
0000
0000
0000
0000
0000
0000
0000
ENDCHAR
STARTCHAR exclamdown
ENCODING 161
SWIDTH 571 0
DWIDTH 12 0
BBX 19 21 -1 -5
BITMAP
006300
006300
000000
01FF00
00C100
00C000
018000
018000
018400
03F800
030800
030000
060000
060000
060400
1FF000
000000
000000
000000
000000
000000
ENDCHAR
STARTCHAR cent
ENCODING 162
SWIDTH 428 0
DWIDTH 9 0
BBX 16 21 -1 -5
BITMAP
0000
0000
0000
0000
0000
0000
0008
00F0
0198
0670
0640
0680
0D00
0E20
0660
1700
0000
0000
0000
0000
0000
ENDCHAR
STARTCHAR sterling
ENCODING 163
SWIDTH 428 0
DWIDTH 9 0
BBX 16 21 -1 -5
BITMAP
0000
0000
0000
00F8
01CC
018C
0300
0300
07F0
0300
0300
0300
0600
0E10
17F0
39C0
0000
0000
0000
0000
0000
ENDCHAR
STARTCHAR currency
ENCODING 164
SWIDTH 428 0
DWIDTH 9 0
BBX 16 21 -1 -5
BITMAP
0000
0000
0000
0272
03FE
018C
060C
060C
060C
0630
0FF8
09C8
0000
0000
0000
0000
0000
0000
0000
0000
0000
ENDCHAR
STARTCHAR yen
ENCODING 165
SWIDTH 428 0
DWIDTH 9 0
BBX 16 21 -1 -5
BITMAP
0000
0000
0000
03CE
0304
0184
0310
0190
01A0
0340
0FF0
0180
1FE0
0300
0300
0F00
0000
0000
0000
0000
0000
ENDCHAR
STARTCHAR brokenbar
ENCODING 166
SWIDTH 190 0
DWIDTH 4 0
BBX 11 21 -1 -5
BITMAP
0000
0000
00C0
0180
0180
0180
0300
0300
0300
0000
0000
0000
0C00
0C00
0C00
1800
1800
0000
0000
0000
0000
ENDCHAR
STARTCHAR section
ENCODING 167
SWIDTH 428 0
DWIDTH 9 0
BBX 16 21 -1 -5
BITMAP
0000
0000
003C
00CC
00CC
00C0
00C0
01E0
0330
0670
0730
0330
03C0
0180
00C0
1980
1980
0F00
0000
0000
0000
ENDCHAR
STARTCHAR dieresis
ENCODING 168
SWIDTH 285 0
DWIDTH 6 0
BBX 13 21 -1 -5
BITMAP
0000
0000
0198
0330
0000
0000
0000
0000
0000
0000
0000
0000
0000
0000
0000
0000
0000
0000
0000
0000
0000
ENDCHAR
STARTCHAR copyright
ENCODING 191
SWIDTH 666 0
DWIDTH 14 0
BBX 21 21 -1 -5
BITMAP
000000
000000
000000
003E00
00C180
010040
023880
046640
04C240
098080
098480
08C880
08E200
080200
060C00
03E000
000000
000000
000000
000000
000000
ENDCHAR
STARTCHAR ordfeminine
ENCODING 170
SWIDTH 238 0
DWIDTH 5 0
BBX 12 21 -1 -5
BITMAP
0000
0000
0000
0180
0240
00C0
0680
0480
0740
0000
0F80
0000
0000
0000
0000
0000
0000
0000
0000
0000
0000
ENDCHAR
STARTCHAR guillemotleft
ENCODING 171
SWIDTH 428 0
DWIDTH 9 0
BBX 16 21 -1 -5
BITMAP
0000
0000
0000
0000
0000
0000
0000
0000
0088
0330
0660
0CC0
0CC0
0660
0220
0000
0000
0000
0000
0000
0000
ENDCHAR
STARTCHAR logicalnot
ENCODING 172
SWIDTH 476 0
DWIDTH 10 0
BBX 17 21 -1 -5
BITMAP
000000
000000
000000
000000
000000
000000
000000
000000
000000
07F800
07F800
001800
000000
000000
000000
000000
000000
000000
000000
000000
000000
ENDCHAR
STARTCHAR hyphen
ENCODING 173
SWIDTH 285 0
DWIDTH 6 0
BBX 13 21 -1 -5
BITMAP
0000
0000
0000
0000
0000
0000
0000
0000
0000
0780
0780
0000
0000
0000
0000
0000
0000
0000
0000
0000
0000
ENDCHAR
STARTCHAR registered
ENCODING 174
SWIDTH 666 0
DWIDTH 14 0
BBX 21 21 -1 -5
BITMAP
000000
000000
000000
003E00
00C180
010040
02FC80
046640
046640
08F880
08D880
08CC80
0BCE00
080200
060C00
03E000
000000
000000
000000
000000
000000
ENDCHAR
STARTCHAR macron
ENCODING 175
SWIDTH 428 0
DWIDTH 9 0
BBX 16 21 -1 -5
BITMAP
0000
0000
01FF
0000
0000
0000
0000
0000
0000
0000
0000
0000
0000
0000
0000
0000
0000
0000
0000
0000
0000
ENDCHAR
STARTCHAR degree
ENCODING 156
SWIDTH 238 0
DWIDTH 5 0
BBX 12 21 -1 -5
BITMAP
0000
0000
00E0
0360
0220
0360
0380
0000
0000
0000
0000
0000
0000
0000
0000
0000
0000
0000
0000
0000
0000
ENDCHAR
STARTCHAR plusminus
ENCODING 177
SWIDTH 476 0
DWIDTH 10 0
BBX 17 21 -1 -5
BITMAP
000000
000000
000000
000000
000000
003000
006000
006000
03FC00
07F800
00C000
00C000
018000
000000
0FF000
1FE000
000000
000000
000000
000000
000000
ENDCHAR
STARTCHAR twosuperior
ENCODING 157
SWIDTH 238 0
DWIDTH 5 0
BBX 12 21 -1 -5
BITMAP
0000
0000
00E0
0260
0060
00C0
0300
07C0
0000
0000
0000
0000
0000
0000
0000
0000
0000
0000
0000
0000
0000
ENDCHAR
STARTCHAR threesuperior
ENCODING 179
SWIDTH 238 0
DWIDTH 5 0
BBX 12 21 -1 -5
BITMAP
0000
0000
00E0
0260
00C0
0060
06C0
0380
0000
0000
0000
0000
0000
0000
0000
0000
0000
0000
0000
0000
0000
ENDCHAR
STARTCHAR acute
ENCODING 180
SWIDTH 285 0
DWIDTH 6 0
BBX 13 21 -1 -5
BITMAP
0000
0000
0030
00C0
0100
0000
0000
0000
0000
0000
0000
0000
0000
0000
0000
0000
0000
0000
0000
0000
0000
ENDCHAR
STARTCHAR mu
ENCODING 181
SWIDTH 428 0
DWIDTH 9 0
BBX 16 21 -1 -5
BITMAP
0000
0000
0000
0000
0000
0000
0000
0738
0318
0630
0630
0630
0C60
0C60
0EF0
1E40
1800
1800
3000
3000
0000
ENDCHAR
STARTCHAR paragraph
ENCODING 182
SWIDTH 380 0
DWIDTH 8 0
BBX 15 21 -1 -5
BITMAP
0000
0000
0000
0000
01F8
0390
0720
0720
0320
0240
0240
0240
0480
0480
0480
0900
0900
0900
0000
0000
0000
ENDCHAR
STARTCHAR periodcentered
ENCODING 183
SWIDTH 190 0
DWIDTH 4 0
BBX 11 21 -1 -5
BITMAP
0000
0000
0000
0000
0000
0000
0000
0000
0300
0600
0000
0000
0000
0000
0000
0000
0000
0000
0000
0000
0000
ENDCHAR
STARTCHAR cedilla
ENCODING 184
SWIDTH 285 0
DWIDTH 6 0
BBX 13 21 -1 -5
BITMAP
0000
0000
0000
0000
0000
0000
0000
0000
0000
0000
0000
0000
0000
0000
0000
0000
0800
1C00
0C00
3800
0000
ENDCHAR
STARTCHAR onesuperior
ENCODING 185
SWIDTH 238 0
DWIDTH 5 0
BBX 12 21 -1 -5
BITMAP
0000
0000
0060
01C0
00C0
00C0
0180
0180
0000
0000
0000
0000
0000
0000
0000
0000
0000
0000
0000
0000
0000
ENDCHAR
STARTCHAR ordmasculine
ENCODING 186
SWIDTH 238 0
DWIDTH 5 0
BBX 12 21 -1 -5
BITMAP
0000
0000
0000
01C0
0360
0220
0440
06C0
0380
0000
0F80
0000
0000
0000
0000
0000
0000
0000
0000
0000
0000
ENDCHAR
STARTCHAR guillemotright
ENCODING 187
SWIDTH 428 0
DWIDTH 9 0
BBX 16 21 -1 -5
BITMAP
0000
0000
0000
0000
0000
0000
0000
0000
0220
0660
0330
0198
0660
0CC0
0880
0000
0000
0000
0000
0000
0000
ENDCHAR
STARTCHAR onequarter
ENCODING 188
SWIDTH 619 0
DWIDTH 13 0
BBX 20 21 -1 -5
BITMAP
000000
000000
0030C0
00E180
006300
006600
00CC00
00D800
003000
006000
00CE00
019600
036C00
067E00
0C0C00
181800
000000
000000
000000
000000
000000
ENDCHAR
STARTCHAR onehalf
ENCODING 189
SWIDTH 619 0
DWIDTH 13 0
BBX 20 21 -1 -5
BITMAP
000000
000000
0030C0
00E180
006300
006600
00CC00
00D800
003000
006000
00CE00
019300
030600
060C00
0C1000
187C00
000000
000000
000000
000000
000000
ENDCHAR
STARTCHAR threequarters
ENCODING 190
SWIDTH 619 0
DWIDTH 13 0
BBX 20 21 -1 -5
BITMAP
000000
000000
00E0C0
006180
00C300
006600
00CC00
039800
003000
006000
00CE00
019600
036C00
067E00
0C0C00
181800
000000
000000
000000
000000
000000
ENDCHAR
STARTCHAR questiondown
ENCODING 169
SWIDTH 428 0
DWIDTH 9 0
BBX 16 21 -1 -5
BITMAP
0000
0000
0000
0000
00D8
00D8
0000
00E0
01B0
0630
07F0
0600
0C00
0C20
0660
0780
0000
0000
0000
0000
0000
ENDCHAR
STARTCHAR cyr-A
ENCODING 225
SWIDTH 571 0
DWIDTH 12 0
BBX 19 21 -1 -5
BITMAP
000000
000000
000000
001000
001800
003800
005800
005800
009800
011800
021800
03FC00
041800
081800
080C00
383C00
000000
000000
000000
000000
000000
ENDCHAR
STARTCHAR cyr-Be
ENCODING 226
SWIDTH 619 0
DWIDTH 13 0
BBX 20 21 -1 -5
BITMAP
000000
000000
000000
01FFC0
00C0C0
00C040
018000
018000
01FE00
030600
030300
030300
060600
060600
060C00
1FF000
000000
000000
000000
000000
000000
ENDCHAR
STARTCHAR cyr-Ve
ENCODING 247
SWIDTH 619 0
DWIDTH 13 0
BBX 20 21 -1 -5
BITMAP
000000
000000
000000
01FC00
00C300
00C180
018300
018300
018600
03FC00
030600
030300
060600
060600
060C00
1FE000
000000
000000
000000
000000
000000
ENDCHAR
STARTCHAR cyr-Ghe
ENCODING 231
SWIDTH 571 0
DWIDTH 12 0
BBX 19 21 -1 -5
BITMAP
000000
000000
000000
01FF80
00C180
00C080
018000
018000
018000
030000
030000
030000
060000
060000
060000
1E0000
000000
000000
000000
000000
000000
ENDCHAR
STARTCHAR cyr-De
ENCODING 228
SWIDTH 619 0
DWIDTH 13 0
BBX 20 21 -1 -5
BITMAP
000000
000000
000000
00FFC0
004180
004180
008300
008300
008300
010600
010600
010600
020C00
020C00
040C00
1FFC00
100400
100400
000000
000000
000000
ENDCHAR
STARTCHAR cyr-Ie
ENCODING 229
SWIDTH 571 0
DWIDTH 12 0
BBX 19 21 -1 -5
BITMAP
000000
000000
000000
01FF00
00C100
00C000
018000
018000
018400
03F800
030800
030000
060000
060000
060400
1FF800
000000
000000
000000
000000
000000
ENDCHAR
STARTCHAR cyr-Zhe
ENCODING 246
SWIDTH 809 0
DWIDTH 17 0
BBX 24 21 -1 -5
BITMAP
000000
000000
000000
01C78E
01A316
002310
002640
002640
001F80
00CCC0
018C60
018C60
061860
061860
061860
1E79E0
000000
000000
000000
000000
000000
ENDCHAR
STARTCHAR cyr-Ze
ENCODING 250
SWIDTH 571 0
DWIDTH 12 0
BBX 19 21 -1 -5
BITMAP
000000
000000
000000
007800
018600
010300
000600
000600
000C00
00F800
000C00
000600
000C00
080C00
0C1800
07C000
000000
000000
000000
000000
000000
ENDCHAR
STARTCHAR cyr-I
ENCODING 233
SWIDTH 666 0
DWIDTH 14 0
BBX 21 21 -1 -5
BITMAP
000000
000000
000000
01E1E0
00C1C0
00C2C0
018580
018980
018980
032300
032300
034300
068600
070600
070600
1E1E00
000000
000000
000000
000000
000000
ENDCHAR
STARTCHAR cyr-I-short
ENCODING 234
SWIDTH 666 0
DWIDTH 14 0
BBX 21 21 -1 -5
BITMAP
001980
000F00
000000
01E1E0
00C1C0
00C2C0
018580
018980
018980
032300
032300
034300
068600
070600
070600
1E1E00
000000
000000
000000
000000
000000
ENDCHAR
STARTCHAR cyr-Ka
ENCODING 235
SWIDTH 571 0
DWIDTH 12 0
BBX 19 21 -1 -5
BITMAP
000000
000000
000000
01E380
00C580
00C400
019000
019000
01E000
033000
031800
031800
061800
061800
061800
1E7800
000000
000000
000000
000000
000000
ENDCHAR
STARTCHAR cyr-El
ENCODING 236
SWIDTH 619 0
DWIDTH 13 0
BBX 20 21 -1 -5
BITMAP
000000
000000
000000
00FFC0
004180
004180
008300
008300
008300
010600
010600
010600
020C00
020C00
1A0C00
383C00
000000
000000
000000
000000
000000
ENDCHAR
STARTCHAR cyr-Em
ENCODING 237
SWIDTH 761 0
DWIDTH 16 0
BBX 23 21 -1 -5
BITMAP
000000
000000
000000
01E078
00E070
00F0F0
016160
016160
013260
0264C0
0264C0
0238C0
047180
047180
042180
1C4780
000000
000000
000000
000000
000000
ENDCHAR
STARTCHAR cyr-En
ENCODING 238
SWIDTH 666 0
DWIDTH 14 0
BBX 21 21 -1 -5
BITMAP
000000
000000
000000
01E1E0
00C0C0
00C0C0
018180
018180
018180
03FF00
030300
030300
060600
060600
060600
1E1E00
000000
000000
000000
000000
000000
ENDCHAR
STARTCHAR cyr-O
ENCODING 239
SWIDTH 666 0
DWIDTH 14 0
BBX 21 21 -1 -5
BITMAP
000000
000000
000000
001E00
006180
00C0C0
018180
0300C0
0300C0
060180
060180
060180
060600
060600
030C00
01E000
000000
000000
000000
000000
000000
ENDCHAR
STARTCHAR cyr-Pe
ENCODING 240
SWIDTH 666 0
DWIDTH 14 0
BBX 21 21 -1 -5
BITMAP
000000
000000
000000
01FFE0
00C0C0
00C0C0
018180
018180
018180
030300
030300
030300
060600
060600
060600
1E1E00
000000
000000
000000
000000
000000
ENDCHAR
STARTCHAR cyr-Er
ENCODING 242
SWIDTH 619 0
DWIDTH 13 0
BBX 20 21 -1 -5
BITMAP
000000
000000
000000
01FE00
00C180
00C0C0
018180
018180
018180
030600
03F800
030000
060000
060000
060000
1E0000
000000
000000
000000
000000
000000
ENDCHAR
STARTCHAR cyr-Es
ENCODING 243
SWIDTH 619 0
DWIDTH 13 0
BBX 20 21 -1 -5
BITMAP
000000
000000
000000
001E80
007180
00C080
018000
030000
030000
060000
060000
060000
060000
060200
038C00
01E000
000000
000000
000000
000000
000000
ENDCHAR
STARTCHAR cyr-Te
ENCODING 244
SWIDTH 571 0
DWIDTH 12 0
BBX 19 21 -1 -5
BITMAP
000000
000000
000000
01FF80
011880
001800
003000
003000
003000
006000
006000
006000
00C000
00C000
00C000
03C000
000000
000000
000000
000000
000000
ENDCHAR
STARTCHAR cyr-U
ENCODING 245
SWIDTH 571 0
DWIDTH 12 0
BBX 19 21 -1 -5
BITMAP
000000
000000
000000
03C1C0
018080
00C100
018200
00C400
006400
00D000
007000
002000
004000
008000
0E8000
0E0000
000000
000000
000000
000000
000000
ENDCHAR
STARTCHAR cyr-Ef
ENCODING 230
SWIDTH 761 0
DWIDTH 16 0
BBX 23 21 -1 -5
BITMAP
000000
000000
000000
001F80
006660
00C630
018C60
030C30
030C30
061860
0318C0
0318C0
033300
00FC00
003000
00F000
000000
000000
000000
000000
000000
ENDCHAR
STARTCHAR cyr-Kha
ENCODING 232
SWIDTH 666 0
DWIDTH 14 0
BBX 21 21 -1 -5
BITMAP
000000
000000
000000
01F1E0
0060C0
003080
007200
003400
001C00
003800
005800
004C00
011C00
020C00
060600
1E1E00
000000
000000
000000
000000
000000
ENDCHAR
STARTCHAR cyr-Tse
ENCODING 227
SWIDTH 666 0
DWIDTH 14 0
BBX 21 21 -1 -5
BITMAP
000000
000000
000000
01E1E0
00C0C0
00C0C0
018180
018180
018180
030300
030300
030300
060600
060600
060600
1FFE00
000200
000200
000000
000000
000000
ENDCHAR
STARTCHAR cyr-Che
ENCODING 254
SWIDTH 666 0
DWIDTH 14 0
BBX 21 21 -1 -5
BITMAP
000000
000000
000000
01E1E0
00C0C0
00C0C0
018180
018180
018180
030300
00FF00
000300
000600
000600
000600
001E00
000000
000000
000000
000000
000000
ENDCHAR
STARTCHAR cyr-Sha
ENCODING 251
SWIDTH 809 0
DWIDTH 17 0
BBX 24 21 -1 -5
BITMAP
000000
000000
000000
01E79E
00C30C
00C30C
018618
018618
018618
030C30
030C30
030C30
061860
061860
061860
1FFFE0
000000
000000
000000
000000
000000
ENDCHAR
STARTCHAR cyr-Shcha
ENCODING 253
SWIDTH 809 0
DWIDTH 17 0
BBX 24 21 -1 -5
BITMAP
000000
000000
000000
01E79E
00C30C
00C30C
018618
018618
018618
030C30
030C30
030C30
061860
061860
061860
1FFFE0
000020
000020
000000
000000
000000
ENDCHAR
STARTCHAR cyr-Ier
ENCODING 255
SWIDTH 714 0
DWIDTH 15 0
BBX 22 21 -1 -5
BITMAP
000000
000000
000000
01F800
013000
013000
006000
006000
007F80
00C180
00C0C0
00C0C0
018180
018180
018300
07FC00
000000
000000
000000
000000
000000
ENDCHAR
STARTCHAR cyr-Iery
ENCODING 249
SWIDTH 809 0
DWIDTH 17 0
BBX 24 21 -1 -5
BITMAP
000000
000000
000000
01E03C
00C018
00C018
018030
018030
01FE30
030660
030360
030360
0606C0
0606C0
060CC0
1FF3C0
000000
000000
000000
000000
000000
ENDCHAR
STARTCHAR cyr-Ierik
ENCODING 248
SWIDTH 619 0
DWIDTH 13 0
BBX 20 21 -1 -5
BITMAP
000000
000000
000000
01E000
00C000
00C000
018000
018000
01FE00
030600
030300
030300
060600
060600
060C00
1FF000
000000
000000
000000
000000
000000
ENDCHAR
STARTCHAR cyr-E-rev
ENCODING 252
SWIDTH 571 0
DWIDTH 12 0
BBX 19 21 -1 -5
BITMAP
000000
000000
000000
017E00
018300
010180
000300
000300
004300
00FE00
008600
000600
000C00
080C00
0C1800
17E000
000000
000000
000000
000000
000000
ENDCHAR
STARTCHAR cyr-Yu
ENCODING 224
SWIDTH 809 0
DWIDTH 17 0
BBX 24 21 -1 -5
BITMAP
000000
000000
000000
01E0E0
00C318
00C60C
018C18
01980C
01980C
03F018
033018
033018
063060
063060
0618C0
1E1E00
000000
000000
000000
000000
000000
ENDCHAR
STARTCHAR cyr-Ya
ENCODING 241
SWIDTH 714 0
DWIDTH 15 0
BBX 22 21 -1 -5
BITMAP
000000
000000
000000
001FF0
003060
006060
00C0C0
00C0C0
0060C0
007F80
003180
006180
018300
030300
060300
3C0F00
000000
000000
000000
000000
000000
ENDCHAR
STARTCHAR cyr-a
ENCODING 193
SWIDTH 428 0
DWIDTH 9 0
BBX 16 21 -1 -5
BITMAP
0000
0000
0000
0000
0000
0000
0000
01F0
0318
0630
00F0
0330
0C60
0C60
0CE0
0F60
0000
0000
0000
0000
0000
ENDCHAR
STARTCHAR cyr-be
ENCODING 194
SWIDTH 428 0
DWIDTH 9 0
BBX 16 21 -1 -5
BITMAP
0000
0001
003E
0080
0180
0180
0300
0370
0388
0608
0608
0608
0C10
0C10
0E20
0F80
0000
0000
0000
0000
0000
ENDCHAR
STARTCHAR cyr-ve
ENCODING 215
SWIDTH 428 0
DWIDTH 9 0
BBX 16 21 -1 -5
BITMAP
0000
0000
0000
0000
0000
0000
0000
03F8
0184
0308
0308
03F0
0610
0610
0610
1FC0
0000
0000
0000
0000
0000
ENDCHAR
STARTCHAR cyr-ghe
ENCODING 199
SWIDTH 380 0
DWIDTH 8 0
BBX 15 21 -1 -5
BITMAP
0000
0000
0000
0000
0000
0000
0000
03F8
0188
0300
0300
0300
0600
0600
0600
1E00
0000
0000
0000
0000
0000
ENDCHAR
STARTCHAR cyr-de
ENCODING 196
SWIDTH 476 0
DWIDTH 10 0
BBX 17 21 -1 -5
BITMAP
000000
000000
000000
000000
000000
000000
000000
01FE00
008C00
011800
011800
011800
023000
023000
043000
1FF000
101000
101000
000000
000000
000000
ENDCHAR
STARTCHAR cyr-ie
ENCODING 197
SWIDTH 380 0
DWIDTH 8 0
BBX 15 21 -1 -5
BITMAP
0000
0000
0000
0000
0000
0000
0000
00E0
01B0
0630
07F0
0600
0C00
0C20
0660
0780
0000
0000
0000
0000
0000
ENDCHAR
STARTCHAR cyr-zhe
ENCODING 214
SWIDTH 714 0
DWIDTH 15 0
BBX 22 21 -1 -5
BITMAP
000000
000000
000000
000000
000000
000000
000000
039E70
034CB0
009900
005A00
007E00
01B600
033300
063180
1EF780
000000
000000
000000
000000
000000
ENDCHAR
STARTCHAR cyr-z
ENCODING 218
SWIDTH 380 0
DWIDTH 8 0
BBX 15 21 -1 -5
BITMAP
0000
0000
0000
0000
0000
0000
0000
01F0
0218
0430
0030
01E0
0060
0860
0860
0F80
0000
0000
0000
0000
0000
ENDCHAR
STARTCHAR cyr-i
ENCODING 201
SWIDTH 523 0
DWIDTH 11 0
BBX 18 21 -1 -5
BITMAP
000000
000000
000000
000000
000000
000000
000000
03C700
018E00
032C00
032C00
034C00
069800
071800
061800
1E7800
000000
000000
000000
000000
000000
ENDCHAR
STARTCHAR cyr-i-short
ENCODING 202
SWIDTH 523 0
DWIDTH 11 0
BBX 18 21 -1 -5
BITMAP
000000
000000
000000
000000
000000
003600
003800
03C700
018E00
032C00
032C00
034C00
069800
071800
061800
1E7800
000000
000000
000000
000000
000000
ENDCHAR
STARTCHAR cyr-ka
ENCODING 203
SWIDTH 476 0
DWIDTH 10 0
BBX 17 21 -1 -5
BITMAP
000000
000000
000000
000000
000000
000000
000000
03CE00
019600
032000
034000
03C000
06C000
066000
063000
1E7000
000000
000000
000000
000000
000000
ENDCHAR
STARTCHAR cyr-el
ENCODING 204
SWIDTH 523 0
DWIDTH 11 0
BBX 18 21 -1 -5
BITMAP
000000
000000
000000
000000
000000
000000
000000
00FF00
004600
008C00
008C00
008C00
011800
011800
0D1800
1C7800
000000
000000
000000
000000
000000
ENDCHAR
STARTCHAR cyr-em
ENCODING 205
SWIDTH 571 0
DWIDTH 12 0
BBX 19 21 -1 -5
BITMAP
000000
000000
000000
000000
000000
000000
000000
038380
01C700
038E00
02D600
02D600
04CC00
04CC00
040C00
1C3C00
000000
000000
000000
000000
000000
ENDCHAR
STARTCHAR cyr-en
ENCODING 206
SWIDTH 523 0
DWIDTH 11 0
BBX 18 21 -1 -5
BITMAP
000000
000000
000000
000000
000000
000000
000000
03CF00
018600
030C00
030C00
03FC00
061800
061800
061800
1E7800
000000
000000
000000
000000
000000
ENDCHAR
STARTCHAR cyr-o
ENCODING 207
SWIDTH 428 0
DWIDTH 9 0
BBX 16 21 -1 -5
BITMAP
0000
0000
0000
0000
0000
0000
0000
00F0
0118
0618
0618
0618
0C30
0C30
0620
0780
0000
0000
0000
0000
0000
ENDCHAR
STARTCHAR cyr-pe
ENCODING 208
SWIDTH 523 0
DWIDTH 11 0
BBX 18 21 -1 -5
BITMAP
000000
000000
000000
000000
000000
000000
000000
03FF00
018600
030C00
030C00
030C00
061800
061800
061800
1E7800
000000
000000
000000
000000
000000
ENDCHAR
STARTCHAR cyr-er
ENCODING 210
SWIDTH 476 0
DWIDTH 10 0
BBX 17 21 -1 -5
BITMAP
000000
000000
000000
000000
000000
000000
000000
03F800
018C00
030C00
030C00
030C00
061800
061800
063000
0FC000
0C0000
0C0000
180000
3C0000
000000
ENDCHAR
STARTCHAR cyr-es
ENCODING 211
SWIDTH 380 0
DWIDTH 8 0
BBX 15 21 -1 -5
BITMAP
0000
0000
0000
0000
0000
0000
0000
00F0
0198
0630
0600
0600
0C00
0C20
0660
0780
0000
0000
0000
0000
0000
ENDCHAR
STARTCHAR cyr-te
ENCODING 212
SWIDTH 428 0
DWIDTH 9 0
BBX 16 21 -1 -5
BITMAP
0000
0000
0000
0000
0000
0000
0000
03FC
0264
04C8
00C0
00C0
0180
0180
0180
0780
0000
0000
0000
0000
0000
ENDCHAR
STARTCHAR cyr-u
ENCODING 213
SWIDTH 476 0
DWIDTH 10 0
BBX 17 21 -1 -5
BITMAP
000000
000000
000000
000000
000000
000000
000000
03CE00
018400
030800
019000
019000
01C000
01C000
008000
010000
030000
0A0000
3C0000
180000
000000
ENDCHAR
STARTCHAR cyr-ef
ENCODING 198
SWIDTH 523 0
DWIDTH 11 0
BBX 18 21 -1 -5
BITMAP
000000
000000
000000
000000
000000
000000
000000
00FC00
013200
066600
066600
066600
0CCC00
0CCC00
04C800
07E000
018000
018000
030000
030000
078000
ENDCHAR
STARTCHAR cyr-kha
ENCODING 200
SWIDTH 428 0
DWIDTH 9 0
BBX 16 21 -1 -5
BITMAP
0000
0000
0000
0000
0000
0000
0000
03DC
0188
01A0
01C0
00C0
01C0
02C0
0460
1DE0
0000
0000
0000
0000
0000
ENDCHAR
STARTCHAR cyr-tse
ENCODING 195
SWIDTH 523 0
DWIDTH 11 0
BBX 18 21 -1 -5
BITMAP
000000
000000
000000
000000
000000
000000
000000
03CF00
018600
030C00
030C00
030C00
061800
061800
061800
1FF800
000800
000800
000000
000000
000000
ENDCHAR
STARTCHAR cyr-che
ENCODING 222
SWIDTH 523 0
DWIDTH 11 0
BBX 18 21 -1 -5
BITMAP
000000
000000
000000
000000
000000
000000
000000
03CF00
018600
030C00
030C00
01FC00
001800
001800
001800
007800
000000
000000
000000
000000
000000
ENDCHAR
STARTCHAR cyr-sha
ENCODING 219
SWIDTH 714 0
DWIDTH 15 0
BBX 22 21 -1 -5
BITMAP
000000
000000
000000
000000
000000
000000
000000
039EF0
018C60
0318C0
0318C0
0318C0
063180
063180
063180
1FFF80
000000
000000
000000
000000
000000
ENDCHAR
STARTCHAR cyr-shcha
ENCODING 221
SWIDTH 714 0
DWIDTH 15 0
BBX 22 21 -1 -5
BITMAP
000000
000000
000000
000000
000000
000000
000000
039EF0
018C60
0318C0
0318C0
0318C0
063180
063180
063180
1FFF80
000080
000080
000000
000000
000000
ENDCHAR
STARTCHAR cyr-ier
ENCODING 223
SWIDTH 523 0
DWIDTH 11 0
BBX 18 21 -1 -5
BITMAP
000000
000000
000000
000000
000000
000000
000000
03F000
026000
04C000
00FC00
00C600
018C00
018C00
018C00
07F000
000000
000000
000000
000000
000000
ENDCHAR
STARTCHAR cyr-iery
ENCODING 217
SWIDTH 666 0
DWIDTH 14 0
BBX 21 21 -1 -5
BITMAP
000000
000000
000000
000000
000000
000000
000000
03C1E0
0180C0
030180
03F180
031980
063300
063300
063300
1FCF00
000000
000000
000000
000000
000000
ENDCHAR
STARTCHAR cyr-ierik
ENCODING 216
SWIDTH 428 0
DWIDTH 9 0
BBX 16 21 -1 -5
BITMAP
0000
0000
0000
0000
0000
0000
0000
03C0
0180
0300
03F0
0318
0630
0630
0630
1FC0
0000
0000
0000
0000
0000
ENDCHAR
STARTCHAR cyr-e-rev
ENCODING 220
SWIDTH 380 0
DWIDTH 8 0
BBX 15 21 -1 -5
BITMAP
0000
0000
0000
0000
0000
0000
0000
01F0
0218
0430
0030
01F0
0060
0860
0860
0F80
0000
0000
0000
0000
0000
ENDCHAR
STARTCHAR cyr-yu
ENCODING 192
SWIDTH 666 0
DWIDTH 14 0
BBX 21 21 -1 -5
BITMAP
000000
000000
000000
000000
000000
000000
000000
03C780
0188C0
0330C0
0330C0
03F0C0
066180
066180
063100
1E3C00
000000
000000
000000
000000
000000
ENDCHAR
STARTCHAR cyr-ya
ENCODING 209
SWIDTH 476 0
DWIDTH 10 0
BBX 17 21 -1 -5
BITMAP
000000
000000
000000
000000
000000
000000
000000
01FE00
030C00
061800
061800
03F800
033000
063000
0C3000
30F000
000000
000000
000000
000000
000000
ENDCHAR
ENDFONT
