STARTFONT 2.1
COMMENT Copyright (C) 1990-1991 EWT Consulting
COMMENT Portions Copyright (C) 1994-1995 Cronyx Ltd.
COMMENT Changes Copyright (C) 1996 by Andrey A. Chernov, Moscow, Russia.
COMMENT Modified by Serge Vakulenko, <vak@cronyx.ru>
COMMENT This software may be used, modified, copied, distributed, and sold,
COMMENT in both source and binary form provided that the copyright
COMMENT and these terms are retained. Under no circumstances is the author
COMMENT responsible for the proper functioning of this software, nor does
COMMENT the author assume any responsibility for damages incurred with its use.
COMMENT $XFree86: xc/fonts/bdf/cyrillic/crox2ho.bdf,v 3.2 1996/09/01 12:18:03 dawes Exp $
FONT -Cronyx-Helvetica-Medium-O-Normal--14-100-100-100-P-56-KOI8-R
SIZE 10 96 96
FONTBOUNDINGBOX 19 16 -1 -3
STARTPROPERTIES 19
DEFAULT_CHAR 32
FONT_ASCENT 13
FONT_DESCENT 3
SPACING "P"
FONTNAME_REGISTRY ""
FOUNDRY "Cronyx"
FAMILY_NAME "Helvetica"
WEIGHT_NAME "Medium"
SLANT "O"
SETWIDTH_NAME "Normal"
ADD_STYLE_NAME ""
AVERAGE_WIDTH 56
CHARSET_REGISTRY "KOI8"
CHARSET_ENCODING "R"
PIXEL_SIZE 14
POINT_SIZE 100
RESOLUTION_X 100
RESOLUTION_Y 100
COPYRIGHT "Copyright (C) 1990, 1991 EWT Consulting, Portions Copyright (C) 1994 Cronyx Ltd., Portions Copyright (C) 1996 by Andrey A. Chernov, Moscow, Russia."
ENDPROPERTIES
CHARS 224
STARTCHAR space
ENCODING 32
SWIDTH 187 0
DWIDTH 3 0
BBX 8 16 -1 -3
BITMAP
00
00
00
00
00
00
00
00
00
00
00
00
00
00
00
00
ENDCHAR
STARTCHAR exclam
ENCODING 33
SWIDTH 187 0
DWIDTH 3 0
BBX 8 16 -1 -3
BITMAP
00
00
00
02
04
04
04
08
08
08
10
00
10
00
00
00
ENDCHAR
STARTCHAR quotedbl
ENCODING 34
SWIDTH 312 0
DWIDTH 5 0
BBX 10 16 -1 -3
BITMAP
0000
0000
0000
0280
0500
0500
0500
0000
0000
0000
0000
0000
0000
0000
0000
0000
ENDCHAR
STARTCHAR numbersign
ENCODING 35
SWIDTH 437 0
DWIDTH 7 0
BBX 12 16 -1 -3
BITMAP
0000
0000
0000
00A0
0140
0140
07E0
0500
0500
1F80
1400
1400
1400
0000
0000
0000
ENDCHAR
STARTCHAR dollar
ENCODING 36
SWIDTH 437 0
DWIDTH 7 0
BBX 12 16 -1 -3
BITMAP
0000
0000
0000
0080
0380
0540
0540
0A00
0700
0280
0500
1500
0E00
0800
0000
0000
ENDCHAR
STARTCHAR percent
ENCODING 37
SWIDTH 750 0
DWIDTH 12 0
BBX 17 16 -1 -3
BITMAP
000000
000000
000000
018000
048400
048800
031000
004000
008000
011800
044800
084800
003000
000000
000000
000000
ENDCHAR
STARTCHAR ampersand
ENCODING 38
SWIDTH 562 0
DWIDTH 9 0
BBX 14 16 -1 -3
BITMAP
0000
0000
0000
00C0
0240
0240
0240
0300
0500
0880
1140
1080
0F40
0000
0000
0000
ENDCHAR
STARTCHAR quoteright
ENCODING 39
SWIDTH 187 0
DWIDTH 3 0
BBX 8 16 -1 -3
BITMAP
00
00
00
02
04
04
04
00
00
00
00
00
00
00
00
00
ENDCHAR
STARTCHAR parenleft
ENCODING 40
SWIDTH 250 0
DWIDTH 4 0
BBX 9 16 -1 -3
BITMAP
0000
0000
0000
0080
0200
0200
0400
0800
0800
0800
1000
1000
1000
1000
1000
0800
ENDCHAR
STARTCHAR parenright
ENCODING 41
SWIDTH 250 0
DWIDTH 4 0
BBX 9 16 -1 -3
BITMAP
0000
0000
0000
0400
0400
0400
0200
0400
0400
0400
0800
0800
0800
2000
2000
4000
ENDCHAR
STARTCHAR asterisk
ENCODING 42
SWIDTH 312 0
DWIDTH 5 0
BBX 10 16 -1 -3
BITMAP
0000
0000
0000
0100
0A80
0700
0D80
0000
0000
0000
0000
0000
0000
0000
0000
0000
ENDCHAR
STARTCHAR plus
ENCODING 43
SWIDTH 437 0
DWIDTH 7 0
BBX 12 16 -1 -3
BITMAP
0000
0000
0000
0000
0000
0000
0100
0200
0F80
0200
0400
0000
0000
0000
0000
0000
ENDCHAR
STARTCHAR comma
ENCODING 44
SWIDTH 187 0
DWIDTH 3 0
BBX 8 16 -1 -3
BITMAP
00
00
00
00
00
00
00
00
00
00
00
00
10
40
00
00
ENDCHAR
STARTCHAR minus
ENCODING 45
SWIDTH 250 0
DWIDTH 4 0
BBX 9 16 -1 -3
BITMAP
0000
0000
0000
0000
0000
0000
0000
0000
1E00
0000
0000
0000
0000
0000
0000
0000
ENDCHAR
STARTCHAR period
ENCODING 46
SWIDTH 187 0
DWIDTH 3 0
BBX 8 16 -1 -3
BITMAP
00
00
00
00
00
00
00
00
00
00
00
00
10
00
00
00
ENDCHAR
STARTCHAR slash
ENCODING 47
SWIDTH 250 0
DWIDTH 4 0
BBX 9 16 -1 -3
BITMAP
0000
0000
0000
0080
0100
0100
0200
0400
0400
0800
1000
1000
2000
4000
4000
0000
ENDCHAR
STARTCHAR zero
ENCODING 48
SWIDTH 437 0
DWIDTH 7 0
BBX 12 16 -1 -3
BITMAP
0000
0000
0000
01C0
0440
0440
0440
0880
0880
0880
1100
1100
0E00
0000
0000
0000
ENDCHAR
STARTCHAR one
ENCODING 49
SWIDTH 437 0
DWIDTH 7 0
BBX 12 16 -1 -3
BITMAP
0000
0000
0000
0080
0700
0100
0100
0200
0200
0200
0400
0400
0400
0000
0000
0000
ENDCHAR
STARTCHAR two
ENCODING 50
SWIDTH 437 0
DWIDTH 7 0
BBX 12 16 -1 -3
BITMAP
0000
0000
0000
01C0
0440
0440
0040
0100
0200
0400
1000
1000
1F00
0000
0000
0000
ENDCHAR
STARTCHAR three
ENCODING 51
SWIDTH 437 0
DWIDTH 7 0
BBX 12 16 -1 -3
BITMAP
0000
0000
0000
01C0
0440
0040
0040
0300
0080
0080
0100
1100
0E00
0000
0000
0000
ENDCHAR
STARTCHAR four
ENCODING 52
SWIDTH 437 0
DWIDTH 7 0
BBX 12 16 -1 -3
BITMAP
0000
0000
0000
0020
00C0
0140
0140
0480
0880
0F80
0100
0100
0100
0000
0000
0000
ENDCHAR
STARTCHAR five
ENCODING 53
SWIDTH 437 0
DWIDTH 7 0
BBX 12 16 -1 -3
BITMAP
0000
0000
0000
03E0
0400
0400
0400
0F00
0880
0080
0100
1100
0E00
0000
0000
0000
ENDCHAR
STARTCHAR six
ENCODING 54
SWIDTH 437 0
DWIDTH 7 0
BBX 12 16 -1 -3
BITMAP
0000
0000
0000
01C0
0440
0400
0400
0B00
0C80
0880
1100
1100
0E00
0000
0000
0000
ENDCHAR
STARTCHAR seven
ENCODING 55
SWIDTH 437 0
DWIDTH 7 0
BBX 12 16 -1 -3
BITMAP
0000
0000
0000
03E0
0040
0040
0080
0100
0200
0200
0800
0800
0800
0000
0000
0000
ENDCHAR
STARTCHAR eight
ENCODING 56
SWIDTH 437 0
DWIDTH 7 0
BBX 12 16 -1 -3
BITMAP
0000
0000
0000
01C0
0440
0440
0440
0700
0880
0880
1100
1100
0E00
0000
0000
0000
ENDCHAR
STARTCHAR nine
ENCODING 57
SWIDTH 437 0
DWIDTH 7 0
BBX 12 16 -1 -3
BITMAP
0000
0000
0000
01C0
0440
0440
0440
0980
0680
0080
0100
1100
0E00
0000
0000
0000
ENDCHAR
STARTCHAR colon
ENCODING 58
SWIDTH 187 0
DWIDTH 3 0
BBX 8 16 -1 -3
BITMAP
00
00
00
00
00
00
04
00
00
00
00
00
10
00
00
00
ENDCHAR
STARTCHAR semicolon
ENCODING 59
SWIDTH 187 0
DWIDTH 3 0
BBX 8 16 -1 -3
BITMAP
00
00
00
00
00
00
04
00
00
00
00
00
10
40
00
00
ENDCHAR
STARTCHAR less
ENCODING 60
SWIDTH 437 0
DWIDTH 7 0
BBX 12 16 -1 -3
BITMAP
0000
0000
0000
0000
0000
00C0
0180
0600
0C00
0600
0600
0300
0000
0000
0000
0000
ENDCHAR
STARTCHAR equal
ENCODING 61
SWIDTH 437 0
DWIDTH 7 0
BBX 12 16 -1 -3
BITMAP
0000
0000
0000
0000
0000
0000
0000
0F80
0000
0F80
0000
0000
0000
0000
0000
0000
ENDCHAR
STARTCHAR greater
ENCODING 62
SWIDTH 437 0
DWIDTH 7 0
BBX 12 16 -1 -3
BITMAP
0000
0000
0000
0000
0000
0600
0300
0300
0180
0300
0C00
1800
0000
0000
0000
0000
ENDCHAR
STARTCHAR question
ENCODING 63
SWIDTH 437 0
DWIDTH 7 0
BBX 12 16 -1 -3
BITMAP
0000
0000
0000
01C0
0440
0440
0040
0100
0200
0200
0400
0000
0400
0000
0000
0000
ENDCHAR
STARTCHAR at
ENCODING 64
SWIDTH 875 0
DWIDTH 14 0
BBX 19 16 -1 -3
BITMAP
000000
000000
003C00
00C300
020100
020100
043C80
088900
088900
089100
08DC00
080000
060C00
03E000
000000
000000
ENDCHAR
STARTCHAR A
ENCODING 65
SWIDTH 562 0
DWIDTH 9 0
BBX 14 16 -1 -3
BITMAP
0000
0000
0000
0040
0080
0140
0140
0440
0440
0FE0
1040
2020
2020
0000
0000
0000
ENDCHAR
STARTCHAR B
ENCODING 66
SWIDTH 562 0
DWIDTH 9 0
BBX 14 16 -1 -3
BITMAP
0000
0000
0000
03F0
0410
0410
0410
0FC0
0820
0820
1040
1040
1F80
0000
0000
0000
ENDCHAR
STARTCHAR C
ENCODING 67
SWIDTH 562 0
DWIDTH 9 0
BBX 14 16 -1 -3
BITMAP
0000
0000
0000
00F0
0210
0408
0400
0800
0800
0800
1020
0840
0780
0000
0000
0000
ENDCHAR
STARTCHAR D
ENCODING 68
SWIDTH 625 0
DWIDTH 10 0
BBX 15 16 -1 -3
BITMAP
0000
0000
0000
03F0
0410
0408
0408
0810
0810
0810
1020
1040
1F80
0000
0000
0000
ENDCHAR
STARTCHAR E
ENCODING 69
SWIDTH 562 0
DWIDTH 9 0
BBX 14 16 -1 -3
BITMAP
0000
0000
0000
03F8
0400
0400
0400
0FC0
0800
0800
1000
1000
1FC0
0000
0000
0000
ENDCHAR
STARTCHAR F
ENCODING 70
SWIDTH 500 0
DWIDTH 8 0
BBX 13 16 -1 -3
BITMAP
0000
0000
0000
03F8
0400
0400
0400
0FC0
0800
0800
1000
1000
1000
0000
0000
0000
ENDCHAR
STARTCHAR G
ENCODING 71
SWIDTH 625 0
DWIDTH 10 0
BBX 15 16 -1 -3
BITMAP
0000
0000
0000
00F0
0210
0408
0400
0800
0870
0810
1020
0860
07A0
0000
0000
0000
ENDCHAR
STARTCHAR H
ENCODING 72
SWIDTH 625 0
DWIDTH 10 0
BBX 15 16 -1 -3
BITMAP
0000
0000
0000
0204
0408
0408
0408
0FF0
0810
0810
1020
1020
1020
0000
0000
0000
ENDCHAR
STARTCHAR I
ENCODING 73
SWIDTH 187 0
DWIDTH 3 0
BBX 8 16 -1 -3
BITMAP
00
00
00
02
04
04
04
08
08
08
10
10
10
00
00
00
ENDCHAR
STARTCHAR J
ENCODING 74
SWIDTH 437 0
DWIDTH 7 0
BBX 12 16 -1 -3
BITMAP
0000
0000
0000
0020
0040
0040
0040
0080
0080
0080
1100
1100
0E00
0000
0000
0000
ENDCHAR
STARTCHAR K
ENCODING 75
SWIDTH 500 0
DWIDTH 8 0
BBX 13 16 -1 -3
BITMAP
0000
0000
0000
0210
0440
0480
0500
0C00
0A00
0900
1100
1080
1040
0000
0000
0000
ENDCHAR
STARTCHAR L
ENCODING 76
SWIDTH 437 0
DWIDTH 7 0
BBX 12 16 -1 -3
BITMAP
0000
0000
0000
0200
0400
0400
0400
0800
0800
0800
1000
1000
1F80
0000
0000
0000
ENDCHAR
STARTCHAR M
ENCODING 77
SWIDTH 687 0
DWIDTH 11 0
BBX 16 16 -1 -3
BITMAP
0000
0000
0000
0202
0404
060C
060C
0A28
0A28
0948
1290
1110
1110
0000
0000
0000
ENDCHAR
STARTCHAR N
ENCODING 78
SWIDTH 625 0
DWIDTH 10 0
BBX 15 16 -1 -3
BITMAP
0000
0000
0000
0204
0608
0508
0508
0910
0890
0850
10A0
1060
1020
0000
0000
0000
ENDCHAR
STARTCHAR O
ENCODING 79
SWIDTH 625 0
DWIDTH 10 0
BBX 15 16 -1 -3
BITMAP
0000
0000
0000
00F0
0210
0408
0408
0810
0810
0810
1020
0840
0780
0000
0000
0000
ENDCHAR
STARTCHAR P
ENCODING 80
SWIDTH 562 0
DWIDTH 9 0
BBX 14 16 -1 -3
BITMAP
0000
0000
0000
03F0
0410
0408
0408
0820
0FC0
0800
1000
1000
1000
0000
0000
0000
ENDCHAR
STARTCHAR Q
ENCODING 81
SWIDTH 625 0
DWIDTH 10 0
BBX 15 16 -1 -3
BITMAP
0000
0000
0000
00F0
0210
0408
0408
0810
0810
0810
10A0
0840
07A0
0000
0000
0000
ENDCHAR
STARTCHAR R
ENCODING 82
SWIDTH 625 0
DWIDTH 10 0
BBX 15 16 -1 -3
BITMAP
0000
0000
0000
03F0
0410
0408
0408
0820
0FE0
0810
1020
1020
1010
0000
0000
0000
ENDCHAR
STARTCHAR S
ENCODING 83
SWIDTH 562 0
DWIDTH 9 0
BBX 14 16 -1 -3
BITMAP
0000
0000
0000
01F0
0410
0410
0400
0700
00C0
0020
1040
1040
0F80
0000
0000
0000
ENDCHAR
STARTCHAR T
ENCODING 84
SWIDTH 562 0
DWIDTH 9 0
BBX 14 16 -1 -3
BITMAP
0000
0000
0000
07FC
0080
0080
0080
0100
0100
0100
0200
0200
0200
0000
0000
0000
ENDCHAR
STARTCHAR U
ENCODING 85
SWIDTH 625 0
DWIDTH 10 0
BBX 15 16 -1 -3
BITMAP
0000
0000
0000
0204
0408
0408
0408
0810
0810
0810
1020
0840
0780
0000
0000
0000
ENDCHAR
STARTCHAR V
ENCODING 86
SWIDTH 562 0
DWIDTH 9 0
BBX 14 16 -1 -3
BITMAP
0000
0000
0000
0404
0808
0410
0410
0440
0440
0280
0500
0200
0200
0000
0000
0000
ENDCHAR
STARTCHAR W
ENCODING 87
SWIDTH 812 0
DWIDTH 13 0
BBX 18 16 -1 -3
BITMAP
000000
000000
000000
041040
082080
082080
045100
08A200
051400
051400
0A2800
041000
041000
000000
000000
000000
ENDCHAR
STARTCHAR X
ENCODING 88
SWIDTH 500 0
DWIDTH 8 0
BBX 13 16 -1 -3
BITMAP
0000
0000
0000
0408
0810
0420
0240
0300
0300
0480
1080
2040
2040
0000
0000
0000
ENDCHAR
STARTCHAR Y
ENCODING 89
SWIDTH 562 0
DWIDTH 9 0
BBX 14 16 -1 -3
BITMAP
0000
0000
0000
0404
0808
0410
0220
0280
0100
0100
0200
0200
0200
0000
0000
0000
ENDCHAR
STARTCHAR Z
ENCODING 90
SWIDTH 500 0
DWIDTH 8 0
BBX 13 16 -1 -3
BITMAP
0000
0000
0000
03F0
0020
0040
0040
0100
0200
0400
0800
1000
1F80
0000
0000
0000
ENDCHAR
STARTCHAR bracketleft
ENCODING 91
SWIDTH 250 0
DWIDTH 4 0
BBX 9 16 -1 -3
BITMAP
0000
0000
0000
0380
0400
0400
0400
0800
0800
0800
1000
1000
1000
2000
2000
3800
ENDCHAR
STARTCHAR backslash
ENCODING 92
SWIDTH 250 0
DWIDTH 4 0
BBX 9 16 -1 -3
BITMAP
0000
0000
0000
0400
0800
0800
0400
0800
0800
0400
0800
0800
0400
0800
0800
0000
ENDCHAR
STARTCHAR bracketright
ENCODING 93
SWIDTH 250 0
DWIDTH 4 0
BBX 9 16 -1 -3
BITMAP
0000
0000
0000
0700
0200
0200
0200
0400
0400
0400
0800
0800
0800
1000
1000
7000
ENDCHAR
STARTCHAR asciicircum
ENCODING 94
SWIDTH 437 0
DWIDTH 7 0
BBX 12 16 -1 -3
BITMAP
0000
0000
0080
0140
0440
0000
0000
0000
0000
0000
0000
0000
0000
0000
0000
0000
ENDCHAR
STARTCHAR underscore
ENCODING 95
SWIDTH 437 0
DWIDTH 7 0
BBX 12 16 -1 -3
BITMAP
0000
0000
0000
0000
0000
0000
0000
0000
0000
0000
0000
0000
0000
0000
7F00
0000
ENDCHAR
STARTCHAR quoteleft
ENCODING 96
SWIDTH 250 0
DWIDTH 4 0
BBX 9 16 -1 -3
BITMAP
0000
0000
0000
0200
0200
0000
0000
0000
0000
0000
0000
0000
0000
0000
0000
0000
ENDCHAR
STARTCHAR a
ENCODING 97
SWIDTH 500 0
DWIDTH 8 0
BBX 13 16 -1 -3
BITMAP
0000
0000
0000
0000
0000
0000
03C0
0840
07C0
0840
1080
1080
0F40
0000
0000
0000
ENDCHAR
STARTCHAR b
ENCODING 98
SWIDTH 500 0
DWIDTH 8 0
BBX 13 16 -1 -3
BITMAP
0000
0000
0000
0200
0400
0400
05C0
0C40
0840
0840
1080
1880
1700
0000
0000
0000
ENDCHAR
STARTCHAR c
ENCODING 99
SWIDTH 437 0
DWIDTH 7 0
BBX 12 16 -1 -3
BITMAP
0000
0000
0000
0000
0000
0000
03C0
0840
0800
0800
1000
1080
0F00
0000
0000
0000
ENDCHAR
STARTCHAR d
ENCODING 100
SWIDTH 500 0
DWIDTH 8 0
BBX 13 16 -1 -3
BITMAP
0000
0000
0000
0010
0020
0020
03A0
08C0
0840
0840
1080
1180
0E80
0000
0000
0000
ENDCHAR
STARTCHAR e
ENCODING 101
SWIDTH 500 0
DWIDTH 8 0
BBX 13 16 -1 -3
BITMAP
0000
0000
0000
0000
0000
0000
03C0
0840
0840
0FC0
1000
1080
0F00
0000
0000
0000
ENDCHAR
STARTCHAR f
ENCODING 102
SWIDTH 187 0
DWIDTH 3 0
BBX 8 16 -1 -3
BITMAP
00
00
00
01
04
04
0E
08
08
08
10
10
10
00
00
00
ENDCHAR
STARTCHAR g
ENCODING 103
SWIDTH 500 0
DWIDTH 8 0
BBX 13 16 -1 -3
BITMAP
0000
0000
0000
0000
0000
0000
03A0
08C0
0840
0840
1080
1180
0E80
0100
0100
1E00
ENDCHAR
STARTCHAR h
ENCODING 104
SWIDTH 437 0
DWIDTH 7 0
BBX 12 16 -1 -3
BITMAP
0000
0000
0000
0200
0400
0400
0580
0C80
0880
0880
1100
1100
1100
0000
0000
0000
ENDCHAR
STARTCHAR i
ENCODING 105
SWIDTH 187 0
DWIDTH 3 0
BBX 8 16 -1 -3
BITMAP
00
00
00
02
00
00
04
08
08
08
10
10
10
00
00
00
ENDCHAR
STARTCHAR j
ENCODING 106
SWIDTH 187 0
DWIDTH 3 0
BBX 8 16 -1 -3
BITMAP
00
00
00
02
00
00
04
08
08
08
10
10
10
20
20
40
ENDCHAR
STARTCHAR k
ENCODING 107
SWIDTH 437 0
DWIDTH 7 0
BBX 12 16 -1 -3
BITMAP
0000
0000
0000
0200
0400
0400
0440
0900
0A00
0E00
1200
1100
1080
0000
0000
0000
ENDCHAR
STARTCHAR l
ENCODING 108
SWIDTH 187 0
DWIDTH 3 0
BBX 8 16 -1 -3
BITMAP
00
00
00
02
04
04
04
08
08
08
10
10
10
00
00
00
ENDCHAR
STARTCHAR m
ENCODING 109
SWIDTH 687 0
DWIDTH 11 0
BBX 16 16 -1 -3
BITMAP
0000
0000
0000
0000
0000
0000
0598
0CC8
0888
0888
1110
1110
1110
0000
0000
0000
ENDCHAR
STARTCHAR n
ENCODING 110
SWIDTH 437 0
DWIDTH 7 0
BBX 12 16 -1 -3
BITMAP
0000
0000
0000
0000
0000
0000
0580
0C80
0880
0880
1100
1100
1100
0000
0000
0000
ENDCHAR
STARTCHAR o
ENCODING 111
SWIDTH 500 0
DWIDTH 8 0
BBX 13 16 -1 -3
BITMAP
0000
0000
0000
0000
0000
0000
03C0
0840
0840
0840
1080
1080
0F00
0000
0000
0000
ENDCHAR
STARTCHAR p
ENCODING 112
SWIDTH 500 0
DWIDTH 8 0
BBX 13 16 -1 -3
BITMAP
0000
0000
0000
0000
0000
0000
05C0
0C40
0840
0840
1080
1880
1700
2000
2000
2000
ENDCHAR
STARTCHAR q
ENCODING 113
SWIDTH 500 0
DWIDTH 8 0
BBX 13 16 -1 -3
BITMAP
0000
0000
0000
0000
0000
0000
03A0
08C0
0840
0840
1080
1180
0E80
0100
0100
0100
ENDCHAR
STARTCHAR r
ENCODING 114
SWIDTH 250 0
DWIDTH 4 0
BBX 9 16 -1 -3
BITMAP
0000
0000
0000
0000
0000
0000
0500
0C00
0800
0800
1000
1000
1000
0000
0000
0000
ENDCHAR
STARTCHAR s
ENCODING 115
SWIDTH 437 0
DWIDTH 7 0
BBX 12 16 -1 -3
BITMAP
0000
0000
0000
0000
0000
0000
0380
0880
0800
0700
0100
1100
0E00
0000
0000
0000
ENDCHAR
STARTCHAR t
ENCODING 116
SWIDTH 187 0
DWIDTH 3 0
BBX 8 16 -1 -3
BITMAP
00
00
00
00
04
04
0E
08
08
08
10
10
08
00
00
00
ENDCHAR
STARTCHAR u
ENCODING 117
SWIDTH 437 0
DWIDTH 7 0
BBX 12 16 -1 -3
BITMAP
0000
0000
0000
0000
0000
0000
0440
0880
0880
0880
1100
1300
0D00
0000
0000
0000
ENDCHAR
STARTCHAR v
ENCODING 118
SWIDTH 437 0
DWIDTH 7 0
BBX 12 16 -1 -3
BITMAP
0000
0000
0000
0000
0000
0000
0820
1040
0880
0880
0A00
0A00
0400
0000
0000
0000
ENDCHAR
STARTCHAR w
ENCODING 119
SWIDTH 562 0
DWIDTH 9 0
BBX 14 16 -1 -3
BITMAP
0000
0000
0000
0000
0000
0000
0888
1110
0AA0
0AA0
1540
0880
0880
0000
0000
0000
ENDCHAR
STARTCHAR x
ENCODING 120
SWIDTH 375 0
DWIDTH 6 0
BBX 11 16 -1 -3
BITMAP
0000
0000
0000
0000
0000
0000
0840
0900
0600
0600
0C00
1200
2100
0000
0000
0000
ENDCHAR
STARTCHAR y
ENCODING 121
SWIDTH 437 0
DWIDTH 7 0
BBX 12 16 -1 -3
BITMAP
0000
0000
0000
0000
0000
0000
0820
1040
0880
0880
0A00
0A00
0400
0800
1000
6000
ENDCHAR
STARTCHAR z
ENCODING 122
SWIDTH 375 0
DWIDTH 6 0
BBX 11 16 -1 -3
BITMAP
0000
0000
0000
0000
0000
0000
0780
0100
0200
0400
0800
1000
1E00
0000
0000
0000
ENDCHAR
STARTCHAR braceleft
ENCODING 123
SWIDTH 312 0
DWIDTH 5 0
BBX 10 16 -1 -3
BITMAP
0000
0000
0000
00C0
0200
0200
0200
0400
0400
1800
0800
0800
0800
1000
1000
0C00
ENDCHAR
STARTCHAR bar
ENCODING 124
SWIDTH 187 0
DWIDTH 3 0
BBX 8 16 -1 -3
BITMAP
00
00
00
02
04
04
04
08
08
08
10
10
10
20
20
20
ENDCHAR
STARTCHAR braceright
ENCODING 125
SWIDTH 312 0
DWIDTH 5 0
BBX 10 16 -1 -3
BITMAP
0000
0000
0000
0600
0200
0200
0200
0400
0400
0300
0800
0800
0800
1000
1000
6000
ENDCHAR
STARTCHAR asciitilde
ENCODING 126
SWIDTH 562 0
DWIDTH 9 0
BBX 14 16 -1 -3
BITMAP
0000
0000
0000
0188
0490
0460
0000
0000
0000
0000
0000
0000
0000
0000
0000
0000
ENDCHAR
STARTCHAR C177
ENCODING -1
SWIDTH 250 0
DWIDTH 4 0
BBX 9 16 -1 -3
BITMAP
0000
0000
0000
0300
0600
0600
0600
0C00
0C00
0C00
1800
1800
1800
0000
0000
0000
ENDCHAR
STARTCHAR C200
ENCODING -1
SWIDTH 250 0
DWIDTH 4 0
BBX 9 16 -1 -3
BITMAP
0000
0000
0000
0300
0600
0600
0600
0C00
0C00
0C00
1800
1800
1800
0000
0000
0000
ENDCHAR
STARTCHAR C201
ENCODING -1
SWIDTH 250 0
DWIDTH 4 0
BBX 9 16 -1 -3
BITMAP
0000
0000
0000
0300
0600
0600
0600
0C00
0C00
0C00
1800
1800
1800
0000
0000
0000
ENDCHAR
STARTCHAR C202
ENCODING -1
SWIDTH 250 0
DWIDTH 4 0
BBX 9 16 -1 -3
BITMAP
0000
0000
0000
0300
0600
0600
0600
0C00
0C00
0C00
1800
1800
1800
0000
0000
0000
ENDCHAR
STARTCHAR C203
ENCODING -1
SWIDTH 250 0
DWIDTH 4 0
BBX 9 16 -1 -3
BITMAP
0000
0000
0000
0300
0600
0600
0600
0C00
0C00
0C00
1800
1800
1800
0000
0000
0000
ENDCHAR
STARTCHAR C204
ENCODING -1
SWIDTH 250 0
DWIDTH 4 0
BBX 9 16 -1 -3
BITMAP
0000
0000
0000
0300
0600
0600
0600
0C00
0C00
0C00
1800
1800
1800
0000
0000
0000
ENDCHAR
STARTCHAR C205
ENCODING -1
SWIDTH 250 0
DWIDTH 4 0
BBX 9 16 -1 -3
BITMAP
0000
0000
0000
0300
0600
0600
0600
0C00
0C00
0C00
1800
1800
1800
0000
0000
0000
ENDCHAR
STARTCHAR C206
ENCODING -1
SWIDTH 250 0
DWIDTH 4 0
BBX 9 16 -1 -3
BITMAP
0000
0000
0000
0300
0600
0600
0600
0C00
0C00
0C00
1800
1800
1800
0000
0000
0000
ENDCHAR
STARTCHAR C207
ENCODING -1
SWIDTH 250 0
DWIDTH 4 0
BBX 9 16 -1 -3
BITMAP
0000
0000
0000
0300
0600
0600
0600
0C00
0C00
0C00
1800
1800
1800
0000
0000
0000
ENDCHAR
STARTCHAR C210
ENCODING -1
SWIDTH 250 0
DWIDTH 4 0
BBX 9 16 -1 -3
BITMAP
0000
0000
0000
0300
0600
0600
0600
0C00
0C00
0C00
1800
1800
1800
0000
0000
0000
ENDCHAR
STARTCHAR C211
ENCODING -1
SWIDTH 250 0
DWIDTH 4 0
BBX 9 16 -1 -3
BITMAP
0000
0000
0000
0300
0600
0600
0600
0C00
0C00
0C00
1800
1800
1800
0000
0000
0000
ENDCHAR
STARTCHAR C212
ENCODING -1
SWIDTH 250 0
DWIDTH 4 0
BBX 9 16 -1 -3
BITMAP
0000
0000
0000
0300
0600
0600
0600
0C00
0C00
0C00
1800
1800
1800
0000
0000
0000
ENDCHAR
STARTCHAR C213
ENCODING -1
SWIDTH 250 0
DWIDTH 4 0
BBX 9 16 -1 -3
BITMAP
0000
0000
0000
0300
0600
0600
0600
0C00
0C00
0C00
1800
1800
1800
0000
0000
0000
ENDCHAR
STARTCHAR C214
ENCODING -1
SWIDTH 250 0
DWIDTH 4 0
BBX 9 16 -1 -3
BITMAP
0000
0000
0000
0300
0600
0600
0600
0C00
0C00
0C00
1800
1800
1800
0000
0000
0000
ENDCHAR
STARTCHAR C215
ENCODING -1
SWIDTH 250 0
DWIDTH 4 0
BBX 9 16 -1 -3
BITMAP
0000
0000
0000
0300
0600
0600
0600
0C00
0C00
0C00
1800
1800
1800
0000
0000
0000
ENDCHAR
STARTCHAR C216
ENCODING -1
SWIDTH 250 0
DWIDTH 4 0
BBX 9 16 -1 -3
BITMAP
0000
0000
0000
0300
0600
0600
0600
0C00
0C00
0C00
1800
1800
1800
0000
0000
0000
ENDCHAR
STARTCHAR C217
ENCODING -1
SWIDTH 250 0
DWIDTH 4 0
BBX 9 16 -1 -3
BITMAP
0000
0000
0000
0300
0600
0600
0600
0C00
0C00
0C00
1800
1800
1800
0000
0000
0000
ENDCHAR
STARTCHAR C220
ENCODING -1
SWIDTH 250 0
DWIDTH 4 0
BBX 9 16 -1 -3
BITMAP
0000
0000
0000
0300
0600
0600
0600
0C00
0C00
0C00
1800
1800
1800
0000
0000
0000
ENDCHAR
STARTCHAR C221
ENCODING -1
SWIDTH 187 0
DWIDTH 3 0
BBX 8 16 -1 -3
BITMAP
00
00
00
01
04
00
00
00
00
00
00
00
00
00
00
00
ENDCHAR
STARTCHAR C222
ENCODING -1
SWIDTH 187 0
DWIDTH 3 0
BBX 8 16 -1 -3
BITMAP
00
00
00
02
08
00
00
00
00
00
00
00
00
00
00
00
ENDCHAR
STARTCHAR C223
ENCODING -1
SWIDTH 250 0
DWIDTH 4 0
BBX 9 16 -1 -3
BITMAP
0000
0000
0000
0300
0600
0600
0600
0C00
0C00
0C00
1800
1800
1800
0000
0000
0000
ENDCHAR
STARTCHAR C224
ENCODING -1
SWIDTH 250 0
DWIDTH 4 0
BBX 9 16 -1 -3
BITMAP
0000
0000
0000
0300
0600
0600
0600
0C00
0C00
0C00
1800
1800
1800
0000
0000
0000
ENDCHAR
STARTCHAR C225
ENCODING -1
SWIDTH 250 0
DWIDTH 4 0
BBX 9 16 -1 -3
BITMAP
0000
0000
0000
0300
0600
0600
0600
0C00
0C00
0C00
1800
1800
1800
0000
0000
0000
ENDCHAR
STARTCHAR C226
ENCODING -1
SWIDTH 250 0
DWIDTH 4 0
BBX 9 16 -1 -3
BITMAP
0000
0000
0000
0300
0600
0600
0600
0C00
0C00
0C00
1800
1800
1800
0000
0000
0000
ENDCHAR
STARTCHAR C227
ENCODING -1
SWIDTH 250 0
DWIDTH 4 0
BBX 9 16 -1 -3
BITMAP
0000
0000
0000
0300
0600
0600
0600
0C00
0C00
0C00
1800
1800
1800
0000
0000
0000
ENDCHAR
STARTCHAR C230
ENCODING -1
SWIDTH 250 0
DWIDTH 4 0
BBX 9 16 -1 -3
BITMAP
0000
0000
0000
0300
0600
0600
0600
0C00
0C00
0C00
1800
1800
1800
0000
0000
0000
ENDCHAR
STARTCHAR C231
ENCODING -1
SWIDTH 250 0
DWIDTH 4 0
BBX 9 16 -1 -3
BITMAP
0000
0000
0000
0300
0600
0600
0600
0C00
0C00
0C00
1800
1800
1800
0000
0000
0000
ENDCHAR
STARTCHAR C232
ENCODING -1
SWIDTH 250 0
DWIDTH 4 0
BBX 9 16 -1 -3
BITMAP
0000
0000
0000
0300
0600
0600
0600
0C00
0C00
0C00
1800
1800
1800
0000
0000
0000
ENDCHAR
STARTCHAR C233
ENCODING -1
SWIDTH 250 0
DWIDTH 4 0
BBX 9 16 -1 -3
BITMAP
0000
0000
0000
0300
0600
0600
0600
0C00
0C00
0C00
1800
1800
1800
0000
0000
0000
ENDCHAR
STARTCHAR C234
ENCODING 176
SWIDTH 250 0
DWIDTH 4 0
BBX 9 16 -1 -3
BITMAP
0000
0000
0000
0300
0600
0600
0600
0C00
0C00
0C00
1800
1800
1800
0000
0000
0000
ENDCHAR
STARTCHAR C235
ENCODING 178
SWIDTH 250 0
DWIDTH 4 0
BBX 9 16 -1 -3
BITMAP
0000
0000
0000
0300
0600
0600
0600
0C00
0C00
0C00
1800
1800
1800
0000
0000
0000
ENDCHAR
STARTCHAR C236
ENCODING -1
SWIDTH 250 0
DWIDTH 4 0
BBX 9 16 -1 -3
BITMAP
0000
0000
0000
0300
0600
0600
0600
0C00
0C00
0C00
1800
1800
1800
0000
0000
0000
ENDCHAR
STARTCHAR C237
ENCODING -1
SWIDTH 250 0
DWIDTH 4 0
BBX 9 16 -1 -3
BITMAP
0000
0000
0000
0300
0600
0600
0600
0C00
0C00
0C00
1800
1800
1800
0000
0000
0000
ENDCHAR
STARTCHAR C240
ENCODING 160
SWIDTH 187 0
DWIDTH 3 0
BBX 8 16 -1 -3
BITMAP
00
00
00
00
00
00
00
00
00
00
00
00
00
00
00
00
ENDCHAR
STARTCHAR exclamdown
ENCODING 161
SWIDTH 187 0
DWIDTH 3 0
BBX 8 16 -1 -3
BITMAP
00
00
00
00
00
00
04
00
08
08
10
10
10
20
20
20
ENDCHAR
STARTCHAR cent
ENCODING 162
SWIDTH 437 0
DWIDTH 7 0
BBX 12 16 -1 -3
BITMAP
0000
0000
0000
0000
0000
0040
0380
0980
0900
0A00
1400
1900
0E00
2000
0000
0000
ENDCHAR
STARTCHAR sterling
ENCODING 163
SWIDTH 437 0
DWIDTH 7 0
BBX 12 16 -1 -3
BITMAP
0000
0000
0000
0180
0480
0400
0400
0400
0F00
0400
0800
1000
1F00
0000
0000
0000
ENDCHAR
STARTCHAR currency
ENCODING 164
SWIDTH 437 0
DWIDTH 7 0
BBX 12 16 -1 -3
BITMAP
0000
0000
0000
0220
0380
0280
0380
0880
0000
0000
0000
0000
0000
0000
0000
0000
ENDCHAR
STARTCHAR yen
ENCODING 165
SWIDTH 437 0
DWIDTH 7 0
BBX 12 16 -1 -3
BITMAP
0000
0000
0000
0410
0820
0440
0280
1FC0
0200
1FC0
0400
0400
0400
0000
0000
0000
ENDCHAR
STARTCHAR brokenbar
ENCODING 166
SWIDTH 187 0
DWIDTH 3 0
BBX 8 16 -1 -3
BITMAP
00
00
00
02
04
04
04
08
08
00
10
10
10
20
20
20
ENDCHAR
STARTCHAR section
ENCODING 167
SWIDTH 437 0
DWIDTH 7 0
BBX 12 16 -1 -3
BITMAP
0000
0000
0000
01C0
0440
0200
0300
0900
0480
0300
0200
1100
0E00
0000
0000
0000
ENDCHAR
STARTCHAR dieresis
ENCODING 168
SWIDTH 250 0
DWIDTH 4 0
BBX 9 16 -1 -3
BITMAP
0000
0000
0000
0480
0000
0000
0000
0000
0000
0000
0000
0000
0000
0000
0000
0000
ENDCHAR
STARTCHAR copyright
ENCODING 191
SWIDTH 500 0
DWIDTH 8 0
BBX 13 16 -1 -3
BITMAP
0000
0000
0000
01E0
0420
09D0
0A10
1420
13A0
0840
0F00
0000
0000
0000
0000
0000
ENDCHAR
STARTCHAR ordfeminine
ENCODING 170
SWIDTH 312 0
DWIDTH 5 0
BBX 10 16 -1 -3
BITMAP
0000
0000
0000
0100
0100
0300
0500
0600
0000
0E00
0000
0000
0000
0000
0000
0000
ENDCHAR
STARTCHAR guillemotleft
ENCODING 171
SWIDTH 437 0
DWIDTH 7 0
BBX 12 16 -1 -3
BITMAP
0000
0000
0000
0000
0000
0000
0000
0280
0500
0A00
0A00
0500
0000
0000
0000
0000
ENDCHAR
STARTCHAR logicalnot
ENCODING 172
SWIDTH 437 0
DWIDTH 7 0
BBX 12 16 -1 -3
BITMAP
0000
0000
0000
0000
0000
0000
0000
0F80
0080
0000
0000
0000
0000
0000
0000
0000
ENDCHAR
STARTCHAR hyphen
ENCODING 173
SWIDTH 250 0
DWIDTH 4 0
BBX 9 16 -1 -3
BITMAP
0000
0000
0000
0000
0000
0000
0000
0000
1E00
0000
0000
0000
0000
0000
0000
0000
ENDCHAR
STARTCHAR registered
ENCODING 174
SWIDTH 500 0
DWIDTH 8 0
BBX 13 16 -1 -3
BITMAP
0000
0000
0000
01E0
0420
0B90
0A50
1720
14A0
0840
0F00
0000
0000
0000
0000
0000
ENDCHAR
STARTCHAR macron
ENCODING 175
SWIDTH 437 0
DWIDTH 7 0
BBX 12 16 -1 -3
BITMAP
0000
07F0
0000
0000
0000
0000
0000
0000
0000
0000
0000
0000
0000
0000
0000
0000
ENDCHAR
STARTCHAR degree
ENCODING 156
SWIDTH 250 0
DWIDTH 4 0
BBX 9 16 -1 -3
BITMAP
0000
0000
0000
0100
0500
0200
0000
0000
0000
0000
0000
0000
0000
0000
0000
0000
ENDCHAR
STARTCHAR plusminus
ENCODING 177
SWIDTH 437 0
DWIDTH 7 0
BBX 12 16 -1 -3
BITMAP
0000
0000
0000
0000
0000
0000
0100
0200
0F80
0200
0400
0000
1F00
0000
0000
0000
ENDCHAR
STARTCHAR twosuperior
ENCODING 157
SWIDTH 250 0
DWIDTH 4 0
BBX 9 16 -1 -3
BITMAP
0000
0000
0000
0300
0900
0200
0400
1E00
0000
0000
0000
0000
0000
0000
0000
0000
ENDCHAR
STARTCHAR threesuperior
ENCODING 179
SWIDTH 250 0
DWIDTH 4 0
BBX 9 16 -1 -3
BITMAP
0000
0000
0000
0300
0900
0200
0900
0C00
0000
0000
0000
0000
0000
0000
0000
0000
ENDCHAR
STARTCHAR acute
ENCODING 180
SWIDTH 250 0
DWIDTH 4 0
BBX 9 16 -1 -3
BITMAP
0000
0000
0000
0100
0400
0000
0000
0000
0000
0000
0000
0000
0000
0000
0000
0000
ENDCHAR
STARTCHAR mu
ENCODING 181
SWIDTH 437 0
DWIDTH 7 0
BBX 12 16 -1 -3
BITMAP
0000
0000
0000
0000
0000
0440
0440
0880
0880
0880
1100
1100
1E80
2000
2000
2000
ENDCHAR
STARTCHAR paragraph
ENCODING 182
SWIDTH 437 0
DWIDTH 7 0
BBX 12 16 -1 -3
BITMAP
0000
0000
0000
01E0
0740
0740
0740
0E80
0680
0280
0500
0500
0500
0000
0000
0000
ENDCHAR
STARTCHAR periodcentered
ENCODING 183
SWIDTH 187 0
DWIDTH 3 0
BBX 8 16 -1 -3
BITMAP
00
00
00
00
00
00
00
08
00
00
00
00
00
00
00
00
ENDCHAR
STARTCHAR cedilla
ENCODING 184
SWIDTH 250 0
DWIDTH 4 0
BBX 9 16 -1 -3
BITMAP
0000
0000
0000
0000
0000
0000
0000
0000
0000
0000
0000
0000
0000
1000
0800
3000
ENDCHAR
STARTCHAR onesuperior
ENCODING 185
SWIDTH 250 0
DWIDTH 4 0
BBX 9 16 -1 -3
BITMAP
0000
0000
0000
0100
0600
0200
0200
0400
0000
0000
0000
0000
0000
0000
0000
0000
ENDCHAR
STARTCHAR ordmasculine
ENCODING 186
SWIDTH 312 0
DWIDTH 5 0
BBX 10 16 -1 -3
BITMAP
0000
0000
0000
0100
0500
0500
0500
0400
0000
0E00
0000
0000
0000
0000
0000
0000
ENDCHAR
STARTCHAR guillemotright
ENCODING 187
SWIDTH 437 0
DWIDTH 7 0
BBX 12 16 -1 -3
BITMAP
0000
0000
0000
0000
0000
0000
0000
0A00
0500
0280
0A00
1400
0000
0000
0000
0000
ENDCHAR
STARTCHAR onequarter
ENCODING 188
SWIDTH 562 0
DWIDTH 9 0
BBX 14 16 -1 -3
BITMAP
0000
0000
0000
0210
0C20
0440
0440
0900
0110
0230
04A0
09E0
0820
0000
0000
0000
ENDCHAR
STARTCHAR onehalf
ENCODING 189
SWIDTH 562 0
DWIDTH 9 0
BBX 14 16 -1 -3
BITMAP
0000
0000
0000
0210
0C20
0440
0440
0900
0160
0290
0440
0880
09E0
0000
0000
0000
ENDCHAR
STARTCHAR threequarters
ENCODING 190
SWIDTH 562 0
DWIDTH 9 0
BBX 14 16 -1 -3
BITMAP
0000
0000
0000
0310
0920
0240
0940
0D00
0110
0230
04A0
09E0
0820
0000
0000
0000
ENDCHAR
STARTCHAR questiondown
ENCODING 169
SWIDTH 437 0
DWIDTH 7 0
BBX 12 16 -1 -3
BITMAP
0000
0000
0000
0000
0000
0000
0100
0000
0200
0200
0400
0800
1000
2200
2200
1C00
ENDCHAR
STARTCHAR cyr-A
ENCODING 225
SWIDTH 562 0
DWIDTH 9 0
BBX 14 16 -1 -3
BITMAP
0000
0000
0000
0040
0080
0140
0140
0440
0440
0FE0
1040
2020
2020
0000
0000
0000
ENDCHAR
STARTCHAR cyr-Be
ENCODING 226
SWIDTH 562 0
DWIDTH 9 0
BBX 14 16 -1 -3
BITMAP
0000
0000
0000
03F0
0400
0400
0400
0FC0
0820
0820
1040
1040
1F80
0000
0000
0000
ENDCHAR
STARTCHAR cyr-Ve
ENCODING 247
SWIDTH 562 0
DWIDTH 9 0
BBX 14 16 -1 -3
BITMAP
0000
0000
0000
03F0
0410
0410
0410
0FC0
0820
0820
1040
1040
1F80
0000
0000
0000
ENDCHAR
STARTCHAR cyr-Ghe
ENCODING 231
SWIDTH 500 0
DWIDTH 8 0
BBX 13 16 -1 -3
BITMAP
0000
0000
0000
03F0
0400
0400
0400
0800
0800
0800
1000
1000
1000
0000
0000
0000
ENDCHAR
STARTCHAR cyr-De
ENCODING 228
SWIDTH 625 0
DWIDTH 10 0
BBX 15 16 -1 -3
BITMAP
0000
0000
0000
00F8
0110
0110
0110
0220
0220
0220
0440
0840
1FE0
2040
2040
0000
ENDCHAR
STARTCHAR cyr-Ie
ENCODING 229
SWIDTH 562 0
DWIDTH 9 0
BBX 14 16 -1 -3
BITMAP
0000
0000
0000
03F8
0400
0400
0400
0FC0
0800
0800
1000
1000
1FC0
0000
0000
0000
ENDCHAR
STARTCHAR cyr-Zhe
ENCODING 246
SWIDTH 812 0
DWIDTH 13 0
BBX 18 16 -1 -3
BITMAP
000000
000000
000000
021080
022200
012400
00A800
00E000
015000
024800
088800
108400
208200
000000
000000
000000
ENDCHAR
STARTCHAR cyr-Ze
ENCODING 250
SWIDTH 562 0
DWIDTH 9 0
BBX 14 16 -1 -3
BITMAP
0000
0000
0000
01F0
0410
0010
0010
01C0
0020
0020
0040
1040
0F80
0000
0000
0000
ENDCHAR
STARTCHAR cyr-I
ENCODING 233
SWIDTH 625 0
DWIDTH 10 0
BBX 15 16 -1 -3
BITMAP
0000
0000
0000
0204
0408
0408
0418
0850
0890
0910
1420
1820
1020
0000
0000
0000
ENDCHAR
STARTCHAR cyr-I-short
ENCODING 234
SWIDTH 625 0
DWIDTH 10 0
BBX 15 16 -1 -3
BITMAP
0000
0090
0060
0204
0408
0408
0418
0850
0890
0910
1420
1820
1020
0000
0000
0000
ENDCHAR
STARTCHAR cyr-Ka
ENCODING 235
SWIDTH 500 0
DWIDTH 8 0
BBX 13 16 -1 -3
BITMAP
0000
0000
0000
0210
0440
0480
0500
0C00
0A00
0900
1100
1080
1040
0000
0000
0000
ENDCHAR
STARTCHAR cyr-El
ENCODING 236
SWIDTH 750 0
DWIDTH 12 0
BBX 17 16 -1 -3
BITMAP
000000
000000
000000
00FF00
010200
010200
010200
020400
020400
020400
040800
040800
180800
000000
000000
000000
ENDCHAR
STARTCHAR cyr-Em
ENCODING 237
SWIDTH 687 0
DWIDTH 11 0
BBX 16 16 -1 -3
BITMAP
0000
0000
0000
0202
0404
060C
060C
0A28
0A28
0948
1290
1110
1110
0000
0000
0000
ENDCHAR
STARTCHAR cyr-En
ENCODING 238
SWIDTH 625 0
DWIDTH 10 0
BBX 15 16 -1 -3
BITMAP
0000
0000
0000
0204
0408
0408
0408
0FF0
0810
0810
1020
1020
1020
0000
0000
0000
ENDCHAR
STARTCHAR cyr-O
ENCODING 239
SWIDTH 625 0
DWIDTH 10 0
BBX 15 16 -1 -3
BITMAP
0000
0000
0000
00F0
0210
0408
0408
0810
0810
0810
1020
0840
0780
0000
0000
0000
ENDCHAR
STARTCHAR cyr-Pe
ENCODING 240
SWIDTH 625 0
DWIDTH 10 0
BBX 15 16 -1 -3
BITMAP
0000
0000
0000
03FC
0408
0408
0408
0810
0810
0810
1020
1020
1020
0000
0000
0000
ENDCHAR
STARTCHAR cyr-Er
ENCODING 242
SWIDTH 562 0
DWIDTH 9 0
BBX 14 16 -1 -3
BITMAP
0000
0000
0000
03F0
0410
0408
0408
0820
0FC0
0800
1000
1000
1000
0000
0000
0000
ENDCHAR
STARTCHAR cyr-Es
ENCODING 243
SWIDTH 562 0
DWIDTH 9 0
BBX 14 16 -1 -3
BITMAP
0000
0000
0000
00F0
0210
0408
0400
0800
0800
0800
1020
0840
0780
0000
0000
0000
ENDCHAR
STARTCHAR cyr-Te
ENCODING 244
SWIDTH 562 0
DWIDTH 9 0
BBX 14 16 -1 -3
BITMAP
0000
0000
0000
07FC
0080
0080
0080
0100
0100
0100
0200
0200
0200
0000
0000
0000
ENDCHAR
STARTCHAR cyr-U
ENCODING 245
SWIDTH 562 0
DWIDTH 9 0
BBX 14 16 -1 -3
BITMAP
0000
0000
0000
0404
0808
0410
0220
0280
0100
0100
0400
0800
3000
0000
0000
0000
ENDCHAR
STARTCHAR cyr-Ef
ENCODING 230
SWIDTH 625 0
DWIDTH 10 0
BBX 15 16 -1 -3
BITMAP
0000
0000
0000
00F8
0248
0444
0444
0888
0888
0888
0920
07C0
0100
0000
0000
0000
ENDCHAR
STARTCHAR cyr-Kha
ENCODING 232
SWIDTH 500 0
DWIDTH 8 0
BBX 13 16 -1 -3
BITMAP
0000
0000
0000
0408
0810
0420
0240
0300
0300
0480
1080
2040
2040
0000
0000
0000
ENDCHAR
STARTCHAR cyr-Tse
ENCODING 227
SWIDTH 625 0
DWIDTH 10 0
BBX 15 16 -1 -3
BITMAP
0000
0000
0000
0204
0408
0408
0408
0810
0810
0810
1020
1020
1FF0
0020
0020
0000
ENDCHAR
STARTCHAR cyr-Che
ENCODING 254
SWIDTH 625 0
DWIDTH 10 0
BBX 15 16 -1 -3
BITMAP
0000
0000
0000
0204
0408
0408
0408
07F0
0010
0010
0020
0020
0020
0000
0000
0000
ENDCHAR
STARTCHAR cyr-Sha
ENCODING 251
SWIDTH 812 0
DWIDTH 13 0
BBX 18 16 -1 -3
BITMAP
000000
000000
000000
021080
042100
042100
042100
084200
084200
084200
108400
108400
1FFC00
000000
000000
000000
ENDCHAR
STARTCHAR cyr-Shcha
ENCODING 253
SWIDTH 812 0
DWIDTH 13 0
BBX 18 16 -1 -3
BITMAP
000000
000000
000000
021080
042100
042100
042100
084200
084200
084200
108400
108400
1FFE00
000400
000400
000000
ENDCHAR
STARTCHAR cyr-Ier
ENCODING 255
SWIDTH 687 0
DWIDTH 11 0
BBX 16 16 -1 -3
BITMAP
0000
0000
0000
0700
0200
0200
0200
07F0
0408
0408
0810
0810
0FE0
0000
0000
0000
ENDCHAR
STARTCHAR cyr-Iery
ENCODING 249
SWIDTH 750 0
DWIDTH 12 0
BBX 17 16 -1 -3
BITMAP
000000
000000
000000
020100
040200
040200
040200
0FE400
081400
081400
102800
102800
1FC800
000000
000000
000000
ENDCHAR
STARTCHAR cyr-Ierik
ENCODING 248
SWIDTH 625 0
DWIDTH 10 0
BBX 15 16 -1 -3
BITMAP
0000
0000
0000
0200
0400
0400
0400
0FE0
0810
0810
1020
1020
1FC0
0000
0000
0000
ENDCHAR
STARTCHAR cyr-E-rev
ENCODING 252
SWIDTH 625 0
DWIDTH 10 0
BBX 15 16 -1 -3
BITMAP
0000
0000
0000
00F0
0210
0408
0008
01F0
0010
0010
1020
0840
0780
0000
0000
0000
ENDCHAR
STARTCHAR cyr-Yu
ENCODING 224
SWIDTH 687 0
DWIDTH 11 0
BBX 16 16 -1 -3
BITMAP
0000
0000
0000
0238
0488
0504
0504
0E08
0A08
0A08
1410
1220
11C0
0000
0000
0000
ENDCHAR
STARTCHAR cyr-Ya
ENCODING 241
SWIDTH 625 0
DWIDTH 10 0
BBX 15 16 -1 -3
BITMAP
0000
0000
0000
01FC
0408
0408
0408
0810
07F0
0110
0420
0820
1020
0000
0000
0000
ENDCHAR
STARTCHAR cyr-a
ENCODING 193
SWIDTH 500 0
DWIDTH 8 0
BBX 13 16 -1 -3
BITMAP
0000
0000
0000
0000
0000
0000
03C0
0840
07C0
0840
1080
1080
0F40
0000
0000
0000
ENDCHAR
STARTCHAR cyr-be
ENCODING 194
SWIDTH 500 0
DWIDTH 8 0
BBX 13 16 -1 -3
BITMAP
0000
0000
0000
0010
03C0
0400
07C0
0840
0840
0840
1080
1080
0F00
0000
0000
0000
ENDCHAR
STARTCHAR cyr-ve
ENCODING 215
SWIDTH 500 0
DWIDTH 8 0
BBX 13 16 -1 -3
BITMAP
0000
0000
0000
0000
0000
0000
07C0
0840
0840
0FC0
1080
1080
1F00
0000
0000
0000
ENDCHAR
STARTCHAR cyr-ghe
ENCODING 199
SWIDTH 437 0
DWIDTH 7 0
BBX 12 16 -1 -3
BITMAP
0000
0000
0000
0000
0000
0000
07C0
0800
0800
0800
1000
1000
1000
0000
0000
0000
ENDCHAR
STARTCHAR cyr-de
ENCODING 196
SWIDTH 625 0
DWIDTH 10 0
BBX 15 16 -1 -3
BITMAP
0000
0000
0000
0000
0000
0000
01F0
0220
0220
0220
0440
0840
1FE0
2040
2040
0000
ENDCHAR
STARTCHAR cyr-ie
ENCODING 197
SWIDTH 500 0
DWIDTH 8 0
BBX 13 16 -1 -3
BITMAP
0000
0000
0000
0000
0000
0000
03C0
0840
0840
0FC0
1000
1080
0F00
0000
0000
0000
ENDCHAR
STARTCHAR cyr-zhe
ENCODING 214
SWIDTH 687 0
DWIDTH 11 0
BBX 16 16 -1 -3
BITMAP
0000
0000
0000
0000
0000
0000
0444
0490
02A0
03E0
0920
1110
2108
0000
0000
0000
ENDCHAR
STARTCHAR cyr-z
ENCODING 218
SWIDTH 500 0
DWIDTH 8 0
BBX 13 16 -1 -3
BITMAP
0000
0000
0000
0000
0000
0000
03C0
0840
0040
0380
0080
1080
0F00
0000
0000
0000
ENDCHAR
STARTCHAR cyr-i
ENCODING 201
SWIDTH 500 0
DWIDTH 8 0
BBX 13 16 -1 -3
BITMAP
0000
0000
0000
0000
0000
0000
0420
0840
08C0
0940
1480
1880
1080
0000
0000
0000
ENDCHAR
STARTCHAR cyr-i-short
ENCODING 202
SWIDTH 500 0
DWIDTH 8 0
BBX 13 16 -1 -3
BITMAP
0000
0000
0000
0000
0240
0180
0420
0840
08C0
0940
1480
1880
1080
0000
0000
0000
ENDCHAR
STARTCHAR cyr-ka
ENCODING 203
SWIDTH 437 0
DWIDTH 7 0
BBX 12 16 -1 -3
BITMAP
0000
0000
0000
0000
0000
0000
0440
0900
0A00
0E00
1200
1100
1080
0000
0000
0000
ENDCHAR
STARTCHAR cyr-el
ENCODING 204
SWIDTH 500 0
DWIDTH 8 0
BBX 13 16 -1 -3
BITMAP
0000
0000
0000
0000
0000
0000
03E0
0440
0440
0440
0880
0880
1080
0000
0000
0000
ENDCHAR
STARTCHAR cyr-em
ENCODING 205
SWIDTH 562 0
DWIDTH 9 0
BBX 14 16 -1 -3
BITMAP
0000
0000
0000
0000
0000
0000
0410
0C60
0AA0
0920
1040
1040
1040
0000
0000
0000
ENDCHAR
STARTCHAR cyr-en
ENCODING 206
SWIDTH 437 0
DWIDTH 7 0
BBX 12 16 -1 -3
BITMAP
0000
0000
0000
0000
0000
0000
0440
0880
0880
0F80
1100
1100
1100
0000
0000
0000
ENDCHAR
STARTCHAR cyr-o
ENCODING 207
SWIDTH 500 0
DWIDTH 8 0
BBX 13 16 -1 -3
BITMAP
0000
0000
0000
0000
0000
0000
03C0
0840
0840
0840
1080
1080
0F00
0000
0000
0000
ENDCHAR
STARTCHAR cyr-pe
ENCODING 208
SWIDTH 437 0
DWIDTH 7 0
BBX 12 16 -1 -3
BITMAP
0000
0000
0000
0000
0000
0000
07C0
0880
0880
0880
1100
1100
1100
0000
0000
0000
ENDCHAR
STARTCHAR cyr-er
ENCODING 210
SWIDTH 500 0
DWIDTH 8 0
BBX 13 16 -1 -3
BITMAP
0000
0000
0000
0000
0000
0000
05C0
0C40
0840
0840
1080
1880
1700
2000
2000
2000
ENDCHAR
STARTCHAR cyr-es
ENCODING 211
SWIDTH 437 0
DWIDTH 7 0
BBX 12 16 -1 -3
BITMAP
0000
0000
0000
0000
0000
0000
03C0
0840
0800
0800
1000
1080
0F00
0000
0000
0000
ENDCHAR
STARTCHAR cyr-te
ENCODING 212
SWIDTH 562 0
DWIDTH 9 0
BBX 14 16 -1 -3
BITMAP
0000
0000
0000
0000
0000
0000
07F0
0100
0100
0100
0200
0200
0200
0000
0000
0000
ENDCHAR
STARTCHAR cyr-u
ENCODING 213
SWIDTH 437 0
DWIDTH 7 0
BBX 12 16 -1 -3
BITMAP
0000
0000
0000
0000
0000
0000
0820
1040
0880
0880
0A00
0A00
0400
0800
1000
6000
ENDCHAR
STARTCHAR cyr-ef
ENCODING 198
SWIDTH 562 0
DWIDTH 9 0
BBX 14 16 -1 -3
BITMAP
0000
0000
0000
0000
0000
0080
03E0
0920
0920
0920
1240
1240
0F80
0400
0400
0400
ENDCHAR
STARTCHAR cyr-kha
ENCODING 200
SWIDTH 375 0
DWIDTH 6 0
BBX 11 16 -1 -3
BITMAP
0000
0000
0000
0000
0000
0000
0840
0900
0600
0600
0C00
1200
2100
0000
0000
0000
ENDCHAR
STARTCHAR cyr-tse
ENCODING 195
SWIDTH 437 0
DWIDTH 7 0
BBX 12 16 -1 -3
BITMAP
0000
0000
0000
0000
0000
0000
0440
0880
0880
0880
1100
1100
1F80
0100
0100
0000
ENDCHAR
STARTCHAR cyr-che
ENCODING 222
SWIDTH 437 0
DWIDTH 7 0
BBX 12 16 -1 -3
BITMAP
0000
0000
0000
0000
0000
0000
0440
0880
0880
0780
0100
0100
0100
0000
0000
0000
ENDCHAR
STARTCHAR cyr-sha
ENCODING 219
SWIDTH 687 0
DWIDTH 11 0
BBX 16 16 -1 -3
BITMAP
0000
0000
0000
0000
0000
0000
0444
0888
0888
0888
1110
1110
1FF0
0000
0000
0000
ENDCHAR
STARTCHAR cyr-shcha
ENCODING 221
SWIDTH 687 0
DWIDTH 11 0
BBX 16 16 -1 -3
BITMAP
0000
0000
0000
0000
0000
0000
0444
0888
0888
0888
1110
1110
1FF8
0010
0010
0000
ENDCHAR
STARTCHAR cyr-ier
ENCODING 223
SWIDTH 562 0
DWIDTH 9 0
BBX 14 16 -1 -3
BITMAP
0000
0000
0000
0000
0000
0000
0E00
0400
07C0
0420
0840
0840
0F80
0000
0000
0000
ENDCHAR
STARTCHAR cyr-iery
ENCODING 217
SWIDTH 625 0
DWIDTH 10 0
BBX 15 16 -1 -3
BITMAP
0000
0000
0000
0000
0000
0000
0408
0810
0F90
0850
10A0
10A0
1F20
0000
0000
0000
ENDCHAR
STARTCHAR cyr-ierik
ENCODING 216
SWIDTH 500 0
DWIDTH 8 0
BBX 13 16 -1 -3
BITMAP
0000
0000
0000
0000
0000
0000
0400
0800
0F80
0840
1080
1080
1F00
0000
0000
0000
ENDCHAR
STARTCHAR cyr-e-rev
ENCODING 220
SWIDTH 500 0
DWIDTH 8 0
BBX 13 16 -1 -3
BITMAP
0000
0000
0000
0000
0000
0000
03C0
0840
0040
03C0
0080
1080
0F00
0000
0000
0000
ENDCHAR
STARTCHAR cyr-yu
ENCODING 192
SWIDTH 562 0
DWIDTH 9 0
BBX 14 16 -1 -3
BITMAP
0000
0000
0000
0000
0000
0000
04E0
0A20
0A20
0E20
1440
1440
1380
0000
0000
0000
ENDCHAR
STARTCHAR cyr-ya
ENCODING 209
SWIDTH 500 0
DWIDTH 8 0
BBX 13 16 -1 -3
BITMAP
0000
0000
0000
0000
0000
0000
03E0
0840
0840
0840
0F80
0880
1080
0000
0000
0000
ENDCHAR
ENDFONT
