STARTFONT 2.1
COMMENT Copyright (C) 1990-1991 EWT Consulting
COMMENT Portions Copyright (C) 1994-1995 Cronyx Ltd.
COMMENT Changes Copyright (C) 1996 by Andrey A. Chernov, Moscow, Russia.
COMMENT Modified by Serge Vakulenko, <vak@cronyx.ru>
COMMENT This software may be used, modified, copied, distributed, and sold,
COMMENT in both source and binary form provided that the copyright
COMMENT and these terms are retained. Under no circumstances is the author
COMMENT responsible for the proper functioning of this software, nor does
COMMENT the author assume any responsibility for damages incurred with its use.
COMMENT $XFree86: xc/fonts/bdf/cyrillic/crox2co.bdf,v 3.2 1996/09/01 12:17:59 dawes Exp $
FONT -Cronyx-Courier-Medium-O-Normal--17-120-100-100-M-90-KOI8-R
SIZE 12 96 96
FONTBOUNDINGBOX 14 16 -1 -3
STARTPROPERTIES 19
DEFAULT_CHAR 32
FONT_ASCENT 13
FONT_DESCENT 3
SPACING "M"
FONTNAME_REGISTRY ""
FOUNDRY "Cronyx"
FAMILY_NAME "Courier"
WEIGHT_NAME "Medium"
SLANT "O"
SETWIDTH_NAME "Normal"
ADD_STYLE_NAME ""
AVERAGE_WIDTH 90
CHARSET_REGISTRY "KOI8"
CHARSET_ENCODING "R"
PIXEL_SIZE 17
POINT_SIZE 120
RESOLUTION_X 100
RESOLUTION_Y 100
COPYRIGHT "Copyright (C) 1990, 1991 EWT Consulting, Portions Copyright (C) 1994 Cronyx Ltd., Portions Copyright (C) 1996 by Andrey A. Chernov, Moscow, Russia."
ENDPROPERTIES
CHARS 224
STARTCHAR space
ENCODING 32
SWIDTH 562 0
DWIDTH 9 0
BBX 14 16 -1 -3
BITMAP
0000
0000
0000
0000
0000
0000
0000
0000
0000
0000
0000
0000
0000
0000
0000
0000
ENDCHAR
STARTCHAR exclam
ENCODING 33
SWIDTH 562 0
DWIDTH 9 0
BBX 14 16 -1 -3
BITMAP
0000
0000
0000
0040
0080
0080
0080
0100
0100
0100
0200
0000
0200
0000
0000
0000
ENDCHAR
STARTCHAR quotedbl
ENCODING 34
SWIDTH 562 0
DWIDTH 9 0
BBX 14 16 -1 -3
BITMAP
0000
0000
0000
0090
0120
0120
0120
0000
0000
0000
0000
0000
0000
0000
0000
0000
ENDCHAR
STARTCHAR numbersign
ENCODING 35
SWIDTH 562 0
DWIDTH 9 0
BBX 14 16 -1 -3
BITMAP
0000
0000
0000
0048
0090
0090
03F8
0240
0240
0FE0
0900
0900
0900
0000
0000
0000
ENDCHAR
STARTCHAR dollar
ENCODING 36
SWIDTH 562 0
DWIDTH 9 0
BBX 14 16 -1 -3
BITMAP
0000
0000
0000
0040
03E0
0410
0400
0800
07C0
0020
0040
1040
0F80
0400
0400
0000
ENDCHAR
STARTCHAR percent
ENCODING 37
SWIDTH 562 0
DWIDTH 9 0
BBX 14 16 -1 -3
BITMAP
0000
0000
0000
0180
0488
0310
0020
0080
0100
0200
08C0
1120
00C0
0000
0000
0000
ENDCHAR
STARTCHAR ampersand
ENCODING 38
SWIDTH 562 0
DWIDTH 9 0
BBX 14 16 -1 -3
BITMAP
0000
0000
0000
00E0
0220
0200
0200
0200
0500
0890
10C0
10C0
0F20
0000
0000
0000
ENDCHAR
STARTCHAR quoteright
ENCODING 39
SWIDTH 562 0
DWIDTH 9 0
BBX 14 16 -1 -3
BITMAP
0000
0000
0000
0040
0080
0080
0080
0000
0000
0000
0000
0000
0000
0000
0000
0000
ENDCHAR
STARTCHAR parenleft
ENCODING 40
SWIDTH 562 0
DWIDTH 9 0
BBX 14 16 -1 -3
BITMAP
0000
0000
0000
0010
0040
0040
0080
0100
0100
0100
0200
0200
0200
0200
0200
0100
ENDCHAR
STARTCHAR parenright
ENCODING 41
SWIDTH 562 0
DWIDTH 9 0
BBX 14 16 -1 -3
BITMAP
0000
0000
0000
0080
0080
0080
0040
0080
0080
0080
0100
0100
0100
0400
0400
0800
ENDCHAR
STARTCHAR asterisk
ENCODING 42
SWIDTH 562 0
DWIDTH 9 0
BBX 14 16 -1 -3
BITMAP
0000
0000
0000
0000
0000
0360
01C0
0FE0
0380
06C0
0000
0000
0000
0000
0000
0000
ENDCHAR
STARTCHAR plus
ENCODING 43
SWIDTH 562 0
DWIDTH 9 0
BBX 14 16 -1 -3
BITMAP
0000
0000
0000
0000
0000
0080
0080
0100
0FE0
0100
0200
0200
0000
0000
0000
0000
ENDCHAR
STARTCHAR comma
ENCODING 44
SWIDTH 562 0
DWIDTH 9 0
BBX 14 16 -1 -3
BITMAP
0000
0000
0000
0000
0000
0000
0000
0000
0000
0000
0000
0380
0300
0C00
0000
0000
ENDCHAR
STARTCHAR minus
ENCODING 45
SWIDTH 562 0
DWIDTH 9 0
BBX 14 16 -1 -3
BITMAP
0000
0000
0000
0000
0000
0000
0000
0000
07E0
0000
0000
0000
0000
0000
0000
0000
ENDCHAR
STARTCHAR period
ENCODING 46
SWIDTH 562 0
DWIDTH 9 0
BBX 14 16 -1 -3
BITMAP
0000
0000
0000
0000
0000
0000
0000
0000
0000
0000
0000
0300
0300
0000
0000
0000
ENDCHAR
STARTCHAR slash
ENCODING 47
SWIDTH 562 0
DWIDTH 9 0
BBX 14 16 -1 -3
BITMAP
0000
0000
0000
0000
0008
0010
0020
0080
0100
0200
0800
1000
0000
0000
0000
0000
ENDCHAR
STARTCHAR zero
ENCODING 48
SWIDTH 562 0
DWIDTH 9 0
BBX 14 16 -1 -3
BITMAP
0000
0000
0000
00F0
0210
0210
0210
0420
0420
0420
0840
0840
0780
0000
0000
0000
ENDCHAR
STARTCHAR one
ENCODING 49
SWIDTH 562 0
DWIDTH 9 0
BBX 14 16 -1 -3
BITMAP
0000
0000
0000
0020
01C0
0040
0040
0080
0080
0080
0100
0100
07C0
0000
0000
0000
ENDCHAR
STARTCHAR two
ENCODING 50
SWIDTH 562 0
DWIDTH 9 0
BBX 14 16 -1 -3
BITMAP
0000
0000
0000
00F0
0210
0010
0010
0040
0080
0100
0400
0800
0FC0
0000
0000
0000
ENDCHAR
STARTCHAR three
ENCODING 51
SWIDTH 562 0
DWIDTH 9 0
BBX 14 16 -1 -3
BITMAP
0000
0000
0000
00F0
0210
0010
0010
01C0
0020
0020
0040
0840
0780
0000
0000
0000
ENDCHAR
STARTCHAR four
ENCODING 52
SWIDTH 562 0
DWIDTH 9 0
BBX 14 16 -1 -3
BITMAP
0000
0000
0000
0010
0060
00A0
00A0
0240
0440
07E0
0080
0080
01C0
0000
0000
0000
ENDCHAR
STARTCHAR five
ENCODING 53
SWIDTH 562 0
DWIDTH 9 0
BBX 14 16 -1 -3
BITMAP
0000
0000
0000
01F8
0200
0200
0200
07C0
0020
0020
0040
0840
0780
0000
0000
0000
ENDCHAR
STARTCHAR six
ENCODING 54
SWIDTH 562 0
DWIDTH 9 0
BBX 14 16 -1 -3
BITMAP
0000
0000
0000
0070
0100
0200
0200
05C0
0620
0420
0840
0840
0780
0000
0000
0000
ENDCHAR
STARTCHAR seven
ENCODING 55
SWIDTH 562 0
DWIDTH 9 0
BBX 14 16 -1 -3
BITMAP
0000
0000
0000
01F8
0210
0020
0020
0080
0080
0100
0200
0400
0400
0000
0000
0000
ENDCHAR
STARTCHAR eight
ENCODING 56
SWIDTH 562 0
DWIDTH 9 0
BBX 14 16 -1 -3
BITMAP
0000
0000
0000
00F0
0210
0210
0210
03C0
0420
0420
0840
0840
0780
0000
0000
0000
ENDCHAR
STARTCHAR nine
ENCODING 57
SWIDTH 562 0
DWIDTH 9 0
BBX 14 16 -1 -3
BITMAP
0000
0000
0000
00F0
0210
0210
0210
0460
03A0
0020
0040
0080
0700
0000
0000
0000
ENDCHAR
STARTCHAR colon
ENCODING 58
SWIDTH 562 0
DWIDTH 9 0
BBX 14 16 -1 -3
BITMAP
0000
0000
0000
0000
0000
0000
00C0
0180
0000
0000
0000
0300
0300
0000
0000
0000
ENDCHAR
STARTCHAR semicolon
ENCODING 59
SWIDTH 562 0
DWIDTH 9 0
BBX 14 16 -1 -3
BITMAP
0000
0000
0000
0000
0000
0000
00C0
0180
0000
0000
0000
0380
0300
0C00
0000
0000
ENDCHAR
STARTCHAR less
ENCODING 60
SWIDTH 562 0
DWIDTH 9 0
BBX 14 16 -1 -3
BITMAP
0000
0000
0000
0000
0020
0040
0080
0200
0400
0200
0200
0100
0080
0000
0000
0000
ENDCHAR
STARTCHAR equal
ENCODING 61
SWIDTH 562 0
DWIDTH 9 0
BBX 14 16 -1 -3
BITMAP
0000
0000
0000
0000
0000
0000
0000
07E0
0000
07E0
0000
0000
0000
0000
0000
0000
ENDCHAR
STARTCHAR greater
ENCODING 62
SWIDTH 562 0
DWIDTH 9 0
BBX 14 16 -1 -3
BITMAP
0000
0000
0000
0000
0200
0100
0080
0080
0040
0080
0200
0400
0800
0000
0000
0000
ENDCHAR
STARTCHAR question
ENCODING 63
SWIDTH 562 0
DWIDTH 9 0
BBX 14 16 -1 -3
BITMAP
0000
0000
0000
00F0
0210
0010
0010
0040
0080
0100
0200
0000
0200
0000
0000
0000
ENDCHAR
STARTCHAR at
ENCODING 64
SWIDTH 562 0
DWIDTH 9 0
BBX 14 16 -1 -3
BITMAP
0000
0000
0000
00F0
0210
0408
04E8
0A50
0A50
0A50
1340
1000
0800
0F80
0000
0000
ENDCHAR
STARTCHAR A
ENCODING 65
SWIDTH 562 0
DWIDTH 9 0
BBX 14 16 -1 -3
BITMAP
0000
0000
0000
01C0
0080
0140
0140
0440
0440
07C0
1040
1040
38E0
0000
0000
0000
ENDCHAR
STARTCHAR B
ENCODING 66
SWIDTH 562 0
DWIDTH 9 0
BBX 14 16 -1 -3
BITMAP
0000
0000
0000
03F0
0210
0210
0210
07C0
0420
0420
0840
0840
1F80
0000
0000
0000
ENDCHAR
STARTCHAR C
ENCODING 67
SWIDTH 562 0
DWIDTH 9 0
BBX 14 16 -1 -3
BITMAP
0000
0000
0000
00E8
0230
0410
0410
0800
0800
0800
1000
0840
0780
0000
0000
0000
ENDCHAR
STARTCHAR D
ENCODING 68
SWIDTH 562 0
DWIDTH 9 0
BBX 14 16 -1 -3
BITMAP
0000
0000
0000
03E0
0220
0210
0210
0420
0420
0420
0840
0880
1F00
0000
0000
0000
ENDCHAR
STARTCHAR E
ENCODING 69
SWIDTH 562 0
DWIDTH 9 0
BBX 14 16 -1 -3
BITMAP
0000
0000
0000
03F8
0210
0200
0240
0780
0480
0400
0800
0840
1FC0
0000
0000
0000
ENDCHAR
STARTCHAR F
ENCODING 70
SWIDTH 562 0
DWIDTH 9 0
BBX 14 16 -1 -3
BITMAP
0000
0000
0000
03F8
0210
0200
0240
0780
0480
0400
0800
0800
1E00
0000
0000
0000
ENDCHAR
STARTCHAR G
ENCODING 71
SWIDTH 562 0
DWIDTH 9 0
BBX 14 16 -1 -3
BITMAP
0000
0000
0000
00E8
0230
0410
0410
0800
08F0
0820
1040
0840
0780
0000
0000
0000
ENDCHAR
STARTCHAR H
ENCODING 72
SWIDTH 562 0
DWIDTH 9 0
BBX 14 16 -1 -3
BITMAP
0000
0000
0000
071C
0410
0410
0410
0FE0
0820
0820
1040
1040
38E0
0000
0000
0000
ENDCHAR
STARTCHAR I
ENCODING 73
SWIDTH 562 0
DWIDTH 9 0
BBX 14 16 -1 -3
BITMAP
0000
0000
0000
01F0
0080
0080
0080
0100
0100
0100
0200
0200
0F80
0000
0000
0000
ENDCHAR
STARTCHAR J
ENCODING 74
SWIDTH 562 0
DWIDTH 9 0
BBX 14 16 -1 -3
BITMAP
0000
0000
0000
007C
0020
0020
0020
0040
0040
0040
1080
1080
0F00
0000
0000
0000
ENDCHAR
STARTCHAR K
ENCODING 75
SWIDTH 562 0
DWIDTH 9 0
BBX 14 16 -1 -3
BITMAP
0000
0000
0000
03B8
0220
0240
0240
0500
0700
0480
0880
0840
1C60
0000
0000
0000
ENDCHAR
STARTCHAR L
ENCODING 76
SWIDTH 562 0
DWIDTH 9 0
BBX 14 16 -1 -3
BITMAP
0000
0000
0000
03C0
0200
0200
0200
0400
0400
0400
0800
0840
1FC0
0000
0000
0000
ENDCHAR
STARTCHAR M
ENCODING 77
SWIDTH 562 0
DWIDTH 9 0
BBX 14 16 -1 -3
BITMAP
0000
0000
0000
060C
0410
0630
0630
0AA0
0AA0
0920
1240
1040
38E0
0000
0000
0000
ENDCHAR
STARTCHAR N
ENCODING 78
SWIDTH 562 0
DWIDTH 9 0
BBX 14 16 -1 -3
BITMAP
0000
0000
0000
063C
0410
0610
0510
0A20
0920
08A0
1140
10C0
3C40
0000
0000
0000
ENDCHAR
STARTCHAR O
ENCODING 79
SWIDTH 562 0
DWIDTH 9 0
BBX 14 16 -1 -3
BITMAP
0000
0000
0000
00E0
0220
0410
0410
0820
0820
0820
1040
0880
0700
0000
0000
0000
ENDCHAR
STARTCHAR P
ENCODING 80
SWIDTH 562 0
DWIDTH 9 0
BBX 14 16 -1 -3
BITMAP
0000
0000
0000
03F0
0210
0210
0210
0420
07C0
0400
0800
0800
1E00
0000
0000
0000
ENDCHAR
STARTCHAR Q
ENCODING 81
SWIDTH 562 0
DWIDTH 9 0
BBX 14 16 -1 -3
BITMAP
0000
0000
0000
00E0
0220
0410
0410
0820
0820
0820
1040
0880
0700
0600
1980
0000
ENDCHAR
STARTCHAR R
ENCODING 82
SWIDTH 562 0
DWIDTH 9 0
BBX 14 16 -1 -3
BITMAP
0000
0000
0000
03F0
0210
0210
0210
0420
07C0
0480
0880
0840
1C60
0000
0000
0000
ENDCHAR
STARTCHAR S
ENCODING 83
SWIDTH 562 0
DWIDTH 9 0
BBX 14 16 -1 -3
BITMAP
0000
0000
0000
01E8
0430
0410
0400
0700
00C0
0020
1040
1840
1780
0000
0000
0000
ENDCHAR
STARTCHAR T
ENCODING 84
SWIDTH 562 0
DWIDTH 9 0
BBX 14 16 -1 -3
BITMAP
0000
0000
0000
07FC
0888
0080
0080
0100
0100
0100
0200
0200
0F80
0000
0000
0000
ENDCHAR
STARTCHAR U
ENCODING 85
SWIDTH 562 0
DWIDTH 9 0
BBX 14 16 -1 -3
BITMAP
0000
0000
0000
071C
0410
0410
0410
0820
0820
0820
1040
18C0
0700
0000
0000
0000
ENDCHAR
STARTCHAR V
ENCODING 86
SWIDTH 562 0
DWIDTH 9 0
BBX 14 16 -1 -3
BITMAP
0000
0000
0000
071C
0410
0410
0220
0440
0440
0280
0500
0200
0200
0000
0000
0000
ENDCHAR
STARTCHAR W
ENCODING 87
SWIDTH 562 0
DWIDTH 9 0
BBX 14 16 -1 -3
BITMAP
0000
0000
0000
060C
0808
0888
0888
0AA0
0AA0
0AA0
0880
0880
0880
0000
0000
0000
ENDCHAR
STARTCHAR X
ENCODING 88
SWIDTH 562 0
DWIDTH 9 0
BBX 14 16 -1 -3
BITMAP
0000
0000
0000
071C
0410
0220
0140
0100
0100
0280
0880
1040
38E0
0000
0000
0000
ENDCHAR
STARTCHAR Y
ENCODING 89
SWIDTH 562 0
DWIDTH 9 0
BBX 14 16 -1 -3
BITMAP
0000
0000
0000
071C
0410
0220
0220
0280
0100
0100
0200
0200
0F80
0000
0000
0000
ENDCHAR
STARTCHAR Z
ENCODING 90
SWIDTH 562 0
DWIDTH 9 0
BBX 14 16 -1 -3
BITMAP
0000
0000
0000
03F8
0410
0020
0040
0100
0100
0200
0800
1040
1FC0
0000
0000
0000
ENDCHAR
STARTCHAR bracketleft
ENCODING 91
SWIDTH 562 0
DWIDTH 9 0
BBX 14 16 -1 -3
BITMAP
0000
0000
0000
0070
0080
0080
0080
0100
0100
0100
0200
0200
0200
0400
0400
0700
ENDCHAR
STARTCHAR backslash
ENCODING 92
SWIDTH 562 0
DWIDTH 9 0
BBX 14 16 -1 -3
BITMAP
0000
0000
0000
0000
0400
0200
0100
0100
0080
0040
0040
0020
0000
0000
0000
0000
ENDCHAR
STARTCHAR bracketright
ENCODING 93
SWIDTH 562 0
DWIDTH 9 0
BBX 14 16 -1 -3
BITMAP
0000
0000
0000
00E0
0040
0040
0040
0080
0080
0080
0100
0100
0100
0200
0200
0E00
ENDCHAR
STARTCHAR asciicircum
ENCODING 94
SWIDTH 562 0
DWIDTH 9 0
BBX 14 16 -1 -3
BITMAP
0000
0000
0000
0040
0140
0220
0410
0000
0000
0000
0000
0000
0000
0000
0000
0000
ENDCHAR
STARTCHAR underscore
ENCODING 95
SWIDTH 562 0
DWIDTH 9 0
BBX 14 16 -1 -3
BITMAP
0000
0000
0000
0000
0000
0000
0000
0000
0000
0000
0000
0000
0000
0000
7FC0
0000
ENDCHAR
STARTCHAR quoteleft
ENCODING 96
SWIDTH 562 0
DWIDTH 9 0
BBX 14 16 -1 -3
BITMAP
0000
0000
0000
0080
0080
0000
0000
0000
0000
0000
0000
0000
0000
0000
0000
0000
ENDCHAR
STARTCHAR a
ENCODING 97
SWIDTH 562 0
DWIDTH 9 0
BBX 14 16 -1 -3
BITMAP
0000
0000
0000
0000
0000
0000
03C0
0040
07C0
0840
1080
1080
0F40
0000
0000
0000
ENDCHAR
STARTCHAR b
ENCODING 98
SWIDTH 562 0
DWIDTH 9 0
BBX 14 16 -1 -3
BITMAP
0000
0000
0000
0300
0200
0200
02C0
0660
0420
0420
0840
0CC0
1B00
0000
0000
0000
ENDCHAR
STARTCHAR c
ENCODING 99
SWIDTH 562 0
DWIDTH 9 0
BBX 14 16 -1 -3
BITMAP
0000
0000
0000
0000
0000
0000
01D0
0C60
0800
0800
1000
18C0
0700
0000
0000
0000
ENDCHAR
STARTCHAR d
ENCODING 100
SWIDTH 562 0
DWIDTH 9 0
BBX 14 16 -1 -3
BITMAP
0000
0000
0000
0030
0020
0020
01A0
0CC0
0840
0840
1080
1980
06C0
0000
0000
0000
ENDCHAR
STARTCHAR e
ENCODING 101
SWIDTH 562 0
DWIDTH 9 0
BBX 14 16 -1 -3
BITMAP
0000
0000
0000
0000
0000
0000
01C0
0C60
0820
0FE0
1000
18C0
0700
0000
0000
0000
ENDCHAR
STARTCHAR f
ENCODING 102
SWIDTH 562 0
DWIDTH 9 0
BBX 14 16 -1 -3
BITMAP
0000
0000
0000
0070
0110
0100
0100
0780
0200
0200
0400
0400
0F00
0000
0000
0000
ENDCHAR
STARTCHAR g
ENCODING 103
SWIDTH 562 0
DWIDTH 9 0
BBX 14 16 -1 -3
BITMAP
0000
0000
0000
0000
0000
0000
01B0
0CC0
0840
0840
1980
0680
0080
2100
2100
1E00
ENDCHAR
STARTCHAR h
ENCODING 104
SWIDTH 562 0
DWIDTH 9 0
BBX 14 16 -1 -3
BITMAP
0000
0000
0000
0300
0200
0200
02C0
0640
0440
0440
0880
0880
1DC0
0000
0000
0000
ENDCHAR
STARTCHAR i
ENCODING 105
SWIDTH 562 0
DWIDTH 9 0
BBX 14 16 -1 -3
BITMAP
0000
0000
0000
0040
0000
0000
0380
0100
0100
0100
0200
0200
0F80
0000
0000
0000
ENDCHAR
STARTCHAR j
ENCODING 106
SWIDTH 562 0
DWIDTH 9 0
BBX 14 16 -1 -3
BITMAP
0000
0000
0000
0020
0000
0000
01C0
0080
0080
0080
0100
0100
0100
0200
2200
1C00
ENDCHAR
STARTCHAR k
ENCODING 107
SWIDTH 562 0
DWIDTH 9 0
BBX 14 16 -1 -3
BITMAP
0000
0000
0000
0300
0200
0200
0270
0480
0500
0700
0900
0880
1DC0
0000
0000
0000
ENDCHAR
STARTCHAR l
ENCODING 108
SWIDTH 562 0
DWIDTH 9 0
BBX 14 16 -1 -3
BITMAP
0000
0000
0000
01C0
0080
0080
0080
0100
0100
0100
0200
0200
0F80
0000
0000
0000
ENDCHAR
STARTCHAR m
ENCODING 109
SWIDTH 562 0
DWIDTH 9 0
BBX 14 16 -1 -3
BITMAP
0000
0000
0000
0000
0000
0000
0DB0
0DA0
0920
0920
1240
1240
3B60
0000
0000
0000
ENDCHAR
STARTCHAR n
ENCODING 110
SWIDTH 562 0
DWIDTH 9 0
BBX 14 16 -1 -3
BITMAP
0000
0000
0000
0000
0000
0000
06C0
0640
0440
0440
0880
0880
1DC0
0000
0000
0000
ENDCHAR
STARTCHAR o
ENCODING 111
SWIDTH 562 0
DWIDTH 9 0
BBX 14 16 -1 -3
BITMAP
0000
0000
0000
0000
0000
0000
01C0
0C60
0820
0820
1040
18C0
0700
0000
0000
0000
ENDCHAR
STARTCHAR p
ENCODING 112
SWIDTH 562 0
DWIDTH 9 0
BBX 14 16 -1 -3
BITMAP
0000
0000
0000
0000
0000
0000
06C0
0660
0420
0420
0840
0CC0
0B00
1000
1000
3C00
ENDCHAR
STARTCHAR q
ENCODING 113
SWIDTH 562 0
DWIDTH 9 0
BBX 14 16 -1 -3
BITMAP
0000
0000
0000
0000
0000
0000
01B0
0CC0
0840
0840
1080
1980
0680
0100
0100
0780
ENDCHAR
STARTCHAR r
ENCODING 114
SWIDTH 562 0
DWIDTH 9 0
BBX 14 16 -1 -3
BITMAP
0000
0000
0000
0000
0000
0000
0770
0310
0200
0200
0400
0400
1F00
0000
0000
0000
ENDCHAR
STARTCHAR s
ENCODING 115
SWIDTH 562 0
DWIDTH 9 0
BBX 14 16 -1 -3
BITMAP
0000
0000
0000
0000
0000
0000
03E0
0820
0800
07C0
0040
1040
0F80
0000
0000
0000
ENDCHAR
STARTCHAR t
ENCODING 116
SWIDTH 562 0
DWIDTH 9 0
BBX 14 16 -1 -3
BITMAP
0000
0000
0000
0000
0100
0100
07E0
0200
0200
0200
0400
0440
0380
0000
0000
0000
ENDCHAR
STARTCHAR u
ENCODING 117
SWIDTH 562 0
DWIDTH 9 0
BBX 14 16 -1 -3
BITMAP
0000
0000
0000
0000
0000
0000
0660
0440
0440
0440
0880
0980
06C0
0000
0000
0000
ENDCHAR
STARTCHAR v
ENCODING 118
SWIDTH 562 0
DWIDTH 9 0
BBX 14 16 -1 -3
BITMAP
0000
0000
0000
0000
0000
0000
0E38
0820
0440
0440
0500
0500
0200
0000
0000
0000
ENDCHAR
STARTCHAR w
ENCODING 119
SWIDTH 562 0
DWIDTH 9 0
BBX 14 16 -1 -3
BITMAP
0000
0000
0000
0000
0000
0000
0EB8
0920
0AA0
0AA0
1540
0880
0880
0000
0000
0000
ENDCHAR
STARTCHAR x
ENCODING 120
SWIDTH 562 0
DWIDTH 9 0
BBX 14 16 -1 -3
BITMAP
0000
0000
0000
0000
0000
0000
0770
0440
0280
0100
0500
0880
1DC0
0000
0000
0000
ENDCHAR
STARTCHAR y
ENCODING 121
SWIDTH 562 0
DWIDTH 9 0
BBX 14 16 -1 -3
BITMAP
0000
0000
0000
0000
0000
0000
0E38
0820
0440
0440
0500
0500
0200
0400
0800
3000
ENDCHAR
STARTCHAR z
ENCODING 122
SWIDTH 562 0
DWIDTH 9 0
BBX 14 16 -1 -3
BITMAP
0000
0000
0000
0000
0000
0000
07F0
0840
0080
0100
0400
0840
1FC0
0000
0000
0000
ENDCHAR
STARTCHAR braceleft
ENCODING 123
SWIDTH 562 0
DWIDTH 9 0
BBX 14 16 -1 -3
BITMAP
0000
0000
0000
0030
0080
0080
0080
0100
0100
0600
0200
0200
0200
0400
0400
0300
ENDCHAR
STARTCHAR bar
ENCODING 124
SWIDTH 562 0
DWIDTH 9 0
BBX 14 16 -1 -3
BITMAP
0000
0000
0000
0040
0080
0080
0080
0100
0100
0100
0200
0200
0200
0400
0400
0400
ENDCHAR
STARTCHAR braceright
ENCODING 125
SWIDTH 562 0
DWIDTH 9 0
BBX 14 16 -1 -3
BITMAP
0000
0000
0000
00C0
0040
0040
0040
0080
0080
0060
0100
0100
0100
0200
0200
0C00
ENDCHAR
STARTCHAR asciitilde
ENCODING 126
SWIDTH 562 0
DWIDTH 9 0
BBX 14 16 -1 -3
BITMAP
0000
0000
0000
0188
0490
0460
0000
0000
0000
0000
0000
0000
0000
0000
0000
0000
ENDCHAR
STARTCHAR C177
ENCODING -1
SWIDTH 562 0
DWIDTH 9 0
BBX 14 16 -1 -3
BITMAP
0000
0000
0000
00E0
01C0
01C0
01C0
0380
0380
0380
0700
0700
0700
0000
0000
0000
ENDCHAR
STARTCHAR C200
ENCODING -1
SWIDTH 562 0
DWIDTH 9 0
BBX 14 16 -1 -3
BITMAP
0000
0000
0000
00E0
01C0
01C0
01C0
0380
0380
0380
0700
0700
0700
0000
0000
0000
ENDCHAR
STARTCHAR C201
ENCODING -1
SWIDTH 562 0
DWIDTH 9 0
BBX 14 16 -1 -3
BITMAP
0000
0000
0000
00E0
01C0
01C0
01C0
0380
0380
0380
0700
0700
0700
0000
0000
0000
ENDCHAR
STARTCHAR C202
ENCODING -1
SWIDTH 562 0
DWIDTH 9 0
BBX 14 16 -1 -3
BITMAP
0000
0000
0000
00E0
01C0
01C0
01C0
0380
0380
0380
0700
0700
0700
0000
0000
0000
ENDCHAR
STARTCHAR C203
ENCODING -1
SWIDTH 562 0
DWIDTH 9 0
BBX 14 16 -1 -3
BITMAP
0000
0000
0000
00E0
01C0
01C0
01C0
0380
0380
0380
0700
0700
0700
0000
0000
0000
ENDCHAR
STARTCHAR C204
ENCODING -1
SWIDTH 562 0
DWIDTH 9 0
BBX 14 16 -1 -3
BITMAP
0000
0000
0000
00E0
01C0
01C0
01C0
0380
0380
0380
0700
0700
0700
0000
0000
0000
ENDCHAR
STARTCHAR C205
ENCODING -1
SWIDTH 562 0
DWIDTH 9 0
BBX 14 16 -1 -3
BITMAP
0000
0000
0000
00E0
01C0
01C0
01C0
0380
0380
0380
0700
0700
0700
0000
0000
0000
ENDCHAR
STARTCHAR C206
ENCODING -1
SWIDTH 562 0
DWIDTH 9 0
BBX 14 16 -1 -3
BITMAP
0000
0000
0000
00E0
01C0
01C0
01C0
0380
0380
0380
0700
0700
0700
0000
0000
0000
ENDCHAR
STARTCHAR C207
ENCODING -1
SWIDTH 562 0
DWIDTH 9 0
BBX 14 16 -1 -3
BITMAP
0000
0000
0000
00E0
01C0
01C0
01C0
0380
0380
0380
0700
0700
0700
0000
0000
0000
ENDCHAR
STARTCHAR C210
ENCODING -1
SWIDTH 562 0
DWIDTH 9 0
BBX 14 16 -1 -3
BITMAP
0000
0000
0000
00E0
01C0
01C0
01C0
0380
0380
0380
0700
0700
0700
0000
0000
0000
ENDCHAR
STARTCHAR C211
ENCODING -1
SWIDTH 562 0
DWIDTH 9 0
BBX 14 16 -1 -3
BITMAP
0000
0000
0000
00E0
01C0
01C0
01C0
0380
0380
0380
0700
0700
0700
0000
0000
0000
ENDCHAR
STARTCHAR C212
ENCODING -1
SWIDTH 562 0
DWIDTH 9 0
BBX 14 16 -1 -3
BITMAP
0000
0000
0000
00E0
01C0
01C0
01C0
0380
0380
0380
0700
0700
0700
0000
0000
0000
ENDCHAR
STARTCHAR C213
ENCODING -1
SWIDTH 562 0
DWIDTH 9 0
BBX 14 16 -1 -3
BITMAP
0000
0000
0000
00E0
01C0
01C0
01C0
0380
0380
0380
0700
0700
0700
0000
0000
0000
ENDCHAR
STARTCHAR C214
ENCODING -1
SWIDTH 562 0
DWIDTH 9 0
BBX 14 16 -1 -3
BITMAP
0000
0000
0000
00E0
01C0
01C0
01C0
0380
0380
0380
0700
0700
0700
0000
0000
0000
ENDCHAR
STARTCHAR C215
ENCODING -1
SWIDTH 562 0
DWIDTH 9 0
BBX 14 16 -1 -3
BITMAP
0000
0000
0000
00E0
01C0
01C0
01C0
0380
0380
0380
0700
0700
0700
0000
0000
0000
ENDCHAR
STARTCHAR C216
ENCODING -1
SWIDTH 562 0
DWIDTH 9 0
BBX 14 16 -1 -3
BITMAP
0000
0000
0000
00E0
01C0
01C0
01C0
0380
0380
0380
0700
0700
0700
0000
0000
0000
ENDCHAR
STARTCHAR C217
ENCODING -1
SWIDTH 562 0
DWIDTH 9 0
BBX 14 16 -1 -3
BITMAP
0000
0000
0000
00E0
01C0
01C0
01C0
0380
0380
0380
0700
0700
0700
0000
0000
0000
ENDCHAR
STARTCHAR C220
ENCODING -1
SWIDTH 562 0
DWIDTH 9 0
BBX 14 16 -1 -3
BITMAP
0000
0000
0000
00E0
01C0
01C0
01C0
0380
0380
0380
0700
0700
0700
0000
0000
0000
ENDCHAR
STARTCHAR C221
ENCODING -1
SWIDTH 562 0
DWIDTH 9 0
BBX 14 16 -1 -3
BITMAP
0000
0000
0000
0030
00C0
01C0
0000
0000
0000
0000
0000
0000
0000
0000
0000
0000
ENDCHAR
STARTCHAR C222
ENCODING -1
SWIDTH 562 0
DWIDTH 9 0
BBX 14 16 -1 -3
BITMAP
0000
0000
0000
0070
00C0
0180
0000
0000
0000
0000
0000
0000
0000
0000
0000
0000
ENDCHAR
STARTCHAR C223
ENCODING -1
SWIDTH 562 0
DWIDTH 9 0
BBX 14 16 -1 -3
BITMAP
0000
0000
0000
00E0
01C0
01C0
01C0
0380
0380
0380
0700
0700
0700
0000
0000
0000
ENDCHAR
STARTCHAR C224
ENCODING -1
SWIDTH 562 0
DWIDTH 9 0
BBX 14 16 -1 -3
BITMAP
0000
0000
0000
00E0
01C0
01C0
01C0
0380
0380
0380
0700
0700
0700
0000
0000
0000
ENDCHAR
STARTCHAR C225
ENCODING -1
SWIDTH 562 0
DWIDTH 9 0
BBX 14 16 -1 -3
BITMAP
0000
0000
0000
00E0
01C0
01C0
01C0
0380
0380
0380
0700
0700
0700
0000
0000
0000
ENDCHAR
STARTCHAR C226
ENCODING -1
SWIDTH 562 0
DWIDTH 9 0
BBX 14 16 -1 -3
BITMAP
0000
0000
0000
00E0
01C0
01C0
01C0
0380
0380
0380
0700
0700
0700
0000
0000
0000
ENDCHAR
STARTCHAR C227
ENCODING -1
SWIDTH 562 0
DWIDTH 9 0
BBX 14 16 -1 -3
BITMAP
0000
0000
0000
00E0
01C0
01C0
01C0
0380
0380
0380
0700
0700
0700
0000
0000
0000
ENDCHAR
STARTCHAR C230
ENCODING -1
SWIDTH 562 0
DWIDTH 9 0
BBX 14 16 -1 -3
BITMAP
0000
0000
0000
00E0
01C0
01C0
01C0
0380
0380
0380
0700
0700
0700
0000
0000
0000
ENDCHAR
STARTCHAR C231
ENCODING -1
SWIDTH 562 0
DWIDTH 9 0
BBX 14 16 -1 -3
BITMAP
0000
0000
0000
00E0
01C0
01C0
01C0
0380
0380
0380
0700
0700
0700
0000
0000
0000
ENDCHAR
STARTCHAR C232
ENCODING -1
SWIDTH 562 0
DWIDTH 9 0
BBX 14 16 -1 -3
BITMAP
0000
0000
0000
00E0
01C0
01C0
01C0
0380
0380
0380
0700
0700
0700
0000
0000
0000
ENDCHAR
STARTCHAR C233
ENCODING -1
SWIDTH 562 0
DWIDTH 9 0
BBX 14 16 -1 -3
BITMAP
0000
0000
0000
00E0
01C0
01C0
01C0
0380
0380
0380
0700
0700
0700
0000
0000
0000
ENDCHAR
STARTCHAR C234
ENCODING 176
SWIDTH 562 0
DWIDTH 9 0
BBX 14 16 -1 -3
BITMAP
0000
0000
0000
00E0
01C0
01C0
01C0
0380
0380
0380
0700
0700
0700
0000
0000
0000
ENDCHAR
STARTCHAR C235
ENCODING 178
SWIDTH 562 0
DWIDTH 9 0
BBX 14 16 -1 -3
BITMAP
0000
0000
0000
00E0
01C0
01C0
01C0
0380
0380
0380
0700
0700
0700
0000
0000
0000
ENDCHAR
STARTCHAR C236
ENCODING -1
SWIDTH 562 0
DWIDTH 9 0
BBX 14 16 -1 -3
BITMAP
0000
0000
0000
00E0
01C0
01C0
01C0
0380
0380
0380
0700
0700
0700
0000
0000
0000
ENDCHAR
STARTCHAR C237
ENCODING -1
SWIDTH 562 0
DWIDTH 9 0
BBX 14 16 -1 -3
BITMAP
0000
0000
0000
00E0
01C0
01C0
01C0
0380
0380
0380
0700
0700
0700
0000
0000
0000
ENDCHAR
STARTCHAR C240
ENCODING 160
SWIDTH 562 0
DWIDTH 9 0
BBX 14 16 -1 -3
BITMAP
0000
0000
0000
0000
0000
0000
0000
0000
0000
0000
0000
0000
0000
0000
0000
0000
ENDCHAR
STARTCHAR exclamdown
ENCODING 161
SWIDTH 562 0
DWIDTH 9 0
BBX 14 16 -1 -3
BITMAP
0000
01B0
0000
03F8
0210
0200
0240
0780
0480
0400
0800
0840
1FC0
0000
0000
0000
ENDCHAR
STARTCHAR cent
ENCODING 162
SWIDTH 562 0
DWIDTH 9 0
BBX 14 16 -1 -3
BITMAP
0000
0000
0000
0000
0040
0040
00E0
0620
0400
0400
0800
0C40
0380
0200
0200
0000
ENDCHAR
STARTCHAR sterling
ENCODING 163
SWIDTH 562 0
DWIDTH 9 0
BBX 14 16 -1 -3
BITMAP
0000
0000
0000
00E0
0220
0220
0200
0200
0780
0200
0400
0400
0FC0
0000
0000
0000
ENDCHAR
STARTCHAR currency
ENCODING 164
SWIDTH 562 0
DWIDTH 9 0
BBX 14 16 -1 -3
BITMAP
0000
0000
0000
0108
01E0
0120
0120
03C0
0420
0000
0000
0000
0000
0000
0000
0000
ENDCHAR
STARTCHAR yen
ENCODING 165
SWIDTH 562 0
DWIDTH 9 0
BBX 14 16 -1 -3
BITMAP
0000
0000
0000
071C
0410
0220
0E38
0280
1FF0
0100
0200
0200
0700
0000
0000
0000
ENDCHAR
STARTCHAR brokenbar
ENCODING 166
SWIDTH 562 0
DWIDTH 9 0
BBX 14 16 -1 -3
BITMAP
0000
0000
0000
0040
0080
0080
0080
0100
0000
0000
0000
0200
0200
0400
0400
0400
ENDCHAR
STARTCHAR section
ENCODING 167
SWIDTH 562 0
DWIDTH 9 0
BBX 14 16 -1 -3
BITMAP
0000
0000
0000
00F8
0210
0300
0480
0880
0440
0220
0240
0180
1080
3E00
0000
0000
ENDCHAR
STARTCHAR dieresis
ENCODING 168
SWIDTH 562 0
DWIDTH 9 0
BBX 14 16 -1 -3
BITMAP
0000
0000
0000
0090
0000
0000
0000
0000
0000
0000
0000
0000
0000
0000
0000
0000
ENDCHAR
STARTCHAR copyright
ENCODING 191
SWIDTH 562 0
DWIDTH 9 0
BBX 14 16 -1 -3
BITMAP
0000
0000
00F0
0108
04C8
0528
0508
0A10
0A50
0990
0840
0780
0000
0000
0000
0000
ENDCHAR
STARTCHAR ordfeminine
ENCODING 170
SWIDTH 562 0
DWIDTH 9 0
BBX 14 16 -1 -3
BITMAP
0000
0000
0000
00E0
0020
01E0
0220
0440
03A0
0000
0F80
0000
0000
0000
0000
0000
ENDCHAR
STARTCHAR guillemotleft
ENCODING 171
SWIDTH 562 0
DWIDTH 9 0
BBX 14 16 -1 -3
BITMAP
0000
0000
0000
0000
0000
0090
0120
0480
0900
0480
0480
0240
0000
0000
0000
0000
ENDCHAR
STARTCHAR logicalnot
ENCODING 172
SWIDTH 562 0
DWIDTH 9 0
BBX 14 16 -1 -3
BITMAP
0000
0000
0000
0000
0000
0000
0000
0FE0
0020
0020
0040
0000
0000
0000
0000
0000
ENDCHAR
STARTCHAR hyphen
ENCODING 173
SWIDTH 562 0
DWIDTH 9 0
BBX 14 16 -1 -3
BITMAP
0000
0000
0000
0000
0000
0000
0000
0000
07E0
0000
0000
0000
0000
0000
0000
0000
ENDCHAR
STARTCHAR registered
ENCODING 174
SWIDTH 562 0
DWIDTH 9 0
BBX 14 16 -1 -3
BITMAP
0000
0000
00F0
0108
05C8
0528
0528
0B90
0A50
0A50
0840
0780
0000
0000
0000
0000
ENDCHAR
STARTCHAR macron
ENCODING 175
SWIDTH 562 0
DWIDTH 9 0
BBX 14 16 -1 -3
BITMAP
0000
07FC
0000
0000
0000
0000
0000
0000
0000
0000
0000
0000
0000
0000
0000
0000
ENDCHAR
STARTCHAR degree
ENCODING 156
SWIDTH 562 0
DWIDTH 9 0
BBX 14 16 -1 -3
BITMAP
0000
0000
0000
0060
0120
0120
00C0
0000
0000
0000
0000
0000
0000
0000
0000
0000
ENDCHAR
STARTCHAR plusminus
ENCODING 177
SWIDTH 562 0
DWIDTH 9 0
BBX 14 16 -1 -3
BITMAP
0000
0000
0000
0000
0080
0080
0080
0FE0
0100
0100
0200
0000
1FC0
0000
0000
0000
ENDCHAR
STARTCHAR twosuperior
ENCODING 157
SWIDTH 562 0
DWIDTH 9 0
BBX 14 16 -1 -3
BITMAP
0000
0000
0000
0060
0120
0020
0040
0100
03C0
0000
0000
0000
0000
0000
0000
0000
ENDCHAR
STARTCHAR threesuperior
ENCODING 179
SWIDTH 562 0
DWIDTH 9 0
BBX 14 16 -1 -3
BITMAP
0000
0000
0000
0060
0120
0040
0020
0240
0180
0000
0000
0000
0000
0000
0000
0000
ENDCHAR
STARTCHAR acute
ENCODING 180
SWIDTH 562 0
DWIDTH 9 0
BBX 14 16 -1 -3
BITMAP
0000
0000
0000
0020
0080
0000
0000
0000
0000
0000
0000
0000
0000
0000
0000
0000
ENDCHAR
STARTCHAR mu
ENCODING 181
SWIDTH 562 0
DWIDTH 9 0
BBX 14 16 -1 -3
BITMAP
0000
0000
0000
0000
0000
0210
0210
0420
0420
0420
0840
0840
0FA0
1000
1000
2000
ENDCHAR
STARTCHAR paragraph
ENCODING 182
SWIDTH 562 0
DWIDTH 9 0
BBX 14 16 -1 -3
BITMAP
0000
0000
0000
01FC
07D0
07D0
07D0
0FA0
07A0
00A0
0140
0140
0360
0000
0000
0000
ENDCHAR
STARTCHAR periodcentered
ENCODING 183
SWIDTH 562 0
DWIDTH 9 0
BBX 14 16 -1 -3
BITMAP
0000
0000
0000
0000
0000
0000
0000
0180
0180
0000
0000
0000
0000
0000
0000
0000
ENDCHAR
STARTCHAR cedilla
ENCODING 184
SWIDTH 562 0
DWIDTH 9 0
BBX 14 16 -1 -3
BITMAP
0000
0000
0000
0000
0000
0000
0000
0000
0000
0000
0000
0000
0000
0400
0200
0C00
ENDCHAR
STARTCHAR onesuperior
ENCODING 185
SWIDTH 562 0
DWIDTH 9 0
BBX 14 16 -1 -3
BITMAP
0000
0000
0000
0040
0180
0080
0080
0100
0380
0000
0000
0000
0000
0000
0000
0000
ENDCHAR
STARTCHAR ordmasculine
ENCODING 186
SWIDTH 562 0
DWIDTH 9 0
BBX 14 16 -1 -3
BITMAP
0000
0000
0000
00E0
0220
0220
0220
0440
0380
0000
0F80
0000
0000
0000
0000
0000
ENDCHAR
STARTCHAR guillemotright
ENCODING 187
SWIDTH 562 0
DWIDTH 9 0
BBX 14 16 -1 -3
BITMAP
0000
0000
0000
0000
0000
0480
0240
0240
0120
0240
0900
1200
0000
0000
0000
0000
ENDCHAR
STARTCHAR onequarter
ENCODING 188
SWIDTH 562 0
DWIDTH 9 0
BBX 14 16 -1 -3
BITMAP
0000
0000
0000
0100
0608
0210
0220
04A0
0560
02A0
0A40
13E0
0040
0000
0000
0000
ENDCHAR
STARTCHAR onehalf
ENCODING 189
SWIDTH 562 0
DWIDTH 9 0
BBX 14 16 -1 -3
BITMAP
0000
0000
0000
0100
0608
0210
0220
04E0
0590
0210
0840
1080
01E0
0000
0000
0000
ENDCHAR
STARTCHAR threequarters
ENCODING 190
SWIDTH 562 0
DWIDTH 9 0
BBX 14 16 -1 -3
BITMAP
0000
0000
0000
0180
0488
0110
00A0
09A0
0760
02A0
0A40
13E0
0040
0000
0000
0000
ENDCHAR
STARTCHAR questiondown
ENCODING 169
SWIDTH 562 0
DWIDTH 9 0
BBX 14 16 -1 -3
BITMAP
0000
0000
0000
0000
0360
0000
01C0
0C60
0820
0FE0
1000
18C0
0700
0000
0000
0000
ENDCHAR
STARTCHAR cyr-A
ENCODING 225
SWIDTH 562 0
DWIDTH 9 0
BBX 14 16 -1 -3
BITMAP
0000
0000
0000
0040
0080
0140
0140
0440
0440
07C0
1040
1040
38E0
0000
0000
0000
ENDCHAR
STARTCHAR cyr-Be
ENCODING 226
SWIDTH 562 0
DWIDTH 9 0
BBX 14 16 -1 -3
BITMAP
0000
0000
0000
03F8
0210
0200
0200
07C0
0420
0420
0840
0840
1F80
0000
0000
0000
ENDCHAR
STARTCHAR cyr-Ve
ENCODING 247
SWIDTH 562 0
DWIDTH 9 0
BBX 14 16 -1 -3
BITMAP
0000
0000
0000
03F0
0210
0210
0210
07C0
0420
0420
0840
0840
1F80
0000
0000
0000
ENDCHAR
STARTCHAR cyr-Ghe
ENCODING 231
SWIDTH 562 0
DWIDTH 9 0
BBX 14 16 -1 -3
BITMAP
0000
0000
0000
03F8
0210
0200
0200
0400
0400
0400
0800
0800
1C00
0000
0000
0000
ENDCHAR
STARTCHAR cyr-De
ENCODING 228
SWIDTH 562 0
DWIDTH 9 0
BBX 14 16 -1 -3
BITMAP
0000
0000
0000
01FC
0110
0110
0110
0220
0220
0220
0440
0840
1FE0
2040
2040
0000
ENDCHAR
STARTCHAR cyr-Ie
ENCODING 229
SWIDTH 562 0
DWIDTH 9 0
BBX 14 16 -1 -3
BITMAP
0000
0000
0000
03F8
0210
0200
0240
0780
0480
0400
0800
0840
1FC0
0000
0000
0000
ENDCHAR
STARTCHAR cyr-Zhe
ENCODING 246
SWIDTH 562 0
DWIDTH 9 0
BBX 14 16 -1 -3
BITMAP
0000
0000
0000
064C
0490
0490
02A0
0380
0540
0540
1240
1240
3260
0000
0000
0000
ENDCHAR
STARTCHAR cyr-Ze
ENCODING 250
SWIDTH 562 0
DWIDTH 9 0
BBX 14 16 -1 -3
BITMAP
0000
0000
0000
02F0
0610
0410
0010
03C0
0020
0020
0040
1040
0F80
0000
0000
0000
ENDCHAR
STARTCHAR cyr-I
ENCODING 233
SWIDTH 562 0
DWIDTH 9 0
BBX 14 16 -1 -3
BITMAP
0000
0000
0000
071C
0410
0410
0430
08A0
0920
0A20
1840
1040
38E0
0000
0000
0000
ENDCHAR
STARTCHAR cyr-I-short
ENCODING 234
SWIDTH 562 0
DWIDTH 9 0
BBX 14 16 -1 -3
BITMAP
0000
01B0
00E0
071C
0410
0410
0430
08A0
0920
0A20
1840
1040
38E0
0000
0000
0000
ENDCHAR
STARTCHAR cyr-Ka
ENCODING 235
SWIDTH 562 0
DWIDTH 9 0
BBX 14 16 -1 -3
BITMAP
0000
0000
0000
03B8
0220
0240
0240
0500
0700
0480
0880
0840
1C60
0000
0000
0000
ENDCHAR
STARTCHAR cyr-El
ENCODING 236
SWIDTH 562 0
DWIDTH 9 0
BBX 14 16 -1 -3
BITMAP
0000
0000
0000
03FC
0210
0210
0210
0420
0420
0420
0840
0840
30E0
0000
0000
0000
ENDCHAR
STARTCHAR cyr-Em
ENCODING 237
SWIDTH 562 0
DWIDTH 9 0
BBX 14 16 -1 -3
BITMAP
0000
0000
0000
060C
0410
0630
0630
0AA0
0AA0
0920
1240
1040
38E0
0000
0000
0000
ENDCHAR
STARTCHAR cyr-En
ENCODING 238
SWIDTH 562 0
DWIDTH 9 0
BBX 14 16 -1 -3
BITMAP
0000
0000
0000
071C
0410
0410
0410
0FE0
0820
0820
1040
1040
38E0
0000
0000
0000
ENDCHAR
STARTCHAR cyr-O
ENCODING 239
SWIDTH 562 0
DWIDTH 9 0
BBX 14 16 -1 -3
BITMAP
0000
0000
0000
00E0
0220
0410
0410
0820
0820
0820
1040
0880
0700
0000
0000
0000
ENDCHAR
STARTCHAR cyr-Pe
ENCODING 240
SWIDTH 562 0
DWIDTH 9 0
BBX 14 16 -1 -3
BITMAP
0000
0000
0000
07FC
0410
0410
0410
0820
0820
0820
1040
1040
38E0
0000
0000
0000
ENDCHAR
STARTCHAR cyr-Er
ENCODING 242
SWIDTH 562 0
DWIDTH 9 0
BBX 14 16 -1 -3
BITMAP
0000
0000
0000
03F0
0210
0210
0210
0420
07C0
0400
0800
0800
1E00
0000
0000
0000
ENDCHAR
STARTCHAR cyr-Es
ENCODING 243
SWIDTH 562 0
DWIDTH 9 0
BBX 14 16 -1 -3
BITMAP
0000
0000
0000
00E8
0230
0410
0410
0800
0800
0800
1000
0840
0780
0000
0000
0000
ENDCHAR
STARTCHAR cyr-Te
ENCODING 244
SWIDTH 562 0
DWIDTH 9 0
BBX 14 16 -1 -3
BITMAP
0000
0000
0000
07FC
0888
0080
0080
0100
0100
0100
0200
0200
0F80
0000
0000
0000
ENDCHAR
STARTCHAR cyr-U
ENCODING 245
SWIDTH 562 0
DWIDTH 9 0
BBX 14 16 -1 -3
BITMAP
0000
0000
0000
071C
0410
0410
0220
0440
0280
0280
0200
1200
0C00
0000
0000
0000
ENDCHAR
STARTCHAR cyr-Ef
ENCODING 230
SWIDTH 562 0
DWIDTH 9 0
BBX 14 16 -1 -3
BITMAP
0000
00E0
0040
01F0
0490
0888
0888
1110
1110
0920
0F80
0200
0700
0000
0000
0000
ENDCHAR
STARTCHAR cyr-Kha
ENCODING 232
SWIDTH 562 0
DWIDTH 9 0
BBX 14 16 -1 -3
BITMAP
0000
0000
0000
071C
0410
0220
0140
0100
0100
0280
0880
1040
38E0
0000
0000
0000
ENDCHAR
STARTCHAR cyr-Tse
ENCODING 227
SWIDTH 562 0
DWIDTH 9 0
BBX 14 16 -1 -3
BITMAP
0000
0000
0000
071C
0410
0410
0410
0820
0820
0820
1040
1040
3FE0
0040
0040
0000
ENDCHAR
STARTCHAR cyr-Che
ENCODING 254
SWIDTH 562 0
DWIDTH 9 0
BBX 14 16 -1 -3
BITMAP
0000
0000
0000
071C
0410
0410
0410
0820
0860
07A0
0040
0040
00E0
0000
0000
0000
ENDCHAR
STARTCHAR cyr-Sha
ENCODING 251
SWIDTH 562 0
DWIDTH 9 0
BBX 14 16 -1 -3
BITMAP
0000
0000
0000
075C
0490
0490
0490
0920
0920
0920
1240
1240
3FE0
0000
0000
0000
ENDCHAR
STARTCHAR cyr-Shcha
ENCODING 253
SWIDTH 562 0
DWIDTH 9 0
BBX 14 16 -1 -3
BITMAP
0000
0000
0000
075C
0490
0490
0490
0920
0920
0920
1240
1240
3FE0
0040
0040
0000
ENDCHAR
STARTCHAR cyr-Ier
ENCODING 255
SWIDTH 562 0
DWIDTH 9 0
BBX 14 16 -1 -3
BITMAP
0000
0000
0000
03C0
0500
0500
0100
03E0
0210
0210
0420
0420
0FC0
0000
0000
0000
ENDCHAR
STARTCHAR cyr-Iery
ENCODING 249
SWIDTH 562 0
DWIDTH 9 0
BBX 14 16 -1 -3
BITMAP
0000
0000
0000
071C
0410
0410
0410
0F20
08A0
08A0
1140
1140
3EE0
0000
0000
0000
ENDCHAR
STARTCHAR cyr-Ierik
ENCODING 248
SWIDTH 562 0
DWIDTH 9 0
BBX 14 16 -1 -3
BITMAP
0000
0000
0000
0380
0200
0200
0200
07C0
0420
0420
0840
0840
1F80
0000
0000
0000
ENDCHAR
STARTCHAR cyr-E-rev
ENCODING 252
SWIDTH 562 0
DWIDTH 9 0
BBX 14 16 -1 -3
BITMAP
0000
0000
0000
00E0
0220
0410
0010
03E0
0020
0020
1040
0880
0700
0000
0000
0000
ENDCHAR
STARTCHAR cyr-Yu
ENCODING 224
SWIDTH 562 0
DWIDTH 9 0
BBX 14 16 -1 -3
BITMAP
0000
0000
0000
0738
0488
0488
0488
0F10
0910
0910
1220
1220
39C0
0000
0000
0000
ENDCHAR
STARTCHAR cyr-Ya
ENCODING 241
SWIDTH 562 0
DWIDTH 9 0
BBX 14 16 -1 -3
BITMAP
0000
0000
0000
00FC
0210
0210
0210
0420
03E0
0120
0440
0840
18E0
0000
0000
0000
ENDCHAR
STARTCHAR cyr-a
ENCODING 193
SWIDTH 562 0
DWIDTH 9 0
BBX 14 16 -1 -3
BITMAP
0000
0000
0000
0000
0000
0000
03C0
0040
07C0
0840
1080
1080
0F40
0000
0000
0000
ENDCHAR
STARTCHAR cyr-be
ENCODING 194
SWIDTH 562 0
DWIDTH 9 0
BBX 14 16 -1 -3
BITMAP
0000
0000
0000
0018
01C0
0200
02E0
0620
0420
0420
0840
0840
0780
0000
0000
0000
ENDCHAR
STARTCHAR cyr-ve
ENCODING 215
SWIDTH 562 0
DWIDTH 9 0
BBX 14 16 -1 -3
BITMAP
0000
0000
0000
0000
0000
0000
07E0
0420
0420
07C0
0840
0840
1F80
0000
0000
0000
ENDCHAR
STARTCHAR cyr-ghe
ENCODING 199
SWIDTH 562 0
DWIDTH 9 0
BBX 14 16 -1 -3
BITMAP
0000
0000
0000
0000
0000
0000
07F0
0420
0400
0400
0800
0800
1C00
0000
0000
0000
ENDCHAR
STARTCHAR cyr-de
ENCODING 196
SWIDTH 562 0
DWIDTH 9 0
BBX 14 16 -1 -3
BITMAP
0000
0000
0000
0000
0000
0000
03F8
0220
0220
0220
0440
0840
1FE0
2040
2040
0000
ENDCHAR
STARTCHAR cyr-ie
ENCODING 197
SWIDTH 562 0
DWIDTH 9 0
BBX 14 16 -1 -3
BITMAP
0000
0000
0000
0000
0000
0000
01C0
0C60
0820
0FE0
1000
18C0
0700
0000
0000
0000
ENDCHAR
STARTCHAR cyr-zhe
ENCODING 214
SWIDTH 562 0
DWIDTH 9 0
BBX 14 16 -1 -3
BITMAP
0000
0000
0000
0000
0000
0000
0C98
0920
0540
0380
0A80
1240
3260
0000
0000
0000
ENDCHAR
STARTCHAR cyr-z
ENCODING 218
SWIDTH 562 0
DWIDTH 9 0
BBX 14 16 -1 -3
BITMAP
0000
0000
0000
0000
0000
0000
07E0
0820
0020
03C0
0040
1040
0F80
0000
0000
0000
ENDCHAR
STARTCHAR cyr-i
ENCODING 201
SWIDTH 562 0
DWIDTH 9 0
BBX 14 16 -1 -3
BITMAP
0000
0000
0000
0000
0000
0000
0738
0420
0460
04A0
0A40
0C40
1CE0
0000
0000
0000
ENDCHAR
STARTCHAR cyr-i-short
ENCODING 202
SWIDTH 562 0
DWIDTH 9 0
BBX 14 16 -1 -3
BITMAP
0000
0000
0000
0090
00C0
0000
0738
0420
0460
04A0
0A40
0C40
1CE0
0000
0000
0000
ENDCHAR
STARTCHAR cyr-ka
ENCODING 203
SWIDTH 562 0
DWIDTH 9 0
BBX 14 16 -1 -3
BITMAP
0000
0000
0000
0000
0000
0000
0770
0480
0500
0700
0900
0880
1DC0
0000
0000
0000
ENDCHAR
STARTCHAR cyr-el
ENCODING 204
SWIDTH 562 0
DWIDTH 9 0
BBX 14 16 -1 -3
BITMAP
0000
0000
0000
0000
0000
0000
03F8
0220
0220
0220
0440
0440
18E0
0000
0000
0000
ENDCHAR
STARTCHAR cyr-em
ENCODING 205
SWIDTH 562 0
DWIDTH 9 0
BBX 14 16 -1 -3
BITMAP
0000
0000
0000
0000
0000
0000
0C18
0C60
0AA0
0920
1240
1040
38E0
0000
0000
0000
ENDCHAR
STARTCHAR cyr-en
ENCODING 206
SWIDTH 562 0
DWIDTH 9 0
BBX 14 16 -1 -3
BITMAP
0000
0000
0000
0000
0000
0000
0738
0420
0420
07E0
0840
0840
1CE0
0000
0000
0000
ENDCHAR
STARTCHAR cyr-o
ENCODING 207
SWIDTH 562 0
DWIDTH 9 0
BBX 14 16 -1 -3
BITMAP
0000
0000
0000
0000
0000
0000
01C0
0C60
0820
0820
1040
18C0
0700
0000
0000
0000
ENDCHAR
STARTCHAR cyr-pe
ENCODING 208
SWIDTH 562 0
DWIDTH 9 0
BBX 14 16 -1 -3
BITMAP
0000
0000
0000
0000
0000
0000
07F8
0420
0420
0420
0840
0840
1CE0
0000
0000
0000
ENDCHAR
STARTCHAR cyr-er
ENCODING 210
SWIDTH 562 0
DWIDTH 9 0
BBX 14 16 -1 -3
BITMAP
0000
0000
0000
0000
0000
0000
06C0
0660
0420
0420
0840
0CC0
0B00
1000
1000
3C00
ENDCHAR
STARTCHAR cyr-es
ENCODING 211
SWIDTH 562 0
DWIDTH 9 0
BBX 14 16 -1 -3
BITMAP
0000
0000
0000
0000
0000
0000
01D0
0C60
0800
0800
1000
18C0
0700
0000
0000
0000
ENDCHAR
STARTCHAR cyr-te
ENCODING 212
SWIDTH 562 0
DWIDTH 9 0
BBX 14 16 -1 -3
BITMAP
0000
0000
0000
0000
0000
0000
07F0
0920
0100
0100
0200
0200
0700
0000
0000
0000
ENDCHAR
STARTCHAR cyr-u
ENCODING 213
SWIDTH 562 0
DWIDTH 9 0
BBX 14 16 -1 -3
BITMAP
0000
0000
0000
0000
0000
0000
0E38
0820
0440
0440
0500
0500
0200
0400
0800
3000
ENDCHAR
STARTCHAR cyr-ef
ENCODING 198
SWIDTH 562 0
DWIDTH 9 0
BBX 14 16 -1 -3
BITMAP
0000
0000
0000
0000
01C0
0080
03E0
0920
0920
0920
1240
1240
0F80
0400
0400
0E00
ENDCHAR
STARTCHAR cyr-kha
ENCODING 200
SWIDTH 562 0
DWIDTH 9 0
BBX 14 16 -1 -3
BITMAP
0000
0000
0000
0000
0000
0000
0770
0440
0280
0100
0500
0880
1DC0
0000
0000
0000
ENDCHAR
STARTCHAR cyr-tse
ENCODING 195
SWIDTH 562 0
DWIDTH 9 0
BBX 14 16 -1 -3
BITMAP
0000
0000
0000
0000
0000
0000
0738
0420
0420
0420
0840
0840
1FE0
0040
0040
0000
ENDCHAR
STARTCHAR cyr-che
ENCODING 222
SWIDTH 562 0
DWIDTH 9 0
BBX 14 16 -1 -3
BITMAP
0000
0000
0000
0000
0000
0000
0738
0420
0420
0460
0740
0040
00E0
0000
0000
0000
ENDCHAR
STARTCHAR cyr-sha
ENCODING 219
SWIDTH 562 0
DWIDTH 9 0
BBX 14 16 -1 -3
BITMAP
0000
0000
0000
0000
0000
0000
0EB8
0920
0920
0920
1240
1240
3FE0
0000
0000
0000
ENDCHAR
STARTCHAR cyr-shcha
ENCODING 221
SWIDTH 562 0
DWIDTH 9 0
BBX 14 16 -1 -3
BITMAP
0000
0000
0000
0000
0000
0000
0EB8
0920
0920
0920
1240
1240
3FE0
0040
0040
0000
ENDCHAR
STARTCHAR cyr-ier
ENCODING 223
SWIDTH 562 0
DWIDTH 9 0
BBX 14 16 -1 -3
BITMAP
0000
0000
0000
0000
0000
0000
0780
0A00
03E0
0210
0420
0420
0FC0
0000
0000
0000
ENDCHAR
STARTCHAR cyr-iery
ENCODING 217
SWIDTH 562 0
DWIDTH 9 0
BBX 14 16 -1 -3
BITMAP
0000
0000
0000
0000
0000
0000
0E38
0820
0F20
08A0
1140
1140
3EE0
0000
0000
0000
ENDCHAR
STARTCHAR cyr-ierik
ENCODING 216
SWIDTH 562 0
DWIDTH 9 0
BBX 14 16 -1 -3
BITMAP
0000
0000
0000
0000
0000
0000
0700
0400
07C0
0420
0840
0840
1F80
0000
0000
0000
ENDCHAR
STARTCHAR cyr-e-rev
ENCODING 220
SWIDTH 562 0
DWIDTH 9 0
BBX 14 16 -1 -3
BITMAP
0000
0000
0000
0000
0000
0000
03E0
0820
0020
03E0
0040
1040
0F80
0000
0000
0000
ENDCHAR
STARTCHAR cyr-yu
ENCODING 192
SWIDTH 562 0
DWIDTH 9 0
BBX 14 16 -1 -3
BITMAP
0000
0000
0000
0000
0000
0000
0E70
0910
0910
0F10
1220
1220
39C0
0000
0000
0000
ENDCHAR
STARTCHAR cyr-ya
ENCODING 209
SWIDTH 562 0
DWIDTH 9 0
BBX 14 16 -1 -3
BITMAP
0000
0000
0000
0000
0000
0000
01F8
0420
0420
03E0
0440
0840
18E0
0000
0000
0000
ENDCHAR
ENDFONT
