STARTFONT 2.1
COMMENT Copyright (C) 1990-1991 EWT Consulting
COMMENT Portions Copyright (C) 1994-1995 Cronyx Ltd.
COMMENT Changes Copyright (C) 1996 by Andrey A. Chernov, Moscow, Russia.
COMMENT Modified by Serge Vakulenko, <vak@cronyx.ru>
COMMENT This software may be used, modified, copied, distributed, and sold,
COMMENT in both source and binary form provided that the copyright
COMMENT and these terms are retained. Under no circumstances is the author
COMMENT responsible for the proper functioning of this software, nor does
COMMENT the author assume any responsibility for damages incurred with its use.
COMMENT $XFree86: xc/fonts/bdf/cyrillic/crox1ho.bdf,v 3.2 1996/09/01 12:17:49 dawes Exp $
FONT -Cronyx-Helvetica-Medium-O-Normal--11-80-100-100-P-46-KOI8-R
SIZE 8 96 96
FONTBOUNDINGBOX 15 13 -1 -2
STARTPROPERTIES 19
DEFAULT_CHAR 32
FONT_ASCENT 11
FONT_DESCENT 2
SPACING "P"
FONTNAME_REGISTRY ""
FOUNDRY "Cronyx"
FAMILY_NAME "Helvetica"
WEIGHT_NAME "Medium"
SLANT "O"
SETWIDTH_NAME "Normal"
ADD_STYLE_NAME ""
AVERAGE_WIDTH 46
CHARSET_REGISTRY "KOI8"
CHARSET_ENCODING "R"
PIXEL_SIZE 11
POINT_SIZE 80
RESOLUTION_X 100
RESOLUTION_Y 100
COPYRIGHT "Copyright (C) 1990, 1991 EWT Consulting, Portions Copyright (C) 1994 Cronyx Ltd., Portions Copyright (C) 1996 by Andrey A. Chernov, Moscow, Russia."
ENDPROPERTIES
CHARS 224
STARTCHAR space
ENCODING 32
SWIDTH 230 0
DWIDTH 3 0
BBX 7 13 -1 -2
BITMAP
00
00
00
00
00
00
00
00
00
00
00
00
00
ENDCHAR
STARTCHAR exclam
ENCODING 33
SWIDTH 230 0
DWIDTH 3 0
BBX 7 13 -1 -2
BITMAP
00
00
04
04
08
08
08
10
10
00
20
00
00
ENDCHAR
STARTCHAR quotedbl
ENCODING 34
SWIDTH 307 0
DWIDTH 4 0
BBX 8 13 -1 -2
BITMAP
00
00
05
05
0A
00
00
00
00
00
00
00
00
ENDCHAR
STARTCHAR numbersign
ENCODING 35
SWIDTH 461 0
DWIDTH 6 0
BBX 10 13 -1 -2
BITMAP
0000
0000
0280
0280
0F80
0500
0500
0A00
1F00
0A00
1400
0000
0000
ENDCHAR
STARTCHAR dollar
ENCODING 36
SWIDTH 461 0
DWIDTH 6 0
BBX 10 13 -1 -2
BITMAP
0000
0000
0100
0380
0A80
0A00
0600
0600
0500
1500
1C00
0800
0000
ENDCHAR
STARTCHAR percent
ENCODING 37
SWIDTH 615 0
DWIDTH 8 0
BBX 12 13 -1 -2
BITMAP
0000
0000
0300
0490
0640
0080
0100
0400
0980
1240
0300
0000
0000
ENDCHAR
STARTCHAR ampersand
ENCODING 38
SWIDTH 461 0
DWIDTH 6 0
BBX 10 13 -1 -2
BITMAP
0000
0000
0200
0500
0A00
0400
0400
1500
1200
1200
1A00
0000
0000
ENDCHAR
STARTCHAR quoteright
ENCODING 39
SWIDTH 153 0
DWIDTH 2 0
BBX 6 13 -1 -2
BITMAP
00
00
04
04
08
00
00
00
00
00
00
00
00
ENDCHAR
STARTCHAR parenleft
ENCODING 40
SWIDTH 230 0
DWIDTH 3 0
BBX 7 13 -1 -2
BITMAP
00
00
02
04
08
08
08
10
10
10
20
20
10
ENDCHAR
STARTCHAR parenright
ENCODING 41
SWIDTH 230 0
DWIDTH 3 0
BBX 7 13 -1 -2
BITMAP
00
00
04
02
04
04
04
08
08
08
10
10
20
ENDCHAR
STARTCHAR asterisk
ENCODING 42
SWIDTH 307 0
DWIDTH 4 0
BBX 8 13 -1 -2
BITMAP
00
00
00
05
04
0A
00
00
00
00
00
00
00
ENDCHAR
STARTCHAR plus
ENCODING 43
SWIDTH 461 0
DWIDTH 6 0
BBX 10 13 -1 -2
BITMAP
0000
0000
0000
0000
0000
0200
0200
1F00
0400
0400
0000
0000
0000
ENDCHAR
STARTCHAR comma
ENCODING 44
SWIDTH 230 0
DWIDTH 3 0
BBX 7 13 -1 -2
BITMAP
00
00
00
00
00
00
00
00
00
00
10
20
00
ENDCHAR
STARTCHAR minus
ENCODING 45
SWIDTH 230 0
DWIDTH 3 0
BBX 7 13 -1 -2
BITMAP
00
00
00
00
00
00
00
18
00
00
00
00
00
ENDCHAR
STARTCHAR period
ENCODING 46
SWIDTH 230 0
DWIDTH 3 0
BBX 7 13 -1 -2
BITMAP
00
00
00
00
00
00
00
00
00
00
20
00
00
ENDCHAR
STARTCHAR slash
ENCODING 47
SWIDTH 230 0
DWIDTH 3 0
BBX 7 13 -1 -2
BITMAP
00
00
02
02
04
04
04
10
10
10
20
00
00
ENDCHAR
STARTCHAR zero
ENCODING 48
SWIDTH 461 0
DWIDTH 6 0
BBX 10 13 -1 -2
BITMAP
0000
0000
0380
0440
0880
0880
0880
1100
1100
1100
1C00
0000
0000
ENDCHAR
STARTCHAR one
ENCODING 49
SWIDTH 461 0
DWIDTH 6 0
BBX 10 13 -1 -2
BITMAP
0000
0000
0100
0700
0200
0200
0200
0400
0400
0400
0800
0000
0000
ENDCHAR
STARTCHAR two
ENCODING 50
SWIDTH 461 0
DWIDTH 6 0
BBX 10 13 -1 -2
BITMAP
0000
0000
0380
0440
0080
0080
0100
0400
0800
1000
3E00
0000
0000
ENDCHAR
STARTCHAR three
ENCODING 51
SWIDTH 461 0
DWIDTH 6 0
BBX 10 13 -1 -2
BITMAP
0000
0000
0380
0440
0080
0080
0300
0100
0100
1100
1C00
0000
0000
ENDCHAR
STARTCHAR four
ENCODING 52
SWIDTH 461 0
DWIDTH 6 0
BBX 10 13 -1 -2
BITMAP
0000
0000
0080
0180
0300
0500
0500
1200
1F00
0200
0400
0000
0000
ENDCHAR
STARTCHAR five
ENCODING 53
SWIDTH 461 0
DWIDTH 6 0
BBX 10 13 -1 -2
BITMAP
0000
0000
07C0
0400
0800
0F00
0880
0100
0100
1100
1C00
0000
0000
ENDCHAR
STARTCHAR six
ENCODING 54
SWIDTH 461 0
DWIDTH 6 0
BBX 10 13 -1 -2
BITMAP
0000
0000
0380
0440
0800
0800
0F00
1100
1100
1100
1C00
0000
0000
ENDCHAR
STARTCHAR seven
ENCODING 55
SWIDTH 461 0
DWIDTH 6 0
BBX 10 13 -1 -2
BITMAP
0000
0000
07C0
0040
0100
0100
0200
0400
0800
0800
1000
0000
0000
ENDCHAR
STARTCHAR eight
ENCODING 56
SWIDTH 461 0
DWIDTH 6 0
BBX 10 13 -1 -2
BITMAP
0000
0000
0380
0440
0880
0880
0700
1100
1100
1100
1C00
0000
0000
ENDCHAR
STARTCHAR nine
ENCODING 57
SWIDTH 461 0
DWIDTH 6 0
BBX 10 13 -1 -2
BITMAP
0000
0000
0380
0440
0880
0880
0780
0100
0100
1100
1C00
0000
0000
ENDCHAR
STARTCHAR colon
ENCODING 58
SWIDTH 230 0
DWIDTH 3 0
BBX 7 13 -1 -2
BITMAP
00
00
00
00
00
08
00
00
00
00
20
00
00
ENDCHAR
STARTCHAR semicolon
ENCODING 59
SWIDTH 230 0
DWIDTH 3 0
BBX 7 13 -1 -2
BITMAP
00
00
00
00
00
04
00
00
00
00
10
20
00
ENDCHAR
STARTCHAR less
ENCODING 60
SWIDTH 461 0
DWIDTH 6 0
BBX 10 13 -1 -2
BITMAP
0000
0000
0000
0000
0100
0200
0400
1000
0800
0400
0400
0000
0000
ENDCHAR
STARTCHAR equal
ENCODING 61
SWIDTH 461 0
DWIDTH 6 0
BBX 10 13 -1 -2
BITMAP
0000
0000
0000
0000
0000
0000
0F80
0000
1F00
0000
0000
0000
0000
ENDCHAR
STARTCHAR greater
ENCODING 62
SWIDTH 461 0
DWIDTH 6 0
BBX 10 13 -1 -2
BITMAP
0000
0000
0000
0000
0800
0400
0200
0200
0400
0800
2000
0000
0000
ENDCHAR
STARTCHAR question
ENCODING 63
SWIDTH 461 0
DWIDTH 6 0
BBX 10 13 -1 -2
BITMAP
0000
0000
0380
0440
0080
0080
0100
0400
0400
0000
0800
0000
0000
ENDCHAR
STARTCHAR at
ENCODING 64
SWIDTH 846 0
DWIDTH 11 0
BBX 15 13 -1 -2
BITMAP
0000
0000
00F0
030C
0408
08E4
0924
1248
11B8
0800
1800
07C0
0000
ENDCHAR
STARTCHAR A
ENCODING 65
SWIDTH 538 0
DWIDTH 7 0
BBX 11 13 -1 -2
BITMAP
0000
0000
0100
0100
0500
0500
0880
1100
1F00
2080
4100
0000
0000
ENDCHAR
STARTCHAR B
ENCODING 66
SWIDTH 538 0
DWIDTH 7 0
BBX 11 13 -1 -2
BITMAP
0000
0000
0780
0440
0880
0880
0F00
1100
1100
1100
3C00
0000
0000
ENDCHAR
STARTCHAR C
ENCODING 67
SWIDTH 538 0
DWIDTH 7 0
BBX 11 13 -1 -2
BITMAP
0000
0000
03C0
0420
0800
0800
0800
1000
1000
1080
1E00
0000
0000
ENDCHAR
STARTCHAR D
ENCODING 68
SWIDTH 615 0
DWIDTH 8 0
BBX 12 13 -1 -2
BITMAP
0000
0000
0780
0440
0840
0840
0840
1080
1080
1100
3C00
0000
0000
ENDCHAR
STARTCHAR E
ENCODING 69
SWIDTH 538 0
DWIDTH 7 0
BBX 11 13 -1 -2
BITMAP
0000
0000
07C0
0400
0800
0800
0F00
1000
1000
1000
3E00
0000
0000
ENDCHAR
STARTCHAR F
ENCODING 70
SWIDTH 461 0
DWIDTH 6 0
BBX 10 13 -1 -2
BITMAP
0000
0000
07C0
0400
0800
0800
0F00
1000
1000
1000
2000
0000
0000
ENDCHAR
STARTCHAR G
ENCODING 71
SWIDTH 615 0
DWIDTH 8 0
BBX 12 13 -1 -2
BITMAP
0000
0000
03C0
0420
0800
0800
09C0
1080
1080
1180
1D00
0000
0000
ENDCHAR
STARTCHAR H
ENCODING 72
SWIDTH 615 0
DWIDTH 8 0
BBX 12 13 -1 -2
BITMAP
0000
0000
0420
0420
0840
0840
0FC0
1080
1080
1080
2100
0000
0000
ENDCHAR
STARTCHAR I
ENCODING 73
SWIDTH 230 0
DWIDTH 3 0
BBX 7 13 -1 -2
BITMAP
00
00
04
04
08
08
08
10
10
10
20
00
00
ENDCHAR
STARTCHAR J
ENCODING 74
SWIDTH 384 0
DWIDTH 5 0
BBX 9 13 -1 -2
BITMAP
0000
0000
0100
0100
0200
0200
0200
0400
2400
2400
3000
0000
0000
ENDCHAR
STARTCHAR K
ENCODING 75
SWIDTH 538 0
DWIDTH 7 0
BBX 11 13 -1 -2
BITMAP
0000
0000
0440
0480
0A00
0C00
0C00
1400
1200
1100
2100
0000
0000
ENDCHAR
STARTCHAR L
ENCODING 76
SWIDTH 461 0
DWIDTH 6 0
BBX 10 13 -1 -2
BITMAP
0000
0000
0400
0400
0800
0800
0800
1000
1000
1000
3E00
0000
0000
ENDCHAR
STARTCHAR M
ENCODING 77
SWIDTH 692 0
DWIDTH 9 0
BBX 13 13 -1 -2
BITMAP
0000
0000
0410
0410
0C60
0C60
0AA0
1540
1240
1240
2080
0000
0000
ENDCHAR
STARTCHAR N
ENCODING 78
SWIDTH 615 0
DWIDTH 8 0
BBX 12 13 -1 -2
BITMAP
0000
0000
0420
0620
0C40
0A40
0A40
1280
1180
1180
2100
0000
0000
ENDCHAR
STARTCHAR O
ENCODING 79
SWIDTH 615 0
DWIDTH 8 0
BBX 12 13 -1 -2
BITMAP
0000
0000
03C0
0420
0840
0840
0840
1080
1080
1080
1E00
0000
0000
ENDCHAR
STARTCHAR P
ENCODING 80
SWIDTH 538 0
DWIDTH 7 0
BBX 11 13 -1 -2
BITMAP
0000
0000
07C0
0420
0840
0840
0F80
1000
1000
1000
2000
0000
0000
ENDCHAR
STARTCHAR Q
ENCODING 81
SWIDTH 615 0
DWIDTH 8 0
BBX 12 13 -1 -2
BITMAP
0000
0000
03C0
0420
0840
0840
0840
1080
1280
1180
1E00
0100
0000
ENDCHAR
STARTCHAR R
ENCODING 82
SWIDTH 615 0
DWIDTH 8 0
BBX 12 13 -1 -2
BITMAP
0000
0000
07C0
0420
0840
0840
0F80
1080
1080
1080
2100
0000
0000
ENDCHAR
STARTCHAR S
ENCODING 83
SWIDTH 538 0
DWIDTH 7 0
BBX 11 13 -1 -2
BITMAP
0000
0000
0380
0440
0800
0800
0700
0100
0100
1100
1C00
0000
0000
ENDCHAR
STARTCHAR T
ENCODING 84
SWIDTH 538 0
DWIDTH 7 0
BBX 11 13 -1 -2
BITMAP
0000
0000
07C0
0100
0200
0200
0200
0400
0400
0400
0800
0000
0000
ENDCHAR
STARTCHAR U
ENCODING 85
SWIDTH 615 0
DWIDTH 8 0
BBX 12 13 -1 -2
BITMAP
0000
0000
0420
0420
0840
0840
0840
1080
1080
1080
1E00
0000
0000
ENDCHAR
STARTCHAR V
ENCODING 86
SWIDTH 538 0
DWIDTH 7 0
BBX 11 13 -1 -2
BITMAP
0000
0000
0820
0820
0880
0880
0880
0A00
0A00
0400
0800
0000
0000
ENDCHAR
STARTCHAR W
ENCODING 87
SWIDTH 846 0
DWIDTH 11 0
BBX 15 13 -1 -2
BITMAP
0000
0000
0802
0802
0888
0888
0888
0AA0
0AA0
0440
0880
0000
0000
ENDCHAR
STARTCHAR X
ENCODING 88
SWIDTH 538 0
DWIDTH 7 0
BBX 11 13 -1 -2
BITMAP
0000
0000
0820
0820
0880
0500
0200
0A00
1100
2080
4100
0000
0000
ENDCHAR
STARTCHAR Y
ENCODING 89
SWIDTH 538 0
DWIDTH 7 0
BBX 11 13 -1 -2
BITMAP
0000
0000
0820
0820
0880
0500
0200
0400
0400
0400
0800
0000
0000
ENDCHAR
STARTCHAR Z
ENCODING 90
SWIDTH 538 0
DWIDTH 7 0
BBX 11 13 -1 -2
BITMAP
0000
0000
0FE0
0020
0080
0100
0200
0800
1000
2000
7F00
0000
0000
ENDCHAR
STARTCHAR bracketleft
ENCODING 91
SWIDTH 230 0
DWIDTH 3 0
BBX 7 13 -1 -2
BITMAP
00
00
06
04
08
08
08
10
10
10
20
20
30
ENDCHAR
STARTCHAR backslash
ENCODING 92
SWIDTH 230 0
DWIDTH 3 0
BBX 7 13 -1 -2
BITMAP
00
00
04
04
08
08
08
08
08
08
10
10
00
ENDCHAR
STARTCHAR bracketright
ENCODING 93
SWIDTH 230 0
DWIDTH 3 0
BBX 7 13 -1 -2
BITMAP
00
00
06
02
04
04
04
08
08
08
10
10
30
ENDCHAR
STARTCHAR asciicircum
ENCODING 94
SWIDTH 461 0
DWIDTH 6 0
BBX 10 13 -1 -2
BITMAP
0000
0100
0280
0440
0000
0000
0000
0000
0000
0000
0000
0000
0000
ENDCHAR
STARTCHAR underscore
ENCODING 95
SWIDTH 461 0
DWIDTH 6 0
BBX 10 13 -1 -2
BITMAP
0000
0000
0000
0000
0000
0000
0000
0000
0000
0000
0000
0000
7E00
ENDCHAR
STARTCHAR quoteleft
ENCODING 96
SWIDTH 230 0
DWIDTH 3 0
BBX 7 13 -1 -2
BITMAP
00
00
04
02
00
00
00
00
00
00
00
00
00
ENDCHAR
STARTCHAR a
ENCODING 97
SWIDTH 461 0
DWIDTH 6 0
BBX 10 13 -1 -2
BITMAP
0000
0000
0000
0000
0000
0700
0080
0F00
1100
1100
1E00
0000
0000
ENDCHAR
STARTCHAR b
ENCODING 98
SWIDTH 461 0
DWIDTH 6 0
BBX 10 13 -1 -2
BITMAP
0000
0000
0400
0400
0800
0F00
0880
1100
1100
1100
3C00
0000
0000
ENDCHAR
STARTCHAR c
ENCODING 99
SWIDTH 461 0
DWIDTH 6 0
BBX 10 13 -1 -2
BITMAP
0000
0000
0000
0000
0000
0700
0880
1000
1000
1100
1C00
0000
0000
ENDCHAR
STARTCHAR d
ENCODING 100
SWIDTH 461 0
DWIDTH 6 0
BBX 10 13 -1 -2
BITMAP
0000
0000
0040
0040
0080
0780
0880
1100
1100
1100
1E00
0000
0000
ENDCHAR
STARTCHAR e
ENCODING 101
SWIDTH 461 0
DWIDTH 6 0
BBX 10 13 -1 -2
BITMAP
0000
0000
0000
0000
0000
0700
0880
1F00
1000
1100
1C00
0000
0000
ENDCHAR
STARTCHAR f
ENCODING 102
SWIDTH 230 0
DWIDTH 3 0
BBX 7 13 -1 -2
BITMAP
00
00
02
04
08
0C
08
10
10
10
20
00
00
ENDCHAR
STARTCHAR g
ENCODING 103
SWIDTH 461 0
DWIDTH 6 0
BBX 10 13 -1 -2
BITMAP
0000
0000
0000
0000
0000
0780
0880
1100
1100
1100
1E00
0200
3C00
ENDCHAR
STARTCHAR h
ENCODING 104
SWIDTH 461 0
DWIDTH 6 0
BBX 10 13 -1 -2
BITMAP
0000
0000
0400
0400
0800
0B00
0C80
1100
1100
1100
2200
0000
0000
ENDCHAR
STARTCHAR i
ENCODING 105
SWIDTH 153 0
DWIDTH 2 0
BBX 6 13 -1 -2
BITMAP
00
00
04
00
00
08
08
10
10
10
20
00
00
ENDCHAR
STARTCHAR j
ENCODING 106
SWIDTH 153 0
DWIDTH 2 0
BBX 6 13 -1 -2
BITMAP
00
00
04
00
00
08
08
10
10
10
20
20
20
ENDCHAR
STARTCHAR k
ENCODING 107
SWIDTH 461 0
DWIDTH 6 0
BBX 10 13 -1 -2
BITMAP
0000
0000
0400
0400
0800
0900
0A00
1800
1400
1200
2200
0000
0000
ENDCHAR
STARTCHAR l
ENCODING 108
SWIDTH 153 0
DWIDTH 2 0
BBX 6 13 -1 -2
BITMAP
00
00
04
04
08
08
08
10
10
10
20
00
00
ENDCHAR
STARTCHAR m
ENCODING 109
SWIDTH 615 0
DWIDTH 8 0
BBX 12 13 -1 -2
BITMAP
0000
0000
0000
0000
0000
0EC0
0920
1240
1240
1240
2480
0000
0000
ENDCHAR
STARTCHAR n
ENCODING 110
SWIDTH 461 0
DWIDTH 6 0
BBX 10 13 -1 -2
BITMAP
0000
0000
0000
0000
0000
0B00
0C80
1100
1100
1100
2200
0000
0000
ENDCHAR
STARTCHAR o
ENCODING 111
SWIDTH 461 0
DWIDTH 6 0
BBX 10 13 -1 -2
BITMAP
0000
0000
0000
0000
0000
0700
0880
1100
1100
1100
1C00
0000
0000
ENDCHAR
STARTCHAR p
ENCODING 112
SWIDTH 461 0
DWIDTH 6 0
BBX 10 13 -1 -2
BITMAP
0000
0000
0000
0000
0000
0F00
0880
1100
1100
1100
3C00
2000
2000
ENDCHAR
STARTCHAR q
ENCODING 113
SWIDTH 461 0
DWIDTH 6 0
BBX 10 13 -1 -2
BITMAP
0000
0000
0000
0000
0000
0780
0880
1100
1100
1100
1E00
0200
0200
ENDCHAR
STARTCHAR r
ENCODING 114
SWIDTH 230 0
DWIDTH 3 0
BBX 7 13 -1 -2
BITMAP
00
00
00
00
00
0C
08
10
10
10
20
00
00
ENDCHAR
STARTCHAR s
ENCODING 115
SWIDTH 384 0
DWIDTH 5 0
BBX 9 13 -1 -2
BITMAP
0000
0000
0000
0000
0000
0600
0900
0800
0400
1200
1800
0000
0000
ENDCHAR
STARTCHAR t
ENCODING 116
SWIDTH 230 0
DWIDTH 3 0
BBX 7 13 -1 -2
BITMAP
00
00
00
04
08
0C
08
10
10
10
10
00
00
ENDCHAR
STARTCHAR u
ENCODING 117
SWIDTH 461 0
DWIDTH 6 0
BBX 10 13 -1 -2
BITMAP
0000
0000
0000
0000
0000
0880
0880
1100
1100
1300
1A00
0000
0000
ENDCHAR
STARTCHAR v
ENCODING 118
SWIDTH 461 0
DWIDTH 6 0
BBX 10 13 -1 -2
BITMAP
0000
0000
0000
0000
0000
0880
0880
0A00
0A00
0400
0800
0000
0000
ENDCHAR
STARTCHAR w
ENCODING 119
SWIDTH 615 0
DWIDTH 8 0
BBX 12 13 -1 -2
BITMAP
0000
0000
0000
0000
0000
0920
0920
1540
1540
0880
1100
0000
0000
ENDCHAR
STARTCHAR x
ENCODING 120
SWIDTH 384 0
DWIDTH 5 0
BBX 9 13 -1 -2
BITMAP
0000
0000
0000
0000
0000
0900
0900
0C00
0C00
1200
2400
0000
0000
ENDCHAR
STARTCHAR y
ENCODING 121
SWIDTH 384 0
DWIDTH 5 0
BBX 9 13 -1 -2
BITMAP
0000
0000
0000
0000
0000
0900
0900
1200
1200
0C00
1000
1000
6000
ENDCHAR
STARTCHAR z
ENCODING 122
SWIDTH 384 0
DWIDTH 5 0
BBX 9 13 -1 -2
BITMAP
0000
0000
0000
0000
0000
0F00
0100
0400
0800
1000
3C00
0000
0000
ENDCHAR
STARTCHAR braceleft
ENCODING 123
SWIDTH 307 0
DWIDTH 4 0
BBX 8 13 -1 -2
BITMAP
00
01
02
02
04
04
08
08
08
08
10
08
00
ENDCHAR
STARTCHAR bar
ENCODING 124
SWIDTH 153 0
DWIDTH 2 0
BBX 6 13 -1 -2
BITMAP
00
00
04
04
08
08
08
10
10
10
20
20
00
ENDCHAR
STARTCHAR braceright
ENCODING 125
SWIDTH 307 0
DWIDTH 4 0
BBX 8 13 -1 -2
BITMAP
00
04
02
02
04
04
02
08
08
08
10
20
00
ENDCHAR
STARTCHAR asciitilde
ENCODING 126
SWIDTH 461 0
DWIDTH 6 0
BBX 10 13 -1 -2
BITMAP
0000
0000
0000
0340
0B00
0000
0000
0000
0000
0000
0000
0000
0000
ENDCHAR
STARTCHAR C177
ENCODING -1
SWIDTH 230 0
DWIDTH 3 0
BBX 7 13 -1 -2
BITMAP
00
00
00
06
0C
0C
0C
18
18
18
30
30
00
ENDCHAR
STARTCHAR C200
ENCODING -1
SWIDTH 230 0
DWIDTH 3 0
BBX 7 13 -1 -2
BITMAP
00
00
00
06
0C
0C
0C
18
18
18
30
30
00
ENDCHAR
STARTCHAR C201
ENCODING -1
SWIDTH 230 0
DWIDTH 3 0
BBX 7 13 -1 -2
BITMAP
00
00
00
06
0C
0C
0C
18
18
18
30
30
00
ENDCHAR
STARTCHAR C202
ENCODING -1
SWIDTH 230 0
DWIDTH 3 0
BBX 7 13 -1 -2
BITMAP
00
00
00
06
0C
0C
0C
18
18
18
30
30
00
ENDCHAR
STARTCHAR C203
ENCODING -1
SWIDTH 230 0
DWIDTH 3 0
BBX 7 13 -1 -2
BITMAP
00
00
00
06
0C
0C
0C
18
18
18
30
30
00
ENDCHAR
STARTCHAR C204
ENCODING -1
SWIDTH 230 0
DWIDTH 3 0
BBX 7 13 -1 -2
BITMAP
00
00
00
06
0C
0C
0C
18
18
18
30
30
00
ENDCHAR
STARTCHAR C205
ENCODING -1
SWIDTH 230 0
DWIDTH 3 0
BBX 7 13 -1 -2
BITMAP
00
00
00
06
0C
0C
0C
18
18
18
30
30
00
ENDCHAR
STARTCHAR C206
ENCODING -1
SWIDTH 230 0
DWIDTH 3 0
BBX 7 13 -1 -2
BITMAP
00
00
00
06
0C
0C
0C
18
18
18
30
30
00
ENDCHAR
STARTCHAR C207
ENCODING -1
SWIDTH 230 0
DWIDTH 3 0
BBX 7 13 -1 -2
BITMAP
00
00
00
06
0C
0C
0C
18
18
18
30
30
00
ENDCHAR
STARTCHAR C210
ENCODING -1
SWIDTH 230 0
DWIDTH 3 0
BBX 7 13 -1 -2
BITMAP
00
00
00
06
0C
0C
0C
18
18
18
30
30
00
ENDCHAR
STARTCHAR C211
ENCODING -1
SWIDTH 230 0
DWIDTH 3 0
BBX 7 13 -1 -2
BITMAP
00
00
00
06
0C
0C
0C
18
18
18
30
30
00
ENDCHAR
STARTCHAR C212
ENCODING -1
SWIDTH 230 0
DWIDTH 3 0
BBX 7 13 -1 -2
BITMAP
00
00
00
06
0C
0C
0C
18
18
18
30
30
00
ENDCHAR
STARTCHAR C213
ENCODING -1
SWIDTH 230 0
DWIDTH 3 0
BBX 7 13 -1 -2
BITMAP
00
00
00
06
0C
0C
0C
18
18
18
30
30
00
ENDCHAR
STARTCHAR C214
ENCODING -1
SWIDTH 230 0
DWIDTH 3 0
BBX 7 13 -1 -2
BITMAP
00
00
00
06
0C
0C
0C
18
18
18
30
30
00
ENDCHAR
STARTCHAR C215
ENCODING -1
SWIDTH 230 0
DWIDTH 3 0
BBX 7 13 -1 -2
BITMAP
00
00
00
06
0C
0C
0C
18
18
18
30
30
00
ENDCHAR
STARTCHAR C216
ENCODING -1
SWIDTH 230 0
DWIDTH 3 0
BBX 7 13 -1 -2
BITMAP
00
00
00
06
0C
0C
0C
18
18
18
30
30
00
ENDCHAR
STARTCHAR C217
ENCODING -1
SWIDTH 230 0
DWIDTH 3 0
BBX 7 13 -1 -2
BITMAP
00
00
00
06
0C
0C
0C
18
18
18
30
30
00
ENDCHAR
STARTCHAR C220
ENCODING -1
SWIDTH 230 0
DWIDTH 3 0
BBX 7 13 -1 -2
BITMAP
00
00
00
06
0C
0C
0C
18
18
18
30
30
00
ENDCHAR
STARTCHAR C221
ENCODING -1
SWIDTH 230 0
DWIDTH 3 0
BBX 7 13 -1 -2
BITMAP
00
00
00
02
08
00
00
00
00
00
00
00
00
ENDCHAR
STARTCHAR C222
ENCODING -1
SWIDTH 230 0
DWIDTH 3 0
BBX 7 13 -1 -2
BITMAP
00
00
00
02
08
00
00
00
00
00
00
00
00
ENDCHAR
STARTCHAR C223
ENCODING -1
SWIDTH 230 0
DWIDTH 3 0
BBX 7 13 -1 -2
BITMAP
00
00
00
06
0C
0C
0C
18
18
18
30
30
00
ENDCHAR
STARTCHAR C224
ENCODING -1
SWIDTH 230 0
DWIDTH 3 0
BBX 7 13 -1 -2
BITMAP
00
00
00
06
0C
0C
0C
18
18
18
30
30
00
ENDCHAR
STARTCHAR C225
ENCODING -1
SWIDTH 230 0
DWIDTH 3 0
BBX 7 13 -1 -2
BITMAP
00
00
00
06
0C
0C
0C
18
18
18
30
30
00
ENDCHAR
STARTCHAR C226
ENCODING -1
SWIDTH 230 0
DWIDTH 3 0
BBX 7 13 -1 -2
BITMAP
00
00
00
06
0C
0C
0C
18
18
18
30
30
00
ENDCHAR
STARTCHAR C227
ENCODING -1
SWIDTH 230 0
DWIDTH 3 0
BBX 7 13 -1 -2
BITMAP
00
00
00
06
0C
0C
0C
18
18
18
30
30
00
ENDCHAR
STARTCHAR C230
ENCODING -1
SWIDTH 230 0
DWIDTH 3 0
BBX 7 13 -1 -2
BITMAP
00
00
00
06
0C
0C
0C
18
18
18
30
30
00
ENDCHAR
STARTCHAR C231
ENCODING -1
SWIDTH 230 0
DWIDTH 3 0
BBX 7 13 -1 -2
BITMAP
00
00
00
06
0C
0C
0C
18
18
18
30
30
00
ENDCHAR
STARTCHAR C232
ENCODING -1
SWIDTH 230 0
DWIDTH 3 0
BBX 7 13 -1 -2
BITMAP
00
00
00
06
0C
0C
0C
18
18
18
30
30
00
ENDCHAR
STARTCHAR C233
ENCODING -1
SWIDTH 230 0
DWIDTH 3 0
BBX 7 13 -1 -2
BITMAP
00
00
00
06
0C
0C
0C
18
18
18
30
30
00
ENDCHAR
STARTCHAR C234
ENCODING 176
SWIDTH 230 0
DWIDTH 3 0
BBX 7 13 -1 -2
BITMAP
00
00
00
06
0C
0C
0C
18
18
18
30
30
00
ENDCHAR
STARTCHAR C235
ENCODING 178
SWIDTH 230 0
DWIDTH 3 0
BBX 7 13 -1 -2
BITMAP
00
00
00
06
0C
0C
0C
18
18
18
30
30
00
ENDCHAR
STARTCHAR C236
ENCODING -1
SWIDTH 230 0
DWIDTH 3 0
BBX 7 13 -1 -2
BITMAP
00
00
00
06
0C
0C
0C
18
18
18
30
30
00
ENDCHAR
STARTCHAR C237
ENCODING -1
SWIDTH 230 0
DWIDTH 3 0
BBX 7 13 -1 -2
BITMAP
00
00
00
06
0C
0C
0C
18
18
18
30
30
00
ENDCHAR
STARTCHAR C240
ENCODING 160
SWIDTH 230 0
DWIDTH 3 0
BBX 7 13 -1 -2
BITMAP
00
00
00
00
00
00
00
00
00
00
00
00
00
ENDCHAR
STARTCHAR exclamdown
ENCODING 161
SWIDTH 230 0
DWIDTH 3 0
BBX 7 13 -1 -2
BITMAP
00
00
00
00
08
00
08
10
10
10
20
20
20
ENDCHAR
STARTCHAR cent
ENCODING 162
SWIDTH 461 0
DWIDTH 6 0
BBX 10 13 -1 -2
BITMAP
0000
0000
0000
0000
0100
0700
0880
1000
1000
1100
1C00
1000
0000
ENDCHAR
STARTCHAR sterling
ENCODING 163
SWIDTH 461 0
DWIDTH 6 0
BBX 10 13 -1 -2
BITMAP
0000
0000
0300
0480
0800
0400
0E00
0800
1000
1000
3E00
0000
0000
ENDCHAR
STARTCHAR currency
ENCODING 164
SWIDTH 461 0
DWIDTH 6 0
BBX 10 13 -1 -2
BITMAP
0000
0000
0440
0380
0880
0880
0880
0E00
1100
0000
0000
0000
0000
ENDCHAR
STARTCHAR yen
ENCODING 165
SWIDTH 461 0
DWIDTH 6 0
BBX 10 13 -1 -2
BITMAP
0000
0000
0440
0440
0880
0500
0F80
0400
1F00
0400
0800
0000
0000
ENDCHAR
STARTCHAR brokenbar
ENCODING 166
SWIDTH 153 0
DWIDTH 2 0
BBX 6 13 -1 -2
BITMAP
00
00
04
04
08
08
08
00
10
10
20
20
20
ENDCHAR
STARTCHAR section
ENCODING 167
SWIDTH 461 0
DWIDTH 6 0
BBX 10 13 -1 -2
BITMAP
0000
0000
0380
0440
0400
0A00
0900
0900
0500
0200
2200
1C00
0000
ENDCHAR
STARTCHAR dieresis
ENCODING 168
SWIDTH 230 0
DWIDTH 3 0
BBX 7 13 -1 -2
BITMAP
00
00
00
0A
00
00
00
00
00
00
00
00
00
ENDCHAR
STARTCHAR copyright
ENCODING 191
SWIDTH 615 0
DWIDTH 8 0
BBX 12 13 -1 -2
BITMAP
0000
0000
01C0
0220
09A0
0A20
09A0
0880
0700
0000
0000
0000
0000
ENDCHAR
STARTCHAR ordfeminine
ENCODING 170
SWIDTH 307 0
DWIDTH 4 0
BBX 8 13 -1 -2
BITMAP
00
00
06
03
0A
0E
00
1C
00
00
00
00
00
ENDCHAR
STARTCHAR guillemotleft
ENCODING 171
SWIDTH 461 0
DWIDTH 6 0
BBX 10 13 -1 -2
BITMAP
0000
0000
0000
0000
0000
0000
0280
0A00
1400
0A00
0A00
0000
0000
ENDCHAR
STARTCHAR logicalnot
ENCODING 172
SWIDTH 461 0
DWIDTH 6 0
BBX 10 13 -1 -2
BITMAP
0000
0000
0000
0000
0000
0000
0000
1F00
0100
0000
0000
0000
0000
ENDCHAR
STARTCHAR hyphen
ENCODING 173
SWIDTH 230 0
DWIDTH 3 0
BBX 7 13 -1 -2
BITMAP
00
00
00
00
00
00
0C
00
00
00
00
00
00
ENDCHAR
STARTCHAR registered
ENCODING 174
SWIDTH 615 0
DWIDTH 8 0
BBX 12 13 -1 -2
BITMAP
0000
0000
01C0
0220
0BA0
0B20
0AA0
0880
0700
0000
0000
0000
0000
ENDCHAR
STARTCHAR macron
ENCODING 175
SWIDTH 461 0
DWIDTH 6 0
BBX 10 13 -1 -2
BITMAP
0000
0FC0
0000
0000
0000
0000
0000
0000
0000
0000
0000
0000
0000
ENDCHAR
STARTCHAR degree
ENCODING 156
SWIDTH 307 0
DWIDTH 4 0
BBX 8 13 -1 -2
BITMAP
00
00
02
05
04
00
00
00
00
00
00
00
00
ENDCHAR
STARTCHAR plusminus
ENCODING 177
SWIDTH 461 0
DWIDTH 6 0
BBX 10 13 -1 -2
BITMAP
0000
0000
0000
0000
0200
0200
0F80
0400
0400
0000
3E00
0000
0000
ENDCHAR
STARTCHAR twosuperior
ENCODING 157
SWIDTH 230 0
DWIDTH 3 0
BBX 7 13 -1 -2
BITMAP
00
00
0C
02
08
10
1C
00
00
00
00
00
00
ENDCHAR
STARTCHAR threesuperior
ENCODING 179
SWIDTH 230 0
DWIDTH 3 0
BBX 7 13 -1 -2
BITMAP
00
00
0C
02
08
04
18
00
00
00
00
00
00
ENDCHAR
STARTCHAR acute
ENCODING 180
SWIDTH 230 0
DWIDTH 3 0
BBX 7 13 -1 -2
BITMAP
00
00
02
04
00
00
00
00
00
00
00
00
00
ENDCHAR
STARTCHAR mu
ENCODING 181
SWIDTH 461 0
DWIDTH 6 0
BBX 10 13 -1 -2
BITMAP
0000
0000
0000
0000
0000
0900
0900
1200
1200
1200
3A00
2000
2000
ENDCHAR
STARTCHAR paragraph
ENCODING 182
SWIDTH 461 0
DWIDTH 6 0
BBX 10 13 -1 -2
BITMAP
0000
0000
03C0
07C0
0F80
0F80
0780
0500
0500
0500
0A00
0A00
0000
ENDCHAR
STARTCHAR periodcentered
ENCODING 183
SWIDTH 230 0
DWIDTH 3 0
BBX 7 13 -1 -2
BITMAP
00
00
00
00
00
00
08
00
00
00
00
00
00
ENDCHAR
STARTCHAR cedilla
ENCODING 184
SWIDTH 230 0
DWIDTH 3 0
BBX 7 13 -1 -2
BITMAP
00
00
00
00
00
00
00
00
00
00
00
10
30
ENDCHAR
STARTCHAR onesuperior
ENCODING 185
SWIDTH 230 0
DWIDTH 3 0
BBX 7 13 -1 -2
BITMAP
00
00
02
06
04
04
04
00
00
00
00
00
00
ENDCHAR
STARTCHAR ordmasculine
ENCODING 186
SWIDTH 307 0
DWIDTH 4 0
BBX 8 13 -1 -2
BITMAP
00
00
07
05
0A
0E
00
1C
00
00
00
00
00
ENDCHAR
STARTCHAR guillemotright
ENCODING 187
SWIDTH 461 0
DWIDTH 6 0
BBX 10 13 -1 -2
BITMAP
0000
0000
0000
0000
0000
0000
0A00
0A00
0500
0A00
2800
0000
0000
ENDCHAR
STARTCHAR onequarter
ENCODING 188
SWIDTH 615 0
DWIDTH 8 0
BBX 12 13 -1 -2
BITMAP
0000
0000
0200
0610
0440
0480
0520
04C0
0940
11C0
0080
0000
0000
ENDCHAR
STARTCHAR onehalf
ENCODING 189
SWIDTH 615 0
DWIDTH 8 0
BBX 12 13 -1 -2
BITMAP
0000
0000
0200
0610
0440
0480
05C0
0440
0880
1100
0380
0000
0000
ENDCHAR
STARTCHAR threequarters
ENCODING 190
SWIDTH 615 0
DWIDTH 8 0
BBX 12 13 -1 -2
BITMAP
0000
0000
0600
0110
0440
0280
0D20
04C0
0940
11C0
0080
0000
0000
ENDCHAR
STARTCHAR questiondown
ENCODING 169
SWIDTH 461 0
DWIDTH 6 0
BBX 10 13 -1 -2
BITMAP
0000
0000
0000
0000
0200
0000
0200
0400
0800
1000
2000
2200
1C00
ENDCHAR
STARTCHAR cyr-A
ENCODING 225
SWIDTH 538 0
DWIDTH 7 0
BBX 11 13 -1 -2
BITMAP
0000
0000
0100
0100
0500
0500
0880
1100
1F00
2080
4100
0000
0000
ENDCHAR
STARTCHAR cyr-Be
ENCODING 226
SWIDTH 538 0
DWIDTH 7 0
BBX 11 13 -1 -2
BITMAP
0000
0000
07C0
0400
0800
0800
0F00
1100
1100
1100
3C00
0000
0000
ENDCHAR
STARTCHAR cyr-Ve
ENCODING 247
SWIDTH 538 0
DWIDTH 7 0
BBX 11 13 -1 -2
BITMAP
0000
0000
0780
0440
0880
0880
0F00
1100
1100
1100
3C00
0000
0000
ENDCHAR
STARTCHAR cyr-Ghe
ENCODING 231
SWIDTH 538 0
DWIDTH 7 0
BBX 11 13 -1 -2
BITMAP
0000
0000
07C0
0400
0800
0800
0800
1000
1000
1000
2000
0000
0000
ENDCHAR
STARTCHAR cyr-De
ENCODING 228
SWIDTH 769 0
DWIDTH 10 0
BBX 14 13 -1 -2
BITMAP
0000
0000
01F0
0110
0220
0220
0220
0440
0440
0840
3FC0
2040
0000
ENDCHAR
STARTCHAR cyr-Ie
ENCODING 229
SWIDTH 538 0
DWIDTH 7 0
BBX 11 13 -1 -2
BITMAP
0000
0000
07C0
0400
0800
0800
0F00
1000
1000
1000
3E00
0000
0000
ENDCHAR
STARTCHAR cyr-Zhe
ENCODING 246
SWIDTH 846 0
DWIDTH 11 0
BBX 15 13 -1 -2
BITMAP
0000
0000
0842
0444
0490
02A0
03E0
0540
0920
1110
4210
0000
0000
ENDCHAR
STARTCHAR cyr-Ze
ENCODING 250
SWIDTH 538 0
DWIDTH 7 0
BBX 11 13 -1 -2
BITMAP
0000
0000
0380
0440
0080
0080
0700
0100
0100
1100
1C00
0000
0000
ENDCHAR
STARTCHAR cyr-I
ENCODING 233
SWIDTH 615 0
DWIDTH 8 0
BBX 12 13 -1 -2
BITMAP
0000
0000
0420
0460
08C0
0940
0A40
1480
1880
1880
2100
0000
0000
ENDCHAR
STARTCHAR cyr-I-short
ENCODING 234
SWIDTH 615 0
DWIDTH 8 0
BBX 12 13 -1 -2
BITMAP
0120
0180
0420
0460
08C0
0940
0A40
1480
1880
1880
2100
0000
0000
ENDCHAR
STARTCHAR cyr-Ka
ENCODING 235
SWIDTH 538 0
DWIDTH 7 0
BBX 11 13 -1 -2
BITMAP
0000
0000
0440
0480
0A00
0C00
0C00
1400
1200
1100
2100
0000
0000
ENDCHAR
STARTCHAR cyr-El
ENCODING 236
SWIDTH 692 0
DWIDTH 9 0
BBX 13 13 -1 -2
BITMAP
0000
0000
03F0
0210
0420
0420
0420
0840
0840
0840
2080
0000
0000
ENDCHAR
STARTCHAR cyr-Em
ENCODING 237
SWIDTH 692 0
DWIDTH 9 0
BBX 13 13 -1 -2
BITMAP
0000
0000
0410
0410
0C60
0C60
0AA0
1540
1240
1240
2080
0000
0000
ENDCHAR
STARTCHAR cyr-En
ENCODING 238
SWIDTH 615 0
DWIDTH 8 0
BBX 12 13 -1 -2
BITMAP
0000
0000
0420
0420
0840
0840
0FC0
1080
1080
1080
2100
0000
0000
ENDCHAR
STARTCHAR cyr-O
ENCODING 239
SWIDTH 615 0
DWIDTH 8 0
BBX 12 13 -1 -2
BITMAP
0000
0000
03C0
0420
0840
0840
0840
1080
1080
1080
1E00
0000
0000
ENDCHAR
STARTCHAR cyr-Pe
ENCODING 240
SWIDTH 615 0
DWIDTH 8 0
BBX 12 13 -1 -2
BITMAP
0000
0000
07E0
0420
0840
0840
0840
1080
1080
1080
2100
0000
0000
ENDCHAR
STARTCHAR cyr-Er
ENCODING 242
SWIDTH 538 0
DWIDTH 7 0
BBX 11 13 -1 -2
BITMAP
0000
0000
07C0
0420
0840
0840
0F80
1000
1000
1000
2000
0000
0000
ENDCHAR
STARTCHAR cyr-Es
ENCODING 243
SWIDTH 538 0
DWIDTH 7 0
BBX 11 13 -1 -2
BITMAP
0000
0000
03C0
0420
0800
0800
0800
1000
1000
1080
1E00
0000
0000
ENDCHAR
STARTCHAR cyr-Te
ENCODING 244
SWIDTH 538 0
DWIDTH 7 0
BBX 11 13 -1 -2
BITMAP
0000
0000
07C0
0100
0200
0200
0200
0400
0400
0400
0800
0000
0000
ENDCHAR
STARTCHAR cyr-U
ENCODING 245
SWIDTH 538 0
DWIDTH 7 0
BBX 11 13 -1 -2
BITMAP
0000
0000
0820
0820
0880
0500
0200
0400
0800
1000
4000
0000
0000
ENDCHAR
STARTCHAR cyr-Ef
ENCODING 230
SWIDTH 692 0
DWIDTH 9 0
BBX 13 13 -1 -2
BITMAP
0000
0000
03E0
0490
0920
0920
0920
1240
1240
0F80
0400
0000
0000
ENDCHAR
STARTCHAR cyr-Kha
ENCODING 232
SWIDTH 538 0
DWIDTH 7 0
BBX 11 13 -1 -2
BITMAP
0000
0000
0820
0820
0880
0500
0200
0A00
1100
2080
4100
0000
0000
ENDCHAR
STARTCHAR cyr-Tse
ENCODING 227
SWIDTH 615 0
DWIDTH 8 0
BBX 12 13 -1 -2
BITMAP
0000
0000
0420
0420
0840
0840
0840
1080
1080
1080
3F80
0080
0000
ENDCHAR
STARTCHAR cyr-Che
ENCODING 254
SWIDTH 615 0
DWIDTH 8 0
BBX 12 13 -1 -2
BITMAP
0000
0000
0420
0420
0840
0840
07C0
0080
0080
0080
0100
0000
0000
ENDCHAR
STARTCHAR cyr-Sha
ENCODING 251
SWIDTH 846 0
DWIDTH 11 0
BBX 15 13 -1 -2
BITMAP
0000
0000
0444
0444
0888
0888
0888
1110
1110
1110
3FE0
0000
0000
ENDCHAR
STARTCHAR cyr-Shcha
ENCODING 253
SWIDTH 846 0
DWIDTH 11 0
BBX 15 13 -1 -2
BITMAP
0000
0000
0444
0444
0888
0888
0888
1110
1110
1110
3FF0
0010
0000
ENDCHAR
STARTCHAR cyr-Ier
ENCODING 255
SWIDTH 615 0
DWIDTH 8 0
BBX 12 13 -1 -2
BITMAP
0000
0000
0E00
0200
0400
0400
07C0
0840
0840
0840
1F00
0000
0000
ENDCHAR
STARTCHAR cyr-Iery
ENCODING 249
SWIDTH 769 0
DWIDTH 10 0
BBX 14 13 -1 -2
BITMAP
0000
0000
0408
0408
0810
0810
0F90
10A0
10A0
10A0
3E40
0000
0000
ENDCHAR
STARTCHAR cyr-Ierik
ENCODING 248
SWIDTH 538 0
DWIDTH 7 0
BBX 11 13 -1 -2
BITMAP
0000
0000
0400
0400
0800
0800
0F80
1080
1080
1080
3E00
0000
0000
ENDCHAR
STARTCHAR cyr-E-rev
ENCODING 252
SWIDTH 615 0
DWIDTH 8 0
BBX 12 13 -1 -2
BITMAP
0000
0000
03C0
0420
0040
0040
03C0
0080
0080
1080
1E00
0000
0000
ENDCHAR
STARTCHAR cyr-Yu
ENCODING 224
SWIDTH 769 0
DWIDTH 10 0
BBX 14 13 -1 -2
BITMAP
0000
0000
04F0
0508
0A10
0A10
0E10
1420
1420
1420
2780
0000
0000
ENDCHAR
STARTCHAR cyr-Ya
ENCODING 241
SWIDTH 615 0
DWIDTH 8 0
BBX 12 13 -1 -2
BITMAP
0000
0000
03E0
0420
0840
0840
07C0
0280
0480
0880
2100
0000
0000
ENDCHAR
STARTCHAR cyr-a
ENCODING 193
SWIDTH 461 0
DWIDTH 6 0
BBX 10 13 -1 -2
BITMAP
0000
0000
0000
0000
0000
0700
0080
0F00
1100
1100
1E00
0000
0000
ENDCHAR
STARTCHAR cyr-be
ENCODING 194
SWIDTH 461 0
DWIDTH 6 0
BBX 10 13 -1 -2
BITMAP
0000
0000
0040
0380
0800
0F00
0880
1100
1100
1100
1C00
0000
0000
ENDCHAR
STARTCHAR cyr-ve
ENCODING 215
SWIDTH 461 0
DWIDTH 6 0
BBX 10 13 -1 -2
BITMAP
0000
0000
0000
0000
0000
0F00
0880
1E00
1100
1100
3C00
0000
0000
ENDCHAR
STARTCHAR cyr-ghe
ENCODING 199
SWIDTH 384 0
DWIDTH 5 0
BBX 9 13 -1 -2
BITMAP
0000
0000
0000
0000
0000
0F00
0800
1000
1000
1000
2000
0000
0000
ENDCHAR
STARTCHAR cyr-de
ENCODING 196
SWIDTH 538 0
DWIDTH 7 0
BBX 11 13 -1 -2
BITMAP
0000
0000
0000
0000
0000
0780
0480
0900
0900
0900
3F00
2100
0000
ENDCHAR
STARTCHAR cyr-ie
ENCODING 197
SWIDTH 461 0
DWIDTH 6 0
BBX 10 13 -1 -2
BITMAP
0000
0000
0000
0000
0000
0700
0880
1F00
1000
1100
1C00
0000
0000
ENDCHAR
STARTCHAR cyr-zhe
ENCODING 214
SWIDTH 615 0
DWIDTH 8 0
BBX 12 13 -1 -2
BITMAP
0000
0000
0000
0000
0000
0920
0540
0700
0A80
1240
2480
0000
0000
ENDCHAR
STARTCHAR cyr-z
ENCODING 218
SWIDTH 461 0
DWIDTH 6 0
BBX 10 13 -1 -2
BITMAP
0000
0000
0000
0000
0000
0700
0880
0600
0100
1100
1C00
0000
0000
ENDCHAR
STARTCHAR cyr-i
ENCODING 201
SWIDTH 461 0
DWIDTH 6 0
BBX 10 13 -1 -2
BITMAP
0000
0000
0000
0000
0000
0880
0880
1300
1500
1900
2200
0000
0000
ENDCHAR
STARTCHAR cyr-i-short
ENCODING 202
SWIDTH 461 0
DWIDTH 6 0
BBX 10 13 -1 -2
BITMAP
0000
0000
0000
0280
0200
0880
0880
1300
1500
1900
2200
0000
0000
ENDCHAR
STARTCHAR cyr-ka
ENCODING 203
SWIDTH 461 0
DWIDTH 6 0
BBX 10 13 -1 -2
BITMAP
0000
0000
0000
0000
0000
0900
0A00
1800
1400
1200
2200
0000
0000
ENDCHAR
STARTCHAR cyr-el
ENCODING 204
SWIDTH 538 0
DWIDTH 7 0
BBX 11 13 -1 -2
BITMAP
0000
0000
0000
0000
0000
07C0
0440
0880
0880
0880
2100
0000
0000
ENDCHAR
STARTCHAR cyr-em
ENCODING 205
SWIDTH 615 0
DWIDTH 8 0
BBX 12 13 -1 -2
BITMAP
0000
0000
0000
0000
0000
0820
0C60
1540
1240
1040
2080
2080
0000
ENDCHAR
STARTCHAR cyr-en
ENCODING 206
SWIDTH 461 0
DWIDTH 6 0
BBX 10 13 -1 -2
BITMAP
0000
0000
0000
0000
0000
0880
0880
1F00
1100
1100
2200
0000
0000
ENDCHAR
STARTCHAR cyr-o
ENCODING 207
SWIDTH 461 0
DWIDTH 6 0
BBX 10 13 -1 -2
BITMAP
0000
0000
0000
0000
0000
0700
0880
1100
1100
1100
1C00
0000
0000
ENDCHAR
STARTCHAR cyr-pe
ENCODING 208
SWIDTH 461 0
DWIDTH 6 0
BBX 10 13 -1 -2
BITMAP
0000
0000
0000
0000
0000
0F80
0880
1100
1100
1100
2200
0000
0000
ENDCHAR
STARTCHAR cyr-er
ENCODING 210
SWIDTH 461 0
DWIDTH 6 0
BBX 10 13 -1 -2
BITMAP
0000
0000
0000
0000
0000
0F00
0880
1100
1100
1100
3C00
2000
2000
ENDCHAR
STARTCHAR cyr-es
ENCODING 211
SWIDTH 461 0
DWIDTH 6 0
BBX 10 13 -1 -2
BITMAP
0000
0000
0000
0000
0000
0700
0880
1000
1000
1100
1C00
0000
0000
ENDCHAR
STARTCHAR cyr-te
ENCODING 212
SWIDTH 461 0
DWIDTH 6 0
BBX 10 13 -1 -2
BITMAP
0000
0000
0000
0000
0000
0F80
0200
0400
0400
0400
0800
0000
0000
ENDCHAR
STARTCHAR cyr-u
ENCODING 213
SWIDTH 384 0
DWIDTH 5 0
BBX 9 13 -1 -2
BITMAP
0000
0000
0000
0000
0000
0900
0900
1200
1200
0C00
1000
1000
6000
ENDCHAR
STARTCHAR cyr-ef
ENCODING 198
SWIDTH 461 0
DWIDTH 6 0
BBX 10 13 -1 -2
BITMAP
0000
0000
0000
0000
0200
0700
0A80
1500
1500
1500
1C00
0800
0800
ENDCHAR
STARTCHAR cyr-kha
ENCODING 200
SWIDTH 384 0
DWIDTH 5 0
BBX 9 13 -1 -2
BITMAP
0000
0000
0000
0000
0000
0900
0900
0C00
0C00
1200
2400
0000
0000
ENDCHAR
STARTCHAR cyr-tse
ENCODING 195
SWIDTH 538 0
DWIDTH 7 0
BBX 11 13 -1 -2
BITMAP
0000
0000
0000
0000
0000
0880
0880
1100
1100
1100
3F00
0100
0000
ENDCHAR
STARTCHAR cyr-che
ENCODING 222
SWIDTH 461 0
DWIDTH 6 0
BBX 10 13 -1 -2
BITMAP
0000
0000
0000
0000
0000
0880
0880
1100
0F00
0100
0200
0000
0000
ENDCHAR
STARTCHAR cyr-sha
ENCODING 219
SWIDTH 615 0
DWIDTH 8 0
BBX 12 13 -1 -2
BITMAP
0000
0000
0000
0000
0000
0920
0920
1240
1240
1240
3F80
0000
0000
ENDCHAR
STARTCHAR cyr-shcha
ENCODING 221
SWIDTH 692 0
DWIDTH 9 0
BBX 13 13 -1 -2
BITMAP
0000
0000
0000
0000
0000
0920
0920
1240
1240
1240
3FC0
0040
0000
ENDCHAR
STARTCHAR cyr-ier
ENCODING 223
SWIDTH 461 0
DWIDTH 6 0
BBX 10 13 -1 -2
BITMAP
0000
0000
0000
0000
0000
0C00
0400
0E00
0900
0900
1C00
0000
0000
ENDCHAR
STARTCHAR cyr-iery
ENCODING 217
SWIDTH 538 0
DWIDTH 7 0
BBX 11 13 -1 -2
BITMAP
0000
0000
0000
0000
0000
0840
0840
1C80
1280
1280
3900
0000
0000
ENDCHAR
STARTCHAR cyr-ierik
ENCODING 216
SWIDTH 384 0
DWIDTH 5 0
BBX 9 13 -1 -2
BITMAP
0000
0000
0000
0000
0000
0800
0800
1C00
1200
1200
3800
0000
0000
ENDCHAR
STARTCHAR cyr-e-rev
ENCODING 220
SWIDTH 384 0
DWIDTH 5 0
BBX 9 13 -1 -2
BITMAP
0000
0000
0000
0000
0000
0E00
0100
1E00
0200
0200
3800
0000
0000
ENDCHAR
STARTCHAR cyr-yu
ENCODING 192
SWIDTH 538 0
DWIDTH 7 0
BBX 11 13 -1 -2
BITMAP
0000
0000
0000
0000
0000
0980
0A40
1C80
1480
1480
2600
0000
0000
ENDCHAR
STARTCHAR cyr-ya
ENCODING 209
SWIDTH 384 0
DWIDTH 5 0
BBX 9 13 -1 -2
BITMAP
0000
0000
0000
0000
0000
0700
0900
1200
0E00
1200
2400
0000
0000
ENDCHAR
ENDFONT
